<svg width="67" height="67" viewBox="0 0 67 67" fill="none" xmlns="http://www.w3.org/2000/svg">
<g clip-path="url(#clip0_116_1346)">
<path d="M66.3205 35.8325C67.2265 35.3795 67.2265 33.9072 66.3205 33.4541C59.2985 29.6034 52.1633 26.0924 44.4619 24.0538C43.3293 23.8273 42.1967 25.0731 42.8763 26.0924C44.4619 28.3576 46.3872 30.283 48.6524 31.9818C32.7964 31.5288 24.5 30 8 31.9818C6.86743 32.2083 7.09394 34.1335 8.22669 34.0202C25 33.4541 33.2496 34.7 49.4454 34.9263C47.7465 36.8517 46.0476 38.777 44.3488 40.5892C43.556 41.3819 44.009 43.081 45.3681 42.9677C52.8429 42.0615 59.8648 39.5698 66.3205 35.8325ZM52.8429 34.5867C53.8622 33.9072 53.6357 31.9818 52.0501 31.9818C51.9368 31.9818 51.8236 31.9818 51.8236 31.9818C50.4645 30.6227 49.1054 29.3769 47.7463 27.9046C52.9561 29.7167 57.8262 31.9818 62.6962 34.5865C58.2792 36.8517 53.7489 38.5505 48.8789 39.4566C50.0115 38.2108 51.144 36.8517 52.3899 35.6057C52.8429 35.3795 52.9561 34.9263 52.8429 34.5867Z" fill="#006241"/>
</g>
<defs>
<clipPath id="clip0_116_1346">
<rect width="67" height="67" fill="white" transform="translate(67) rotate(90)"/>
</clipPath>
</defs>
</svg>
