<svg width="67" height="67" viewBox="0 0 67 67" fill="none" xmlns="http://www.w3.org/2000/svg">
<g clip-path="url(#clip0_126_8463)">
<path d="M0.679542 35.8325C-0.226513 35.3795 -0.226513 33.9072 0.679542 33.4541C7.70147 29.6034 14.8367 26.0924 22.5381 24.0538C23.6707 23.8273 24.8033 25.0731 24.1237 26.0924C22.5381 28.3576 20.6128 30.283 18.3476 31.9818C34.2036 31.5288 42.5 30 59 31.9818C60.1326 32.2083 59.9061 34.1335 58.7733 34.0202C42 33.4541 33.7504 34.7 17.5546 34.9263C19.2535 36.8517 20.9524 38.777 22.6512 40.5892C23.444 41.3819 22.991 43.081 21.6319 42.9677C14.1571 42.0615 7.13519 39.5698 0.679542 35.8325ZM14.1571 34.5867C13.1378 33.9072 13.3643 31.9818 14.9499 31.9818C15.0632 31.9818 15.1764 31.9818 15.1764 31.9818C16.5355 30.6227 17.8946 29.3769 19.2537 27.9046C14.0439 29.7167 9.17381 31.9818 4.30376 34.5865C8.72079 36.8517 13.2511 38.5505 18.1211 39.4566C16.9885 38.2108 15.856 36.8517 14.6101 35.6057C14.1571 35.3795 14.0439 34.9263 14.1571 34.5867Z" fill="#006241"/>
</g>
<defs>
<clipPath id="clip0_126_8463">
<rect width="67" height="67" fill="white" transform="matrix(4.37114e-08 1 1 -4.37114e-08 0 0)"/>
</clipPath>
</defs>
</svg>
