<svg width="32" height="33" viewBox="0 0 32 33" fill="none" xmlns="http://www.w3.org/2000/svg">
<path fill-rule="evenodd" clip-rule="evenodd" d="M18 16.1816C18 15.0771 17.1046 14.1816 16 14.1816C14.8954 14.1816 14 15.0771 14 16.1816C14 17.2862 14.8954 18.1816 16 18.1816C17.1046 18.1816 18 17.2862 18 16.1816ZM16 12.1816C18.2091 12.1816 20 13.9725 20 16.1816C20 18.3908 18.2091 20.1816 16 20.1816C13.7909 20.1816 12 18.3908 12 16.1816C12 13.9725 13.7909 12.1816 16 12.1816Z" fill="#1E8F37"/>
<path fill-rule="evenodd" clip-rule="evenodd" d="M28 16.1816C28 15.0771 27.1046 14.1816 26 14.1816C24.8954 14.1816 24 15.0771 24 16.1816C24 17.2862 24.8954 18.1816 26 18.1816C27.1046 18.1816 28 17.2862 28 16.1816ZM26 12.1816C28.2091 12.1816 30 13.9725 30 16.1816C30 18.3908 28.2091 20.1816 26 20.1816C23.7909 20.1816 22 18.3908 22 16.1816C22 13.9725 23.7909 12.1816 26 12.1816Z" fill="#1E8F37"/>
<path fill-rule="evenodd" clip-rule="evenodd" d="M8 16.1816C8 15.0771 7.10457 14.1816 6 14.1816C4.89543 14.1816 4 15.0771 4 16.1816C4 17.2862 4.89543 18.1816 6 18.1816C7.10457 18.1816 8 17.2862 8 16.1816ZM6 12.1816C8.20914 12.1816 10 13.9725 10 16.1816C10 18.3908 8.20914 20.1816 6 20.1816C3.79086 20.1816 2 18.3908 2 16.1816C2 13.9725 3.79086 12.1816 6 12.1816Z" fill="#1E8F37"/>
</svg>
