<svg width="136" height="160" viewBox="0 0 136 160" fill="none" xmlns="http://www.w3.org/2000/svg">
<path d="M74.1465 45.5344C67.1402 51.5527 61.0224 58.4526 55.4797 65.8298C53.1289 68.957 51.4636 72.525 49.8568 76.071C48.1944 79.7377 45.7093 83.6989 45.3649 87.749C45.2817 88.7307 46.4573 89.0868 47.1221 88.5508C49.7115 86.4678 50.7233 83.1556 52.0232 80.1893C53.7568 76.2298 55.5603 72.3561 57.8478 68.681C62.7054 60.8812 69.2127 53.6437 75.5769 47.0516C76.5106 46.0851 75.1692 44.6558 74.1465 45.5344Z" fill="#366D35"/>
<path d="M109.403 4.38103C100.335 23.004 86.6498 38.9535 72.6725 54.055C65.7252 61.5613 58.4186 68.7048 52.1928 76.8448C49.0363 80.9728 46.3145 85.3798 43.5283 89.7581C41.9142 92.2935 40.4231 94.9727 38.4413 97.2438C36.8124 99.1093 35.4372 100.777 34.0993 102.859C33.3393 104.043 35.0723 105.543 36.0385 104.448C37.5068 102.784 39.3023 101.414 40.8063 99.7516C42.4949 97.8848 43.7324 95.7114 45.0453 93.5782C47.9853 88.8004 50.822 83.9693 54.1025 79.4124C60.3825 70.6874 68.1581 63.1734 75.372 55.241C89.2303 40.0041 101.734 23.6243 110.371 4.8252C110.625 4.27241 109.669 3.83529 109.403 4.38103Z" fill="#5E8F3E"/>
<path d="M97.1705 36.495C91.2149 40.6731 86.6162 45.9828 82.05 51.5802C76.4466 58.4493 70.8277 65.2674 65.0278 71.9704C59.8561 77.9472 55.3823 84.3952 49.7623 89.9897C46.8721 92.868 43.8585 95.757 40.2825 97.7624C37.6629 99.2303 34.8575 100.336 33.576 103.209C33.0909 104.296 34.5382 105.323 35.4744 104.771C41.5571 101.189 47.0949 97.5158 52.1805 92.5539C57.8487 87.0214 62.3817 80.6026 67.487 74.5789C72.6334 68.5065 77.7288 62.4496 82.6887 56.2166C87.5867 50.0614 92.3435 43.3191 98.5651 38.4242C99.6278 37.5874 98.2845 35.713 97.1705 36.495Z" fill="#5E8F3E"/>
<path d="M92.2887 7.73555C86.3957 15.8419 81.5774 24.4359 74.4972 31.6185C67.4952 38.7213 61.498 46.1445 56.2701 54.6313C50.9662 63.2437 45.646 71.8467 41.5698 81.1251C39.8294 85.0885 38.8392 89.419 37.8185 93.6118C37.2688 95.8726 36.6116 98.0944 35.7848 100.27C35.0773 102.129 33.732 103.75 33.6503 105.773C33.6279 106.326 34.1753 106.562 34.629 106.385C37.7295 105.173 39.0415 100.331 40.0568 97.4608C41.5122 93.3449 42.3375 89.0424 43.7042 84.8975C46.9252 75.1304 53.1245 66.1111 58.4849 57.4196C61.2662 52.9115 63.9935 48.4685 67.3588 44.3626C70.5561 40.4629 74.0997 36.8592 77.543 33.1804C80.751 29.7547 83.5478 26.1699 86.0302 22.1802C88.7838 17.7554 90.8704 13.0137 93.79 8.67285C94.4312 7.71834 92.9542 6.822 92.2887 7.73555Z" fill="#5E8F3E"/>
<path d="M132.028 21.8876C126.052 30.1521 120.027 38.405 112.834 45.6661C105.473 53.0933 96.6371 58.7398 89.2364 66.1462C81.5334 73.856 73.5582 81.2501 65.6888 88.7893C61.8799 92.437 57.9456 96.0252 54.5199 100.044C53.0559 101.761 51.8576 103.667 50.3203 105.324C48.7546 107.012 47.0641 108.502 45.9509 110.543C44.9053 112.463 47.4909 114.022 48.7908 112.318C50.2228 110.44 51.8868 108.81 53.4816 107.076C55.2637 105.138 56.6357 102.858 58.3885 100.883C61.9556 96.8643 66.0149 93.2229 69.8805 89.4977C77.7006 81.9609 85.5258 74.4758 93.2066 66.7987C100.584 59.4259 109.396 53.8574 116.515 46.1802C123.114 39.0626 128.589 31.1421 133.153 22.5907C133.557 21.8347 132.531 21.1929 132.028 21.8876Z" fill="#5E8F3E"/>
<path d="M109.759 36.5892C104.273 43.2547 98.7167 49.9827 92.2406 55.7185C86.2135 61.0564 79.4429 65.4462 73.9049 71.3425C68.2606 77.3525 64.1373 84.7637 59.224 91.3538C56.4867 95.0251 53.5173 98.5039 50.8214 102.212C48.6936 105.137 45.6509 107.203 43.6132 110.206C42.5326 111.8 44.9296 113.152 46.0779 111.747C48.1227 109.242 51.0189 107.608 53.067 105.087C55.9517 101.534 58.7101 97.8536 61.4942 94.2201C66.8271 87.2617 70.9931 79.3696 76.9494 72.8985C82.4096 66.9664 89.2869 62.509 95.2492 57.1207C101.495 51.4761 106.543 44.7627 111.407 37.9406C112.109 36.9561 110.537 35.6441 109.759 36.5892Z" fill="#5E8F3E"/>
<path d="M108.873 66.0482C105.144 70.0458 100.504 73.0131 96.1529 76.2724C90.9712 80.1505 85.9899 84.2959 80.9142 88.3112C75.6949 92.44 70.4258 96.5103 65.3356 100.798C60.6142 104.776 54.5867 109.424 51.5685 114.896C50.4647 116.896 52.8751 118.872 54.6222 117.399C57.0317 115.366 58.9882 112.677 61.2189 110.429C63.4731 108.156 65.86 106.016 68.2729 103.915C73.2885 99.5482 78.567 95.4894 83.7107 91.2779C88.7108 87.1816 93.6125 82.958 98.7109 78.9855C103.076 75.582 107.366 72.0047 110.763 67.5973C111.619 66.4875 109.822 65.0312 108.873 66.0482Z" fill="#5E8F3E"/>
<path d="M97.7684 14.6817C95.335 17.4055 93.3345 20.379 91.3144 23.4136C88.5492 27.5657 85.2382 31.2368 81.7973 34.8329C75.0173 41.9205 68.1059 48.8813 61.3407 55.9819C55.2736 62.3508 49.6381 69.3678 45.701 77.2703C43.8084 81.0673 42.6406 85.1473 41.0619 89.0733C39.3256 93.394 36.9873 97.4125 34.313 101.212C33.2561 102.716 34.8566 104.274 36.3661 104.09C36.6942 104.051 37.0214 104.01 37.3487 103.972C38.7118 103.806 39.0175 101.679 37.8347 101.063C37.5402 100.911 37.2447 100.757 36.9492 100.604C37.1519 101.483 37.3546 102.362 37.5582 103.24C42.5721 96.2604 44.9761 88.6203 48.1952 80.7816C51.631 72.416 57.6952 65.117 63.7188 58.5044C70.069 51.5349 76.4959 44.6636 82.7711 37.6217C85.7525 34.2757 88.6659 30.8699 91.178 27.1508C93.7677 23.3173 95.3385 18.8528 98.3647 15.313C98.7221 14.895 98.1455 14.2598 97.7684 14.6817Z" fill="#99BF3C"/>
<path d="M80.2855 48.5576C72.1702 61.0387 62.3552 72.4278 53.3318 84.2465C49.7116 88.9877 46.2618 93.8784 41.4638 97.4904C39.8203 98.7285 33.9687 101.884 34.9091 104.626C35.3518 105.915 37.0215 105.74 37.2315 104.411C37.2823 104.084 39.6107 102.287 40.2823 101.749C41.953 100.409 43.7025 99.1732 45.3751 97.8369C49.6825 94.3955 52.9022 88.9912 56.165 84.6159C64.8564 72.9637 73.5671 61.5158 80.9556 48.975C81.2146 48.5374 80.5633 48.13 80.2855 48.5576Z" fill="#99BF3C"/>
<path d="M97.3805 55.917C86.3645 62.5898 79.7796 73.3193 70.8386 82.2696C65.4219 87.6938 58.8606 91.8843 53.2577 97.127C49.3766 100.759 44.8642 104.99 43.551 110.336C43.2153 111.705 44.6308 113.18 46.0022 112.352C46.2704 112.192 46.5377 112.03 46.8049 111.869C47.7095 111.323 47.8055 109.616 46.562 109.376C46.2737 109.32 45.9846 109.265 45.6963 109.209C46.0724 109.924 46.4477 110.641 46.8229 111.355C48.1463 105.804 53.3318 101.488 57.3549 97.7574C62.3564 93.1194 68.0114 89.2185 72.8254 84.3783C81.5147 75.6423 87.398 63.6329 97.7562 56.6121C98.1693 56.3311 97.8231 55.6488 97.3805 55.917Z" fill="#99BF3C"/>
<path d="M68.6397 36.4257C63.841 40.5376 59.0598 44.2344 55.547 49.5883C51.8596 55.206 49.9087 61.7493 46.1738 67.3858C42.8477 72.4047 39.6245 77.1914 38.1941 83.1273C37.3916 86.4554 37.2078 90.0108 35.6141 93.102C34.3934 95.4679 32.5455 97.3822 31.5801 99.8973C30.6684 102.275 34.28 103.26 35.2754 101.048C36.3567 98.6482 38.1586 96.6544 39.3583 94.3124C40.5889 91.913 40.9662 89.0949 41.4545 86.4753C42.6801 79.9096 45.6119 74.805 49.0971 69.2134C52.3134 64.0523 54.1621 58.4382 56.7032 52.9562C59.5268 46.8633 64.5497 41.7518 69.0086 36.8166C69.2394 36.5613 68.9061 36.1984 68.6397 36.4257Z" fill="#48823C"/>
<path d="M126.872 45.7415C119.195 50.7792 112.658 57.2852 105.123 62.5194C101.208 65.2393 97.8862 68.7818 93.7732 71.2056C89.9093 73.4813 86.3661 75.403 83.0603 78.4966C80.076 81.2891 77.4441 84.4319 74.4488 87.2147C71.212 90.2222 67.6076 92.5792 64.5751 95.8478C59.3638 101.467 54.4248 107.929 50.1078 114.265C48.7296 116.289 51.9515 118.292 53.3231 116.274C57.4701 110.167 62.2128 104.038 67.0584 98.4807C69.7349 95.4113 72.9027 93.08 75.9356 90.4085C79.2765 87.4662 82.0812 83.9373 85.2138 80.7812C88.4621 77.5082 92.2895 75.5542 96.1545 73.1603C99.9493 70.8092 103.037 67.242 106.549 64.4926C113.821 58.7973 120.046 52.0094 127.22 46.2232C127.484 46.0117 127.155 45.5548 126.872 45.7415Z" fill="#48823C"/>
<path d="M122.809 13.3176C117.942 22.0996 111.805 30.3789 105.518 38.1896C98.3534 47.0926 89.5223 53.919 80.944 61.367C72.9564 68.3002 66.2085 76.1512 60.4859 85.0268C55.238 93.1651 45.3439 99.9545 43.2541 109.82C42.6515 112.67 46.5546 113.948 47.5986 111.173C51.2063 101.576 59.6556 95.0583 65.1273 86.5705C71.0274 77.4205 78.1409 69.0771 86.0752 61.6275C93.7222 54.4473 101.656 48.1546 108.2 39.8654C114.662 31.6797 119.794 23.3727 123.094 13.4485C123.15 13.2791 122.896 13.1593 122.809 13.3176Z" fill="#457235"/>
<path d="M37.1014 102.995C37.0157 102.248 36.7093 101.537 36.2914 100.912C35.6136 99.8947 34.4199 99.0304 33.2372 99.3413C32.6278 99.5005 32.1374 99.9419 31.6803 100.375C25.9895 105.761 21.2727 112.073 16.5866 118.353C13.9129 121.935 11.1473 125.733 10.5769 130.166C10.5315 130.524 10.5062 130.911 10.6903 131.221C10.9883 131.721 11.6699 131.793 12.2514 131.808C13.9676 131.855 13.9469 132.675 15.3125 131.636C16.2679 130.911 27.6387 114.597 33.3911 109.279C35.2499 107.56 37.3875 105.51 37.1014 102.995Z" fill="#E2EAB3"/>
<path d="M16.5255 145.515C15.6538 145.778 14.848 144.994 14.2737 144.287C13.7843 143.684 13.2649 142.98 13.3854 142.214C13.458 141.754 13.7514 141.367 14.0376 141.002C22.5253 130.17 33.1425 121.227 42.61 111.239C43.5807 110.214 44.629 109.126 46.0086 108.827C47.3882 108.527 49.1132 109.474 49.0334 110.882C47.4417 112.262 46.0197 113.823 44.6017 115.38C39.2303 121.276 33.8598 127.171 28.4894 133.068C27.0325 134.667 25.5756 136.266 24.1187 137.865C21.9318 140.266 19.7433 142.668 17.3961 144.914C17.1387 145.16 16.8669 145.412 16.5255 145.515Z" fill="#E2EAB3"/>
<path d="M49.3276 124.055C47.4943 125.886 44.7575 129.097 43.2738 131.22C37.9183 138.889 32.6326 146.805 25.5927 152.921C24.6486 153.741 23.2713 153.834 22.2236 153.149L22.1947 153.13C21.5973 152.737 21.417 151.936 21.807 151.338C22.4134 150.409 22.8723 149.374 23.3871 148.385C25.0448 145.195 27.3317 142.382 29.6029 139.594L47.4918 117.63C48.3616 116.562 49.2636 115.521 50.2369 114.548C51.0153 113.769 51.901 113.04 52.9776 112.859C54.0765 112.675 58.6349 114.758 49.3276 124.055Z" fill="#E2EAB3"/>
<path d="M36.4176 93.3175C29.2444 99.3033 22.9173 105.599 17.1842 112.998C14.3232 116.689 11.572 120.495 9.03036 124.415C7.1293 127.344 3.85895 131.375 4.47476 135.056C4.58001 135.689 5.33618 136.163 5.9518 135.98C9.18815 135.016 11.2881 130.977 13.0959 128.336C15.7392 124.473 18.402 120.629 21.211 116.884C26.6379 109.648 32.4779 102.331 38.9317 95.9839C40.6255 94.3173 38.2241 91.8102 36.4176 93.3175Z" fill="#CDD385"/>
<path d="M47.6651 105.487C44.1832 109.24 39.882 112.242 36.0958 115.691C32.2677 119.177 28.3943 122.58 24.7064 126.22C21.2428 129.64 18.3988 133.5 15.5231 137.406C13.5576 140.078 8.44592 143.966 10.2948 147.644C10.496 148.044 11.0186 148.421 11.4859 148.387C14.9218 148.133 17.0504 143.382 18.9825 140.893C22.1891 136.762 25.3176 132.805 29.1551 129.223C32.9435 125.688 36.7677 122.208 40.4638 118.574C44.0073 115.089 46.6328 111.017 49.5559 107.037C50.3837 105.909 48.6151 104.463 47.6651 105.487Z" fill="#CDD385"/>
<path d="M53.3798 111.575C50.1953 114.304 47.5496 117.474 44.7114 120.54C41.4865 124.026 37.8219 127.034 34.7437 130.668C31.5816 134.402 28.7171 138.402 25.7026 142.255C24.0867 144.321 22.469 146.385 20.8605 148.458C19.5115 150.194 18.2216 151.478 18.2808 153.733C18.3032 154.589 19.0422 155.345 19.9436 155.114C23.5049 154.196 25.7563 149.465 27.8804 146.698C31.0362 142.586 34.111 138.404 37.3052 134.322C40.2253 130.591 43.4908 127.13 46.4018 123.393C49.1911 119.813 51.4711 115.873 54.3009 112.331C54.7449 111.775 53.8724 111.154 53.3798 111.575Z" fill="#CDD385"/>
<path d="M65.0669 44.8732C63.1452 47.189 61.5087 49.6867 59.9108 52.2315C58.4222 54.5999 56.3819 56.88 55.6866 59.6388C55.6472 59.7949 55.8525 59.8953 55.9433 59.7567C59.1041 54.9185 61.8451 49.7214 65.4545 45.1909C65.6327 44.9676 65.2488 44.6531 65.0669 44.8732Z" fill="#78A655"/>
<path d="M86.2663 48.5011C84.1394 52.8878 80.3652 56.0803 77.1372 59.6384C74.0016 63.0967 70.6951 67.1467 68.5902 71.3099C68.5077 71.4706 68.701 71.6551 68.844 71.5182C72.5088 68.0161 75.0558 63.3478 78.4345 59.557C81.479 56.1392 84.7197 52.9639 86.6688 48.7518C86.7952 48.4798 86.4012 48.225 86.2663 48.5011Z" fill="#78A655"/>
<path d="M92.3934 81.6083C87.0349 86.2945 82.0667 90.9373 76.1323 94.9465C73.494 96.729 70.8525 98.4352 68.4649 100.552C65.9665 102.767 64.7732 106.117 62.15 108.148L62.2053 108.224C64.6588 106.509 66.5291 104.513 68.5046 102.277C71.0428 99.4045 74.5009 97.3754 77.6213 95.2112C83.2585 91.3027 87.7207 86.579 92.7512 81.9878C92.9995 81.7608 92.6456 81.388 92.3934 81.6083Z" fill="#78A655"/>
<path d="M104.513 55.0464C99.6267 58.0557 94.2275 61.645 91.0038 66.4898C90.9065 66.6359 91.1083 66.7903 91.2338 66.6789C95.6448 62.7318 99.9981 58.9134 104.669 55.2619C104.789 55.1682 104.642 54.9669 104.513 55.0464Z" fill="#78A655"/>
<path d="M112.65 47.7998C111.706 48.6854 110.619 49.3806 109.576 50.1415C108.553 50.8881 107.358 51.5808 106.794 52.7568C106.702 52.9494 106.88 53.2018 107.097 53.08C108.207 52.4554 109.154 51.5349 110.172 50.7747C111.228 49.9851 112.147 49.0846 112.892 47.9976C112.995 47.8486 112.779 47.6786 112.65 47.7998Z" fill="#78A655"/>
<path d="M80.2193 26.4626C78.5849 28.4959 76.9277 30.5125 75.0768 32.3542C73.5326 33.8913 71.7282 35.1364 70.5223 36.9788C70.4212 37.1329 70.6321 37.2937 70.7634 37.1776C74.371 34.0115 77.9331 30.7338 80.4345 26.5962C80.5198 26.4527 80.3189 26.3381 80.2193 26.4626Z" fill="#457235"/>
<path d="M100.277 74.7289C98.8728 75.0637 97.6819 75.9722 96.5633 76.8448C95.3721 77.7759 93.9983 78.9149 93.2953 80.2831C93.2183 80.4338 93.375 80.6693 93.5461 80.5506C95.8874 78.9245 97.4927 76.0261 100.398 75.2522C100.731 75.1638 100.615 74.6489 100.277 74.7289Z" fill="#457235"/>
<path d="M120.562 38.5647C119.221 39.7215 118.071 40.9815 116.984 42.378C115.692 44.0386 114.154 45.4494 112.821 47.0614C112.701 47.2072 112.835 47.4025 113.014 47.3284C116.522 45.8646 118.401 41.5017 120.736 38.7486C120.839 38.6274 120.688 38.4558 120.562 38.5647Z" fill="#457235"/>
<path d="M63.7259 67.0834C60.2538 69.0577 57.9071 72.0467 55.1139 74.8277C52.5066 77.4247 50.8192 79.9805 49.4074 83.3897C49.3497 83.5297 49.5527 83.6494 49.6535 83.5439C51.7421 81.3666 52.6128 78.4619 54.8031 76.2338C57.7285 73.2559 60.3686 69.6509 63.8322 67.2778C63.9469 67.1992 63.8531 67.0109 63.7259 67.0834Z" fill="#457235"/>
<path d="M84.2345 34.6417C81.61 36.3009 79.9962 38.8545 77.9812 41.1503C75.4976 43.9815 72.7698 46.6471 70.131 49.3339C70.0227 49.4442 70.158 49.6576 70.2968 49.5627C73.1687 47.6089 75.2646 44.6996 77.7198 42.2737C80.0966 39.9242 81.6712 36.8715 84.409 34.883C84.5466 34.7838 84.3771 34.5518 84.2345 34.6417Z" fill="#78A655"/>
<path d="M48.1749 77.7999C46.0661 80.468 44.9164 83.3934 44.0119 86.6483C42.742 91.2156 41.4259 95.1767 38.5922 99.0633C38.2352 99.5533 39.0211 100.205 39.4153 99.739C44.7412 93.4493 43.7891 84.5468 48.3486 77.9084C48.4248 77.7976 48.2543 77.6984 48.1749 77.7999Z" fill="#78A655"/>
<path d="M71.5187 84.0231C70.316 84.9506 69.179 85.9537 68.0308 86.9454C66.7651 88.0392 65.2914 89.0303 64.1544 90.2486C64.0205 90.3918 64.1318 90.6771 64.348 90.611C67.3615 89.6912 69.5602 86.3864 71.8543 84.3798C72.0966 84.1688 71.7643 83.8345 71.5187 84.0231Z" fill="#78A655"/>
<path d="M26.289 114.085C23.2526 116.931 21.1318 120.81 19.1907 124.447C19.1381 124.546 19.2729 124.632 19.3381 124.539C21.7584 121.117 23.3952 117.231 26.5052 114.316C26.6541 114.176 26.4379 113.945 26.289 114.085Z" fill="white"/>
<path d="M35.9346 139.542C35.087 140.66 34.2549 141.789 33.4027 142.902C32.5825 143.973 31.5261 145.042 30.9091 146.236C30.8406 146.37 30.9776 146.57 31.1291 146.47C32.1688 145.786 32.8961 144.581 33.6209 143.591C34.5379 142.339 35.3335 140.995 36.2151 139.719C36.338 139.54 36.0609 139.375 35.9346 139.542Z" fill="white"/>
<path d="M23.4198 137.764C22.397 139.031 20.9261 140.037 20.1453 141.477C20.0686 141.618 20.2396 141.767 20.3635 141.656C21.5758 140.569 22.7369 139.254 23.701 137.94C23.8303 137.765 23.5508 137.602 23.4198 137.764Z" fill="white"/>
<path d="M11.1614 132.068C11.4706 132.259 11.8791 132.308 12.1851 132.37L12.7274 132.449C13.0129 132.502 13.3073 132.6 13.5965 132.575C14.1231 132.532 14.5813 132.304 14.7502 131.762C14.9141 131.238 14.6819 130.747 14.2582 130.437C13.3726 129.788 11.4345 130.012 10.934 131.089C10.7718 131.439 10.8007 131.845 11.1614 132.068Z" fill="#E6D637"/>
<path d="M13.1161 142.494C12.9383 143.14 13.2678 143.791 13.6366 144.314C13.9941 144.822 14.3955 145.378 15.0646 145.431C15.267 145.448 15.5213 145.327 15.6151 145.141C15.9205 144.537 15.6869 143.93 15.3715 143.376C15.073 142.853 14.6119 142.179 13.9966 142.032C13.6342 141.945 13.2229 142.107 13.1161 142.494Z" fill="#E6D637"/>
<path d="M21.7343 151.945C21.7513 152.57 22.1113 153.131 22.6194 153.486C23.1938 153.886 23.7887 154.2 24.4361 154.025C24.8097 153.925 25.0595 153.56 24.9693 153.173C24.8281 152.573 24.3672 152.198 23.817 151.822C23.3366 151.493 22.7737 151.311 22.1923 151.392C21.9473 151.428 21.7271 151.701 21.7343 151.945Z" fill="#E6D637"/>
</svg>
