<svg width="121" height="135" viewBox="0 0 121 135" fill="none" xmlns="http://www.w3.org/2000/svg">
<path d="M73.8083 74.0457C58.3608 71.1559 50.0676 68.1474 37.3111 58.9665C34.7284 57.1079 32.1995 55.161 29.8837 52.978C19.9378 43.6036 11.5296 30.323 10.1311 14.4953C9.89178 11.7833 10.5465 8.83521 9.091 6.53656C8.401 5.44747 7.37099 4.61039 6.6669 3.53072C6.45959 3.2131 6.28234 2.78956 6.49225 2.47421C6.64441 2.24854 6.93907 2.17428 7.20554 2.11887C7.50047 2.05763 7.89106 1.91757 8.3162 1.75202C9.76159 1.18653 11.403 1.75895 12.187 3.09804C20.2299 16.8327 25.0527 24.424 37.5065 39.3626C39.4394 41.6829 45.6527 48.4657 47.9074 50.4733C50.4618 52.7472 53.2035 54.7984 55.9413 56.8485C62.3066 61.6134 68.8181 66.1748 75.4026 70.6332C76.37 71.2885 77.1643 71.8749 78.2073 72.5388C78.4921 72.7195 78.6341 73.0815 78.4955 73.3888C78.0389 74.4063 76.5151 74.5512 73.8083 74.0457Z" fill="#4B863D"/>
<path d="M20.8269 31.6762C20.4312 30.9014 20.0497 30.1199 19.6796 29.329C20.4102 29.1071 21.0898 28.6967 21.6168 28.1506C22.2968 28.7396 22.9138 29.304 23.6085 29.9095C23.7608 30.2076 23.9157 30.5056 24.0732 30.8036C22.9817 30.5813 21.7515 30.9535 20.8269 31.6762ZM13.2879 13.3801C12.9571 12.4259 12.643 11.4674 12.3523 10.5057C12.0263 9.42142 11.8115 8.31379 11.5218 7.22346C11.4831 7.18144 11.4405 7.13561 11.3926 7.08731C11.354 7.04529 11.3141 7.00462 11.2702 6.96272C10.6247 6.34568 9.53556 5.71138 8.3742 4.98513C7.96288 4.7267 7.59915 4.44508 7.28435 4.14418C6.97618 3.84963 6.71178 3.53588 6.49124 3.20816C6.38683 2.95839 6.34958 2.69155 6.49285 2.47518C6.51044 2.44879 6.53073 2.4249 6.55232 2.40232C6.7135 2.23103 6.97072 2.16934 7.20614 2.11984C7.50107 2.05859 7.89166 1.91853 8.3168 1.75298C8.66591 1.61643 9.02688 1.5446 9.3854 1.5365C9.55677 1.75876 9.75143 1.97526 9.96662 2.18094C10.2828 2.48311 10.6439 2.7648 11.0578 3.02317C11.6694 3.40444 12.2624 3.76273 12.7783 4.10587C13.4473 5.24352 14.0933 6.34141 14.7268 7.40449C14.8225 7.78571 14.922 8.16555 15.0345 8.5425C16.0136 11.7863 17.2567 14.98 18.5278 18.1497C18.4791 18.0624 18.4303 17.9751 18.3803 17.8892C17.8645 16.9742 17.4709 16.0058 16.9359 15.1029C16.4131 14.2245 15.5447 13.58 15.1567 12.6297C15.1127 12.5241 15.0523 12.4358 14.9792 12.3659C14.5396 11.9457 13.6538 12.1463 13.4887 12.7739C13.4336 12.9831 13.3641 13.1861 13.2879 13.3801ZM11.679 7.39405C11.7554 7.50019 11.8261 7.58048 11.8527 7.60587C11.8872 7.63888 11.8536 7.58635 11.679 7.39405Z" fill="#3C7337"/>
<path d="M35.2198 45.8091C34.4733 45.0956 33.7432 44.3623 33.0321 43.6037C31.3369 41.7979 29.8503 39.8482 28.6089 37.7059C27.5188 35.8227 27.1327 33.8014 25.8648 31.9872C25.7467 31.8209 25.6212 31.673 25.4857 31.5409C27.1044 32.9534 28.7181 34.3712 30.3241 35.797C32.5161 39.0563 34.9554 42.1606 37.634 45.0996C38.339 45.8726 39.0679 46.6151 39.8131 47.3274C41.9358 49.3588 44.2129 51.1515 46.5932 52.7912C45.4159 52.6826 44.2676 52.5942 43.1418 52.5247C43.0175 52.4288 42.8931 52.3302 42.7687 52.2316C40.1634 50.176 37.6081 48.0919 35.2198 45.8091ZM24.0732 30.8034C23.9157 30.5055 23.7608 30.2074 23.6086 29.9094C23.6576 29.9512 23.7053 29.9943 23.7557 30.0373C24.2568 30.4731 24.7566 30.9075 25.2577 31.3433C24.9018 31.0641 24.4975 30.8887 24.0732 30.8034ZM22.662 25.4029C22.6048 24.6517 22.2968 23.8464 21.6519 23.0292C20.4437 21.4957 19.4862 19.8434 18.5279 18.1495C17.2567 14.9799 16.0136 11.7862 15.0345 8.54238C14.922 8.16544 14.8225 7.7856 14.7268 7.40437C16.9856 11.2028 19.0579 14.5714 21.2459 17.888C21.5902 18.7432 21.9331 19.5971 22.2694 20.4498C22.9725 22.2326 23.7346 23.9829 24.5557 25.698C23.8331 25.5259 23.2032 25.427 22.662 25.4029ZM9.96662 2.18083C9.75143 1.97515 9.55676 1.75865 9.38539 1.53639C10.2206 1.51623 11.0373 1.82917 11.6457 2.41065C11.8529 2.60871 12.0362 2.83979 12.1876 3.09889C12.3876 3.43747 12.5836 3.77226 12.7783 4.10576C12.2624 3.76262 11.6694 3.40433 11.0578 3.02306C10.6439 2.76469 10.2827 2.483 9.96662 2.18083Z" fill="#366933"/>
<path d="M39.8128 47.3274C39.0676 46.6151 38.3387 45.8726 37.6337 45.0997C34.9551 42.1606 32.5158 39.0563 30.3238 35.797C32.5717 37.7906 34.8082 39.7987 37.0269 41.8253C39.7923 44.3491 42.5323 46.8995 45.2419 49.4843L46.1625 50.3641C47.0869 51.2478 48.0089 52.1341 48.9219 53.0297C48.1324 52.941 47.356 52.8623 46.5929 52.7912C44.2126 51.1515 41.9355 49.3588 39.8128 47.3274ZM24.5554 25.6981C23.7343 23.9829 22.9722 22.2326 22.2691 20.4499C21.9327 19.5971 21.5898 18.7432 21.2456 17.8881C23.1148 20.7219 25.0675 23.5162 27.2898 26.5045C26.922 26.3867 26.5489 26.269 26.172 26.1502C25.5895 25.9671 25.0506 25.8155 24.5554 25.6981Z" fill="#30602E"/>
<path d="M24.0187 44.5409C22.0225 41.7203 20.6511 38.7141 19.5334 35.2642C19.0765 33.8488 19.7418 32.5225 20.826 31.6754C24.0765 38.0662 28.1593 43.9666 33.0354 49.3161C33.2753 49.5784 33.5163 49.8368 33.76 50.0925C33.0942 49.6748 32.426 49.2623 31.754 48.8564C31.4418 48.497 31.1168 48.1482 30.7741 47.8206C30.1153 47.1909 29.3919 46.6393 28.5731 46.2354C27.8083 45.8602 26.9404 45.6407 26.0822 45.621C25.3981 45.2544 24.7103 44.8944 24.0187 44.5409Z" fill="#569441"/>
<path d="M33.7602 50.0927C33.5166 49.8369 33.2755 49.5786 33.0357 49.3163C28.1595 43.9667 24.0767 38.0664 20.8263 31.6755C21.7509 30.9528 22.9811 30.5806 24.0726 30.8029C27.2277 36.7749 31.119 42.3091 35.7179 47.353C36.4229 48.1286 37.1506 48.8698 37.8957 49.5821C38.9451 50.5851 40.0295 51.5301 41.1466 52.425C39.825 52.3743 38.5327 52.3515 37.2593 52.3595C36.1034 51.5876 34.9374 50.8316 33.7602 50.0927Z" fill="#48833D"/>
<path d="M37.8966 49.5826C37.1514 48.8704 36.4238 48.1291 35.7188 47.3535C31.1199 42.3096 27.2286 36.7754 24.0734 30.8034C24.4977 30.8887 24.902 31.0641 25.2579 31.3433C25.3347 31.4091 25.4103 31.4763 25.4859 31.5409C25.6214 31.673 25.7469 31.8209 25.865 31.9872C27.1329 33.8014 27.519 35.8227 28.609 37.7059C29.8505 39.8482 31.3371 41.7979 33.0323 43.6037C33.7434 44.3623 34.4735 45.0956 35.22 45.8091C37.6082 48.0919 40.1635 50.176 42.7689 52.2316C42.8933 52.3302 43.0177 52.4288 43.142 52.5247C42.4692 52.484 41.8043 52.451 41.1475 52.4255C40.0304 51.5306 38.9459 50.5856 37.8966 49.5826Z" fill="#417B3A"/>
<path d="M16.0507 28.5716C15.5539 28.0968 15.1437 27.4277 14.883 26.5329C14.1591 24.0566 13.0886 21.6583 12.6398 19.1069C12.4266 17.894 12.2271 16.7145 12.4815 15.491C12.6396 14.7246 13.0098 14.0846 13.2876 13.3792C14.607 17.1897 16.2018 20.9382 17.6715 24.6687C18.2946 26.2479 18.9639 27.8001 19.6794 29.3279C18.4428 29.7041 17.0642 29.5403 16.0507 28.5716Z" fill="#569441"/>
<path d="M19.6794 29.3282C18.9639 27.8004 18.2946 26.2481 17.6715 24.6689C16.2019 20.9384 14.6071 17.1899 13.2877 13.3794C13.3639 13.1853 13.4333 12.9823 13.4884 12.7731C13.6536 12.1456 14.5393 11.9449 14.979 12.3651C15.052 12.435 15.1125 12.5233 15.1564 12.6289C15.5444 13.5792 16.4128 14.2237 16.9356 15.1021C17.4707 16.005 17.8642 16.9734 18.38 17.8884C18.4301 17.9743 18.4788 18.0616 18.5276 18.1489C19.1403 19.6725 19.7568 21.1895 20.3538 22.7057C20.7246 23.6447 21.1121 24.5743 21.515 25.4957C21.1506 25.5897 20.8592 25.7484 20.6383 25.9795C20.557 26.0645 20.4838 26.1597 20.4211 26.2625C20.2233 26.5945 20.3174 27.0199 20.595 27.2853C20.6109 27.3005 20.6295 27.3157 20.648 27.3309C20.991 27.6129 21.3116 27.8838 21.6165 28.1498C21.0895 28.6959 20.41 29.1063 19.6794 29.3282Z" fill="#48833D"/>
<path d="M21.5147 25.4954C21.1118 24.574 20.7244 23.6444 20.3536 22.7054C19.7566 21.1892 19.1401 19.6722 18.5273 18.1486C19.4857 19.8424 20.4432 21.4947 21.6514 23.0282C22.2962 23.8454 22.6043 24.6507 22.6615 25.4019C22.2205 25.382 21.839 25.4114 21.5147 25.4954Z" fill="#417B3A"/>
<path d="M70.0758 70.2365C63.3773 69.3064 57.207 65.1168 50.8672 62.9739C50.5463 62.8655 50.2354 63.3105 50.5007 63.5514C53.1627 65.9814 56.7996 66.987 60.1203 68.2038C63.3218 69.3779 66.5584 71.0709 70.0529 70.7789C70.3993 70.749 70.4278 70.2857 70.0758 70.2365Z" fill="white"/>
<path d="M47.0778 61.3681L46.8567 61.2457L46.4734 61.075C46.1906 60.9826 45.911 61.2034 45.8901 61.4885C45.8386 62.1966 46.5554 62.5768 47.1586 62.2968C47.5457 62.1178 47.5102 61.4662 47.0778 61.3681Z" fill="white"/>
<path d="M10.4241 4.79884C9.9969 4.18207 9.07029 3.37776 8.27185 3.41531C8.0758 3.42364 7.9164 3.61699 8.01952 3.8096C8.21779 4.18722 8.59295 4.39838 8.93481 4.63109C9.28452 4.86621 9.66766 5.08498 10.0646 5.22546C10.2939 5.30736 10.5759 5.01765 10.4241 4.79884Z" fill="white"/>
<path d="M26.1713 26.1493C44.3925 31.8706 53.9641 36.7009 68.0254 49.6251C70.8748 52.2419 73.6432 54.9566 76.1224 57.9262C86.7656 70.6742 94.9892 87.9163 94.3867 107.218C94.282 110.524 93.0657 113.985 94.49 116.97C95.1652 118.383 96.2857 119.543 96.9802 120.947C97.1845 121.36 97.3356 121.896 97.0355 122.248C96.8203 122.499 96.4548 122.544 96.1241 122.574C95.7609 122.605 95.2683 122.716 94.7308 122.856C92.9064 123.329 91.0061 122.399 90.2549 120.672C82.5401 102.933 77.8195 93.0776 64.9551 73.25C62.9583 70.1722 56.4422 61.0868 54.0109 58.3385C51.2595 55.2256 48.2484 52.3526 45.2412 49.4834C38.2507 42.8144 31.0521 36.3684 23.7547 30.0364C22.6823 29.1055 21.8085 28.283 20.6473 27.3307C20.3282 27.0714 20.2087 26.614 20.4204 26.2623C21.1194 25.1028 22.9802 25.1479 26.1713 26.1493Z" fill="#62903E"/>
<path d="M90.7758 109.828C90.5582 109.46 90.3393 109.091 90.1217 108.72C90.2105 108.508 90.3112 108.304 90.4172 108.105C90.5419 108.68 90.6614 109.254 90.7758 109.828ZM81.5554 90.1109C81.0501 88.5653 80.5061 87.0363 79.9235 85.5237C81.2106 85.9482 82.7471 85.6783 83.9677 84.9385C84.3319 85.9323 84.6807 86.9316 85.0127 87.9378C83.6316 88.1834 82.3275 88.9654 81.5554 90.1109ZM20.5945 27.2853C20.3169 27.0199 20.2228 26.5945 20.4207 26.2625C20.4833 26.1597 20.5566 26.0645 20.6378 25.9795C20.8651 25.7417 21.1681 25.5789 21.5481 25.4872C22.5792 25.7381 23.6186 26.0148 24.5859 26.4336C26.9391 27.45 29.1399 28.6284 31.3124 29.9882C33.9449 31.6325 36.6154 33.237 39.2545 34.8851C38.5148 34.6432 37.7859 34.3633 37.0786 34.0076C36.2597 33.5959 35.5645 34.7514 36.1835 35.343C36.1994 35.3583 36.2167 35.3748 36.2352 35.3873C36.4973 35.6024 36.7467 35.8255 36.9871 36.0553C38.1666 37.1827 39.1042 38.4702 40.1496 39.7007C36.1132 37.0094 31.9051 34.5377 27.7936 31.9677C26.1708 30.9529 24.5308 30.0387 22.8254 29.2168C22.1291 28.597 21.4579 27.9962 20.6475 27.3309C20.629 27.3157 20.6105 27.3005 20.5945 27.2853Z" fill="#507D39"/>
<path d="M81.2262 94.2825C80.1039 92.5845 78.9549 90.9066 77.7713 89.2543C76.3978 85.5242 74.803 81.8901 72.9858 78.3637C74.2106 78.9066 75.3962 79.4399 76.5426 79.9638C76.8931 81.2698 77.2591 82.5702 77.9361 83.835C78.1275 84.1933 78.3605 84.4974 78.6221 84.7475C79.002 85.1106 79.447 85.3657 79.9237 85.5239C80.5063 87.0365 81.0503 88.5655 81.5557 90.111C80.8112 91.2143 80.5643 92.656 81.2262 94.2825ZM22.8256 29.217C24.5311 30.0388 26.171 30.9531 27.7938 31.9678C31.9053 34.5379 36.1134 37.0096 40.1498 39.7009C40.5063 40.123 40.8769 40.5357 41.2719 40.9336C41.3783 41.0403 41.4859 41.1458 41.5935 41.2486C43.5793 43.1467 46.0163 44.6525 48.1944 46.3175C51.4741 48.8271 54.6552 51.4558 57.6765 54.2649C56.6889 54.0962 55.6977 53.9392 54.7079 53.7913C54.275 53.7257 53.8473 53.6626 53.4235 53.6033C48.7615 49.7903 43.7332 46.3923 38.6854 42.9375C38.1363 42.5626 37.5834 42.1917 37.0266 41.8248C34.8079 39.7981 32.5714 37.7901 30.3235 35.7965C28.7175 34.3707 27.1038 32.9529 25.4851 31.5404C25.4096 31.4758 25.334 31.4087 25.2571 31.3428C24.756 30.9071 24.2562 30.4726 23.7551 30.0368C23.7048 29.9938 23.657 29.9507 23.608 29.9089C23.3375 29.6733 23.0789 29.4439 22.8256 29.217Z" fill="#487336"/>
<path d="M77.7708 89.2538C74.6242 84.8685 71.2337 80.6797 67.4428 76.8275C67.2699 76.6521 67.0957 76.478 66.9202 76.3026C66.7544 76.0399 66.5834 75.7747 66.4123 75.5096C68.7402 76.4993 70.9189 77.4456 72.9852 78.3633C74.8025 81.8897 76.3973 85.5237 77.7708 89.2538ZM37.0261 41.8244C37.5829 42.1913 38.1358 42.5622 38.6849 42.9371C43.7326 46.3918 48.7609 49.7898 53.423 53.6029C51.8702 53.3819 50.3726 53.1909 48.9212 53.0288C48.0081 52.1332 47.0862 51.2468 46.1617 50.3632L45.2412 49.4833C42.5316 46.8985 39.7915 44.3482 37.0261 41.8244Z" fill="#3F6A32"/>
<path d="M83.968 84.9388C83.7479 84.3395 83.5238 83.7415 83.2907 83.145C83.8979 83.4432 84.4945 83.7365 85.0847 84.0312C84.7651 84.3815 84.3848 84.689 83.968 84.9388Z" fill="#6F9E40"/>
<path d="M79.924 85.5237C79.2832 83.8512 78.5962 82.2006 77.8628 80.5693C79.7618 81.4465 81.5643 82.3025 83.291 83.1446C83.5241 83.7411 83.7481 84.3391 83.9683 84.9384C82.7477 85.6782 81.2111 85.9482 79.924 85.5237Z" fill="#5E8D3D"/>
<path d="M78.6221 84.7469C78.3604 84.4968 78.1275 84.1927 77.9361 83.8344C77.259 82.5696 76.8931 81.2692 76.5426 79.9632C76.989 80.1662 77.4276 80.3669 77.8624 80.5689C78.5958 82.2002 79.2829 83.8508 79.9237 85.5233C79.447 85.3651 79.002 85.11 78.6221 84.7469Z" fill="#56853B"/>
<path d="M39.2551 34.8851C41.6432 35.6655 44.1382 36.0549 46.3471 37.3606C48.7563 38.7838 51.1616 40.2137 53.5194 41.72C58.3984 44.838 63.2793 48.1562 67.5439 52.0926C68.3788 52.8652 69.2112 53.6431 70.0374 54.4328C71.6154 55.9411 73.1683 57.489 74.6511 59.0969C72.2587 58.1268 69.8495 57.2754 67.4494 56.542C66.4527 55.4521 65.4205 54.4019 64.3605 53.3887C58.4682 47.7567 51.672 43.1874 44.8435 38.5135C43.0127 37.2617 41.1414 36.0629 39.2551 34.8851Z" fill="#6F9E40"/>
<path d="M40.1494 39.7005C39.104 38.47 38.1665 37.1824 36.9869 36.055C36.7465 35.8252 36.4972 35.6021 36.235 35.3871C36.2165 35.3745 36.1992 35.358 36.1833 35.3428C35.5643 34.7511 36.2595 33.5956 37.0784 34.0073C37.7857 34.363 38.5146 34.6429 39.2543 34.8848C41.1407 36.0625 43.0119 37.2614 44.8428 38.5132C51.6713 43.187 58.4675 47.7563 64.3598 53.3883C65.4198 54.4015 66.452 55.4517 67.4488 56.5417C66.9868 56.4 66.5262 56.2623 66.0632 56.1298C64.1154 55.5694 62.14 55.1098 60.1505 54.7181C54.4195 49.3826 47.8858 44.9854 41.3213 40.4928C40.9319 40.2273 40.5413 39.9632 40.1494 39.7005Z" fill="#5E8D3D"/>
<path d="M41.5932 41.2484C41.4856 41.1456 41.378 41.0401 41.2716 40.9334C40.8766 40.5355 40.506 40.1228 40.1494 39.7007C40.5414 39.9635 40.932 40.2276 41.3214 40.493C47.8858 44.9857 54.4195 49.3829 60.1505 54.7184C59.3268 54.5563 58.502 54.406 57.6762 54.2648C54.6548 51.4557 51.4738 48.8269 48.194 46.3173C46.016 44.6523 43.579 43.1465 41.5932 41.2484Z" fill="#56853B"/>
<path d="M90.4168 108.105C89.3742 103.319 87.9945 98.5632 86.76 93.8501C86.2367 91.8553 85.6541 89.8827 85.0123 87.9373C86.4038 87.6889 87.8726 87.9871 88.9405 89.0079C89.6419 89.6782 90.1722 90.6605 90.3936 92.0032C90.9092 95.0963 91.854 98.1447 92.0264 101.288C92.1082 102.782 92.1774 104.236 91.694 105.676C91.3921 106.577 90.8521 107.296 90.4168 108.105Z" fill="#6F9E40"/>
<path d="M90.1219 108.72C88.1032 105.309 86.0688 101.892 83.9589 98.5286C83.7163 97.6282 83.4751 96.7291 83.2404 95.8312C82.7341 93.901 82.1725 91.9942 81.5555 90.1107C82.3276 88.9652 83.6317 88.1832 85.0128 87.9376C85.6546 89.8829 86.2372 91.8556 86.7605 93.8504C87.995 98.5635 89.3747 103.319 90.4173 108.105C90.3113 108.304 90.2106 108.507 90.1219 108.72Z" fill="#5E8D3D"/>
<path d="M83.9585 98.5286C83.062 97.1024 82.1528 95.6842 81.2257 94.2821C80.5638 92.6556 80.8107 91.2139 81.5552 90.1106C82.1721 91.9941 82.7337 93.901 83.24 95.8312C83.4747 96.7291 83.7159 97.6282 83.9585 98.5286Z" fill="#56853B"/>
<path d="M30.1243 31.285C38.0732 33.3772 44.9123 39.327 52.2511 42.8288C52.6229 43.0062 53.0614 42.5155 52.7758 42.184C49.9171 38.867 45.6723 37.1278 41.8412 35.1791C38.1494 33.3 34.4914 30.7873 30.2305 30.6366C29.8104 30.6214 29.7072 31.1761 30.1243 31.285Z" fill="white"/>
<path d="M56.5908 45.3142L56.8405 45.4944C56.9756 45.6031 57.1216 45.6817 57.2779 45.7548C57.605 45.9099 57.9768 45.6832 58.0431 45.3425C58.2072 44.4953 57.3953 43.9327 56.6276 44.1827C56.1361 44.3432 56.0851 45.1332 56.5908 45.3142Z" fill="white"/>
<path d="M92.6293 118.875C93.0543 119.68 94.0565 120.783 95.025 120.854C95.2645 120.872 95.4833 120.662 95.3881 120.416C95.203 119.932 94.7814 119.623 94.4023 119.293C94.0152 118.956 93.5843 118.639 93.1243 118.41C92.8601 118.277 92.4772 118.587 92.6293 118.875Z" fill="white"/>
<path d="M6.8864 57.798C25.1849 52.3279 35.8188 50.9649 54.7076 53.7913C58.5323 54.3638 62.3481 55.06 66.0632 56.1301C82.0249 60.7264 98.4964 70.4004 108.81 86.7246C110.578 89.5204 111.509 93.0695 114.361 94.7427C115.711 95.5374 117.29 95.8695 118.652 96.6432C119.053 96.8707 119.479 97.2302 119.426 97.6876C119.388 98.0172 119.111 98.2613 118.853 98.4699C118.57 98.6998 118.226 99.0676 117.859 99.4839C116.612 100.897 114.518 101.192 112.927 100.181C96.5982 89.8128 87.1657 84.2945 65.4008 75.0792C62.022 73.6493 51.5349 69.7741 47.9832 68.8601C43.9583 67.8243 39.8541 67.132 35.7564 66.4409C26.2289 64.8327 16.655 63.5257 7.06247 62.3713C5.65375 62.2017 4.46803 62.0088 2.97169 61.8724C2.56536 61.8348 2.20874 61.5244 2.18648 61.1142C2.11435 59.7617 3.68241 58.7567 6.8864 57.798Z" fill="#86A93E"/>
<path d="M2.42842 61.6272C2.28895 61.4939 2.19783 61.3154 2.18679 61.1142C2.16335 60.652 2.3293 60.2311 2.68692 59.8383C3.68058 59.4689 4.69805 59.1171 5.73201 58.9209C8.25033 58.4455 10.7359 58.188 13.2967 58.0963C13.981 58.0718 14.6679 58.0446 15.3547 58.0148C14.4572 58.3261 13.5876 58.7227 12.7636 59.2391C12.5355 59.382 12.544 59.6417 12.6848 59.7763C12.7658 59.8537 12.8901 59.8886 13.0384 59.8372C15.2883 59.0469 17.6418 58.5791 20.0472 58.2831C19.5734 58.5394 19.5582 59.2468 19.9314 59.6035C20.0497 59.7165 20.2048 59.7936 20.3988 59.8113C21.1906 59.8818 21.9503 60.031 22.6953 60.2195C22.9888 60.5534 23.2862 60.891 23.585 61.23C19.5531 61.3237 15.5141 61.563 11.4899 61.7072C9.57712 61.7777 7.70797 61.9382 5.83364 62.2132C4.91075 62.091 4.01773 61.9669 2.972 61.8723C2.76623 61.8535 2.57187 61.7644 2.42842 61.6272ZM84.6782 76.8583C85.9812 76.4897 87.1004 75.4039 87.6988 74.1077C88.5562 74.7264 89.4049 75.3597 90.2448 76.0074C90.1582 76.0899 90.0757 76.1763 89.9959 76.2651C89.1337 77.2177 88.5955 78.4801 88.598 79.7433C87.3123 78.7482 86.0053 77.7861 84.6782 76.8583ZM97.7069 87.4458C97.8084 87.5124 97.9088 87.5803 98.0103 87.6468C99.0763 88.348 100.041 89.1735 101.122 89.8509C102.174 90.5107 103.471 90.7232 104.42 91.5361C105.156 92.1667 106.339 91.3498 106.14 90.451C106.084 90.1937 106.047 89.9372 106.02 89.6831L106.1 89.7593C106.961 90.582 107.806 91.418 108.629 92.2702C109.587 93.2597 110.434 94.3361 111.352 95.3538C111.418 95.3783 111.488 95.4027 111.568 95.4308C112.608 95.7919 114.23 95.8749 115.998 96.0221C117.163 96.1193 118.171 96.4292 119.02 96.8948C119.051 96.92 119.081 96.9454 119.108 96.972C119.316 97.1701 119.459 97.4112 119.426 97.6875C119.403 97.8894 119.291 98.057 119.149 98.2058C119.058 98.3014 118.955 98.3882 118.854 98.4698C118.701 98.5954 118.526 98.7618 118.341 98.9557C118.187 99.1164 118.025 99.2943 117.859 99.4838C117.825 99.5223 117.791 99.5608 117.755 99.5979C117.478 99.8875 117.164 100.126 116.825 100.31C116.062 99.9546 115.185 99.7184 114.192 99.6342C113.316 99.5617 112.479 99.504 111.729 99.4222C110.373 98.5638 109.065 97.7382 107.791 96.9418C107.476 96.5824 107.157 96.227 106.823 95.8823C106.001 95.0302 105.154 94.1928 104.293 93.3701C102.165 91.3362 99.9391 89.3812 97.7069 87.4458ZM111.09 95.2583C111.072 95.2483 111.055 95.2396 111.037 95.2309C110.876 95.1527 110.754 95.1125 110.766 95.124C110.775 95.1329 110.869 95.1736 111.09 95.2583Z" fill="#71973E"/>
<path d="M5.83367 62.2133C7.70801 61.9383 9.57716 61.7778 11.4899 61.7073C15.5142 61.5631 19.5532 61.3238 23.5851 61.2301C24.6199 62.3972 25.6808 63.5663 26.7225 64.6916C26.7017 64.6921 26.6784 64.6926 26.6576 64.6931C25.9934 64.6886 25.3268 64.6919 24.6602 64.6979C18.8056 63.8424 12.9375 63.0782 7.06281 62.3713C6.638 62.3211 6.23256 62.2666 5.83367 62.2133ZM53.146 64.217C58.1419 65.2023 63.0675 66.2984 67.8771 68.0106C70.7149 69.02 73.4028 70.2979 75.9373 71.9223C78.1633 73.351 79.7024 75.3203 82.083 76.5739C82.9642 77.0375 83.8569 77.0901 84.6783 76.8584C86.0053 77.7863 87.3124 78.7484 88.5981 79.7434C88.6004 80.8259 88.9992 81.9086 89.9317 82.7999C90.3713 83.2201 90.9269 83.5962 91.6164 83.912C93.7765 84.8964 95.7295 86.148 97.7069 87.4459C99.9392 89.3813 102.165 91.3363 104.293 93.3702C105.154 94.1929 106.001 95.0303 106.823 95.8824C107.157 96.2271 107.476 96.5825 107.791 96.9419C103.237 94.0946 99.1226 91.6078 94.9143 89.24C94.0673 88.5067 93.2216 87.7746 92.3836 87.0397C83.4207 79.1819 73.2545 73.1149 62.0748 68.9539C60.3514 68.3131 58.6223 67.7712 56.8847 67.3101C55.6461 66.2711 54.3999 65.2401 53.146 64.217Z" fill="#678E3C"/>
<path d="M111.729 99.4221C112.479 99.504 113.316 99.5617 114.192 99.6342C115.185 99.7184 116.062 99.9546 116.825 100.31C115.63 100.965 114.134 100.948 112.927 100.181C112.524 99.9253 112.124 99.6731 111.729 99.4221Z" fill="#678E3C"/>
<path d="M24.6598 64.6977C25.3263 64.6917 25.993 64.6884 26.6572 64.6929C26.6779 64.6924 26.7013 64.6919 26.7221 64.6914C26.834 64.8137 26.9459 64.9333 27.0565 65.0543C26.2571 64.9332 25.4604 64.8148 24.6598 64.6977ZM56.8843 67.3099C58.6219 67.771 60.3509 68.3129 62.0744 68.9537C73.2541 73.1147 83.4203 79.1817 92.3832 87.0395C93.2212 87.7744 94.0669 88.5065 94.9139 89.2398C89.7104 86.3123 84.3616 83.5714 77.862 80.5692C77.4273 80.3672 76.9887 80.1665 76.5422 79.9635C75.3958 79.4396 74.2102 78.9063 72.9854 78.3634C70.9191 77.4458 68.7403 76.4995 66.4125 75.5098C66.2392 75.4357 66.0621 75.3604 65.8875 75.2851C65.7361 75.1404 65.5859 74.9943 65.4345 74.8495C62.9825 72.5058 60.4111 70.2844 57.8183 68.0959C57.507 67.8339 57.1956 67.5719 56.8843 67.3099Z" fill="#5E853A"/>
<path d="M19.9316 59.6039C19.5584 59.2471 19.5736 58.5397 20.0474 58.2834C20.3455 58.2455 20.6436 58.2128 20.9431 58.1813C21.5066 58.847 22.0938 59.5303 22.6955 60.2198C21.9505 60.0313 21.1908 59.8821 20.399 59.8116C20.205 59.7939 20.0499 59.7169 19.9316 59.6039Z" fill="#81A73F"/>
<path d="M41.903 55.3034C46.5093 55.263 51.1511 55.4168 55.6906 56.1058C61.6659 57.0131 67.7487 58.1324 73.406 60.3219C78.472 62.2817 82.4265 65.032 86.2666 68.7025C86.5442 68.9678 86.8219 69.2384 87.0984 69.5129C88.3814 70.7874 88.3987 72.5909 87.6987 74.1078C80.632 69.013 72.9391 64.9084 64.6952 61.8404C58.2967 59.4584 51.7766 58.4269 45.172 57.9704C44.5626 57.515 43.9507 57.0623 43.3375 56.6135C43.1751 56.443 43.0089 56.2765 42.8389 56.114C42.54 55.8283 42.2285 55.5559 41.903 55.3034Z" fill="#94B63D"/>
<path d="M45.1721 57.9708C51.7766 58.4272 58.2967 59.4587 64.6953 61.8406C72.9392 64.9087 80.6321 69.0133 87.6988 74.108C87.1003 75.4043 85.9812 76.49 84.6782 76.8586C77.9467 72.1605 70.6632 68.3456 62.8885 65.4515C58.9343 63.98 54.932 63.0241 50.893 62.4019C49.0071 60.8966 47.1022 59.4165 45.1721 57.9708Z" fill="#81A73F"/>
<path d="M50.8928 62.4015C54.9318 63.0237 58.9341 63.9796 62.8883 65.4511C70.663 68.3452 77.9465 72.1601 84.678 76.8582C83.8567 77.0899 82.9639 77.0373 82.0827 76.5738C79.7021 75.3201 78.1631 73.3508 75.9371 71.9222C73.4025 70.2977 70.7146 69.0198 67.8768 68.0104C63.0673 66.2983 58.1417 65.2022 53.1458 64.2169C52.3977 63.6086 51.6458 63.0018 50.8928 62.4015Z" fill="#789F3F"/>
<path d="M90.2442 76.0071C91.8643 74.4318 94.4231 73.9035 96.7263 76.1051C96.8113 76.1863 96.8964 76.2702 96.9803 76.3579C97.6819 77.0972 98.4178 77.8058 99.1577 78.5129L99.6292 78.9637C101.011 80.2841 102.379 81.6151 103.534 83.1356C104.439 84.3264 105.31 85.492 105.717 86.9553C105.972 87.8709 105.926 88.7674 106.02 89.6828C102.475 86.302 98.667 83.1376 95.0036 79.9258C93.4536 78.5663 91.8658 77.2597 90.2442 76.0071Z" fill="#94B63D"/>
<path d="M88.5981 79.7435C88.5955 78.4803 89.1337 77.2179 89.9959 76.2653C90.0757 76.1764 90.1582 76.0901 90.2447 76.0076C91.8664 77.2602 93.4541 78.5668 95.0041 79.9263C98.6675 83.1381 102.475 86.3025 106.02 89.6833C106.047 89.9374 106.084 90.1939 106.14 90.4512C106.339 91.35 105.156 92.1669 104.42 91.5363C103.471 90.7234 102.174 90.5109 101.122 89.8511C100.041 89.1737 99.0763 88.3481 98.0103 87.647C97.9088 87.5804 97.8085 87.5125 97.7069 87.4459C96.1997 86.1401 94.6863 84.8434 93.1987 83.5384C91.6978 82.2233 90.1643 80.9583 88.5981 79.7435Z" fill="#81A73F"/>
<path d="M89.9322 82.8004C88.9997 81.9091 88.601 80.8264 88.5986 79.7439C90.1648 80.9588 91.6983 82.2238 93.1992 83.5389C94.6868 84.8439 96.2003 86.1405 97.7074 87.4464C95.73 86.1485 93.777 84.8969 91.6169 83.9125C90.9275 83.5967 90.3718 83.2206 89.9322 82.8004Z" fill="#789F3F"/>
<path d="M13.038 59.8373C20.7938 57.1161 29.7924 58.2112 37.833 57.0003C38.2397 56.9391 38.3277 56.286 37.9066 56.1708C33.6804 55.0264 29.1893 55.9648 24.9242 56.4965C20.8147 57.0091 16.3758 56.9781 12.7633 59.2392C12.4044 59.463 12.6305 59.979 13.038 59.8373Z" fill="white"/>
<path d="M42.8203 56.6273L43.1272 56.636L43.636 56.6089C43.9934 56.5515 44.1729 56.1563 44.0383 55.837C43.6994 55.0428 42.7128 55.0326 42.2164 55.6689C41.8994 56.0776 42.2983 56.7613 42.8203 56.6273Z" fill="white"/>
<path d="M113.886 97.3638C114.691 97.7927 116.139 98.1447 116.98 97.6604C117.188 97.5413 117.253 97.2448 117.035 97.0925C116.61 96.798 116.088 96.7773 115.589 96.7171C115.081 96.6558 114.545 96.6341 114.036 96.7015C113.743 96.7393 113.6 97.2104 113.886 97.3638Z" fill="white"/>
<path d="M15.532 39.4282C17.4611 41.4042 20.0464 42.574 22.5277 43.7941C35.3834 50.1188 46.8785 58.8643 57.8192 68.0966C61.1314 70.8914 64.4045 73.7403 67.4439 76.8284C76.9984 86.5404 84.0255 98.3993 90.9549 110.132C94.6737 116.426 98.3924 122.721 102.11 129.017C101.21 130.2 99.3565 129.214 98.2987 128.183C93.096 123.105 88.2071 117.708 83.6706 112.03C79.6355 106.978 75.8736 101.702 71.563 96.8833C68.6231 93.5954 65.4415 90.5365 62.2637 87.4788C54.706 80.2092 46.6406 72.6729 38.5738 65.1328C30.3504 57.448 22.1257 49.7594 14.427 42.3474C13.2924 41.2553 12.8354 38.2817 15.532 39.4282Z" fill="#6B8F3C"/>
<path d="M14.0597 37.1671C14.1569 41.0676 18.5383 42.5789 21.3717 43.9731C26.8665 46.6782 31.5337 49.6802 36.2116 52.8145C46.3261 59.5871 57.5141 69.1778 64.796 75.5127C68.8141 79.0102 71.9415 82.312 75.0479 86.6437C79.3205 92.6008 82.3484 97.0226 85.4386 102.132C88.5639 107.297 91.4926 112.275 94.5897 117.457C96.0483 119.896 98.3364 124.185 99.7617 126.643C101.038 128.841 102.384 129.899 104.383 131.301C105.064 131.78 105.876 128.359 105.569 127.58C101.55 117.361 94.9695 108.441 89.228 99.0688C86.4106 94.472 83.7552 89.3972 80.177 85.3543C76.4241 81.1139 72.2786 77.1008 68.2916 73.0788C60.2681 64.9828 52.5159 56.5258 42.7938 50.4383C37.9926 47.4303 32.9882 44.4567 27.9221 41.9147C25.4824 40.691 22.8838 39.8009 20.4352 38.5839C18.6214 37.684 16.948 36.387 14.8703 36.3456C14.4269 36.3361 14.0578 36.7356 14.0597 37.1671Z" fill="#ACD25C"/>
<path d="M86.1969 111.921C85.7713 111.435 85.3752 110.985 85.0151 110.578C85.4196 110.303 85.7982 109.976 86.1545 109.643C86.2449 109.559 86.3352 109.473 86.4255 109.384C86.7568 109.955 87.0816 110.527 87.4013 111.102C87.074 111.224 86.766 111.397 86.4957 111.629C86.409 111.704 86.325 111.784 86.2463 111.866C86.2298 111.884 86.212 111.902 86.1969 111.921ZM77.7389 102.365C77.2943 101.726 76.8445 101.088 76.3922 100.455C76.9303 100.11 77.4275 99.6827 77.8959 99.2484C78.078 99.0792 78.2585 98.901 78.4362 98.7151C78.6127 98.5304 78.7851 98.3394 78.947 98.1382C79.4624 98.8621 79.9739 99.5901 80.4817 100.319C79.8877 100.43 79.3291 100.674 78.8638 101.073C78.7656 101.157 78.6741 101.248 78.5852 101.341C78.3897 101.545 78.2128 101.768 78.0371 101.989C77.9373 102.114 77.8387 102.239 77.7389 102.365ZM21.8054 48.0809C21.2734 47.4275 20.7326 46.7834 20.1626 46.1776C21.0355 46.3307 21.87 46.6225 22.6895 47.0017C22.4892 47.2219 22.302 47.4549 22.1163 47.6891C22.014 47.8201 21.9091 47.9511 21.8054 48.0809ZM31.6765 56.85C31.7033 56.8247 31.7301 56.802 31.7555 56.778C31.9388 56.6075 32.1232 56.4279 32.2996 56.2407C32.8976 55.615 33.4378 54.9062 33.7456 54.1455C33.9821 54.3182 34.22 54.4922 34.4552 54.6662C34.4144 54.6983 34.3761 54.7304 34.3366 54.7638C34.2078 54.8745 34.0857 54.9917 33.9689 55.1139C33.7111 55.3835 33.4786 55.6773 33.2474 55.9697C32.9517 56.3403 32.6573 56.7121 32.3615 57.0827C32.316 57.1409 32.2718 57.1978 32.2276 57.2547C32.0439 57.1198 31.8602 56.9849 31.6765 56.85ZM68.5071 90.0226C68.36 89.8388 68.2103 89.655 68.0619 89.4725C68.5733 89.0997 69.0772 88.6815 69.5191 88.2219C69.8911 87.8327 70.2195 87.412 70.4654 86.9633C70.8063 87.3831 71.1459 87.8044 71.4842 88.2269C70.686 88.3307 69.9286 88.6285 69.3115 89.1571C69.1955 89.2572 69.0874 89.3623 68.9833 89.4712C68.8157 89.6466 68.66 89.8333 68.5071 90.0226ZM43.9124 66.0517L43.9263 66.0371C44.13 65.848 44.3321 65.6498 44.5302 65.4425C45.1282 64.8169 45.6751 64.1145 46.0259 63.3644C46.7005 63.8846 47.3712 64.4088 48.0394 64.9357C46.9016 65.1927 45.8389 65.7275 45.0581 66.5444C44.9857 66.6201 44.9147 66.6997 44.8476 66.7805C44.5367 66.5367 44.2245 66.2942 43.9124 66.0517ZM58.2432 78.4201C57.8988 78.0783 57.5507 77.7379 57.2025 77.4C57.6455 76.8169 58.0208 76.1716 58.3611 75.5284C58.5705 75.1312 58.7717 74.7159 58.9491 74.2883C59.0262 74.3619 59.1045 74.4342 59.1815 74.5078C59.8603 75.1566 60.5301 75.8147 61.1924 76.4807C60.7153 76.5916 60.2569 76.7787 59.8354 77.0495C59.3755 77.3445 58.976 77.7225 58.5803 78.0993C58.4684 78.2058 58.3551 78.3136 58.2432 78.4201Z" fill="#5B863B"/>
<path d="M77.4994 102.665C76.8982 102.054 76.2984 101.445 75.6959 100.837C75.7602 100.806 75.8245 100.776 75.8861 100.744C76.0596 100.655 76.2276 100.559 76.3916 100.454C76.8439 101.087 77.2937 101.726 77.7383 102.364C77.6586 102.464 77.5791 102.565 77.4994 102.665ZM31.7185 58.6162C31.3876 58.2948 31.058 57.9722 30.7297 57.6508C31.0594 57.4016 31.3742 57.1281 31.676 56.8497C31.8597 56.9846 32.0434 57.1195 32.2271 57.2544C32.0755 57.4501 31.9359 57.6547 31.8462 57.8842C31.7553 58.1176 31.7219 58.3653 31.7185 58.6162ZM41.4666 67.8117C41.5387 67.7789 41.612 67.7448 41.6826 67.7081C42.4985 67.2933 43.2346 66.6801 43.9118 66.0514C44.224 66.2938 44.5362 66.5363 44.8471 66.7801C44.6838 66.9748 44.5365 67.1848 44.4064 67.4087C44.1099 67.9183 43.912 68.4791 43.7179 69.0358C43.6447 69.248 43.5703 69.4615 43.4958 69.6724C42.819 69.0535 42.1435 68.4333 41.4666 67.8117ZM67.0294 92.1208C66.6026 91.6951 66.1733 91.272 65.7453 90.8502C66.47 90.544 67.1581 90.1061 67.8068 89.6534C67.8912 89.5943 67.9769 89.5339 68.0613 89.4722C68.2097 89.6547 68.3594 89.8385 68.5065 90.0223C68.4496 90.0925 68.3928 90.1652 68.3359 90.2354C68.0717 90.5676 67.809 90.901 67.5436 91.2345C67.3666 91.4568 67.1872 91.6845 67.0827 91.9506C67.0619 92.007 67.0437 92.0633 67.0294 92.1208ZM54.169 79.4879C54.5802 79.3954 54.9824 79.2485 55.3701 79.0396C55.8517 78.7805 56.2729 78.4409 56.65 78.0489L56.6652 78.033C56.8557 77.8338 57.0341 77.6205 57.202 77.3997C57.5501 77.7375 57.8983 78.078 58.2426 78.4198C58.0085 78.6434 57.7744 78.8644 57.5403 79.088C57.45 79.1746 57.3584 79.2624 57.2721 79.3527C57.1349 79.4936 57.0109 79.6445 56.9147 79.8144C56.6786 80.2369 56.647 80.738 56.6215 81.2194C56.6101 81.4042 56.6 81.5903 56.5925 81.7763C55.7876 81.0095 54.9789 80.2467 54.169 79.4879Z" fill="#52823B"/>
<path d="M20.8529 49.417C20.9574 49.1508 21.1393 48.9206 21.3162 48.6957C21.5841 48.3595 21.8508 48.0247 22.1161 47.6886C22.4207 47.3061 22.7278 46.921 23.0987 46.602C24.5739 45.338 26.8414 45.3829 28.5736 46.2353C30.3058 47.0903 31.6096 48.6009 32.7865 50.13C33.2953 50.7917 33.805 51.495 33.9601 52.3167C34.2817 54.0146 33.0256 55.5947 31.7553 56.7774C30.807 57.6579 29.7358 58.5074 28.4603 58.7116C26.3262 59.0535 24.3889 57.5196 22.8907 55.9757C22.4263 55.4988 21.9694 55.0036 21.6379 54.4249C20.9993 53.3113 20.8771 51.9819 20.7662 50.6991C20.7305 50.2684 20.6957 49.8209 20.8529 49.417Z" fill="#8CBD3F"/>
<path d="M27.4 48.6137C28.6683 47.6298 30.4925 47.6068 31.925 48.3126C33.3562 49.0172 34.4345 50.2665 35.4066 51.5311C35.8296 52.0778 36.2495 52.6597 36.3779 53.3391C36.6436 54.7419 35.606 56.048 34.5546 57.0257C33.7718 57.7543 32.8857 58.4553 31.8317 58.6247C30.0667 58.9076 28.4668 57.6402 27.228 56.3646C26.8435 55.9691 26.4665 55.5605 26.1919 55.0819C25.6642 54.1607 25.5627 53.0622 25.4712 52.0012C25.4424 51.6458 25.5251 50.07 27.4 48.6137Z" fill="#A7CF38"/>
<path d="M23.1431 49.7202C22.6929 49.1806 22.2515 48.6266 21.8051 48.0804C21.9088 47.9507 22.0137 47.8197 22.116 47.6887C22.3258 47.4267 22.5368 47.1607 22.7679 46.9189C22.872 46.8074 22.9826 46.7022 23.0987 46.6021C24.5738 45.3381 26.8413 45.383 28.5735 46.2355C28.9323 46.4132 29.2723 46.6186 29.5971 46.8452C29.5499 46.8281 29.4974 46.8059 29.4435 46.7798C27.1456 45.679 25.0863 46.7379 24.5003 47.3775C23.9777 47.9482 23.4838 48.808 23.1431 49.7202Z" fill="#6FA542"/>
<path d="M26.9383 49.9547C26.8896 51.2528 27.4401 53.1287 28.7077 53.7226C29.7296 54.2012 30.6722 53.8719 31.3147 52.9736C32.6626 51.0821 30.494 48.2823 28.4197 48.45C27.5855 48.517 26.9684 49.1015 26.9383 49.9547Z" fill="#C2DB71"/>
<path d="M29.474 55.9469C30.0216 56.4855 30.8639 55.6309 30.315 55.091C29.7674 54.5523 28.9238 55.4083 29.474 55.9469Z" fill="#C2DB71"/>
<path d="M31.847 57.8845C31.9624 57.5882 32.1633 57.3328 32.3617 57.0827C32.6575 56.7122 32.9519 56.3403 33.2476 55.9698C33.585 55.545 33.925 55.1175 34.3367 54.7638C35.9699 53.3636 38.4819 53.4134 40.402 54.3591C42.3208 55.3035 43.7635 56.9799 45.0689 58.6724C45.6326 59.407 46.1973 60.1857 46.3687 61.0967C46.7243 62.977 45.3356 64.7278 43.9265 66.0371C42.8764 67.0135 41.689 67.9552 40.2762 68.1808C37.9117 68.5617 35.7653 66.8609 34.1061 65.1504C33.5911 64.6201 33.0849 64.0727 32.7169 63.4312C32.0106 62.1969 31.8734 60.7236 31.7517 59.3033C31.711 58.8272 31.6738 58.3316 31.847 57.8845Z" fill="#8CBD3F"/>
<path d="M39.1017 56.9945C40.508 55.9035 42.5296 55.8787 44.1159 56.6603C45.7022 57.4419 46.8954 58.8264 47.9745 60.2264C48.4404 60.8319 48.9072 61.4763 49.049 62.2295C49.3427 63.7837 48.194 65.2302 47.0307 66.3143C46.1625 67.1215 45.1807 67.8988 44.0127 68.0863C42.0586 68.3995 40.2828 66.9944 38.9122 65.5802C38.4865 65.1427 38.0682 64.6895 37.7638 64.1596C37.1793 63.1383 37.066 61.9218 36.9667 60.7466C36.9332 60.3536 37.0263 58.6074 39.1017 56.9945Z" fill="#A7CF38"/>
<path d="M33.8745 60.694C33.1533 60.0046 32.4345 59.3126 31.7196 58.6165C31.7231 58.3656 31.7564 58.1179 31.8473 57.8846C31.9628 57.5882 32.1637 57.3329 32.3621 57.0828C32.6578 56.7122 32.9522 56.3404 33.248 55.9698C33.4792 55.6774 33.7117 55.3836 33.9694 55.1139C34.0862 54.9917 34.2083 54.8746 34.3371 54.7638C35.9703 53.3637 38.4823 53.4135 40.4024 54.3591C40.7993 54.5555 41.1774 54.7822 41.5366 55.034C41.4829 55.0158 41.4264 54.9897 41.3647 54.9612C38.8211 53.7424 36.5382 54.9156 35.8888 55.6242C34.8322 56.7749 33.8841 58.99 33.8745 60.694Z" fill="#6FA542"/>
<path d="M38.5882 58.4788C38.5361 59.916 39.1458 61.9933 40.55 62.6517C41.6822 63.1824 42.7279 62.817 43.4372 61.8224C44.9324 59.7261 42.5296 56.6236 40.2309 56.8107C39.3059 56.8848 38.6227 57.5332 38.5882 58.4788Z" fill="#C2DB71"/>
<path d="M41.3973 65.1167C42.0048 65.7151 42.9386 64.7674 42.3299 64.1703C41.7238 63.5731 40.79 64.5209 41.3973 65.1167Z" fill="#C2DB71"/>
<path d="M42.9654 71.5062C42.977 71.1589 43.0917 70.8262 43.2065 70.4987C43.3774 70.0114 43.5483 69.5241 43.718 69.0355C43.912 68.4788 44.1099 67.9181 44.4064 67.4084C45.5862 65.3817 48.1948 64.53 50.5144 64.8103C52.8353 65.0893 54.9275 66.2884 56.8835 67.5581C57.7303 68.1082 58.5937 68.7047 59.0995 69.577C60.1422 71.3795 59.3402 73.6758 58.3605 75.5278C57.6301 76.9063 56.744 78.2987 55.3702 79.0393C53.068 80.2804 50.2414 79.3072 47.9136 78.1498C47.192 77.7905 46.4726 77.4104 45.8616 76.8848C44.6872 75.8717 44.0161 74.4118 43.3785 72.9966C43.165 72.5206 42.9472 72.0251 42.9654 71.5062Z" fill="#8CBD3F"/>
<path d="M50.1255 67.9844C51.1818 66.3581 53.2572 65.6042 55.1741 65.8351C57.0924 66.0673 58.8225 67.0575 60.4395 68.1075C61.1386 68.5622 61.8528 69.0542 62.2706 69.7765C63.1335 71.2671 62.4706 73.1653 61.6591 74.695C61.0572 75.8354 60.3229 76.9865 59.1879 77.5996C57.285 78.6225 54.9483 77.8201 53.0241 76.8629C52.4286 76.5657 51.8328 76.253 51.3291 75.8173C50.3576 74.9802 49.8027 73.771 49.2759 72.6016C49.0994 72.2092 48.5656 70.3849 50.1255 67.9844Z" fill="#A7CF38"/>
<path d="M43.496 69.6722C43.5706 69.4613 43.645 69.2478 43.7182 69.0356C43.9122 68.4789 44.1101 67.9182 44.4066 67.4085C44.5905 67.0912 44.8101 66.8029 45.0577 66.5439C46.3945 65.1426 48.5572 64.5739 50.5146 64.8104C50.9955 64.8684 51.4668 64.9657 51.9285 65.0943C51.8674 65.0944 51.7984 65.0894 51.7254 65.0807C48.6625 64.7457 46.7315 66.7712 46.3165 67.7319C45.8671 68.7766 45.6374 70.2906 45.7148 71.7015C44.9756 71.0255 44.2339 70.3496 43.496 69.6722Z" fill="#6FA542"/>
<path d="M50.1311 69.6905C50.5964 71.1849 51.973 73.098 53.6585 73.2679C55.0159 73.4062 55.9632 72.6544 56.3373 71.3775C57.1239 68.6903 53.5275 66.3712 51.2241 67.3875C50.2963 67.7971 49.8256 68.707 50.1311 69.6905Z" fill="#C2DB71"/>
<path d="M55.4219 75.4919C56.2639 75.8875 56.8842 74.579 56.0436 74.1847C55.2003 73.7905 54.58 75.099 55.4219 75.4919Z" fill="#C2DB71"/>
<path d="M56.9156 79.8146C57.073 79.5355 57.3097 79.3092 57.5412 79.0883C57.8872 78.7581 58.2346 78.4293 58.5806 78.0992C58.9763 77.7224 59.3758 77.3444 59.8357 77.0494C61.6612 75.8788 64.1578 76.2824 65.9371 77.4951C67.7177 78.709 68.9206 80.5858 69.9819 82.4592C70.4408 83.2715 70.8942 84.1294 70.9374 85.0629C71.0264 86.9908 69.3954 88.543 67.8076 89.6536C66.6242 90.4822 65.307 91.254 63.8676 91.2813C61.4566 91.328 59.5569 89.3292 58.1432 87.3883C57.706 86.7874 57.2775 86.1693 57.0032 85.4776C56.4701 84.1446 56.5417 82.6549 56.6224 81.2196C56.6479 80.7382 56.6795 80.2371 56.9156 79.8146Z" fill="#8CBD3F"/>
<path d="M64.2702 79.9458C65.8251 79.0529 67.8428 79.3115 69.3145 80.314C70.7863 81.3192 71.7804 82.8692 72.6588 84.418C73.0392 85.0892 73.4126 85.7968 73.4482 86.5706C73.5219 88.1635 72.1733 89.4468 70.8606 90.3654C69.8818 91.049 68.7942 91.687 67.6043 91.7113C65.6115 91.7485 64.0406 90.0971 62.8724 88.4925C62.5103 87.9964 62.1569 87.4832 61.9296 86.9126C61.4888 85.8101 61.5481 84.5806 61.6136 83.3926C61.6358 82.9944 61.9736 81.2635 64.2702 79.9458Z" fill="#A7CF38"/>
<path d="M58.4968 83.6061C57.9879 83.112 57.4751 82.6193 56.9624 82.1293L56.5931 81.7763C56.6006 81.5903 56.6107 81.4042 56.6221 81.2194C56.6476 80.738 56.6792 80.2369 56.9153 79.8144C57.0115 79.6446 57.1355 79.4936 57.2726 79.3528C57.359 79.2624 57.4506 79.1746 57.5409 79.0881C57.887 78.7579 58.2343 78.4291 58.5804 78.099C58.976 77.7222 59.3756 77.3441 59.8355 77.0491C61.661 75.8785 64.1576 76.2822 65.9369 77.4948C66.3052 77.7477 66.6507 78.0271 66.9734 78.3305C66.9234 78.303 66.8694 78.2717 66.8126 78.2327C64.4494 76.6577 62.0084 77.5095 61.2621 78.1255C59.9466 79.2092 58.5817 81.5546 58.4993 83.3162C58.4963 83.4124 58.4946 83.5099 58.4968 83.6061Z" fill="#6FA542"/>
<path d="M63.5509 81.3558C63.296 82.7846 63.6125 84.9452 64.9184 85.7995C65.9711 86.4879 67.0656 86.2708 67.9123 85.3771C69.697 83.4939 67.7401 80.0578 65.4225 79.9217C64.4894 79.8661 63.7168 80.4163 63.5509 81.3558Z" fill="#C2DB71"/>
<path d="M65.4158 88.3793C65.938 89.0615 67.0009 88.2474 66.4786 87.5652C65.9589 86.883 64.8948 87.6984 65.4158 88.3793Z" fill="#C2DB71"/>
<path d="M67.0833 91.9509C67.1877 91.6847 67.3672 91.4571 67.5441 91.2347C67.8095 90.9012 68.0723 90.5678 68.3364 90.2357C68.6384 89.8558 68.943 89.4734 69.3114 89.157C70.7738 87.9037 73.0206 87.9491 74.7395 88.794C76.4586 89.6415 77.7505 91.1407 78.9167 92.657C79.4228 93.3136 79.9285 94.0104 80.0821 94.8257C80.3995 96.5094 79.156 98.0762 77.8959 99.2483C76.9565 100.122 75.8929 100.964 74.6278 101.168C72.5119 101.507 70.5905 99.9852 69.1043 98.4553C68.6438 97.9796 68.1922 97.4895 67.8634 96.916C67.229 95.8114 67.1069 94.4924 66.9976 93.2212C66.9633 92.7944 66.9273 92.3508 67.0833 91.9509Z" fill="#8CBD3F"/>
<path d="M73.576 91.1541C74.834 90.1782 76.6439 90.1543 78.0645 90.8539C79.4826 91.5535 80.5516 92.7939 81.517 94.047C81.9347 94.5886 82.3519 95.1653 82.4802 95.8395C82.7416 97.2307 81.7143 98.5262 80.6718 99.4946C79.8953 100.217 79.0157 100.913 77.9707 101.081C76.2212 101.361 74.6346 100.104 73.4064 98.8386C73.0259 98.4469 72.6503 98.0421 72.3783 97.5661C71.8547 96.6539 71.7534 95.5632 71.6647 94.5126C71.6333 94.1598 71.7163 92.597 73.576 91.1541Z" fill="#A7CF38"/>
<path d="M68.9191 94.0386C68.2862 93.4057 67.6546 92.7741 67.0229 92.1398C67.0384 92.0758 67.059 92.0117 67.0823 91.9501C67.1868 91.6839 67.3662 91.4563 67.5431 91.2339C67.8085 90.9005 68.0713 90.567 68.3354 90.2349C68.5439 89.9741 68.7524 89.7108 68.9822 89.4704C69.0863 89.3615 69.1944 89.2563 69.3104 89.1563C70.7728 87.9029 73.0195 87.9483 74.7385 88.7933C75.0946 88.9685 75.4333 89.1726 75.7542 89.398C75.707 89.3809 75.6558 89.36 75.6019 89.3339C73.3237 88.2417 71.2824 89.2924 70.6989 89.9268C69.8402 90.8624 69.0604 92.5877 68.9191 94.0386Z" fill="#6FA542"/>
<path d="M73.1176 92.4826C73.0713 93.7702 73.6176 95.6294 74.872 96.2183C75.8861 96.6945 76.8222 96.3666 77.4571 95.4763C78.7962 93.5993 76.645 90.8238 74.5876 90.9899C73.7586 91.0567 73.1479 91.6371 73.1176 92.4826Z" fill="#C2DB71"/>
<path d="M75.6329 98.4246C76.1765 98.9594 77.0112 98.1102 76.4663 97.5767C75.924 97.0431 75.088 97.8911 75.6329 98.4246Z" fill="#C2DB71"/>
<path d="M76.9725 103.444C77.0597 103.22 77.2126 103.025 77.363 102.836C77.5866 102.554 77.8116 102.271 78.0365 101.988C78.2931 101.666 78.5508 101.341 78.8632 101.073C80.1063 100.009 82.015 100.046 83.4738 100.764C84.9339 101.484 86.0309 102.756 87.023 104.045C87.4515 104.602 87.8807 105.195 88.012 105.888C88.2808 107.316 87.2244 108.648 86.1539 109.643C85.3558 110.385 84.4532 111.1 83.3797 111.271C81.5823 111.561 79.9507 110.269 78.6893 108.969C78.2968 108.566 77.9119 108.15 77.6331 107.662C77.0947 106.723 76.9914 105.605 76.8994 104.523C76.8691 104.161 76.8399 103.785 76.9725 103.444Z" fill="#8CBD3F"/>
<path d="M82.4859 102.769C83.555 101.94 85.092 101.92 86.2972 102.515C87.5036 103.109 88.4112 104.162 89.2305 105.225C89.5854 105.686 89.9408 106.176 90.0473 106.748C90.2715 107.931 89.3984 109.03 88.5124 109.854C87.853 110.466 87.1074 111.058 86.2191 111.2C84.7325 111.439 83.3841 110.371 82.3422 109.296C82.0176 108.963 81.6992 108.618 81.4692 108.215C81.0254 107.44 80.9395 106.514 80.8621 105.622C80.8385 105.322 80.9073 103.995 82.4859 102.769Z" fill="#A7CF38"/>
<path d="M78.7985 103.995C78.3661 103.551 77.9337 103.107 77.5001 102.665C77.6795 102.44 77.859 102.215 78.0371 101.988C78.2128 101.767 78.3897 101.545 78.5852 101.34C78.6741 101.247 78.7656 101.157 78.8638 101.073C80.1069 100.009 82.0155 100.047 83.4743 100.765C83.7766 100.914 84.0638 101.087 84.3372 101.279C84.2965 101.264 84.2533 101.245 84.2073 101.224C82.2733 100.295 80.5377 101.188 80.0456 101.727C79.5484 102.269 79.0828 103.117 78.7985 103.995Z" fill="#6FA542"/>
<path d="M82.0969 103.897C82.0579 104.991 82.5211 106.57 83.5877 107.071C84.4481 107.474 85.2424 107.196 85.7828 106.439C86.9191 104.846 85.0932 102.488 83.3458 102.63C82.6414 102.686 82.1223 103.179 82.0969 103.897Z" fill="#C2DB71"/>
<path d="M84.232 108.944C84.6932 109.398 85.4035 108.679 84.9409 108.224C84.4797 107.77 83.7708 108.491 84.232 108.944Z" fill="#C2DB71"/>
<path d="M84.8067 113.746C84.8853 113.544 85.0218 113.372 85.1557 113.203C85.3553 112.952 85.5563 112.699 85.7572 112.446C85.9846 112.158 86.2159 111.868 86.4951 111.629C87.603 110.677 89.3076 110.713 90.6113 111.354C91.9124 111.995 92.892 113.132 93.777 114.281C94.1599 114.779 94.5436 115.308 94.6602 115.925C94.9022 117.201 93.9582 118.388 93.0036 119.278C92.2908 119.941 91.4851 120.58 90.5256 120.733C88.9212 120.991 87.4643 119.837 86.3386 118.677C85.9899 118.316 85.6462 117.945 85.3959 117.51C84.9156 116.672 84.8229 115.673 84.7413 114.708C84.7146 114.385 84.6875 114.049 84.8067 113.746Z" fill="#8CBD3F"/>
<path d="M89.7274 113.142C90.6815 112.402 92.0534 112.384 93.1298 112.915C94.2074 113.444 95.0163 114.385 95.7486 115.334C96.0646 115.745 96.3812 116.182 96.4772 116.694C96.6765 117.748 95.8981 118.73 95.1089 119.465C94.5196 120.013 93.8531 120.54 93.0606 120.667C91.7333 120.88 90.5291 119.928 89.599 118.967C89.3103 118.671 89.0266 118.364 88.8196 118.004C88.4244 117.311 88.3473 116.485 88.2799 115.688C88.2557 115.421 88.3186 114.236 89.7274 113.142Z" fill="#A7CF38"/>
<path d="M87.0475 112.894C86.7527 112.556 86.4685 112.231 86.1963 111.92C86.2115 111.901 86.2293 111.883 86.2458 111.866C86.3245 111.783 86.4085 111.703 86.4952 111.629C87.6031 110.677 89.3077 110.712 90.6114 111.354C90.8808 111.487 91.1364 111.639 91.3807 111.812C91.3453 111.798 91.3059 111.781 91.2639 111.761C89.5375 110.935 87.9894 111.73 87.5481 112.213C87.373 112.402 87.2041 112.634 87.0475 112.894Z" fill="#6FA542"/>
<path d="M89.3818 114.149C89.3454 115.126 89.7593 116.535 90.7129 116.982C91.48 117.341 92.1892 117.094 92.6717 116.419C93.6857 114.996 92.0553 112.891 90.496 113.018C89.8681 113.068 89.405 113.507 89.3818 114.149Z" fill="#C2DB71"/>
<path d="M91.2878 118.655C91.6998 119.059 92.3338 118.417 91.9205 118.011C91.5085 117.607 90.8745 118.249 91.2878 118.655Z" fill="#C2DB71"/>
<path d="M12.4485 39.7036C11.5226 43.7065 14.5249 49.3544 16.6292 52.5859C19.8106 57.4746 28.9769 67.263 33.1148 71.3426C42.4433 80.5411 44.9424 83.5882 53.971 93.0899C57.5068 96.8127 61.0355 100.16 64.5655 103.509C68.0305 106.798 71.4994 110.088 74.9777 113.735C79.718 118.709 83.9742 122.101 88.0794 124.736C91.7469 127.092 95.2989 130.035 99.5368 131.178C101.213 131.629 103.368 129.901 102.109 129.016C98.5053 126.478 86.6554 112.264 83.538 108.941C76.8184 101.784 69.7408 94.943 62.8609 87.9349C54.3343 79.2537 45.1087 71.3303 36.271 62.9719C32.1183 59.0434 28.0092 55.0853 24.1466 50.8747C22.4677 49.0464 21.0323 46.8889 19.2001 45.2317C18.2568 44.3784 17.5894 43.3108 16.926 42.2497C16.2195 41.1168 15.5156 39.9891 14.4863 39.1273C13.812 38.5616 12.6698 38.7407 12.4485 39.7036Z" fill="#6EA041"/>
<path d="M60.502 96.3331C58.1921 94.1252 55.9027 91.9013 53.6247 89.668C45.2531 81.4629 37.2183 72.9798 29.1748 64.4579C25.3189 60.3732 22.4813 56.207 19.8583 51.2446C18.593 48.8506 17.9619 46.2826 16.2207 44.1658C15.6888 43.5176 15.1905 42.5152 14.5582 41.9109C14.4958 41.8512 14.4322 41.7954 14.3673 41.7436C13.8209 41.3154 13.1122 40.9532 12.6101 40.4733C12.5171 40.3844 12.4319 40.2927 12.3556 40.1944C12.3804 40.0275 12.4118 39.8643 12.4485 39.7037C12.4981 39.4816 12.5993 39.3013 12.7313 39.1631C13.1717 38.697 13.9683 38.6933 14.4863 39.1274C14.6028 39.2235 14.7129 39.3237 14.8192 39.4253C15.6733 40.2416 16.299 41.2438 16.926 42.2498C17.5544 43.2571 18.188 44.2669 19.0554 45.096L19.1444 45.1811C19.7486 46.5008 20.2526 47.8722 20.9504 49.1899C23.572 54.1511 26.4109 58.3185 30.2656 62.4045C38.3091 70.9264 46.3438 79.4095 54.7167 87.6134C56.9947 89.8466 59.2842 92.0705 61.5941 94.2784C67.4572 99.8825 73.445 105.372 79.6678 110.557C84.0374 114.198 88.496 117.748 93.1636 120.999C93.9835 121.569 94.8449 122.133 95.7246 122.702C97.4089 124.543 98.9825 126.203 100.244 127.409C100.988 128.12 101.623 128.673 102.109 129.016C102.159 129.051 102.204 129.086 102.244 129.125C102.555 129.422 102.547 129.79 102.339 130.135C99.1969 127.465 95.3078 125.306 92.0741 123.054C87.4039 119.802 82.9453 116.252 78.5783 112.612C72.3542 107.425 66.3651 101.937 60.502 96.3331Z" fill="#5C8F3E"/>
<path d="M77.8613 116.627C76.9195 115.727 75.9582 114.765 74.9771 113.735C72.4213 111.056 69.8725 108.569 67.3248 106.134C66.4043 105.254 65.484 104.382 64.5649 103.509C63.642 102.634 62.7203 101.761 61.7985 100.88C59.1897 98.3861 56.5823 95.8405 53.9704 93.0898C44.9418 83.5881 42.4427 80.5411 33.1142 71.3425C31.5923 69.842 29.39 67.5694 27.0563 65.054C26.9457 64.9331 26.8338 64.8134 26.7219 64.6912C24.7623 62.5716 22.7304 60.299 20.9423 58.1807C20.6112 57.7879 20.2906 57.4026 19.9779 57.0224C18.6001 55.3471 17.4257 53.8128 16.6286 52.5857C14.6091 49.4837 11.7635 44.1558 12.3551 40.1942C12.4314 40.2925 12.5166 40.3842 12.6096 40.4731C13.1117 40.953 13.8204 41.3151 14.3668 41.7434C14.4316 41.7952 14.4953 41.851 14.5577 41.9106C15.19 42.515 15.6883 43.5174 16.2202 44.1656C17.9614 46.2823 18.5925 48.8504 19.8578 51.2444C22.4807 56.2069 25.3183 60.373 29.1742 64.4577C37.2177 72.9796 45.2525 81.4627 53.6241 89.6679C55.9021 91.9011 58.1915 94.1251 60.5014 96.333C66.3645 101.937 72.3537 107.425 78.5777 112.612C82.9448 116.252 87.4034 119.802 92.0736 123.053C95.3072 125.305 99.1963 127.465 102.338 130.135C102.278 130.232 102.203 130.329 102.116 130.42C101.558 131.001 100.472 131.43 99.5362 131.178C95.2983 130.035 91.7463 127.092 88.0788 124.736C84.8242 122.647 81.4742 120.08 77.8613 116.627Z" fill="#53863C"/>
<path d="M23.6473 51.7221C27.4346 55.7005 32.4965 60.704 36.6195 64.3525C41.416 68.5966 45.9867 72.851 49.8254 76.7463C53.664 80.6391 57.3383 83.9325 61.1972 87.804C64.7583 91.3781 69.1112 95.4243 72.6303 99.0396C76.4063 102.921 78.727 105.375 82.4647 109.291C86.0295 113.026 89.2322 117.076 92.8364 120.775C95.8871 123.905 99.8905 128.763 102.565 129.861C103.489 130.24 104.599 128.996 103.962 128.019C101.612 124.418 97.949 121.75 95.0319 118.609C91.5127 114.818 87.9683 111.059 84.4185 107.298C80.9886 103.661 77.8913 99.7369 74.4919 96.0734C70.7782 92.0713 66.7309 88.3756 62.8442 84.5411C55.3752 77.1707 47.9868 69.5724 40.8943 61.84C37.2022 57.8153 33.5657 53.61 29.5063 49.951C25.3446 46.1968 20.5536 41.9708 16.2747 38.3791C15.464 37.6982 13.8785 38.9076 14.4553 40.1071C16.4792 44.3241 20.1356 48.0325 23.6473 51.7221Z" fill="#ACD25C"/>
</svg>
