<svg width="134" height="152" viewBox="0 0 134 152" fill="none" xmlns="http://www.w3.org/2000/svg">
<path d="M1.10033 76.7669C0.919534 76.4316 0.772836 76.0645 0.773088 75.6835C0.774382 73.6622 2.85079 72.5857 4.54552 71.1879C6.77825 69.3475 10.6029 67.7941 13.0204 69.3804C15.4387 70.9694 16.684 75.4365 18.1901 77.9066C28.1089 94.1537 37.2455 110.303 44.1627 127.898C45.2647 130.695 44.0535 133.876 41.3719 135.24C39.3578 136.263 37.3856 137.198 35.8412 136.25C35.0727 135.779 34.5483 135.01 34.0515 134.259C21.8405 115.844 11.6014 96.1949 1.10033 76.7669Z" fill="#48863E"/>
<path d="M34.4994 134.916C34.3453 134.701 34.1977 134.479 34.0509 134.26C29.31 127.111 24.869 119.776 20.5915 112.341C22.0941 111.638 23.3006 110.317 23.777 108.626C24.0523 107.648 24.0541 106.647 23.8285 105.71C24.2359 105.066 24.5219 104.33 24.6524 103.533C24.9849 101.486 25.2861 99.4382 25.5594 97.3924C25.5836 97.4086 25.6079 97.4249 25.6348 97.4404C27.1575 98.4451 28.7209 99.3791 30.3116 100.266C32.2479 104.088 34.2772 108.086 36.0788 112.168C35.5993 111.376 35.0941 110.604 34.5727 109.857C34.3461 109.531 34.0065 109.452 33.7121 109.531C33.2772 109.647 32.9447 110.114 33.2393 110.641C35.0129 113.812 35.8323 117.274 36.9674 120.693C37.714 122.949 38.3163 125.26 40.3551 126.621C40.535 126.741 40.7304 126.76 40.9081 126.712C40.9266 126.707 40.9479 126.701 40.9684 126.693C41.0862 127.281 41.1926 127.869 41.2878 128.458C40.4829 128.318 39.6436 128.347 38.8135 128.569C36.0024 129.323 34.1869 132.094 34.4994 134.916ZM12.4644 97.8058C8.6398 90.8094 4.88716 83.7737 1.09971 76.7673C0.99034 76.5607 0.892799 76.3453 0.833109 76.1225C0.794737 75.9793 0.77229 75.8318 0.772467 75.684C0.773761 73.6627 2.85017 72.5861 4.5449 71.1883C5.67214 70.261 7.20482 69.404 8.75623 68.9883C9.70299 68.7347 10.6565 68.644 11.5289 68.8025C11.8585 69.1519 12.1815 69.5088 12.4999 69.8697C12.2497 79.1831 12.1733 88.4982 12.4644 97.8058Z" fill="#3A783A"/>
<path d="M41.8546 139.917C44.9495 139.088 46.8385 135.816 46.0092 132.721C45.1807 129.629 41.9089 127.74 38.814 128.569C35.7217 129.398 33.8328 132.669 34.6613 135.762C35.4906 138.857 38.7624 140.746 41.8546 139.917Z" fill="#66B045"/>
<path d="M40.9682 126.693C39.9845 121.823 38.1868 116.938 36.0786 112.168C37.1424 113.921 38.0846 115.772 38.8089 117.659C39.7992 120.23 41.6226 123.152 41.5179 125.954C41.5048 126.288 41.2661 126.585 40.9682 126.693Z" fill="#62994F"/>
<path d="M40.9085 126.712C40.7308 126.759 40.5353 126.741 40.3555 126.621C38.3167 125.26 37.7144 122.949 36.9678 120.693C35.8327 117.274 35.0133 113.812 33.2397 110.641C32.9451 110.114 33.2776 109.647 33.7125 109.53C34.0069 109.452 34.3465 109.531 34.5731 109.857C35.0945 110.604 35.5996 111.375 36.0792 112.168C38.1873 116.938 39.9851 121.823 40.9688 126.693C40.9483 126.701 40.927 126.707 40.9085 126.712Z" fill="#568F47"/>
<path d="M36.344 137.81L36.3626 137.847C37.6616 140.637 41.7372 140.148 43.1439 137.824L43.2087 137.716C44.2649 135.972 43.6048 133.508 41.8181 132.526L41.7078 132.464C39.3275 131.155 35.5525 132.766 35.8225 135.832C35.9113 136.831 35.9259 136.907 36.344 137.81Z" fill="#609E43"/>
<path d="M39.5092 134.463L39.6062 134.729C39.8942 135.496 40.5062 135.85 41.3144 135.716L41.5947 135.669C43.1156 135.415 43.2001 133.238 42.0064 132.549C40.8093 131.857 38.9661 133.019 39.5092 134.463Z" fill="#85C546"/>
<path d="M38.009 25.2874C37.5627 22.6669 37.1172 19.9752 35.7707 17.6869C34.4235 15.3959 31.9458 13.5641 29.2989 13.7845C27.8724 13.9024 26.514 14.5932 25.1524 15.049C23.4074 15.6331 22.2371 17.2485 22.28 19.0846C22.6979 36.9593 28.3716 54.3893 34.6145 71.2063C37.6628 79.4113 40.8588 87.5625 44.2037 95.6539C47.7421 96.1298 51.4662 94.9756 54.1138 92.5835C47.3051 70.7478 41.9304 48.2919 38.009 25.2874Z" fill="#415C2E"/>
<path d="M48.2668 83.2698C47.3483 83.226 46.4154 83.3083 45.4739 83.5605L45.3731 83.5875C44.8123 83.7435 44.2702 83.9797 43.7745 84.2831C42.5462 78.3305 41.4211 72.3389 40.3913 66.3104C39.9456 63.6926 39.5001 61.0008 38.1529 58.7099C36.8064 56.4215 34.3288 54.5898 31.6819 54.8102C31.2841 54.8428 30.8925 54.9193 30.5053 55.0231C30.0465 55.146 29.5924 55.3075 29.1377 55.4776C28.7086 54.1202 28.2894 52.7574 27.8869 51.3929C27.8792 50.0277 27.8648 48.6587 27.8471 47.2877C27.8387 46.4714 27.9274 45.5295 28.0339 44.5374C28.2992 42.0162 28.6658 39.1836 27.754 37.3188C27.0718 35.9184 25.5721 35.0952 23.8858 34.7C23.2386 31.022 22.7614 27.3211 22.495 23.6007C22.6945 23.7406 22.8959 23.877 23.0959 24.0082C27.3642 26.8155 31.9332 29.0902 36.5509 31.2922C37.3504 34.5201 37.9968 37.7919 38.5384 41.086C39.0146 43.9771 39.553 46.8457 40.1392 49.7016C39.3132 47.595 38.416 45.5302 37.4391 43.5181C37.2322 43.096 36.8628 42.9903 36.5207 43.082C36.0673 43.2035 35.6669 43.6718 35.7673 44.2162C37.0433 50.9831 38.9871 57.6223 40.8554 64.2447C42.2436 69.171 42.3602 75.8648 46.0883 79.5416C46.305 79.7564 46.5489 79.8076 46.7637 79.75C46.9971 79.6875 47.1937 79.4984 47.2916 79.259C47.6227 80.5687 47.9562 81.9091 48.2668 83.2698Z" fill="#354D23"/>
<path d="M50.6284 99.8682C58.2263 97.8324 55.0691 86.0495 47.4712 88.0854C39.8732 90.1213 43.0304 101.904 50.6284 99.8682Z" fill="#64863A"/>
<path d="M47.2923 79.2586C47.0675 78.3666 46.8417 77.492 46.6254 76.6318C44.3378 67.6488 42.0002 58.7446 40.1398 49.7012C43.7885 58.9903 46.0217 69.0537 47.3487 78.8114C47.3706 78.9675 47.3466 79.1218 47.2923 79.2586Z" fill="#586F49"/>
<path d="M46.7638 79.7497C46.549 79.8072 46.3051 79.7561 46.0884 79.5413C42.3602 75.8645 42.2436 69.1706 40.8554 64.2443C38.9872 57.6219 37.0433 50.9827 35.7674 44.2158C35.667 43.6714 36.0673 43.2031 36.5208 43.0816C36.8629 42.9899 37.2323 43.0956 37.4392 43.5177C38.4161 45.5299 39.3133 47.5946 40.1393 49.7013C41.9997 58.7447 44.3372 67.6489 46.6248 76.6319C46.8411 77.492 47.0669 78.3666 47.2917 79.2586C47.1938 79.498 46.9972 79.6871 46.7638 79.7497Z" fill="#4E6542"/>
<path d="M49.5932 96.6432C51.5345 96.1231 52.7226 94.0652 52.2017 92.1213C51.6816 90.18 49.6237 88.9919 47.6824 89.512C45.7385 90.0329 44.5504 92.0908 45.0705 94.0321C45.5914 95.976 47.6493 97.1641 49.5932 96.6432Z" fill="#587335"/>
<path d="M50.01 91.2931L49.8487 91.2852C48.8877 91.2414 48.1441 92.2535 48.4004 93.157L48.4279 93.2491C48.6368 93.9861 49.3866 94.4191 50.132 94.2307C50.4922 94.1427 50.7449 93.9613 51.0104 93.7111C51.9366 92.8291 51.1897 91.3465 50.01 91.2931Z" fill="#7FA748"/>
<path d="M66.647 54.1594C66.4662 53.8241 66.3195 53.4569 66.3197 53.076C66.321 51.0547 68.3974 49.9782 70.0922 48.5804C72.3249 46.74 76.1468 45.1872 78.5671 46.7728C80.9853 48.3618 82.2306 52.829 83.7367 55.2991C93.6555 71.5461 102.792 87.6958 109.709 105.287C110.811 108.087 109.599 111.266 106.918 112.63C104.904 113.655 102.931 114.587 101.388 113.642C100.619 113.172 100.095 112.403 99.5981 111.652C87.3864 93.2335 77.1481 73.5873 66.647 54.1594Z" fill="#35622F"/>
<path d="M100.143 110.44C99.3012 109.822 98.4551 109.21 97.6017 108.603C95.424 105.238 93.3068 101.835 91.2384 98.401C92.3407 97.8896 93.3657 97.217 94.2677 96.404C90.1292 83.1332 86.5209 69.6351 83.4464 55.9229C83.581 55.7674 83.7027 55.5956 83.8082 55.4166C84.9684 57.3172 86.1165 59.2152 87.2547 61.1188C88.9528 64.2736 90.6482 67.4292 92.3549 70.5846C92.3625 70.6024 92.3701 70.6203 92.3778 70.6381C95.1411 76.4636 98.6837 82.8961 101.626 89.5604C101.147 88.768 100.642 87.9966 100.12 87.2495C99.8937 86.9236 99.554 86.8441 99.2596 86.923C98.8247 87.0395 98.4923 87.5066 98.7868 88.0331C100.56 91.2047 101.38 94.666 102.516 98.0881C103.262 100.344 103.864 102.653 105.903 104.014C106.082 104.133 106.278 104.152 106.456 104.104C106.474 104.099 106.495 104.094 106.513 104.086C106.634 104.673 106.74 105.262 106.835 105.85C106.03 105.71 105.19 105.737 104.36 105.959C102.18 106.543 100.597 108.346 100.143 110.44Z" fill="#2A5227"/>
<path d="M107.403 117.309C110.498 116.48 112.387 113.208 111.557 110.113C110.729 107.021 107.456 105.129 104.361 105.959C101.269 106.787 99.3808 110.062 100.209 113.154C101.039 116.249 104.31 118.138 107.403 117.309Z" fill="#518C3F"/>
<path d="M106.513 104.085C105.53 99.2179 103.732 94.3305 101.626 89.5594C102.69 91.3124 103.63 93.164 104.357 95.0499C105.347 97.6212 107.171 100.546 107.066 103.346C107.053 103.679 106.814 103.976 106.513 104.085Z" fill="#4A743C"/>
<path d="M106.456 104.103C106.279 104.151 106.083 104.132 105.903 104.012C103.865 102.652 103.263 100.343 102.516 98.0869C101.381 94.6649 100.561 91.2035 98.7875 88.032C98.4929 87.5055 98.8254 87.0384 99.2603 86.9218C99.5547 86.8429 99.8943 86.9225 100.121 87.2483C100.642 87.9955 101.147 88.7668 101.627 89.5593C103.732 94.3303 105.531 99.2177 106.514 104.085C106.496 104.092 106.475 104.098 106.456 104.103Z" fill="#426A36"/>
<path d="M101.891 115.201L101.91 115.239C103.209 118.029 107.285 117.539 108.691 115.215L108.756 115.107C109.812 113.363 109.152 110.899 107.365 109.917L107.255 109.856C104.875 108.546 101.1 110.158 101.37 113.223C101.459 114.223 101.471 114.299 101.891 115.201Z" fill="#4B7938"/>
<path d="M105.054 111.855L105.154 112.121C105.441 112.888 106.053 113.241 106.862 113.107L107.142 113.061C108.663 112.807 108.747 110.629 107.553 109.937C106.357 109.249 104.513 110.411 105.054 111.855Z" fill="#68AC44"/>
<path d="M61.6033 5.45064C61.6262 5.06931 61.6922 4.67926 61.8926 4.35555C62.9552 2.63542 65.2871 2.8093 67.4605 2.50835C70.3275 2.11247 74.3989 2.79523 75.6237 5.41459C76.852 8.0359 75.5676 12.493 75.555 15.3842C75.477 34.4208 74.7859 52.9621 71.4441 71.5714C70.9124 74.5307 68.2161 76.6033 65.217 76.358C62.9649 76.1741 60.7944 75.9343 59.9747 74.3177C59.5689 73.514 59.5273 72.5844 59.4962 71.6831C58.7604 49.5988 60.3512 27.4992 61.6033 5.45064Z" fill="#35622F"/>
<path d="M68.3908 65.1605C65.7281 60.283 62.9457 55.4575 60.0748 50.6414C59.8904 50.2076 59.6801 49.7836 59.4448 49.372C59.4852 47.5818 59.5377 45.7941 59.5982 44.0042C61.8167 45.516 64.0132 47.0621 66.2194 48.5914C66.3956 49.2917 66.5765 49.9879 66.7634 50.6854C67.5983 53.8015 68.5237 56.9047 69.5112 59.9856C69.3681 60.5441 69.2276 61.1019 69.0965 61.6629C68.8173 62.8377 68.5019 64.0052 68.3908 65.1605ZM75.5137 20.8718C74.1098 18.8888 71.8504 17.4051 69.4536 17.6039C69.0559 17.6365 68.6642 17.7131 68.277 17.8168C67.2719 18.0861 66.2898 18.5369 65.3071 18.8684C64.1515 19.2548 63.2471 20.0912 62.7827 21.1479C62.1078 20.8143 61.4283 20.4848 60.7468 20.1586C61.0299 15.2535 61.3251 10.3509 61.6036 5.44983C61.6265 5.06851 61.6925 4.67846 61.8929 4.35475C62.3603 3.59565 63.077 3.20465 63.9176 2.97939C64.9811 2.69444 66.2468 2.67648 67.4607 2.50754C69.7743 2.18891 72.8696 2.57039 74.623 4.1073C75.2242 7.10411 75.5591 10.1893 75.7061 13.305C75.6214 14.0497 75.5574 14.7547 75.5553 15.3834C75.5469 17.219 75.5337 19.0474 75.5137 20.8718Z" fill="#2A5227"/>
<path d="M63.174 80.5944C66.2423 81.5118 69.5674 79.717 70.4848 76.6486C71.4015 73.5777 69.6067 70.2526 66.5383 69.3352C63.4707 68.4205 60.143 70.216 59.2256 73.2843C58.3109 76.3519 60.1057 79.677 63.174 80.5944Z" fill="#518C3F"/>
<path d="M70.207 68.5344C70.0694 68.2757 69.9312 68.0143 69.7936 67.7555C70.1917 66.5574 70.5461 65.334 70.8635 64.0892C71.0372 64.5998 71.2117 65.113 71.3888 65.6255C71.1375 66.682 70.7801 67.6817 70.2089 68.5311L70.207 68.5344Z" fill="#4A743C"/>
<path d="M69.7937 67.7551C69.3283 66.8878 68.8609 66.0239 68.3908 65.1607C68.5019 64.0054 68.8173 62.8379 69.0965 61.6631C69.2276 61.1021 69.3681 60.5443 69.5112 59.9858C69.9498 61.3577 70.401 62.7234 70.8636 64.0888C70.5462 65.3336 70.1918 66.557 69.7937 67.7551Z" fill="#426A36"/>
<path d="M59.5856 75.9618L59.5803 76.0058C59.4305 77.3563 60.4283 78.7887 61.544 79.4306C62.8083 80.1605 64.2239 80.0654 65.4917 79.4188L65.5994 79.3643C67.4641 78.4099 67.9297 75.8833 66.9537 74.1608L66.8892 74.0474C65.5034 71.6019 61.4141 71.393 60.1086 74.0735C59.6881 74.9337 59.6909 75.0183 59.5856 75.9618Z" fill="#4B7938"/>
<path d="M64.0239 74.7584L63.9712 75.0284C63.8144 75.8435 64.2014 76.4391 64.9477 76.7422L65.2186 76.8515C66.669 77.4378 67.8283 75.5269 67.1364 74.3451C66.4302 73.1416 64.3118 73.2658 64.0239 74.7584Z" fill="#68AC44"/>
<path d="M58.3756 74.1121C58.3958 73.7315 58.4645 73.3408 58.6648 73.017C59.7248 71.2976 62.0593 71.4708 64.2327 71.1698C67.0998 70.774 71.1685 71.4574 72.3967 74.0787C73.6242 76.6974 72.3399 81.1544 72.328 84.0484C72.2466 103.083 71.5555 121.624 68.2156 140.23C67.6847 143.192 64.9883 145.265 61.9885 145.017C59.7364 144.833 57.5659 144.593 56.7469 142.979C56.3411 142.176 56.2988 141.243 56.2684 140.345C55.5326 118.26 57.1235 96.1607 58.3756 74.1121Z" fill="#35622F"/>
<path d="M65.5209 139.244C64.9014 138.682 64.1542 138.249 63.3108 137.997C62.2513 137.681 61.1585 137.687 60.1481 137.958C58.4985 138.4 57.058 139.547 56.3076 141.138C56.2878 140.874 56.2786 140.606 56.2682 140.345C56.199 138.209 56.1491 136.07 56.1191 133.932C56.2472 133.827 56.3719 133.72 56.4952 133.607C56.3642 133.182 56.2305 132.757 56.0988 132.329C56.0393 126.103 56.1376 119.872 56.3373 113.647C59.1107 115.363 61.8115 117.2 64.4961 119.062C65.3499 121.198 66.215 123.334 67.0873 125.465C66.7016 127.08 66.2544 128.69 65.8684 130.325C65.3199 132.638 64.621 134.92 65.6442 137.147C65.75 137.383 65.9539 137.508 66.1756 137.539C65.9688 138.115 65.7519 138.685 65.5209 139.244Z" fill="#2A5227"/>
<path d="M59.9455 149.254C63.0139 150.171 66.3389 148.376 67.2563 145.308C68.1737 142.24 66.3788 138.915 63.3105 137.997C60.2422 137.08 56.9145 138.876 55.9972 141.944C55.0824 145.011 56.8779 148.339 59.9455 149.254Z" fill="#518C3F"/>
<path d="M66.5136 137.517C66.4022 137.547 66.2878 137.555 66.1756 137.539C67.3374 134.312 68.1691 130.86 68.7918 127.339C68.9445 127.346 69.0964 127.351 69.2503 127.353C69.1847 127.808 69.1123 128.259 69.0299 128.705C68.5228 131.416 68.5421 134.861 66.981 137.193C66.8711 137.356 66.6992 137.467 66.5136 137.517Z" fill="#4A743C"/>
<path d="M66.1761 137.539C65.9544 137.507 65.7505 137.383 65.6447 137.147C64.6216 134.92 65.3204 132.637 65.8689 130.325C66.255 128.689 66.7021 127.08 67.0878 125.464C67.3322 126.058 67.5766 126.652 67.8244 127.248C68.1455 127.29 68.469 127.32 68.7923 127.338C68.1695 130.859 67.3379 134.311 66.1761 137.539Z" fill="#426A36"/>
<path d="M56.358 144.621L56.3534 144.667C56.2036 146.018 57.2007 147.448 58.3171 148.092C59.5814 148.822 60.997 148.727 62.2641 148.078L62.3718 148.023C64.2365 147.069 64.7021 144.542 63.7268 142.822L63.6623 142.709C62.2765 140.263 58.1872 140.055 56.881 142.732C56.4605 143.593 56.464 143.68 56.358 144.621Z" fill="#4B7938"/>
<path d="M60.7956 143.418L60.7435 143.69C60.5868 144.506 60.9737 145.101 61.7194 145.402L61.9903 145.511C63.4414 146.1 64.6 144.186 63.9088 143.007C63.2026 141.804 61.0842 141.928 60.7956 143.418Z" fill="#68AC44"/>
<path d="M20.4743 87.684C21.1673 86.1652 22.6044 85.0894 24.2119 84.6388C27.4738 83.7221 30.6149 84.89 33.5916 86.102C52.8022 93.9159 70.8455 104.586 86.9536 117.646C88.703 119.062 89.273 121.476 88.4022 123.551C87.7631 125.069 87.181 126.61 86.6551 128.169C85.9477 130.26 83.5413 131.24 81.6022 130.188C71.6795 124.788 62.9351 117.305 53.0822 111.711C44.111 106.617 34.2573 103.109 25.6353 97.4404C22.2689 95.23 18.7091 91.5451 20.4743 87.684Z" fill="#557334"/>
<path d="M79.7424 129.143C78.0779 128.182 76.4418 127.168 74.8252 126.121C75.7091 125.696 76.5434 125.171 77.3009 124.551C77.3423 124.875 77.4063 125.199 77.4923 125.52C77.8796 126.965 78.6837 128.205 79.7424 129.143ZM77.2947 122.756C76.0211 118.629 74.7992 114.482 73.6275 110.311C73.8345 110.426 74.039 110.542 74.246 110.657C77.284 112.384 80.2191 114.289 83.1146 116.259C83.0071 116.282 82.9004 116.308 82.7943 116.336C79.7684 117.147 77.6457 119.791 77.2947 122.756ZM64.4975 119.062C60.7725 116.478 57.0183 113.946 53.0827 111.711C51.9766 111.084 50.8569 110.48 49.7302 109.892C48.746 106.103 47.8041 102.291 46.902 98.4677C47.2775 98.6172 47.6484 98.7708 48.0207 98.9297C52.0044 100.622 55.6892 104.137 59.6461 106.567C61.2262 110.746 62.8419 114.909 64.4975 119.062ZM33.2871 101.863C32.2874 101.346 31.2948 100.813 30.3126 100.267C28.7219 99.3796 27.1585 98.4455 25.6358 97.4409C25.6089 97.4253 25.5846 97.4091 25.5604 97.3929C26.1078 93.2725 26.5393 89.1548 26.8722 85.0294C27.37 85.1689 27.8659 85.3117 28.3639 85.4625C28.5667 86.2723 28.7781 87.0825 28.9949 87.8914C30.2533 92.5881 31.715 97.2474 33.2871 101.863Z" fill="#44642E"/>
<path d="M86.6749 130.824C90.6237 129.766 93.0369 125.587 91.9788 121.638C90.9214 117.692 86.7417 115.278 82.7929 116.337C78.8441 117.395 76.4336 121.574 77.4909 125.52C78.549 129.469 82.7261 131.882 86.6749 130.824Z" fill="#7B9D3D"/>
<path d="M59.6451 106.568C55.6882 104.137 52.0034 100.622 48.0196 98.9297C47.6473 98.7708 47.2765 98.6173 46.901 98.4677C46.7172 97.6756 46.53 96.8816 46.3488 96.0888C46.4984 96.1908 46.648 96.2929 46.7961 96.3896C50.4293 98.7787 54.2805 100.782 58.1918 102.682C58.2051 102.721 58.2218 102.762 58.2351 102.801C58.7024 104.057 59.1724 105.313 59.6451 106.568Z" fill="#5D7B3E"/>
<path d="M87.9672 124.634L88.0446 124.403C88.6915 122.436 86.6492 120.596 84.761 121.102C82.8701 121.608 82.0244 124.223 83.568 125.603L83.7479 125.765C85.2009 127.061 87.3596 126.482 87.9672 124.634Z" fill="#6E8939"/>
<path d="M81.1375 123.985L81.3019 124.1C82.0616 124.644 83.4168 124.281 83.8027 123.43L83.8876 123.248C84.5884 121.716 83.4408 119.81 81.6242 120.296C79.8049 120.784 79.7644 123.009 81.1375 123.985Z" fill="#6E8939"/>
<path d="M83.6201 126.666C85.9035 126.054 84.9548 122.514 82.6715 123.125C80.3908 123.737 81.3394 127.277 83.6201 126.666Z" fill="#6E8939"/>
<path d="M85.383 122.339C87.25 121.839 86.4755 118.948 84.6085 119.448C82.7441 119.948 83.5187 122.839 85.383 122.339Z" fill="#9ABD3C"/>
<path d="M41.6356 86.6328C42.3287 85.114 43.7658 84.0383 45.3732 83.5877C48.6351 82.671 51.7789 83.8382 54.7549 85.0475C73.9636 92.8647 92.0095 103.535 108.118 116.594C109.864 118.011 110.434 120.424 109.563 122.497C108.927 124.018 108.345 125.558 107.816 127.118C107.112 129.208 104.705 130.188 102.766 129.133C92.8428 123.734 84.0964 116.254 74.2456 110.656C65.2716 105.563 55.4186 102.058 46.7967 96.3893C43.4329 94.1782 39.8705 90.4939 41.6356 86.6328Z" fill="#48863E"/>
<path d="M105.346 129.443C104.513 129.666 103.597 129.587 102.764 129.134C99.1074 127.144 95.608 124.872 92.1565 122.514C89.1328 120.448 86.1433 118.318 83.1131 116.259C80.2175 114.289 77.2824 112.384 74.2445 110.657C74.0374 110.542 73.833 110.426 73.6259 110.311C72.5237 106.388 71.467 102.445 70.4566 98.4832C70.5756 98.5452 70.6952 98.6097 70.8148 98.6743C71.2018 99.2699 71.5941 99.864 71.989 100.457C72.4851 101.206 73.0076 101.978 73.7761 102.449C74.5613 102.929 75.4583 102.924 76.4157 102.668C76.4847 102.649 76.5509 102.632 76.6192 102.611C80.4712 105.455 84.3891 108.26 88.956 108.077C89.0511 108.071 89.1415 108.058 89.229 108.035C89.953 107.841 90.3961 107.023 89.9752 106.311C88.7737 104.288 87.0077 102.482 84.9766 100.863C86.8347 101.815 88.71 102.799 90.5833 103.818C96.643 107.773 102.495 112.038 108.116 116.595C108.955 117.274 109.523 118.185 109.79 119.179C110.08 120.252 110.015 121.421 109.562 122.498C108.926 124.018 108.344 125.558 107.815 127.118C107.413 128.312 106.454 129.146 105.346 129.443ZM58.1912 102.682C54.2799 100.783 50.4288 98.7788 46.7956 96.3898C46.6474 96.2931 46.4979 96.191 46.3483 96.089C45.4466 92.1722 44.5879 88.2353 43.7735 84.2837C44.2692 83.9803 44.8113 83.7441 45.3721 83.5882L45.4729 83.5612C45.632 83.5185 45.7919 83.4786 45.9512 83.4472C48.0199 83.9332 50.1082 84.5561 52.1983 85.2808C52.3652 85.8188 52.5328 86.3594 52.7016 86.894L52.6751 86.9011C52.036 87.0724 51.6825 88.034 52.1917 88.6508C52.7091 89.2768 53.2568 89.8464 53.8297 90.3722C55.206 94.5114 56.6802 98.6131 58.1912 102.682Z" fill="#3A783A"/>
<path d="M107.84 129.772C111.788 128.713 114.199 124.535 113.141 120.586C112.083 116.637 107.906 114.226 103.958 115.284C100.009 116.342 97.5977 120.518 98.6557 124.467C99.7138 128.416 103.891 130.83 107.84 129.772Z" fill="#66B045"/>
<path d="M84.9766 100.863C83.8756 100.297 82.78 99.7404 81.6959 99.1952C81.7884 99.0312 81.8775 98.8652 81.9592 98.6926C83.001 99.3771 84.0188 100.099 84.9766 100.863Z" fill="#62994F"/>
<path d="M89.2296 108.034C89.1421 108.058 89.0517 108.071 88.9566 108.076C84.3896 108.26 80.4717 105.455 76.6198 102.61C77.4825 102.351 78.3914 101.903 79.3092 101.435C79.442 101.368 79.5706 101.297 79.6952 101.221C80.5411 100.707 81.2172 100.006 81.6964 99.195C82.7805 99.7402 83.8761 100.297 84.9772 100.863C87.0083 102.482 88.7743 104.288 89.9758 106.311C90.3967 107.023 89.9536 107.84 89.2296 108.034ZM70.8154 98.6741C70.6958 98.6095 70.5761 98.5449 70.4572 98.483C70.4073 98.2861 70.3581 98.0917 70.3082 97.8948C70.477 98.1537 70.6466 98.4152 70.8154 98.6741ZM53.8303 90.372C53.2573 89.8461 52.7096 89.2766 52.1923 88.6506C51.6831 88.0338 52.0366 87.0722 52.6757 86.9009L52.7022 86.8938C53.0707 88.0571 53.4465 89.2156 53.8303 90.372Z" fill="#568F47"/>
<path d="M109.131 123.582L109.205 123.349C109.853 121.385 107.813 119.541 105.922 120.047C104.034 120.553 103.186 123.171 104.729 124.548L104.912 124.712C106.362 126.009 108.521 125.431 109.131 123.582Z" fill="#609E43"/>
<path d="M102.301 122.934L102.462 123.05C103.224 123.59 104.577 123.228 104.966 122.379L105.051 122.197C105.752 120.665 104.601 118.759 102.785 119.245C100.968 119.732 100.925 121.958 102.301 122.934Z" fill="#609E43"/>
<path d="M104.784 125.613C107.067 125.001 106.118 121.461 103.835 122.073C101.552 122.685 102.5 126.225 104.784 125.613Z" fill="#609E43"/>
<path d="M106.547 121.288C108.411 120.788 107.636 117.897 105.772 118.397C103.908 118.896 104.682 121.787 106.547 121.288Z" fill="#85C546"/>
<path d="M13.7368 37.5812C13.751 37.1994 13.8117 36.8108 14.008 36.4825C15.041 34.7475 17.3762 34.8807 19.5457 34.5439C22.404 34.1048 26.4856 34.7195 27.7534 37.3188C29.0245 39.9201 27.8131 44.3946 27.8465 47.2877C28.0781 66.3237 27.6883 84.8753 24.6522 103.533C24.1687 106.503 21.5064 108.617 18.5035 108.421C16.2493 108.272 14.0741 108.068 13.23 106.466C12.8123 105.671 12.7534 104.741 12.7083 103.84C11.6124 81.7699 12.8446 59.6471 13.7368 37.5812Z" fill="#6F983E"/>
<path d="M21.9098 102.563C21.2888 102.027 20.5439 101.612 19.7108 101.378C18.6783 101.089 17.6223 101.105 16.6438 101.367C14.9597 101.818 13.4998 103 12.7581 104.634C12.7356 104.37 12.7212 104.104 12.7074 103.84C11.6115 81.7699 12.8438 59.647 13.7359 37.5812C13.7502 37.1993 13.8109 36.8107 14.0072 36.4824C14.4793 35.6879 15.2244 35.2865 16.1049 35.0506C17.1445 34.772 18.3692 34.7281 19.5449 34.5438C21.8705 34.185 25.009 34.5265 26.7805 36.0671C27.3929 38.8193 27.7937 41.6623 28.0325 44.5374C27.926 45.5295 27.8372 46.4713 27.8457 47.2877C27.8634 48.6587 27.8778 50.0277 27.8854 51.3928C27.8977 52.9131 27.9032 54.4294 27.9027 55.9446C27.7783 55.9893 27.6557 56.0306 27.5332 56.072C25.7882 56.6561 24.6179 58.2715 24.6615 60.1102C24.7881 65.5365 25.3981 70.9214 26.3624 76.2597C26.1517 78.8573 25.9453 81.5134 25.6823 84.1705C25.6658 83.8224 25.6432 83.4732 25.6188 83.1273C25.5742 82.5366 25.0326 82.2866 24.6029 82.4018C24.3165 82.4785 24.0788 82.7156 24.0702 83.1187C23.9748 86.7512 22.9144 90.145 22.1411 93.6664C21.6321 95.9886 20.9727 98.28 22.0289 100.493C22.1324 100.709 22.3182 100.83 22.522 100.869C22.3305 101.438 22.1269 102.004 21.9098 102.563Z" fill="#5D883C"/>
<path d="M16.5304 112.691C19.6139 113.558 22.91 111.709 23.7779 108.625C24.6431 105.543 22.7935 102.246 19.7127 101.378C16.6299 100.513 13.3337 102.362 12.4652 105.443C11.6 108.526 13.4469 111.823 16.5304 112.691Z" fill="#98C23C"/>
<path d="M22.8911 100.853C22.7717 100.885 22.6427 100.891 22.5231 100.87C24.2838 95.6339 25.1189 89.893 25.6833 84.1707C25.8109 86.7685 25.7101 89.4475 25.2788 91.9962C24.8157 94.7125 24.8916 98.1571 23.3689 100.515C23.2579 100.684 23.082 100.802 22.8911 100.853Z" fill="#86AA57"/>
<path d="M22.5233 100.87C22.3195 100.83 22.1336 100.71 22.0301 100.493C20.9739 98.2803 21.6333 95.9889 22.1424 93.6667C22.9156 90.1452 23.976 86.7515 24.0714 83.119C24.08 82.7159 24.3177 82.4788 24.6042 82.4021C25.0338 82.2869 25.5754 82.5369 25.62 83.1276C25.6445 83.4735 25.667 83.8227 25.6835 84.1708C25.1191 89.8931 24.284 95.6339 22.5233 100.87Z" fill="#799F4E"/>
<path d="M12.8688 108.056L12.8635 108.1C12.5449 111.249 16.3643 112.795 18.7742 111.51L18.8838 111.452C20.7096 110.48 21.2536 107.981 20.2362 106.252L20.1724 106.141C18.7676 103.752 14.685 103.43 13.391 106.165C12.9846 107.024 12.9635 107.115 12.8688 108.056Z" fill="#8DAE3E"/>
<path d="M17.2931 106.816L17.2445 107.091C17.101 107.902 17.4628 108.51 18.221 108.805L18.4871 108.907C19.9405 109.472 21.1063 107.597 20.4056 106.403C19.709 105.214 17.5609 105.312 17.2931 106.816Z" fill="#B8D54C"/>
<path d="M78.1625 29.1045C77.7169 26.4867 77.2713 23.795 75.9241 21.504C74.5776 19.2157 72.1 17.3839 69.4531 17.6043C68.0265 17.7222 66.6675 18.4103 65.3066 18.8688C63.5615 19.4529 62.3906 21.0657 62.4341 22.9044C62.8494 40.7798 68.5258 58.2091 74.7679 75.0235C77.8143 83.2318 81.013 91.3823 84.3571 99.471C87.8929 99.9477 91.6177 98.7961 94.268 96.4033C87.4559 74.5656 82.0839 52.109 78.1625 29.1045Z" fill="#6F983E"/>
<path d="M89.174 99.1494C87.6093 99.5687 85.9617 99.6889 84.357 99.4709C81.0128 91.3821 77.8142 83.2316 74.7677 75.0233C73.4235 71.407 72.1081 67.7602 70.8629 64.0889C70.4004 62.7234 69.9492 61.3577 69.5105 59.9858C68.523 56.905 67.5977 53.8017 66.7627 50.6856C66.5758 49.9881 66.395 49.2919 66.2187 48.5916C69.9721 51.1957 73.7485 53.7482 77.699 55.9954C78.72 60.0394 79.8778 64.0525 81.0095 68.064C82.3977 72.9902 82.5143 79.6841 86.2424 83.3609C86.4592 83.5757 86.7024 83.6242 86.9172 83.5667C87.1479 83.5048 87.3479 83.3177 87.4458 83.0783C88.7149 88.0904 89.9875 93.5508 90.132 98.8529C89.8175 98.9628 89.4975 99.0627 89.174 99.1494ZM74.4144 27.3373C70.6028 25.1524 66.7214 23.0885 62.7821 21.1481C63.2465 20.0914 64.1508 19.255 65.3064 18.8686C66.2892 18.5371 67.2713 18.0863 68.2764 17.817C68.6636 17.7133 69.0552 17.6367 69.4529 17.6041C69.7116 17.5831 69.9693 17.5794 70.2267 17.5957C71.8833 20.7446 73.2594 24.0028 74.4144 27.3373Z" fill="#5D883C"/>
<path d="M90.7827 103.687C98.3806 101.652 95.2234 89.8688 87.6255 91.9046C80.0275 93.9405 83.1847 105.723 90.7827 103.687Z" fill="#98C23C"/>
<path d="M87.4462 83.0787C87.2214 82.1868 86.9948 81.3095 86.7766 80.4527C84.7984 72.6773 82.7825 64.9631 81.069 57.1679C81.2519 57.1502 81.4338 57.1185 81.6089 57.0716C84.4913 65.3466 86.3409 74.1058 87.5026 82.6316C87.5245 82.7877 87.5005 82.942 87.4462 83.0787Z" fill="#86AA57"/>
<path d="M86.9178 83.5666C86.703 83.6242 86.4598 83.5756 86.243 83.3608C82.5149 79.684 82.3983 72.9902 81.0101 68.0639C79.8784 64.0524 78.7207 60.0393 77.6996 55.9953C78.1521 56.2521 78.6066 56.5055 79.0657 56.7549C79.7083 57.1057 80.4043 57.2318 81.0692 57.1674C82.7827 64.9625 84.7986 72.6767 86.7768 80.4522C86.995 81.3089 87.2216 82.1862 87.4464 83.0782C87.3485 83.3176 87.1485 83.5048 86.9178 83.5666Z" fill="#799F4E"/>
<path d="M89.7441 100.461C91.688 99.9396 92.8769 97.8844 92.356 95.9405C91.8351 93.9966 89.7779 92.8111 87.834 93.3319C85.8928 93.8521 84.704 95.9074 85.2248 97.8513C85.7457 99.7952 87.8029 100.981 89.7441 100.461Z" fill="#8DAE3E"/>
<path d="M90.1646 95.1126L90.0033 95.1046C89.0415 95.0582 88.298 96.0704 88.555 96.9765L88.5818 97.0659C88.7914 97.8056 89.5412 98.2386 90.2866 98.0502C90.6461 97.9596 90.8995 97.7808 91.1616 97.5287C92.0912 96.6486 91.3443 95.166 90.1646 95.1126Z" fill="#B8D54C"/>
<path d="M35.9935 16.5934C36.6873 15.0773 38.1244 14.0015 39.7311 13.5483C42.9937 12.6343 46.1341 13.7995 49.1135 15.0108C68.3241 22.8246 86.3674 33.4952 102.476 46.5573C104.223 47.9738 104.793 50.3877 103.924 52.4596C103.286 53.9808 102.704 55.521 102.178 57.0803C101.47 59.1714 99.0639 60.1515 97.1242 59.0966C87.2014 53.6972 78.4577 46.2168 68.6049 40.6224C59.6302 35.5261 49.7773 32.0209 41.1553 26.3525C37.7915 24.1414 34.2284 20.4546 35.9935 16.5934Z" fill="#5D813F"/>
<path d="M86.178 52.2422C85.8688 52.0323 85.5622 51.8217 85.2556 51.6111C85.4537 51.1089 85.6538 50.6147 85.8619 50.1184C86.3146 49.0392 86.3769 47.8713 86.0891 46.7973C85.8233 45.8054 85.2552 44.8946 84.4159 44.2128C75.7161 37.1611 66.4518 30.8036 56.7437 25.2188C58.9828 26.0969 61.2911 26.8825 63.5422 27.837C70.0931 30.6238 75.8377 38.3365 83.3157 38.0383C83.4109 38.0327 83.5013 38.0198 83.5888 37.9964C84.3128 37.8024 84.7559 36.9844 84.335 36.2729C83.1335 34.2499 81.3668 32.4408 79.3356 30.822C81.1918 31.7771 83.0698 32.7604 84.943 33.7792C90.3098 37.2812 95.515 41.0285 100.54 45.0058C99.8063 44.9722 99.0564 45.048 98.3165 45.2463C96.5343 45.7238 95.0646 46.8368 94.0865 48.2784C93.5093 48.2881 92.9155 48.3847 92.3241 48.5432C90.7727 48.9589 89.2393 49.8132 88.1128 50.7432C87.4769 51.266 86.789 51.7431 86.178 52.2422ZM61.2906 21.6299C56.6034 20.4414 51.7373 19.6674 47.7687 17.013C47.506 16.8389 47.2524 16.8046 47.0349 16.8628C46.3958 17.0341 46.0423 17.9957 46.5508 18.6099C47.2538 19.4618 48.015 20.2129 48.8187 20.8787C44.926 18.8576 40.9713 16.9555 36.9622 15.1788C37.7063 14.4024 38.6846 13.8419 39.7312 13.5472L39.832 13.5202C39.9911 13.4776 40.1516 13.4402 40.3102 13.4063C47.3182 15.0559 54.5323 18.2705 61.2906 21.6299Z" fill="#4B7335"/>
<path d="M102.199 59.735C106.148 58.677 108.558 54.498 107.5 50.5491C106.443 46.603 102.266 44.1891 98.317 45.2472C94.3682 46.3053 91.9577 50.4843 93.0151 54.4304C94.0732 58.3793 98.2502 60.7931 102.199 59.735Z" fill="#80AC48"/>
<path d="M79.337 30.8223C77.4452 29.8512 75.5726 28.909 73.7404 27.9901C69.9033 26.0707 65.693 23.8192 61.292 21.6302C63.6343 22.2249 65.933 22.9221 68.0518 24.0087C71.5612 25.8084 75.8383 28.0334 79.337 30.8223Z" fill="#75935F"/>
<path d="M83.5901 37.9964C83.5026 38.0199 83.4123 38.0327 83.3171 38.0383C75.8391 38.3366 70.0944 30.6239 63.5435 27.837C61.2924 26.8826 58.9842 26.0969 56.7451 25.2188C54.1337 23.7157 51.4921 22.269 48.8201 20.8787C48.0163 20.2129 47.2551 19.4619 46.5522 18.6099C46.0437 17.9957 46.3971 17.0341 47.0363 16.8629C47.2537 16.8046 47.5074 16.8389 47.7701 17.013C51.7387 19.6675 56.6048 20.4414 61.292 21.6299C65.693 23.8189 69.9033 26.0704 73.7404 27.9898C75.5726 28.9087 77.4452 29.8509 79.337 30.822C81.3682 32.4408 83.1348 34.2499 84.3363 36.2729C84.7572 36.9844 84.3141 37.8024 83.5901 37.9964Z" fill="#698956"/>
<path d="M103.491 53.5446L103.565 53.3116C104.212 51.3473 102.172 49.5036 100.281 50.0102C98.393 50.5162 97.5452 53.1338 99.0882 54.5111L99.2714 54.6751C100.722 55.9721 102.881 55.3936 103.491 53.5446Z" fill="#759947"/>
<path d="M96.6607 52.8964L96.8225 53.0122C97.5849 53.5555 98.9374 53.1931 99.326 52.3414L99.4109 52.1595C100.112 50.6273 98.9614 48.7212 97.1448 49.208C95.3282 49.6948 95.285 51.9206 96.6607 52.8964Z" fill="#759947"/>
<path d="M99.1439 55.5758C101.427 54.964 100.479 51.4236 98.1952 52.0354C95.9118 52.6472 96.8605 56.1876 99.1439 55.5758Z" fill="#759947"/>
<path d="M100.906 51.2502C102.77 50.7507 101.996 47.86 100.131 48.3596C98.2671 48.8591 99.0416 51.7498 100.906 51.2502Z" fill="#9CCC59"/>
<path d="M39.0379 42.9615C38.8545 42.6269 38.7078 42.2598 38.708 41.8788C38.71 39.8602 40.7857 38.781 42.4812 37.3859C44.7139 35.5455 48.5378 33.9893 50.9561 35.5783C53.3763 37.164 54.6189 41.6318 56.1276 44.1012C66.0445 60.3516 75.183 76.4979 82.1003 94.0922C83.2003 96.8928 81.9911 100.071 79.3094 101.434C77.2961 102.46 75.3205 103.393 73.7768 102.448C73.0084 101.977 72.4859 101.205 71.9898 100.457C59.7755 82.0391 49.539 62.3895 39.0379 42.9615Z" fill="#5D813F"/>
<path d="M76.4162 102.667C75.4588 102.924 74.5618 102.928 73.7765 102.448C73.0081 101.977 72.4856 101.205 71.9895 100.457C71.4231 99.6051 70.8646 98.7514 70.3081 97.8943C66.8889 84.4336 63.9949 70.7583 61.6296 56.8816C61.2704 54.7665 60.9089 52.6008 60.0741 50.6415C60.8397 51.9287 61.5992 53.2146 62.3542 54.5045C63.1925 56.1587 63.9962 57.8109 64.7689 59.4428C67.5288 65.2664 71.0722 71.7015 74.014 78.3632C73.5345 77.5707 73.0294 76.7993 72.5114 76.0542C72.2821 75.729 71.9425 75.6495 71.6481 75.7284C71.2132 75.8449 70.88 76.3094 71.1753 76.8385C72.9489 80.0101 73.7703 83.4681 74.9034 86.8908C75.6526 89.1459 76.2542 91.4547 78.2938 92.8183C78.4702 92.9359 78.6664 92.9573 78.8441 92.9096C78.8653 92.904 78.8838 92.899 78.9043 92.8907C79.4674 95.6817 79.7647 98.4671 79.6951 101.22C79.5706 101.296 79.4419 101.368 79.3092 101.434C78.3913 101.902 77.4824 102.35 76.6197 102.61C76.5514 102.631 76.4851 102.649 76.4162 102.667ZM46.1974 56.2528C45.0701 54.1673 43.9474 52.0776 42.8254 49.9907C41.5632 47.6456 40.3017 45.3033 39.0376 42.9616C38.9263 42.7584 38.8288 42.5429 38.7684 42.3175C38.73 42.1743 38.7075 42.0268 38.7077 41.879C38.7097 39.8603 40.7854 38.7811 42.4808 37.386C43.3144 36.6993 44.3684 36.0503 45.4909 35.5932C47.1956 36.4496 48.8855 37.3355 50.5423 38.2787C51.6283 38.8944 52.7006 39.5337 53.7606 40.1905C54.1919 40.7713 54.6114 41.361 55.0244 41.9581C55.3919 42.7464 55.7494 43.4863 56.1273 44.1013C56.9334 45.4231 57.7328 46.741 58.5269 48.0602C57.116 46.3804 55.075 45.2019 52.9202 45.3814C52.5225 45.414 52.1308 45.4906 51.7436 45.5943C50.7359 45.8643 49.7564 46.3144 48.7703 46.644C47.0279 47.2274 45.8577 48.8428 45.9013 50.6815C45.9452 52.5429 46.0451 54.4006 46.1974 56.2528Z" fill="#4B7335"/>
<path d="M79.7933 106.115C82.8855 105.286 84.7764 102.011 83.9478 98.9188C83.1193 95.8266 79.8441 93.9357 76.7519 94.7642C73.657 95.5935 71.7688 98.8679 72.5973 101.96C73.4259 105.052 76.6984 106.944 79.7933 106.115Z" fill="#80AC48"/>
<path d="M78.9042 92.8914C77.9206 88.0216 76.1221 83.1342 74.0139 78.3639C75.0777 80.1169 76.0199 81.9678 76.7469 83.8536C77.7372 86.425 79.5612 89.35 79.4539 92.1529C79.4408 92.4861 79.2021 92.7832 78.9042 92.8914Z" fill="#75935F"/>
<path d="M78.8445 92.9099C78.6668 92.9575 78.4706 92.9361 78.2942 92.8186C76.2546 91.455 75.653 89.1461 74.9038 86.891C73.7707 83.4683 72.9493 80.0103 71.1757 76.8387C70.8804 76.3096 71.2136 75.8451 71.6485 75.7286C71.9429 75.6497 72.2825 75.7292 72.5118 76.0544C73.0298 76.7996 73.5349 77.5709 74.0145 78.3634C76.1226 83.1337 77.9211 88.0211 78.9047 92.8909C78.8842 92.8992 78.8657 92.9042 78.8445 92.9099Z" fill="#698956"/>
<path d="M74.2816 104.005L74.2983 104.046C75.5972 106.836 79.6721 106.343 81.0789 104.019L81.147 103.913C82.2006 102.17 81.5404 99.7061 79.7564 98.7231L79.6435 98.6624C77.2632 97.3532 73.4882 98.9644 73.7582 102.03C73.8469 103.03 73.8615 103.105 74.2816 104.005Z" fill="#759947"/>
<path d="M77.4452 100.66L77.5449 100.926C77.8328 101.694 78.4422 102.048 79.2497 101.911L79.53 101.864C81.0515 101.613 81.1361 99.4355 79.9417 98.7437C78.7453 98.0552 76.9021 99.217 77.4452 100.66Z" fill="#9CCC59"/>
<path d="M40.3908 66.3105C39.9452 63.6927 39.4997 61.0009 38.1524 58.71C36.806 56.4216 34.3283 54.5899 31.6814 54.8103C30.2548 54.9282 28.8958 55.6163 27.5342 56.0721C25.7892 56.6562 24.6189 58.2716 24.6625 60.1104C25.0804 77.9851 30.7541 95.4151 36.9962 112.229C40.0446 120.434 43.2406 128.586 46.5854 136.677C50.1238 137.153 53.8479 135.999 56.4956 133.607C49.6869 111.771 44.3122 89.315 40.3908 66.3105Z" fill="#5D813F"/>
<path d="M51.4011 136.353C49.8364 136.773 48.1914 136.892 46.5848 136.677C46.4139 136.263 46.2431 135.848 46.0731 135.436C45.2481 133.429 44.4304 131.416 43.6233 129.401C41.341 123.706 39.1309 117.982 36.9955 112.23C34.0328 104.249 31.1977 96.1293 28.9932 87.8915C26.5521 78.7706 24.881 69.5002 24.6618 60.1109C24.6182 58.2721 25.7885 56.6567 27.5335 56.0726C28.517 55.7437 29.4991 55.293 30.5042 55.0237C30.8914 54.9199 31.283 54.8434 31.6807 54.8108C31.9394 54.7898 32.1971 54.7861 32.4544 54.8024C36.9419 63.3181 39.3624 72.6379 40.9196 82.1093C41.3958 85.0003 41.9343 87.869 42.5204 90.7249C41.6952 88.6209 40.7973 86.5535 39.8204 84.5413C39.6142 84.1219 39.2441 84.0136 38.902 84.1052C38.4485 84.2267 38.0488 84.6976 38.1492 85.2421C39.4245 92.0064 41.3683 98.6455 43.2366 105.268C44.6248 110.194 44.7414 116.888 48.4695 120.565C48.6862 120.78 48.9302 120.831 49.145 120.773C49.3784 120.711 49.5757 120.524 49.6728 120.282C50.942 125.294 52.2173 130.754 52.3591 136.057C52.0446 136.167 51.7246 136.267 51.4011 136.353Z" fill="#4B7335"/>
<path d="M53.0102 140.891C60.6081 138.855 57.4516 127.075 49.8537 129.111C42.2584 131.146 45.4149 142.926 53.0102 140.891Z" fill="#80AC48"/>
<path d="M49.6731 120.282C49.4484 119.39 49.2225 118.515 49.0063 117.655C46.7187 108.672 44.3818 99.7705 42.5207 90.7244C46.1701 100.016 48.4033 110.08 49.7295 119.835C49.7515 119.991 49.7275 120.145 49.6731 120.282Z" fill="#75935F"/>
<path d="M49.1457 120.773C48.9308 120.83 48.6869 120.779 48.4702 120.564C44.7421 116.887 44.6255 110.194 43.2373 105.267C41.369 98.6448 39.4252 92.0057 38.1499 85.2414C38.0495 84.697 38.4492 84.2261 38.9027 84.1045C39.2448 84.0129 39.6149 84.1212 39.821 84.5406C40.7979 86.5528 41.6958 88.6202 42.5211 90.7242C44.3822 99.7703 46.719 108.672 49.0066 117.655C49.2229 118.515 49.4487 119.39 49.6735 120.282C49.5764 120.524 49.379 120.71 49.1457 120.773Z" fill="#698956"/>
<path d="M51.9755 137.666C53.9168 137.146 55.1049 135.088 54.584 133.144C54.0639 131.203 52.006 130.015 50.0647 130.535C48.1208 131.056 46.9327 133.113 47.4528 135.055C47.9737 136.999 50.0316 138.187 51.9755 137.666Z" fill="#759947"/>
<path d="M52.3916 132.315L52.2303 132.307C51.2693 132.264 50.5257 133.276 50.782 134.179L50.8095 134.271C51.0184 135.008 51.7682 135.441 52.5136 135.253C52.8738 135.165 53.1265 134.984 53.392 134.733C54.3182 133.851 53.5713 132.369 52.3916 132.315Z" fill="#9CCC59"/>
<path d="M84.6682 56.3197C84.4874 55.9844 84.3408 55.6173 84.341 55.2363C84.343 53.2177 86.4187 52.1385 88.1142 50.7434C90.3469 48.903 94.1708 47.3468 96.5891 48.9358C99.0066 50.5222 100.253 54.992 101.758 57.4594C111.677 73.7091 120.817 89.8581 127.731 107.45C128.833 110.25 127.624 113.428 124.94 114.793C122.926 115.818 120.953 116.75 119.41 115.805C118.641 115.335 118.119 114.562 117.619 113.812C105.408 95.3966 95.1693 75.7477 84.6682 56.3197Z" fill="#48863E"/>
<path d="M122.049 116.025C121.091 116.281 120.194 116.286 119.409 115.806C118.641 115.335 118.118 114.563 117.619 113.812C108.393 99.898 100.292 85.2787 92.3553 70.584C90.6485 67.4286 88.9531 64.273 87.2551 61.1182C86.3943 59.5183 85.531 57.9191 84.6676 56.32C84.5589 56.116 84.4614 55.9006 84.401 55.6751C84.3626 55.5319 84.3409 55.3871 84.3404 55.2366C84.3424 53.218 86.4181 52.1388 88.1135 50.7437C89.24 49.8136 90.7734 48.9593 92.3248 48.5436C93.2716 48.29 94.2251 48.1993 95.0968 48.3552C97.1057 50.5058 98.9506 52.851 100.657 55.3158C101.022 56.1048 101.382 56.844 101.757 57.4597C103.875 60.9285 105.956 64.3899 107.988 67.8648C108.826 69.519 109.626 71.1692 110.402 72.8005C113.162 78.6267 116.705 85.0592 119.647 91.7235C119.168 90.931 118.663 90.1596 118.141 89.4125C117.915 89.0867 117.575 89.0071 117.281 89.086C116.846 89.2026 116.513 89.667 116.808 90.1962C118.582 93.3677 119.4 96.8264 120.536 100.248C121.283 102.504 121.884 104.813 123.926 106.173C124.103 106.294 124.299 106.315 124.477 106.267C124.495 106.262 124.516 106.254 124.537 106.248C125.1 109.039 125.395 111.825 125.328 114.578C125.203 114.654 125.075 114.725 124.939 114.793C123.951 115.296 122.972 115.778 122.049 116.025Z" fill="#3A783A"/>
<path d="M125.426 119.472C128.518 118.643 130.406 115.369 129.578 112.276C128.748 109.181 125.476 107.292 122.384 108.121C119.289 108.95 117.4 112.222 118.23 115.317C119.058 118.409 122.331 120.301 125.426 119.472Z" fill="#66B045"/>
<path d="M124.537 106.248C123.553 101.378 121.754 96.491 119.647 91.7234C120.711 93.4764 121.653 95.3272 122.377 97.2111C123.367 99.7825 125.191 102.707 125.086 105.51C125.073 105.843 124.834 106.14 124.537 106.248Z" fill="#62994F"/>
<path d="M124.477 106.267C124.299 106.315 124.103 106.293 123.926 106.173C121.885 104.813 121.283 102.504 120.536 100.248C119.401 96.8262 118.582 93.3675 116.808 90.1959C116.513 89.6668 116.846 89.2023 117.281 89.0858C117.575 89.0069 117.915 89.0864 118.142 89.4123C118.663 90.1594 119.168 90.9308 119.648 91.7232C121.755 96.4909 123.554 101.378 124.537 106.248C124.516 106.254 124.496 106.262 124.477 106.267Z" fill="#568F47"/>
<path d="M119.912 117.362L119.931 117.402C121.23 120.192 125.305 119.7 126.712 117.376L126.777 117.268C127.833 115.524 127.173 113.06 125.386 112.078L125.276 112.017C122.896 110.71 119.121 112.321 119.391 115.387C119.479 116.384 119.494 116.462 119.912 117.362Z" fill="#609E43"/>
<path d="M123.078 114.018L123.177 114.284C123.463 115.052 124.074 115.403 124.882 115.268L125.163 115.222C126.684 114.97 126.769 112.793 125.574 112.101C124.378 111.413 122.535 112.575 123.078 114.018Z" fill="#85C546"/>
<path d="M61.6303 56.8823C61.1847 54.2645 60.7392 51.5727 59.392 49.2817C58.0448 46.9908 55.5678 45.1617 52.9209 45.382C51.4944 45.4999 50.1353 46.1881 48.7711 46.6446C47.0287 47.228 45.8584 48.8434 45.902 50.6822C46.3192 68.5542 51.9936 85.9868 58.2357 102.801C61.2821 111.01 64.4801 119.157 67.8249 127.249C71.3607 127.725 75.0848 126.571 77.7351 124.178C70.9264 102.343 65.5517 79.8867 61.6303 56.8823Z" fill="#48863E"/>
<path d="M72.6411 126.924C71.3893 127.259 70.0864 127.404 68.7926 127.338C68.4693 127.32 68.1458 127.29 67.8248 127.248C67.577 126.652 67.3326 126.058 67.0881 125.464C64.0109 117.958 61.06 110.403 58.2355 102.801C55.2728 94.82 52.4377 86.7 50.2332 78.4622C47.7921 69.3413 46.121 60.0709 45.9018 50.6816C45.8582 48.8428 47.0285 47.2274 48.7709 46.644C49.757 46.3144 50.7364 45.8644 51.7442 45.5944C52.1314 45.4906 52.523 45.4141 52.9207 45.3814C53.1794 45.3604 53.4371 45.3568 53.6944 45.3731C58.1819 53.8888 60.5997 63.2092 62.1596 72.68C62.6358 75.571 63.1743 78.4397 63.7604 81.2955C62.9352 79.1916 62.0373 77.1242 61.0577 75.1127C60.8542 74.6926 60.4841 74.5842 60.142 74.6759C59.6885 74.7974 59.2862 75.2691 59.3892 75.8128C60.6645 82.577 62.6083 89.2162 64.4766 95.8386C65.8648 100.765 65.9814 107.459 69.7102 111.138C69.9262 111.35 70.1702 111.402 70.385 111.344C70.6184 111.281 70.815 111.092 70.9128 110.853C72.182 115.865 73.4546 121.325 73.5991 126.628C73.2846 126.737 72.9646 126.837 72.6411 126.924Z" fill="#3A783A"/>
<path d="M74.2492 131.462C81.8472 129.426 78.69 117.644 71.092 119.679C63.4941 121.715 66.6513 133.498 74.2492 131.462Z" fill="#66B045"/>
<path d="M70.9134 110.853C70.6893 109.964 70.4628 109.086 70.2439 108.227C67.9589 99.2432 65.6221 90.3417 63.761 81.2956C67.4097 90.5846 69.6409 100.651 70.9698 110.406C70.9925 110.565 70.9677 110.716 70.9134 110.853Z" fill="#62994F"/>
<path d="M70.3849 111.344C70.1701 111.402 69.9262 111.351 69.7102 111.139C65.9813 107.459 65.8647 100.765 64.4765 95.839C62.6082 89.2166 60.6644 82.5775 59.3892 75.8132C59.2861 75.2695 59.6884 74.7978 60.1419 74.6763C60.484 74.5847 60.8541 74.693 61.0577 75.1131C62.0372 77.1246 62.9351 79.192 63.7604 81.296C65.6214 90.342 67.9583 99.2436 70.2432 108.227C70.4622 109.087 70.6887 109.964 70.9128 110.853C70.8149 111.093 70.6183 111.282 70.3849 111.344Z" fill="#568F47"/>
<path d="M73.2141 128.237C75.1553 127.717 76.3434 125.659 75.8226 123.715C75.3024 121.774 73.2445 120.586 71.3033 121.106C69.3593 121.627 68.1712 123.685 68.6914 125.626C69.2122 127.57 71.2701 128.758 73.2141 128.237Z" fill="#609E43"/>
<path d="M73.6319 122.887L73.4706 122.879C72.5095 122.835 71.766 123.847 72.0222 124.751L72.0498 124.843C72.2586 125.58 73.0085 126.013 73.7539 125.824C74.114 125.737 74.3667 125.555 74.6322 125.305C75.5584 124.423 74.8116 122.94 73.6319 122.887Z" fill="#85C546"/>
<path d="M17.9343 14.2518C18.6273 12.733 20.0644 11.6573 21.6718 11.2067C24.9337 10.29 28.0749 11.4579 31.0516 12.6699C50.2622 20.4837 68.3081 31.1536 84.4162 44.213C86.163 45.6295 86.733 48.0434 85.8622 50.1186C85.2258 51.6365 84.641 53.1774 84.1158 54.7393C83.4111 56.8297 81.0047 57.8099 79.0649 56.755C69.1395 51.3563 60.3951 43.8732 50.5422 38.2788C41.5702 33.1818 31.7173 29.6766 23.0953 24.0083C19.7288 21.7979 16.1691 18.1129 17.9343 14.2518Z" fill="#6F983E"/>
<path d="M81.6468 57.061C81.4585 57.1115 81.2667 57.1486 81.0699 57.1673C80.405 57.2317 79.7089 57.1056 79.0663 56.7548C78.6072 56.5054 78.1528 56.252 77.7002 55.9952C69.414 51.2829 61.8916 45.2204 53.7619 40.1905C52.7019 39.5337 51.6296 38.8944 50.5436 38.2786C48.8868 37.3355 47.1969 36.4495 45.4922 35.5931C42.5389 34.1077 39.5365 32.715 36.5516 31.2921C31.9339 29.0901 27.3649 26.8153 23.0967 24.0081C22.8967 23.8769 22.6952 23.7405 22.4958 23.6006C20.3531 22.0856 18.2635 20.0049 17.6499 17.6936C17.3536 16.5877 17.398 15.4275 17.9356 14.2516C18.6287 12.7328 20.0658 11.6571 21.6732 11.2065L21.774 11.1795C21.9331 11.1368 22.0903 11.0975 22.2496 11.0662C29.2595 12.7125 36.4709 15.9278 43.2293 19.2872C38.5421 18.0987 33.676 17.3248 29.7081 14.673C29.4473 14.4955 29.1937 14.4612 28.9736 14.5201C28.3371 14.6907 27.981 15.653 28.4902 16.2698C32.8858 21.5784 39.3988 22.9087 45.4808 25.4943C52.0344 28.2804 57.7771 35.9965 65.2571 35.6948C65.3503 35.6926 65.4433 35.6791 65.5308 35.6556C66.2522 35.4623 66.6972 34.641 66.2744 33.9329C65.0748 31.9065 63.3055 30.0981 61.275 28.4819C63.1332 29.4337 65.0085 30.4177 66.8844 31.4358C72.9415 35.3924 78.7966 39.6561 84.4176 44.2128C85.2569 44.8946 85.825 45.8055 86.0908 46.7973C86.3786 47.8714 86.3163 49.0392 85.8636 50.1184C85.6555 50.6147 85.4554 51.109 85.2574 51.6111C84.8518 52.6436 84.4718 53.6862 84.1172 54.7391C83.715 55.9327 82.7554 56.764 81.6468 57.061Z" fill="#5D883C"/>
<path d="M84.1395 57.3905C88.0857 56.3331 90.4995 52.1561 89.4414 48.2072C88.3833 44.2584 84.2044 41.8479 80.2582 42.9053C76.3094 43.9634 73.8955 48.1404 74.9536 52.0893C76.0117 56.0381 80.1907 58.4486 84.1395 57.3905Z" fill="#98C23C"/>
<path d="M61.2742 28.4823C59.3818 27.5085 57.5098 26.569 55.6776 25.6501C51.8425 23.7274 47.6322 21.4759 43.2285 19.2876C45.5708 19.8822 47.8695 20.5795 49.9883 21.666C53.4977 23.4657 57.7782 25.6927 61.2742 28.4823Z" fill="#86AA57"/>
<path d="M65.5298 35.6558C65.4423 35.6792 65.3493 35.6928 65.2561 35.695C57.7761 35.9966 52.0334 28.2806 45.4798 25.4944C39.3978 22.9088 32.8847 21.5785 28.4892 16.27C27.98 15.6532 28.3361 14.6908 28.9725 14.5203C29.1927 14.4613 29.4463 14.4957 29.707 14.6731C33.675 17.3249 38.541 18.0988 43.2283 19.2873C47.632 21.4756 51.8422 23.7271 55.6774 25.6499C57.5096 26.5688 59.3816 27.5083 61.274 28.4821C63.3045 30.0982 65.0738 31.9066 66.2734 33.933C66.6962 34.6412 66.2511 35.4625 65.5298 35.6558Z" fill="#799F4E"/>
<path d="M85.4302 51.2012L85.5049 50.9709C86.1525 49.0066 84.1096 47.1636 82.2214 47.6695C80.3331 48.1755 79.4854 50.7931 81.0284 52.1704L81.2109 52.3318C82.6613 53.6287 84.82 53.0503 85.4302 51.2012Z" fill="#8DAE3E"/>
<path d="M78.5974 50.5528L78.7625 50.6706C79.5242 51.2112 80.8767 50.8488 81.266 49.9998L81.3475 49.8159C82.051 48.283 80.9014 46.3796 79.0848 46.8664C77.2682 47.3531 77.2243 49.5763 78.5974 50.5528Z" fill="#8DAE3E"/>
<path d="M81.084 53.235C83.3674 52.6232 82.4187 49.0827 80.1354 49.6946C77.852 50.3064 78.8007 53.8468 81.084 53.235Z" fill="#8DAE3E"/>
<path d="M82.8461 48.909C84.7105 48.4095 83.9352 45.5162 82.0709 46.0157C80.2065 46.5153 80.9818 49.4086 82.8461 48.909Z" fill="#B8D54C"/>
</svg>
