<svg width="56" height="56" viewBox="0 0 56 56" fill="none" xmlns="http://www.w3.org/2000/svg">
<path d="M45.6993 3.87533C44.1321 2.87897 41.9573 2.92916 40.1594 4.00718C38.3469 5.09391 37.2216 6.90128 36.4724 8.86753L25.7743 10.8956C24.7854 11.0836 23.9284 11.6447 23.3613 12.477L8.25108 34.6569C7.80914 35.3062 7.59202 36.0594 7.60378 36.8287C7.39303 38.1991 7.91631 39.7546 8.62875 40.8331C9.65353 42.3844 11.5491 43.6082 13.0856 44.655C16.95 47.2877 20.552 49.7397 24.7412 51.8169C26.1493 52.515 27.1117 52.978 28.6732 52.7999C31.1631 52.5159 33.3929 50.086 34.7116 47.9551C37.6845 43.1514 40.6857 38.6065 43.4884 33.7016C44.8927 31.2441 46.5077 28.2951 46.7183 27.0312C46.8877 26.0149 46.5041 20.89 45.8097 16.6875C49.7087 13.2339 48.9439 5.93866 45.6993 3.87533ZM36.6414 17.9135C36.95 17.8364 37.1373 17.524 37.0602 17.2161C36.9028 16.5869 36.8006 15.9471 36.7378 15.3042C37.7381 15.5254 38.4895 16.4161 38.4895 17.482C38.4895 18.7136 37.4879 19.7152 36.2563 19.7152C35.0247 19.7152 34.0231 18.7136 34.0231 17.482C34.0231 16.4852 34.6837 15.649 35.5869 15.3627C35.6541 16.0797 35.7684 16.7932 35.9439 17.4948C36.022 17.8078 36.3409 17.9911 36.6414 17.9135ZM44.3553 26.6373L29.9366 49.1895C29.1447 50.4278 27.4926 50.7723 26.271 49.9522L9.90519 38.951C8.70006 38.1409 8.38396 36.5056 9.2025 35.3042L24.312 13.125C24.7068 12.5467 25.3016 12.1571 25.9886 12.0268L36.0594 10.1176C35.6905 11.4407 35.5084 12.8106 35.5246 14.1828C34.0101 14.5187 32.8725 15.8678 32.8725 17.482C32.8725 19.3482 34.3902 20.8659 36.2563 20.8659C38.1225 20.8659 39.6402 19.3482 39.6402 17.482C39.6402 15.7587 38.3411 14.3485 36.6734 14.1403C36.6594 12.6957 36.8798 11.2526 37.3287 9.877C39.7316 9.43516 39.8119 9.3733 40.232 9.3733C41.4798 9.3733 42.621 10.2859 42.8151 11.6155L44.7396 24.8514C44.8303 25.4724 44.6939 26.1069 44.3553 26.6373ZM45.5644 15.3164C45.2657 13.7747 44.5927 10.7276 43.5853 9.52603C42.9749 8.7981 42.0191 8.29476 41.0983 8.32997C39.8968 8.0428 39.1731 8.415 37.8113 8.61371C38.56 6.93469 39.5474 5.71551 40.7512 4.99455C42.1566 4.15176 43.8961 4.09108 45.082 4.84622C47.474 6.36766 48.3327 12.1293 45.5644 15.3164Z" fill="#82C45F"/>
<path d="M31.5532 30.7471H28.4783L30.1905 28.0307C30.6318 27.3325 30.4902 26.414 29.8624 25.8934L29.0436 25.2161C28.3432 24.6366 27.3019 24.7957 26.7991 25.5907L24.639 29.012L22.4324 25.8462C22.1844 25.4918 21.8188 25.2633 21.4023 25.2019C20.4691 25.0686 20.0518 25.7569 19.4298 26.1623C18.7601 26.6904 18.6222 27.6936 19.1227 28.397L20.7958 30.7471H18.0799C17.2303 30.7471 16.5396 31.4662 16.5396 32.351V33.611C16.5396 34.4958 17.2303 35.215 18.0799 35.215H20.7232L18.8522 38.1793C18.411 38.8775 18.5518 39.7967 19.1796 40.3159C19.7631 40.7157 20.2214 41.4785 21.1903 41.3265C21.6218 41.2583 22.0061 41.0014 22.2443 40.6223L24.5864 36.9114L26.7632 40.6275C27.041 41.1005 27.537 41.3962 28.0772 41.3962C28.8523 41.3962 29.1958 40.8574 29.8377 40.417C30.4699 39.9181 30.6355 39.0094 30.2235 38.3037L28.4193 35.215H31.5532C32.4027 35.215 33.0934 34.4958 33.0934 33.611V32.351C33.0934 31.4662 32.4027 30.7471 31.5532 30.7471ZM31.9428 33.611C31.9428 33.8613 31.7682 34.0643 31.5532 34.0643C26.9156 34.0712 27.2957 34.0219 27.0758 34.1888C26.9521 34.2827 26.8757 34.4071 26.8556 34.5711C26.8527 34.5946 26.8418 34.6153 26.8418 34.6396C26.8418 34.9479 27.1736 35.2769 29.2301 38.8835C29.3507 39.0903 29.3035 39.3727 29.1245 39.5136C28.3949 40.0322 28.2882 40.2901 28.0172 40.2395C27.9101 40.2192 27.818 40.1503 27.7565 40.0462C24.9302 35.2298 25.0754 35.4334 24.9271 35.3327C24.9212 35.3286 24.9181 35.3222 24.912 35.3183C24.8888 35.3036 24.8626 35.3011 24.8383 35.2901C24.7276 35.2401 24.7214 35.2403 24.6115 35.2392C24.5759 35.2387 24.5415 35.2362 24.5059 35.2424C24.4724 35.2483 24.3198 35.3046 24.3142 35.3079C24.286 35.3244 24.154 35.4517 24.1334 35.482C24.1292 35.488 24.1226 35.4911 24.1187 35.4974C21.1288 40.1527 21.3082 40.1435 21.0098 40.19C20.7542 40.2446 20.5921 39.9401 19.9138 39.4296C19.7362 39.2828 19.6965 38.9974 19.8246 38.7936C22.5324 34.4875 22.3604 34.8616 22.3297 34.5799C22.3182 34.4709 22.2798 34.3691 22.2024 34.2762C22.1771 34.2458 22.0786 34.1566 22.0735 34.1534C22.0693 34.1507 21.981 34.1127 21.9255 34.0964C21.7121 34.0339 21.9372 34.0789 18.0799 34.0643C17.8648 34.0643 17.6903 33.8613 17.6903 33.611V32.351C17.6903 32.1008 17.8648 31.8977 18.0799 31.8977C22.0668 31.8389 22.0641 32.0452 22.357 31.6721C22.4138 31.5997 22.4297 31.567 22.4544 31.4839C22.471 31.428 22.4871 31.3276 22.4871 31.3224C22.4871 31.3172 22.4653 31.1904 22.452 31.1489C22.3797 30.9251 22.3364 30.9644 20.0606 27.7303C19.9123 27.522 19.9497 27.2178 20.1422 27.0658C20.8878 26.531 20.9799 26.3005 21.2345 26.3406C21.3341 26.3548 21.4248 26.4133 21.4885 26.5047C24.4417 30.7201 24.2494 30.6301 24.6792 30.6165C24.7563 30.6144 24.8366 30.6316 24.991 30.524C25.0681 30.4572 25.0937 30.4469 25.1499 30.3573C27.9013 26.0829 27.7335 26.0723 28.0337 26.023C28.3084 25.985 28.3739 26.2153 29.1282 26.7803C29.3065 26.9272 29.3462 27.2126 29.2174 27.4164C26.6933 31.4509 26.5874 31.179 27.128 31.8094C27.6025 31.9845 26.7326 31.8375 31.5532 31.8977C31.7682 31.8977 31.9428 32.1008 31.9428 32.351V33.611Z" fill="#82C45F"/>
</svg>
