<svg width="56" height="56" viewBox="0 0 56 56" fill="none" xmlns="http://www.w3.org/2000/svg">
<path d="M8.08423 23.4491C6.64367 27.8751 10.0024 34.0412 16.2975 34.6009C17.1798 34.6722 17.8427 34.6051 18.333 34.5109C18.3904 34.5709 18.4519 34.6325 18.5222 34.6969C18.9675 35.0997 19.6868 35.5672 20.5842 35.8556C21.2408 36.0774 21.9884 36.1963 22.7342 36.1955C33.2248 45.905 30.5987 54.6908 42.0766 55.1771C43.2066 55.2168 44.3525 55.1324 45.4494 54.8328C54.1362 52.4934 48.5716 45.1637 46.9359 40.6985C45.417 36.375 45.1829 32.5349 44.7364 28.4305C44.65 27.5255 44.5715 26.8881 44.4974 26.4358C44.7637 26.1263 44.987 25.8146 45.1608 25.5238C45.9737 24.1493 46.1511 22.9214 46.175 22.0329C46.1869 21.3477 46.09 20.8389 45.9764 20.4682C46.2425 20.1158 46.6037 19.5746 46.9436 18.6957C49.1592 12.9063 45.9963 6.97801 42.9157 6.12408C42.6245 6.04063 42.3738 6.00721 42.1698 6.00174C42.1125 5.8237 42.0437 5.63533 41.9575 5.43359C39.7818 0.461892 33.654 -0.413108 30.2398 2.40391C29.772 2.79543 29.5228 3.12821 29.4797 3.28539C29.2418 3.08649 28.9357 2.86551 28.5323 2.63157C24.0955 0.118982 19.2194 1.97795 17.7003 5.12896C17.4076 5.73924 17.3623 6.15993 17.4572 6.20935C17.2907 6.15709 17.1096 6.10321 16.9092 6.04792C10.8971 4.46238 7.01068 9.51855 8.29199 13.5685C8.40729 13.9426 8.54254 14.2196 8.66027 14.3965C8.57667 14.4311 8.49104 14.4692 8.40187 14.5137C4.21519 16.6482 5.81698 22.4564 8.08423 23.4491ZM45.3747 41.248C46.6945 44.9725 52.7537 53.8661 42.118 53.6212C30.7527 53.3388 33.271 42.4846 23.6946 36.5607C23.4222 36.394 23.1984 36.2695 23.0239 36.1815C23.1927 36.174 23.362 36.1698 23.5283 36.1493C24.5277 36.0345 25.4296 35.6651 26.0584 35.2897C26.2635 35.1656 26.4476 35.0372 26.6225 34.9077C26.9123 35.2097 27.279 35.5875 27.7001 36.0373C34.3514 43.0562 36.5305 49.819 40.064 47.9043C40.4721 47.6706 40.7934 47.3232 40.9893 46.9578C41.3882 46.2203 41.4348 45.4499 41.2786 44.7407C41.1381 44.1576 40.8878 43.682 40.636 43.2816C40.5524 40.7305 39.7868 36.3954 39.9371 31.0192C39.9435 30.6162 39.9538 30.2787 39.9631 29.9952C39.9687 29.7112 39.9584 29.4787 39.9562 29.2919C39.949 29.089 39.9282 28.9385 39.8985 28.8214C40.9291 28.7102 42.0212 28.3485 42.9464 27.7718C43.1661 27.6365 43.3711 27.4876 43.5661 27.3323C43.5545 27.6616 43.5463 28.0392 43.5432 28.488C43.5721 32.832 43.965 37.1015 45.3747 41.248ZM36.2744 28.2045C36.4282 28.2954 36.6271 28.3932 36.8704 28.4874C37.3764 28.6782 38.0785 28.8423 38.8765 28.8668C38.844 28.9365 38.8106 29.0153 38.7762 29.1062C38.7012 29.2919 38.6411 29.5275 38.5731 29.8218C38.5012 30.1161 38.4366 30.4703 38.3854 30.8959C37.5116 37.5305 42.5955 50.8072 34.5613 32.7834C34.4713 32.5819 34.3921 32.4045 34.3222 32.2479C34.287 32.1748 34.2548 32.1077 34.2237 32.0431C34.4788 31.8552 34.7063 31.6589 34.885 31.4705C35.6375 30.6711 35.9688 29.8888 36.1388 29.2994C36.2687 28.8344 36.2912 28.4747 36.2744 28.2045ZM39.123 44.047C39.3558 44.3966 39.5511 44.761 39.6443 45.1327C39.7255 45.4535 39.6951 45.8734 39.5376 46.163C39.4638 46.3123 39.362 46.4097 39.2538 46.4828C38.0639 47.1199 36.2992 44.487 35.1617 43.1056C33.2006 40.7172 30.6416 37.6075 28.1519 35.5595C27.699 35.1822 27.2984 34.8765 26.9635 34.6392C27.578 34.121 27.9898 33.5906 28.2741 33.145C28.4392 32.8817 28.5596 32.6433 28.6504 32.4284C28.7184 32.4747 28.7935 32.5219 28.8803 32.5695C29.3053 32.7988 29.9595 33.0204 30.7182 33.0627C31.4747 33.1174 32.3265 32.9886 33.0817 32.6856C33.1579 32.6554 33.2266 32.6165 33.3002 32.5831C33.3334 32.7551 33.3732 32.9493 33.43 33.1668C34.7788 38.4819 38.1116 42.5707 39.123 44.047ZM9.17955 15.8621C9.57289 15.584 9.87292 15.4501 10.0773 15.332C10.4926 15.1086 10.5311 14.9172 10.5175 14.6772C10.5064 14.455 10.4937 14.2093 9.84653 14.1601C9.63158 14.1502 9.33581 14.1733 8.97427 14.2839C8.96784 14.0837 8.94505 13.8034 8.9408 13.4613C8.86221 9.95605 11.3366 6.79227 16.5771 7.56863C17.3833 7.70556 17.9636 7.80177 18.365 7.81696C19.1727 7.85179 19.2487 7.63973 19.2935 7.4145C19.3399 7.18238 19.3497 6.98044 18.6459 6.65596C18.3758 6.53342 18.0044 6.38171 17.4668 6.21239C17.5834 6.24905 17.8273 5.9349 18.2422 5.50145C20.4995 3.15191 23.8254 2.31337 27.8226 4.01699C28.4724 4.30156 28.9012 4.53307 29.2121 4.66554C29.8293 4.9406 29.9857 4.81664 30.1383 4.63374C30.2845 4.45935 30.4186 4.27219 29.9192 3.70263C29.8329 3.60764 29.7256 3.50049 29.5959 3.38504C29.7689 3.35142 30.1086 3.17277 30.587 2.96212C34.4921 1.27836 38.4582 2.40208 40.5537 6.10605C40.9278 6.78134 41.0975 7.28203 41.2423 7.61684C41.6932 8.75596 42.7524 8.59656 42.3143 6.53909C42.4209 6.59317 42.5335 6.65333 42.6534 6.72705C45.1227 8.20524 47.2259 13.2715 45.0241 19.561C44.829 19.6374 44.6979 19.7816 44.6966 20.3959C44.6852 20.7358 44.7118 21.2257 44.6215 21.935C44.5254 22.6352 44.3444 23.5872 43.7115 24.6556C43.3617 25.2343 42.8278 25.9264 42.0753 26.4818C41.3257 27.0382 40.3823 27.4644 39.4598 27.6657C38.5387 27.8877 37.6572 27.8836 37.014 27.8458C36.6691 27.8221 36.3921 27.7917 36.1994 27.7858C36.0807 27.4315 35.8834 27.4236 35.6895 27.4216C35.4514 27.4184 35.255 27.4536 35.0654 27.8646C34.9648 28.0679 34.8648 28.3667 34.6713 28.7803C34.4757 29.1888 34.201 29.7331 33.6602 30.3071C33.362 30.6176 32.951 30.9858 32.4275 31.2732C31.9052 31.5619 31.2787 31.7756 30.6737 31.8689C29.9399 32.0004 29.2676 31.9443 28.8241 31.926C28.8504 31.8258 28.8697 31.7342 28.8837 31.6524C28.982 30.9593 28.7569 30.8835 28.5408 30.8205C28.311 30.7525 28.1155 30.7401 27.7757 31.206C27.5991 31.4345 27.3838 31.7849 27.0023 32.2477C26.6204 32.7034 26.0817 33.3011 25.1907 33.8403C24.7018 34.1291 24.0424 34.448 23.2753 34.6134C22.51 34.7844 21.6475 34.8113 20.8644 34.6945C20.2266 34.6098 19.6547 34.4328 19.1893 34.2612C19.4065 34.1666 19.5342 34.0747 19.6063 33.9918C19.7178 33.8646 19.6999 33.7548 19.6726 33.6416C19.6452 33.5282 19.608 33.4225 19.4609 33.3506C19.3143 33.2799 19.0592 33.2452 18.5962 33.2325C18.1332 33.2059 17.456 33.214 16.4807 33.055C10.2285 31.9925 7.80907 25.8667 9.307 22.454C9.63634 21.6904 10.0504 21.3098 9.96877 21.2059C9.92021 21.1218 9.32635 21.3321 8.73881 22.123C8.54654 22.3796 8.37266 22.7017 8.22429 23.0646C8.05643 22.6186 7.67656 21.8631 7.46044 20.9505C6.95493 18.9303 7.50454 17.0717 9.17955 15.8621Z" fill="#82C45F"/>
<path d="M16.7484 19.3266C16.9596 19.6625 17.1704 19.64 17.4003 19.6013C17.6305 19.5626 17.8355 19.5116 17.9268 19.1308C17.9733 18.9412 17.9893 18.6692 17.9797 18.2851C17.973 17.9017 17.9311 17.4043 17.9315 16.7786C17.9341 16.4379 17.936 16 17.9928 15.5617C18.0491 15.1177 18.1639 14.6501 18.3287 14.2415C18.4881 13.8287 18.701 13.481 18.8717 13.2154C19.0427 12.9519 19.169 12.7641 19.1111 12.6584C19.0582 12.5602 18.8129 12.5545 18.4622 12.7009C18.1157 12.8466 17.6753 13.1601 17.3113 13.6154C16.9407 14.0655 16.6479 14.6417 16.4749 15.2166C16.2987 15.7985 16.2459 16.3486 16.2422 16.7707C16.2426 17.5408 16.3426 18.0913 16.4375 18.4958C16.5361 18.8999 16.6434 19.1579 16.7484 19.3266Z" fill="#82C45F"/>
<path d="M22.7938 28.1735C23.4753 28.6075 24.3202 28.9606 25.1744 29.1246C26.024 29.2992 26.8865 29.2585 27.5154 29.1279C28.6765 28.8858 29.4709 28.4003 29.9935 27.9683C30.5192 27.5294 30.7745 27.1235 30.9033 26.8383C31.1467 26.2527 30.9433 26.1255 30.7513 26.0095C30.5467 25.8845 30.3606 25.8225 29.9626 26.1022C29.7585 26.2361 29.4979 26.4555 29.0696 26.7155C28.6434 26.9703 28.0478 27.2908 27.1755 27.4731C26.6959 27.5691 26.0831 27.645 25.3968 27.5841C24.7147 27.5308 23.9845 27.3548 23.3308 27.1065C22.0135 26.6218 21.0321 25.8887 20.8635 26.0629C20.7021 26.2104 21.4124 27.3043 22.7938 28.1735Z" fill="#82C45F"/>
<path d="M30.6453 10.8467C38.1194 13.4109 38.5103 16.8574 39.6607 16.1414C39.8587 16.0185 40.0309 15.8953 39.8326 15.3175C39.1178 13.0173 34.794 9.93905 30.7181 10.193C30.1847 10.2449 29.8629 10.3413 29.859 10.4553C29.8545 10.574 30.1637 10.7004 30.6453 10.8467Z" fill="#82C45F"/>
</svg>
