<svg width="56" height="56" viewBox="0 0 56 56" fill="none" xmlns="http://www.w3.org/2000/svg">
<path d="M48.7846 4.41541H44.9077H37.1539C35.9692 4.41541 41.4616 4.41541 25.4154 4.41541C23.8 4.41541 22.2923 5.06156 21.2154 6.24617C20.1385 7.3231 19.4923 8.93848 19.4923 10.4462V10.9846C19.4923 11.3077 19.3846 14.2154 19.4923 14L19.3846 22.9385C19.3846 29.5077 19.3846 32.7385 19.4923 34.1385V34.4616C19.2769 34.2462 19.0616 34.1385 18.8462 33.9231C18.0923 33.3846 17.3385 32.9539 16.4769 32.6308C14.8616 31.9846 12.9231 31.7693 11.2 32.0923C10.3385 32.2 9.36925 32.5231 8.6154 32.8462C7.75386 33.2769 7.00002 33.6 6.24617 34.0308L1.6154 36.6154C1.18463 36.8308 1.07694 37.3693 1.29232 37.8C3.76925 42.8616 4.20002 43.9385 6.03079 47.6C6.24617 48.1385 6.89232 48.3539 7.32309 48.1385L9.80002 47.0616C10.6616 46.6308 11.3077 46.4154 11.9539 46.4154C12.7077 46.4154 13.3539 46.5231 14 46.8462C14.2154 46.9539 14.3231 46.9539 14.4308 47.1693C14.5385 47.2769 16.2616 48.3539 16.1539 48.2462L18.4154 49.6462C19.1692 50.1846 20.0308 50.6154 21 50.9385C22.8308 51.5846 24.7692 51.8 26.7077 51.5846C28.6462 51.3693 30.4769 50.6154 31.9846 49.5385C32.7385 49 33.3846 48.3539 34.1385 47.8154L36.1846 46.0923C38.7692 43.8308 41.3539 41.5693 43.9385 39.3077H44.9077L48.7846 39.4154C50.1846 39.4154 51.5846 38.8769 52.6616 37.9077C53.7385 36.9385 54.3846 35.5385 54.3846 34.0308L54.4923 30.1539L54.6 22.4L54.7077 14.6462V10.7693C54.7077 9.26156 54.0616 7.64617 52.9846 6.56925C51.9077 5.16925 50.4 4.41541 48.7846 4.41541ZM37.8 9.47694C37.4769 9.15387 36.9385 9.15387 36.5077 9.36925C35.8616 9.90771 35.1077 10.3385 34.4616 10.8769C34.2462 10.9846 34.0308 11.2 33.9231 11.3077C33.8154 9.69233 33.7077 8.07694 33.6 6.46156H37.1539H39.9539C39.8462 7.53848 39.8462 8.50771 39.7385 9.36925V11.0923C39.5231 10.8769 39.3077 10.7693 39.0923 10.5539C38.6616 10.2308 38.2308 9.80002 37.8 9.47694ZM35.5385 45.0154L33.3846 46.6308C32.6308 47.1693 31.9846 47.7077 31.2308 48.1385C29.8308 49 28.2154 49.5385 26.6 49.6462C24.9846 49.7539 23.2616 49.5385 21.8616 48.8923C21.1077 48.5693 20.4616 48.2462 19.7077 47.7077C19.6 47.6 16.2616 45.4462 16.3692 45.5539C15.9385 45.2308 15.5077 45.0154 15.0769 44.8C13.6769 44.0462 11.9539 43.9385 10.3385 44.4769C9.80002 44.6923 9.47694 44.8 9.04617 45.0154L7.53848 45.6616C5.8154 42.2154 5.8154 42.2154 3.33848 37.5846L7.00002 35.3231C7.75386 34.8923 8.50771 34.3539 9.15386 34.0308C11.2 32.9539 13.7846 32.5231 16.2616 33.1693C17.4462 33.4923 18.4154 34.0308 19.4923 34.6769C19.6 35.3231 19.8154 35.9693 20.1385 36.6154C21 38.1231 22.6154 39.3077 24.3385 39.5231C24.7692 39.6308 25.2 39.6308 25.6308 39.6308H26.7077L28.9692 39.5231L30.6923 39.4154C30.8 39.5231 30.9077 39.6308 30.9077 39.7385C31.0154 39.9539 30.9077 40.2769 30.8 40.4923C30.6923 40.7077 30.4769 40.9231 30.2616 41.0308C29.7231 41.2462 29.0769 41.4616 28.2154 41.5693C27.4616 41.6769 26.7077 41.7846 25.9539 41.7846C25.5231 41.7846 25.2 41.7846 24.7692 41.7846C24.3385 41.7846 24.0154 41.7846 23.6923 41.6769C23.0462 41.5693 22.2923 41.2462 21.5385 40.9231L16.9077 38.8769C17.9846 40.2769 19.2769 41.3539 20.6769 42.4308C21.4308 42.9693 22.1846 43.2923 23.1539 43.7231C23.6923 43.9385 24.1231 43.9385 24.5539 43.9385C24.9846 43.9385 25.4154 44.0462 25.9539 43.9385C26.9231 43.9385 27.7846 43.7231 28.6462 43.5077C29.4 43.2923 30.3692 43.0769 31.2308 42.3231C31.6616 42 31.9846 41.4616 32.0923 40.8154C32.2 40.2769 32.0923 39.8462 31.8769 39.4154L33.2769 39.3077C35.6462 39.2 37.9077 39.0923 40.2769 38.8769C41.4616 38.8769 42.6462 38.9846 43.8308 38.9846C41.0308 41.0308 38.3385 43.0769 35.5385 45.0154ZM53.2 33.9231C53.2 35.1077 52.7692 36.1846 52.0154 37.0462C51.2616 37.9077 50.0769 38.4462 48.8923 38.4462L45.0154 38.5539C43.5077 38.5539 42.1077 38.6616 40.6 38.7693C38.2308 38.6616 35.8616 38.5539 33.4923 38.3385L29.0769 38.1231L26.8154 38.0154H25.7385C25.4154 38.0154 25.0923 38.0154 24.7692 37.9077C23.5846 37.5846 22.5077 36.8308 21.9692 35.7539C21.6462 35.2154 21.5385 34.5693 21.5385 34.0308V31.8769L21.6462 22.9385L21.5385 14C21.5385 13.8923 21.5385 11.4154 21.5385 11.5231V10.3385C21.5385 9.26156 21.9692 8.29233 22.7231 7.53848C23.4769 6.78464 24.4462 6.35387 25.5231 6.35387H29.4H32.4154C32.2 8.61541 32.0923 10.8769 31.9846 13.1385C31.9846 13.3539 31.9846 13.5693 32.0923 13.6769C32.4154 14.1077 32.9539 14.2154 33.4923 14H33.6C34.4616 13.4616 35.1077 13.0308 37.1539 11.5231C37.3693 11.7385 37.6923 11.9539 37.9077 12.1693C39.6308 13.6769 40.0616 14 40.1693 14.1077C40.3846 14.2154 40.6 14.3231 40.8154 14.3231C41.3539 14.3231 41.8923 13.7846 41.8923 13.2462C41.8923 11.0923 41.8923 10.6616 41.6769 6.46156C41.7846 6.46156 49.3231 6.46156 48.8923 6.46156C49.9693 6.46156 50.9385 6.89233 51.6923 7.64617C52.3385 8.40002 52.7693 9.47694 52.7693 10.4462V14.3231L52.8769 22.0769L52.9846 29.8308L53.2 33.9231Z" fill="#82C45F"/>
</svg>
