<svg width="56" height="56" viewBox="0 0 56 56" fill="none" xmlns="http://www.w3.org/2000/svg">
<path d="M41.2048 49.4975C42.7321 49.3115 44.0371 48.2826 44.6145 46.8749C44.8059 46.4122 44.9061 45.9131 44.9235 45.4171C44.9363 44.9506 44.9219 44.6204 44.9224 44.2155C44.921 44.0325 44.8652 36.7795 44.8688 37.2424L44.7705 27.9451L44.4752 9.35033L44.4182 7.02599C44.4093 6.65946 44.4085 6.20891 44.3038 5.78235C44.2065 5.35715 44.0233 4.95508 43.7849 4.59576C43.3063 3.87637 42.5767 3.33745 41.7577 3.09893C41.3536 2.97812 40.9076 2.94656 40.513 2.95861C38.5847 3.00775 35.6549 3.05796 30.0535 3.25542C33.1526 3.36454 36.2518 3.45689 39.3509 3.52376C40.131 3.56614 40.9211 3.48684 41.5619 3.71939C42.223 3.94833 42.7883 4.41653 43.1392 5.00529C43.3138 5.29961 43.4425 5.62139 43.5008 5.95611C43.5644 6.28895 43.5497 6.61919 43.5397 7.02599L43.4827 9.35033L43.1875 27.9451L43.0892 37.2424C43.0878 37.4256 43.0319 44.6785 43.0355 44.2155C43.0298 44.585 43.0358 45.0301 43.0203 45.3377C43.0058 45.6143 42.9485 45.8868 42.8383 46.1387C42.6214 46.6441 42.2199 47.0648 41.7358 47.3165C41.2174 47.592 40.7937 47.5852 39.9208 47.574C33.335 47.5572 30.0627 47.5488 28.1144 47.5438C28.4663 44.1062 28.6693 40.6686 28.8057 37.2309C28.9681 33.4558 29.0114 29.6808 29.0318 25.9057C29.0139 22.1307 28.9706 18.3556 28.8087 14.5806C28.6603 10.8252 28.4397 7.06987 28.02 3.31445C28.6979 3.2922 29.3757 3.27953 30.0535 3.25542C24.3574 3.05302 22.1622 3.02411 16.1075 2.87099C15.3852 2.83569 14.4176 2.80822 13.6397 3.23627C12.8512 3.62393 12.202 4.29609 11.8409 5.11342C11.6575 5.52097 11.5597 5.96617 11.5343 6.41213C11.5124 6.84279 11.5163 7.19888 11.5061 7.59599C11.5028 7.78003 11.3737 15.0319 11.382 14.569L11.2548 23.8664L11.0852 42.461L11.0724 44.7853C11.071 45.126 11.0583 45.6521 11.1682 46.1494C11.2693 46.6422 11.4691 47.1133 11.7362 47.5374C12.2717 48.3861 13.1084 49.0395 14.071 49.3453C14.533 49.5 15.1014 49.5517 15.5152 49.5479C15.6188 49.5481 17.2899 49.5524 17.1833 49.5521C17.1144 49.8153 17.051 50.0786 16.9875 50.342C16.8729 50.9373 16.7553 51.5327 16.6865 52.128C16.6419 52.5152 16.9178 52.8669 17.3053 52.9148L17.4968 52.9384C19.7747 53.2193 22.0526 53.215 24.3306 52.9355L24.522 52.912C24.9077 52.8645 25.1832 52.5145 25.1381 52.128C25.0685 51.5327 24.9518 50.9373 24.8372 50.342C24.7756 50.0848 24.7136 49.8275 24.6468 49.5704L25.9748 49.5736L31.3824 49.5598C31.3143 49.8206 31.2513 50.0813 31.1884 50.342C31.0738 50.9373 30.9562 51.5327 30.8875 52.128C30.8428 52.5152 31.1188 52.8669 31.5063 52.9148L31.6977 52.9384C33.9756 53.2193 36.2536 53.215 38.5315 52.9355L38.7229 52.912C39.1086 52.8645 39.3842 52.5145 39.339 52.128C39.2694 51.5327 39.1527 50.9373 39.0381 50.342C38.9741 50.0749 38.9102 49.8079 38.8404 49.5407L39.9208 49.5379C40.3112 49.5302 40.6589 49.5568 41.2048 49.4975ZM23.8241 50.342C23.7654 50.6473 23.7066 50.9528 23.6534 51.2581C21.8277 51.0779 20.0022 51.0756 18.1766 51.2554C18.1233 50.9509 18.0645 50.6463 18.0059 50.342C17.9424 50.0792 17.8792 49.8163 17.8104 49.5536L24.0149 49.5688C23.948 49.8265 23.8859 50.0843 23.8241 50.342ZM15.5152 47.5641C15.1552 47.5636 14.9447 47.5407 14.666 47.4591C14.1486 47.2974 13.6903 46.9438 13.3964 46.4844C13.2504 46.2548 13.1383 46.002 13.0838 45.7349C13.0255 45.4728 13.0267 45.2181 13.0263 44.7853L13.0134 42.461L12.8439 23.8664L12.7167 14.569C12.7135 14.3884 12.5844 7.13306 12.5926 7.59599C12.5887 7.21839 12.5722 6.79929 12.5785 6.45575C12.585 6.12912 12.6447 5.80286 12.763 5.49561C12.9987 4.88137 13.4593 4.3473 14.0466 4.02067C14.6456 3.66234 15.2961 3.64618 16.1075 3.63984C22.3598 3.47792 21.4729 3.52954 28.0082 3.31483C27.5888 7.07012 27.368 10.8253 27.2196 14.5806C27.0577 18.3556 27.0143 22.1307 26.9966 25.9057C27.0169 29.6808 27.0602 33.4558 27.2227 37.2309C27.3591 40.6684 27.562 44.106 27.9139 47.5433L25.9748 47.5384C25.5889 47.5393 27.9476 47.5335 15.5152 47.5641ZM38.0251 50.342C37.9663 50.6473 37.9076 50.9528 37.8543 51.2581C36.0287 51.0779 34.2031 51.0756 32.3775 51.2554C32.3243 50.9509 32.2654 50.6463 32.2069 50.342C32.1438 50.0807 32.0808 49.8194 32.0125 49.5582C32.1171 49.5579 38.327 49.542 38.2224 49.5423C38.1527 49.8089 38.089 50.0754 38.0251 50.342Z" fill="#82C45F"/>
<path d="M23.6207 23.0503C23.1941 23.5262 22.9814 24.0021 22.8202 24.478C22.5183 25.4408 22.5411 26.4355 22.8229 27.3333C22.9853 27.8092 23.1966 28.2851 23.6207 28.761C24.0449 28.2851 24.2561 27.8092 24.4186 27.3333C24.7004 26.4354 24.7232 25.4408 24.4213 24.478C24.2601 24.0021 24.0473 23.5262 23.6207 23.0503Z" fill="#82C45F"/>
<path d="M32.4076 28.761C32.8318 28.2851 33.043 27.8092 33.2055 27.3333C33.3548 26.8575 33.4243 26.3816 33.4255 25.9057C33.4271 25.4298 33.3574 24.9539 33.2082 24.478C33.047 24.0021 32.8342 23.5262 32.4076 23.0503C31.981 23.5262 31.7683 24.0021 31.607 24.478C31.4578 24.9539 31.3881 25.4298 31.3897 25.9057C31.3909 26.3816 31.4604 26.8575 31.6098 27.3333C31.7722 27.8092 31.9835 28.2851 32.4076 28.761Z" fill="#82C45F"/>
</svg>
