<svg width="170" height="50" viewBox="0 0 170 50" fill="none" xmlns="http://www.w3.org/2000/svg">
<path d="M89.2696 35.6409V19.3593H99.0555V23.1409H93.3501V35.6409H89.2696V35.6409Z" fill="#7FBF8D"/>
<path d="M111.367 35.6409V29.2642H105.305V35.6409H101.225V19.3593H105.305V25.4354H111.367V19.3593H115.448V35.6409H111.367Z" fill="#7FBF8D"/>
<path d="M139.128 35.6409V23.1409H134.362V19.3593H148V23.1409H143.211V35.6409H139.128V35.6409Z" fill="#7FBF8D"/>
<path d="M128.358 35.6388V26.3619L121.862 35.6388H118.45V19.3616H122.531V28.542L128.917 19.3616H132.44V35.6388H128.358Z" fill="#7FBF8D"/>
<path d="M65.8203 35.6409V25.9648L61.7462 31.0766L57.6722 25.9648V35.6409H53.5917V19.3593H57.6188L61.7462 24.9577L65.8737 19.3593H69.9007V35.6409H65.8203Z" fill="#7FBF8D"/>
<path d="M77.6474 29.9144H81.4397L79.5436 24.8094L77.6474 29.9144ZM83.5664 35.6385L82.7124 33.3573H76.3685L75.5143 35.6385H71.4126L77.6881 19.359H81.4611L87.7387 35.6385H83.5664Z" fill="#7FBF8D"/>
<path d="M21.9962 22.6675C22.0002 20.7011 22.7457 18.8165 24.0695 17.4263C25.3934 16.0361 27.1877 15.2536 29.0596 15.25H45.3667V19.0204H29.0639C28.1441 19.0245 27.2631 19.41 26.6125 20.093C25.9619 20.776 25.5943 21.7013 25.5899 22.6675L25.5685 28.9971C25.4941 29.8081 25.166 30.5703 24.6357 31.1649C24.1053 31.7593 23.4024 32.1525 22.6368 32.2831L21.9962 32.3862V22.6675V22.6675Z" fill="#7FBF8D"/>
<path d="M21.9973 39.7501V35.9795H38.3042C39.2242 35.9749 40.1052 35.5888 40.7558 34.9055C41.4063 34.2221 41.7738 33.2967 41.7783 32.3303V26.3236C41.7828 25.4522 42.0821 24.6108 42.6226 23.9497C43.1632 23.2886 43.9098 22.8509 44.7292 22.7147L45.3698 22.6138V32.3303C45.3658 34.2969 44.6204 36.1817 43.2965 37.5723C41.9728 38.9628 40.1785 39.7458 38.3063 39.7501H21.9973Z" fill="#7FBF8D"/>
<path d="M35.8115 32.3997V27.5258L33.6848 30.1927L31.5602 27.5258V32.3997H28.7438V22.8088H31.4107L33.6848 25.8929L35.9589 22.8088H38.6258V32.3997H35.8115Z" fill="#7FBF8D"/>
</svg>
