<svg width="170" height="50" viewBox="0 0 170 50" fill="none" xmlns="http://www.w3.org/2000/svg">
<path d="M134.446 9.79308C134.566 9.73827 134.683 9.66841 134.817 9.65955C134.783 9.99566 134.593 10.2834 134.403 10.5497C133.982 11.1088 133.473 11.5913 132.954 12.0542C132.405 12.5368 131.836 12.994 131.253 13.4312C130.781 13.7724 130.324 14.1459 129.799 14.4022C129.024 14.802 128.145 15.0884 127.27 14.95C126.608 14.8522 126.009 14.4623 125.598 13.9312C125.28 13.5344 125.053 13.0695 124.889 12.5873C124.772 12.2248 124.673 11.8474 124.69 11.4626C125.145 11.6158 125.593 11.799 126.066 11.8911C126.848 12.055 127.652 11.9814 128.438 11.8901C129.37 11.771 130.273 11.4908 131.16 11.1813C132.279 10.7807 133.37 10.3019 134.446 9.79308ZM44.1619 11.4108C44.8036 11.26 45.4652 11.2192 46.1219 11.2254C47.7554 11.227 49.3889 11.2232 51.0221 11.2275C51.9443 11.2504 52.904 11.3909 53.7018 11.8952C54.1703 12.1856 54.5167 12.6413 54.7557 13.1391C55.0688 13.7584 55.1926 14.4693 55.1426 15.1625C55.0824 16.1571 54.7034 17.1246 54.0861 17.8946C53.4421 18.7351 52.5021 19.3237 51.4871 19.562C52.2016 19.7668 52.9245 20.0714 53.4279 20.6507C53.9347 21.2138 54.1308 22.0067 54.0935 22.7582C54.028 24.2904 53.3601 25.7622 52.3417 26.8775C51.8112 27.5129 51.0655 27.9188 50.2926 28.1598C49.1936 28.4992 48.0382 28.5865 46.8953 28.5913C44.2071 28.597 41.5193 28.587 38.8317 28.5967C39.6902 24.1134 40.5635 19.6332 41.428 15.1512C41.5566 14.4567 41.7217 13.7606 42.0277 13.1233C42.2353 12.7036 42.5095 12.31 42.8746 12.0182C43.2477 11.713 43.7003 11.5244 44.1619 11.4108ZM46.7491 15.137C46.3648 15.3162 46.1198 15.7184 46.0373 16.1303C45.9295 16.712 45.8099 17.2915 45.7042 17.8732C46.4736 17.8788 47.2436 17.8737 48.0127 17.8764C48.3589 17.878 48.7143 17.8498 49.0356 17.7066C49.355 17.5765 49.5963 17.3092 49.7871 17.0252C50.034 16.6518 50.1402 16.177 50.0521 15.7329C49.9838 15.4151 49.7206 15.1743 49.4254 15.0763C48.9843 14.9164 48.5106 14.9613 48.0519 14.9548C47.6145 14.9521 47.1552 14.9454 46.7491 15.137ZM44.9847 21.5731C44.7886 22.6236 44.5749 23.6709 44.3825 24.7222C45.2053 24.7192 46.0278 24.7235 46.8511 24.72C47.3022 24.7232 47.7712 24.6558 48.1636 24.4135C48.4644 24.2163 48.7091 23.9363 48.8815 23.6174C49.1081 23.1657 49.1381 22.5903 48.866 22.1518C48.7588 21.9473 48.5679 21.8044 48.3584 21.723C47.9478 21.5618 47.5009 21.5706 47.068 21.5688C46.3735 21.5717 45.679 21.5634 44.9847 21.5731ZM60.9884 15.8423C61.9573 15.5123 62.9867 15.3928 64.0051 15.4255C64.897 15.4538 65.7979 15.6176 66.6075 16.0126C67.2705 16.3291 67.8546 16.8116 68.3025 17.4022C68.8535 18.1316 69.1703 19.0325 69.2386 19.9489C69.2999 20.6545 69.3283 21.4172 68.9905 22.0604C68.7389 22.5427 68.2423 22.8288 67.7374 22.9548C66.8394 23.1797 65.9067 23.1539 64.989 23.1666C63.4893 23.1684 61.9897 23.1636 60.4894 23.1687C60.4035 23.7219 60.3304 24.3084 60.5092 24.8501C60.598 25.1418 60.8462 25.3584 61.1259 25.4497C61.4836 25.5776 61.8679 25.5733 62.2417 25.5639C62.5961 25.5494 62.9597 25.5121 63.2817 25.3493C63.488 25.2402 63.6599 25.0733 63.8024 24.8879C64.0595 24.5193 64.5195 24.357 64.9485 24.3527C66.1628 24.357 67.3772 24.3527 68.5914 24.3605C68.3162 25.209 67.8294 25.9804 67.1935 26.5932C66.7379 27.0317 66.2345 27.4183 65.6998 27.7509C64.7911 28.3141 63.7575 28.6429 62.7086 28.7931C61.8261 28.9121 60.9287 28.9307 60.0436 28.827C59.0915 28.7104 58.1407 28.4143 57.3534 27.8423C56.1536 26.9755 55.3916 25.5217 55.3361 24.0223C55.288 22.9239 55.513 21.8253 55.9005 20.8044C56.4562 19.3415 57.4475 18.0752 58.6541 17.115C59.3554 16.5618 60.1446 16.1217 60.9884 15.8423ZM61.8101 18.8912C61.3201 19.3283 61.0959 19.9857 60.9705 20.6198C61.9526 20.6177 62.9344 20.6182 63.9165 20.6134C64.0616 20.6109 64.2149 20.6289 64.3539 20.5763C64.523 20.5008 64.5624 20.2939 64.5742 20.1252C64.5926 19.7329 64.5871 19.3132 64.3957 18.961C64.1541 18.6091 63.7267 18.4368 63.3177 18.4148C62.7825 18.375 62.2131 18.5142 61.8101 18.8912ZM77.9478 16.1453C78.7162 15.6819 79.6223 15.4994 80.508 15.518C81.1943 15.5223 81.8983 15.6633 82.4874 16.0384C83.046 16.3834 83.4674 16.9282 83.7337 17.5319C84.1803 18.5309 84.2431 19.6585 84.1648 20.7396C84.0704 21.8447 83.847 22.939 83.496 23.9884C82.9458 25.6201 81.989 27.1641 80.5758 28.1472C79.4617 28.921 78.0183 29.1959 76.7142 28.8356C75.9571 28.6308 75.3005 28.0672 74.9879 27.3323C74.846 28.033 74.7127 28.7359 74.5773 29.4379C74.4622 30.079 74.2813 30.7147 73.9777 31.2902C73.7109 31.7971 73.3176 32.2429 72.8176 32.5164C72.2277 32.8503 71.548 32.9618 70.8842 33.0172C70.2297 33.0685 69.5722 33.0535 68.9163 33.058C69.6377 29.2872 70.3761 25.5201 71.1013 21.7501C71.2874 20.8294 71.4446 19.9024 71.6518 18.9865C71.8461 18.1864 72.1384 17.3718 72.7191 16.7775C73.1678 16.3108 73.7787 16.0459 74.3999 15.9245C75.1924 15.7498 76.0065 15.781 76.8117 15.7815C76.7131 16.3879 76.5804 16.9879 76.47 17.5921C76.8598 17.0139 77.3485 16.4973 77.9478 16.1453ZM77.7604 18.7259C77.4736 18.7888 77.2118 18.936 76.9763 19.1104C76.634 19.3748 76.4484 19.7952 76.3643 20.2152C76.1419 21.324 75.9356 22.436 75.7176 23.5457C75.6506 23.8949 75.5654 24.2455 75.5728 24.6045C75.5749 24.9076 75.6477 25.2249 75.8483 25.4578C76.0444 25.7112 76.3719 25.8259 76.6813 25.8017C77.1516 25.8009 77.6035 25.5486 77.8758 25.1601C78.2005 24.7052 78.3871 24.1668 78.5469 23.6332C78.7488 22.9159 78.8963 22.1824 79.0022 21.4441C79.0735 20.8887 79.1371 20.3243 79.0645 19.7657C79.0185 19.4564 78.9126 19.134 78.6763 18.9223C78.43 18.6991 78.0719 18.6574 77.7604 18.7259ZM88.7745 15.965C89.7605 15.7243 90.7818 15.7754 91.7873 15.7799C91.5783 16.8237 91.3832 17.8699 91.1777 18.9143C91.0922 19.3998 90.9792 19.8804 90.909 20.3686C91.6819 20.3667 92.4552 20.3681 93.2281 20.3681C93.4205 19.3783 93.5759 18.3511 94.0706 17.461C94.4058 16.8363 94.9612 16.3417 95.62 16.1039C96.7264 15.698 97.9206 15.7837 99.0757 15.7751C98.4871 18.8326 97.8933 21.889 97.3034 24.9462C97.1281 25.7961 96.8904 26.6671 96.3557 27.3603C95.9596 27.8866 95.3708 28.2332 94.7467 28.396C93.731 28.6693 92.6692 28.6177 91.629 28.6217C91.9734 26.8794 92.2983 25.1324 92.6469 23.3912C91.868 23.3793 91.0891 23.3844 90.3102 23.3885C90.2111 23.9336 90.1023 24.4777 89.9974 25.0223C89.8289 25.8613 89.5757 26.7171 89.0405 27.3941C88.6473 27.8976 88.0774 28.2319 87.4717 28.392C86.452 28.6682 85.3874 28.6163 84.3425 28.6238C84.9145 25.6421 85.4949 22.6623 86.0695 19.6813C86.2436 18.802 86.4589 17.8995 86.9725 17.155C87.3913 16.5336 88.0634 16.133 88.7745 15.965ZM102.908 16.0346C103.964 15.7101 105.077 15.778 106.165 15.7788C105.888 17.2377 105.598 18.6948 105.322 20.1537C105.99 20.1507 106.659 20.1528 107.328 20.1523C108.3 20.1426 109.315 20.2042 110.197 20.6604C110.859 20.9871 111.378 21.6018 111.59 22.3218C111.804 23.0349 111.755 23.8017 111.603 24.5223C111.416 25.3917 111.029 26.2141 110.487 26.91C109.991 27.5277 109.299 27.9613 108.554 28.1907C107.71 28.4438 106.837 28.6252 105.954 28.6244C103.546 28.6257 101.137 28.6238 98.7287 28.6252C99.3012 25.5706 99.9074 22.5217 100.49 19.4688C100.663 18.6155 100.902 17.7423 101.432 17.043C101.801 16.5534 102.332 16.2095 102.908 16.0346ZM104.935 23.1058C104.631 23.2681 104.48 23.6134 104.414 23.9411C104.3 24.5306 104.183 25.1201 104.075 25.7112C104.5 25.709 104.925 25.7106 105.35 25.7098C105.76 25.7095 106.192 25.727 106.575 25.55C106.857 25.425 107.031 25.1421 107.148 24.864C107.28 24.5306 107.352 24.1717 107.36 23.8124C107.362 23.5865 107.329 23.3216 107.134 23.1797C106.848 22.9597 106.468 22.954 106.125 22.95C105.726 22.957 105.301 22.9162 104.935 23.1058ZM116.022 16.004C117.049 15.7146 118.124 15.7767 119.177 15.7802C118.568 18.8957 117.976 22.015 117.364 25.1303C117.175 25.9892 116.903 26.8753 116.307 27.5365C115.878 28.0199 115.276 28.3057 114.661 28.4438C113.7 28.6577 112.71 28.6209 111.733 28.622C112.311 25.6268 112.89 22.6311 113.471 19.6357C113.64 18.731 113.876 17.8012 114.432 17.0564C114.822 16.5293 115.401 16.1711 116.022 16.004ZM123.402 15.9245C124.333 15.7243 125.289 15.7842 126.235 15.7745C125.736 18.1832 125.262 20.5983 124.704 22.9935C125.225 22.1797 125.768 21.3812 126.312 20.5825C126.689 20.0225 127.077 19.4701 127.478 18.9266C128.003 18.212 128.503 17.4672 129.146 16.8562C129.633 16.3869 130.252 16.0725 130.906 15.9363C131.874 15.7294 132.869 15.7802 133.851 15.7786C133.308 18.6652 132.738 21.5467 132.184 24.4315C132.072 25.0258 131.964 25.6246 131.755 26.1926C131.527 26.8433 131.165 27.471 130.611 27.885C130.082 28.285 129.426 28.4586 128.782 28.5427C127.998 28.6413 127.206 28.6238 126.417 28.622C126.77 26.8595 127.134 25.0991 127.495 23.338C127.584 22.8678 127.697 22.4016 127.774 21.9293C127.31 22.6456 126.818 23.3436 126.342 24.0524C125.863 24.7732 125.355 25.4726 124.843 26.1684C124.371 26.8017 123.885 27.446 123.239 27.9033C122.62 28.3431 121.864 28.5207 121.123 28.5835C120.368 28.644 119.61 28.6212 118.854 28.6225C118.77 28.6308 118.805 28.515 118.816 28.468C119.414 25.3917 120.002 22.3135 120.603 19.238C120.791 18.3933 121.06 17.5233 121.642 16.8707C122.094 16.3495 122.743 16.0553 123.402 15.9245ZM84.2568 33.2491C93.6492 32.543 103.069 32.2198 112.487 32.2759C120.332 32.3264 128.176 32.6362 136 33.2284V33.2474C135.884 33.5707 135.659 33.8452 135.38 34.0349C134.889 34.3667 134.298 34.496 133.724 34.5811C132.182 34.7743 130.626 34.6185 129.08 34.5618C124.513 34.3555 119.941 34.2732 115.37 34.2955C106.171 34.3439 96.9738 34.8117 87.8134 35.6763C77.573 36.6513 67.3714 38.1169 57.2934 40.223C49.6841 41.8195 42.1417 43.7853 34.7734 46.3076C35.0621 45.0212 35.7671 43.8641 36.663 42.9267C37.6611 41.8778 38.8774 41.0704 40.1576 40.4291C41.8899 39.5653 43.7518 38.9941 45.6435 38.6322C49.5739 37.7434 53.5388 37.0234 57.5132 36.3735C66.3786 34.939 75.3068 33.9264 84.2568 33.2491ZM101.505 40.0059C101.859 39.6961 102.304 39.4941 102.771 39.4554C103.243 39.4151 103.746 39.4514 104.167 39.694C104.437 39.8482 104.639 40.1389 104.653 40.4602C104.683 40.784 104.542 41.1107 104.302 41.3203C104.123 41.4769 103.903 41.5849 103.673 41.6335C103.941 41.6749 104.21 41.8168 104.348 42.0631C104.488 42.3119 104.469 42.6172 104.408 42.8874C104.318 43.2859 104.044 43.6255 103.699 43.8259C103.266 44.086 102.754 44.165 102.259 44.1658C101.84 44.1652 101.398 44.1075 101.046 43.8592C100.733 43.6419 100.554 43.2657 100.519 42.8869C100.481 42.4573 100.532 42.022 100.632 41.6043C100.785 41.0108 101.044 40.4167 101.505 40.0059ZM102.362 40.4844C102.092 40.6956 101.947 41.0228 101.843 41.3442C102.139 41.3428 102.435 41.3477 102.731 41.3388C102.946 41.3278 103.175 41.2835 103.342 41.1346C103.502 40.9962 103.571 40.7625 103.52 40.5556C103.472 40.414 103.339 40.3248 103.203 40.2894C102.913 40.2273 102.593 40.291 102.362 40.4844ZM101.702 42.0637C101.648 42.3764 101.605 42.7131 101.722 43.0161C101.813 43.227 102.046 43.3211 102.259 43.331C102.58 43.3514 102.942 43.2714 103.154 43.0038C103.282 42.8181 103.347 42.5618 103.259 42.3458C103.167 42.1642 102.952 42.1147 102.772 42.0836C102.416 42.0451 102.058 42.0726 101.702 42.0637ZM106.24 39.9616C106.827 39.4624 107.652 39.3391 108.382 39.5151C108.673 39.6018 108.97 39.7493 109.146 40.0129C109.365 40.3136 109.393 40.7281 109.268 41.0734C109.136 41.4586 108.785 41.7152 108.424 41.8568C107.766 42.1139 107.049 42.1099 106.354 42.1072C106.305 42.3936 106.277 42.7117 106.423 42.9761C106.526 43.162 106.738 43.2424 106.937 43.2663C107.454 43.3197 107.967 43.1862 108.452 43.0159C108.518 43.0046 108.642 42.9554 108.664 43.0556C108.685 43.2864 108.63 43.5204 108.544 43.7327C108.436 43.9455 108.185 43.9831 107.982 44.0419C107.444 44.165 106.881 44.2115 106.336 44.1161C105.96 44.0529 105.579 43.8643 105.379 43.5218C105.157 43.1615 105.146 42.7166 105.17 42.305C105.237 41.4331 105.564 40.5296 106.24 39.9616ZM106.972 40.5411C106.743 40.7542 106.592 41.0443 106.525 41.3517C106.973 41.3415 107.445 41.3788 107.866 41.1886C108.044 41.1104 108.212 40.9363 108.202 40.726C108.216 40.5352 108.063 40.3657 107.89 40.32C107.573 40.2281 107.216 40.3165 106.972 40.5411ZM111.948 39.7735C112.331 39.5113 112.809 39.3719 113.268 39.4721C113.642 39.5398 113.955 39.8332 114.082 40.1956C114.277 40.7469 114.23 41.3533 114.119 41.9183C113.977 42.5589 113.717 43.1996 113.241 43.6564C112.808 44.0779 112.168 44.2625 111.585 44.122C111.309 44.0632 111.082 43.8834 110.882 43.691C110.759 44.3144 110.645 44.9401 110.521 45.5634C110.479 45.719 110.292 45.7348 110.162 45.7531C109.916 45.7657 109.659 45.7848 109.423 45.6978C109.328 45.6456 109.382 45.5153 109.391 45.4302C109.778 43.4936 110.142 41.5524 110.54 39.618C110.823 39.4761 111.155 39.514 111.457 39.5597C111.479 39.5951 111.528 39.6212 111.521 39.6712C111.507 39.8987 111.42 40.1166 111.426 40.3474C111.527 40.1013 111.737 39.921 111.948 39.7735ZM112.367 40.471C111.98 40.5841 111.704 40.921 111.496 41.2566C111.253 41.6513 111.198 42.1204 111.104 42.5664C111.067 42.6787 111.17 42.7639 111.231 42.8439C111.399 43.0521 111.662 43.1841 111.929 43.1615C112.222 43.1564 112.456 42.9326 112.611 42.6986C112.887 42.2582 113 41.7311 113.02 41.2141C113.024 40.9987 113.015 40.7628 112.881 40.5854C112.761 40.4304 112.54 40.4224 112.367 40.471ZM116.082 39.748C116.539 39.4637 117.1 39.3925 117.621 39.4825C117.908 39.5349 118.206 39.6373 118.404 39.867C118.431 40.0938 118.387 40.3227 118.31 40.5357C118.264 40.6456 118.197 40.7577 118.077 40.7931C117.913 40.7141 117.791 40.5683 117.624 40.4965C117.294 40.3415 116.875 40.3829 116.598 40.6292C116.228 40.9471 116.082 41.4452 115.988 41.9108C115.939 42.2523 115.885 42.6376 116.077 42.9449C116.223 43.162 116.508 43.1937 116.745 43.1733C117.067 43.1572 117.351 42.9823 117.611 42.8039C117.676 42.7499 117.76 42.7507 117.839 42.7638C117.876 43.082 117.799 43.4105 117.668 43.6988C117.391 43.9836 116.984 44.0855 116.607 44.1464C116.139 44.187 115.618 44.158 115.236 43.8474C114.934 43.6069 114.794 43.2155 114.759 42.8375C114.713 42.3211 114.793 41.7982 114.947 41.3068C115.151 40.6846 115.513 40.0806 116.082 39.748ZM119.77 39.8192C120.205 39.4734 120.802 39.3517 121.333 39.5051C121.637 39.5959 121.887 39.8149 122.079 40.068C122.106 39.9135 122.131 39.759 122.184 39.6112C122.415 39.4989 122.681 39.5134 122.93 39.5341C123.028 39.5473 123.203 39.5709 123.151 39.7187C122.99 40.5766 122.819 41.4331 122.651 42.2899C122.532 42.8565 122.448 43.4326 122.304 43.9936C122.09 44.1115 121.839 44.0863 121.606 44.0825C121.509 44.0688 121.385 44.0833 121.329 43.985C121.323 43.7332 121.429 43.4928 121.457 43.2491C121.375 43.2776 121.373 43.4062 121.309 43.4648C120.888 43.9761 120.193 44.2797 119.542 44.1284C119.158 44.0473 118.858 43.7244 118.742 43.3488C118.56 42.7547 118.626 42.1134 118.77 41.5188C118.941 40.8767 119.24 40.2308 119.77 39.8192ZM120.602 40.546C120.389 40.6712 120.237 40.8796 120.128 41.1002C119.915 41.5417 119.819 42.0379 119.825 42.529C119.831 42.7434 119.878 42.9954 120.075 43.1129C120.284 43.2182 120.527 43.1432 120.721 43.0355C121.023 42.852 121.243 42.5575 121.409 42.2461C121.618 41.8428 121.679 41.3845 121.759 40.9417C121.647 40.8025 121.535 40.6542 121.382 40.5599C121.145 40.4291 120.839 40.4022 120.602 40.546ZM86.4126 39.5683C86.7328 39.4981 87.0732 39.4997 87.3942 39.5688C87.472 39.7716 87.4793 39.9919 87.5143 40.205C87.6344 41.0296 87.7501 41.8547 87.8731 42.6787C88.4572 41.805 88.846 40.8103 89.1386 39.7993C89.1588 39.7354 89.178 39.6698 89.2124 39.6112C89.4304 39.5019 89.6819 39.5271 89.918 39.5231C90.0544 39.5306 90.2098 39.5196 90.3281 39.6018C90.3825 39.7112 90.3433 39.8353 90.3141 39.9471C90.0147 40.7945 89.6754 41.6292 89.2474 42.4183C88.6749 43.5078 87.9252 44.4836 87.2409 45.4998C87.1308 45.6956 86.8952 45.7359 86.6944 45.7526C86.4355 45.7649 86.1689 45.7813 85.9173 45.7053C85.9018 45.6806 85.8708 45.6311 85.8553 45.6064C85.9497 45.3995 86.1087 45.2348 86.2367 45.0503C86.4738 44.716 86.7349 44.3987 86.9649 44.0591C86.7546 42.6701 86.4967 41.2851 86.2793 39.896C86.2583 39.7749 86.2656 39.5978 86.4126 39.5683ZM91.2339 39.6112C91.511 39.4922 91.8199 39.5175 92.1125 39.5357C92.2084 39.5419 92.378 39.5806 92.3456 39.7149C92.2497 40.2362 92.1427 40.755 92.0438 41.2754C92.5843 41.2743 93.1245 41.2829 93.6647 41.2711C93.7722 40.7198 93.8663 40.1655 93.993 39.6188C94.2649 39.4911 94.574 39.5177 94.8645 39.5341C94.9672 39.5476 95.1581 39.5653 95.1176 39.7198C94.9425 40.6741 94.7454 41.6244 94.5645 42.5777C94.4631 43.0478 94.396 43.5263 94.2722 43.9909C94.0275 44.1061 93.7507 44.0903 93.4889 44.0806C93.3784 44.0645 93.2483 44.0793 93.1616 43.9957C93.1332 43.9033 93.1687 43.8079 93.1847 43.7163C93.2775 43.2276 93.3816 42.7402 93.4683 42.2496C92.9316 42.2534 92.3943 42.2518 91.8572 42.2512C91.745 42.7837 91.6466 43.3197 91.5404 43.8536C91.5234 43.9103 91.5147 43.9893 91.4498 44.0108C91.2818 44.0919 91.0891 44.082 90.9082 44.0876C90.7274 44.0798 90.5305 44.097 90.3728 43.9906C90.419 43.5742 90.5279 43.1682 90.5988 42.7555C90.7886 41.7733 90.9853 40.7923 91.1727 39.8095C91.1845 39.7405 91.2095 39.6755 91.2339 39.6112ZM96.2545 39.7141C96.2611 39.5887 96.3986 39.5645 96.4961 39.5468C96.7832 39.5065 97.0807 39.5043 97.3641 39.5763C97.3773 39.597 97.4041 39.6392 97.417 39.6596C97.2669 40.4487 97.1125 41.2364 96.9622 42.0255C96.8936 42.345 96.8218 42.6897 96.9475 43.0051C97.0734 43.1709 97.3084 43.1722 97.4853 43.0973C97.7116 43.0161 97.8875 42.8391 98.0471 42.662C98.3186 42.3211 98.5 41.9087 98.5854 41.4785C98.699 40.892 98.8081 40.3041 98.9248 39.7187C98.9474 39.5433 99.1637 39.5503 99.2944 39.5301C99.5591 39.5231 99.8467 39.4852 100.091 39.6163C99.9035 40.6757 99.6808 41.7295 99.4789 42.7867C99.3906 43.1902 99.3399 43.6021 99.2266 43.9995C99.061 44.0884 98.8701 44.0863 98.6882 44.086C98.5486 44.0787 98.3943 44.0889 98.2792 43.9941C98.2976 43.7507 98.3901 43.5167 98.3767 43.2706C98.1824 43.6059 97.863 43.8466 97.5226 44.0094C97.1783 44.1773 96.7776 44.2093 96.4096 44.1139C96.1694 44.0468 95.9383 43.8979 95.8247 43.6642C95.6165 43.2596 95.6649 42.7808 95.7417 42.3474C95.9112 41.4694 96.0787 40.5908 96.2545 39.7141ZM124.769 39.5752C124.983 39.5239 125.206 39.5583 125.425 39.5486C125.628 39.557 125.862 39.5333 126.027 39.6779C126.184 39.8192 126.184 40.0489 126.213 40.2445C126.289 40.9619 126.416 41.6749 126.44 42.3976C126.445 42.5215 126.448 42.6462 126.46 42.7706C126.618 42.4234 126.758 42.0691 126.932 41.7308C127.237 41.1513 127.525 40.5621 127.829 39.9817C127.936 39.7625 128.146 39.5986 128.387 39.5669C128.658 39.5328 128.933 39.5548 129.207 39.5481C129.35 39.5459 129.534 39.5618 129.603 39.7149C129.652 39.8415 129.62 39.9825 129.615 40.1147C129.499 41.3721 129.392 42.6306 129.272 43.8874C129.256 44.0417 129.069 44.0656 128.948 44.0779C128.708 44.0841 128.46 44.111 128.226 44.0462C128.168 43.949 128.21 43.8259 128.212 43.7195C128.303 42.7974 128.35 41.8705 128.476 40.9522C128.499 40.7625 128.543 40.576 128.548 40.3845C128.111 41.3853 127.594 42.3471 127.109 43.3238C126.993 43.532 126.908 43.7577 126.775 43.956C126.598 44.1193 126.337 44.0763 126.118 44.0855C125.955 44.0803 125.691 44.0812 125.681 43.8552C125.589 43.0347 125.507 42.2131 125.414 41.3928C125.376 41.0551 125.359 40.7155 125.347 40.3762C125.082 41.5143 124.71 42.6212 124.382 43.7407C124.353 43.8267 124.334 43.9189 124.282 43.9949C124.184 44.0846 124.041 44.0742 123.92 44.0836C123.713 44.0849 123.499 44.1083 123.299 44.0406C123.222 43.9866 123.271 43.8864 123.287 43.8141C123.662 42.5591 124.039 41.3055 124.411 40.05C124.464 39.8544 124.559 39.6338 124.769 39.5752Z" fill="#87C394"/>
</svg>
