<svg width="170" height="50" viewBox="0 0 170 50" fill="none" xmlns="http://www.w3.org/2000/svg">
<path d="M36.9127 45.0571C35.8896 45.1707 34.8631 45.2611 33.8353 45.3127H33.8328C33.8212 45.3073 20.8928 39.6463 21.0486 27.4988C21.1683 18.0683 25.5519 15.3123 25.5519 15.3123C25.5519 15.3123 28.8766 16.7088 31.3223 19.3174C33.3865 21.5173 34.6071 24.3141 34.6071 24.3141C34.6071 24.3141 35.7961 17.7224 42.088 12.3635C51.3144 3.994 61.2843 4.70079 61.2843 4.70079C61.2843 4.70079 63.3992 9.51265 63.4698 16.0919C63.6294 31.4578 54.3203 42.5542 39.8414 44.6746C38.8681 44.8186 37.8906 44.9489 36.9127 45.0571Z" fill="#92C99F"/>
<path fill-rule="evenodd" clip-rule="evenodd" d="M35.3626 25.9845C34.817 27.2074 34.1649 28.9465 33.5083 31.372C33.4908 31.4386 33.4767 31.5073 33.4547 31.5735C33.2963 32.0422 33.2057 32.1958 33.1579 32.1579C31.9798 38.4125 33.2822 43.1286 33.7493 44.523C33.7838 44.538 35.2438 44.503 35.9029 44.4202C48.4639 42.8518 58.1886 32.0984 58.1886 19.0581C58.1886 16.4869 57.8104 14.0069 57.1052 11.6671C47.5384 12.0884 39.3477 17.8139 35.3626 25.9845Z" fill="#56AB69"/>
<path fill-rule="evenodd" clip-rule="evenodd" d="M24.0575 29.4231C24.0575 36.1401 28.035 41.9156 33.7493 44.523C33.2822 43.1286 31.9798 38.4124 33.1579 32.1579C33.0312 32.0571 33.2153 30.5799 33.3358 29.7569C33.4954 28.663 33.6712 27.6811 33.8719 26.7603C32.0587 24.0893 29.5947 21.8985 26.701 20.4283C25.0316 23.0187 24.0575 26.1068 24.0575 29.4231Z" fill="#56AB69"/>
<path d="M92.0259 17.6233C91.9536 17.5508 91.8368 17.488 91.6751 17.4335C91.5126 17.3798 91.2994 17.3419 91.033 17.3173C90.7679 17.2928 90.4288 17.2803 90.0153 17.2803C89.6142 17.2803 89.2801 17.2928 89.0162 17.3173C88.7527 17.3419 88.5416 17.3798 88.3799 17.4335C88.2191 17.488 88.1065 17.5508 88.0412 17.6233C88.023 17.6441 88.0151 17.6691 88.0018 17.6903L86.8082 23.2185L86.8161 23.2019C86.8186 23.2747 86.8373 23.3346 86.873 23.385C86.9075 23.4354 86.9628 23.4782 87.0389 23.5153C87.1145 23.5511 87.2126 23.5786 87.3323 23.5931C87.4519 23.611 87.6057 23.6181 87.7915 23.6181C87.9727 23.6181 88.1227 23.611 88.2403 23.5931C88.3583 23.5786 88.4527 23.5511 88.5213 23.5153C88.5732 23.4886 88.6679 23.3992 88.7465 23.3047L92.1169 17.826C92.1069 17.7502 92.082 17.679 92.0259 17.6233ZM126.148 25.2669C126.253 25.0296 126.34 24.7682 126.411 24.4814C126.481 24.1946 126.535 23.9182 126.579 23.6531C126.621 23.3854 126.652 23.1465 126.673 22.9305C126.694 22.7161 126.703 22.5646 126.703 22.4792C126.703 22.0734 126.602 21.8187 126.4 21.715H114.017C113.534 21.74 113.138 21.7325 112.832 21.7858C112.525 21.8378 112.302 21.9027 112.161 21.9756C112.06 22.028 111.978 22.0875 111.93 22.1571L111.223 26.0815L110.73 28.8025L109.94 33.1727L109.406 36.1185L108.678 40.1174L108.702 40.1203C108.662 40.2282 108.756 40.3177 108.864 40.3909C108.97 40.4642 109.163 40.5274 109.44 40.5811C109.717 40.6336 110.091 40.6731 110.564 40.6973C111.028 40.7206 111.629 40.7322 112.358 40.7343V40.7352H122.893C122.992 40.696 123.088 40.6353 123.179 40.5316C123.327 40.3676 123.453 40.1595 123.558 39.9101C123.662 39.6608 123.75 39.3882 123.821 39.0835C123.89 38.7842 123.946 38.4916 123.988 38.2131C124.032 37.933 124.062 37.6824 124.082 37.4526C124.103 37.2282 124.115 37.0688 124.115 36.9789C124.115 36.4041 123.932 36.1185 123.567 36.1185H115.759L116.3 33.1727H122.756C122.873 33.1407 122.987 33.082 123.095 32.9683C123.242 32.811 123.368 32.6137 123.474 32.3748C123.578 32.1404 123.665 31.8778 123.736 31.591C123.805 31.3054 123.86 31.0265 123.904 30.761C123.946 30.4966 123.978 30.2569 123.999 30.0413C124.02 29.8252 124.031 29.6741 124.031 29.5905C124.031 29.1276 123.892 28.8728 123.633 28.8025H117.087L117.584 26.0815H125.355C125.5 26.0665 125.64 25.9978 125.77 25.8588C125.917 25.7019 126.042 25.5058 126.148 25.2669ZM99.7291 40.1203L99.8181 40.3339C99.8409 40.3547 99.8655 40.3722 99.8929 40.3909C99.9989 40.4646 100.192 40.5274 100.468 40.5811C100.745 40.6336 101.119 40.6735 101.591 40.6973C102.063 40.7222 102.673 40.7343 103.418 40.7343C104.146 40.7343 104.75 40.7222 105.234 40.6973C105.718 40.6735 106.113 40.6336 106.42 40.5811C106.726 40.5274 106.949 40.4646 107.092 40.3909C107.23 40.3181 107.341 40.2282 107.361 40.1203L102.668 29.9559L109.9 22.279C109.923 22.2029 109.921 22.1329 109.869 22.0767C109.794 22.0051 109.642 21.9423 109.405 21.8894C109.169 21.8341 108.842 21.7958 108.422 21.772C108.004 21.7479 107.468 21.7346 106.81 21.7346C106.137 21.7346 105.578 21.7479 105.133 21.772C104.685 21.7958 104.32 21.8341 104.028 21.8894C103.738 21.9423 103.513 22.0051 103.363 22.0767C103.319 22.0984 103.289 22.125 103.252 22.1496L96.7947 28.9857L97.9962 22.3361C97.9758 22.2349 97.9114 22.1479 97.7975 22.0767C97.6791 22.0051 97.4891 21.9423 97.2306 21.8894C96.9709 21.8341 96.6393 21.7958 96.2308 21.772C95.821 21.7479 95.3123 21.7346 94.6993 21.7346C94.0701 21.7346 93.5556 21.7479 93.1571 21.772C92.759 21.7958 92.4435 21.8341 92.2096 21.8894C91.976 21.9423 91.8152 22.0051 91.7237 22.0767C91.7042 22.0934 91.6988 22.1134 91.6859 22.1317L88.4178 40.1599L88.4381 40.1203C88.4045 40.2282 88.434 40.3181 88.5254 40.3909C88.6139 40.4646 88.7768 40.5274 89.01 40.5811C89.2444 40.6336 89.5602 40.6735 89.9579 40.6973C90.3556 40.7222 90.8714 40.7343 91.4985 40.7343C92.114 40.7343 92.6218 40.7222 93.0303 40.6973C93.4393 40.6735 93.7722 40.6336 94.0315 40.5811C94.29 40.5274 94.4791 40.4646 94.5988 40.3909C94.6815 40.3397 94.7292 40.2785 94.7633 40.2111L96.2873 31.7737L99.7291 40.1203ZM148.552 22.073C148.462 21.9997 148.299 21.9356 148.066 21.8836C147.833 21.8286 147.518 21.7903 147.119 21.765C146.952 21.7566 146.759 21.7491 146.552 21.7433H144.617C144.411 21.7491 144.217 21.7566 144.046 21.765C143.636 21.7903 143.304 21.8286 143.044 21.8836C142.848 21.9227 142.704 21.9718 142.589 22.0239L134.423 31.7899L136.104 22.3061C136.118 22.2166 136.094 22.1358 136.018 22.073C135.931 21.9997 135.775 21.9356 135.551 21.8836C135.326 21.8286 135.022 21.7903 134.638 21.765C134.479 21.7566 134.294 21.7491 134.093 21.7433H132.23C132.031 21.7491 131.844 21.7566 131.681 21.765C131.287 21.7903 130.966 21.8286 130.717 21.8836C130.469 21.9356 130.287 21.9997 130.172 22.073C130.137 22.0959 130.115 22.1221 130.088 22.1496L126.734 40.2968C126.751 40.3297 126.768 40.363 126.804 40.3905C126.894 40.4638 127.056 40.5274 127.289 40.5811C127.523 40.6336 127.838 40.6727 128.237 40.6973C128.635 40.7222 129.151 40.7343 129.778 40.7343C130.393 40.7343 130.901 40.7222 131.31 40.6973C131.719 40.6727 132.051 40.6336 132.311 40.5811C132.55 40.5316 132.723 40.4721 132.842 40.4063L133.08 40.1245C133.08 40.1237 133.081 40.1224 133.081 40.1203V40.1224L140.942 30.8092L139.27 40.2943C139.285 40.3281 139.304 40.3609 139.337 40.3905C139.424 40.4638 139.581 40.5274 139.806 40.5811C140.029 40.6336 140.335 40.6727 140.717 40.6973C141.101 40.7222 141.596 40.7343 142.202 40.7343C142.792 40.7343 143.282 40.7222 143.675 40.6973C144.069 40.6727 144.39 40.6336 144.638 40.5811C144.887 40.5274 145.068 40.4638 145.183 40.3905C145.237 40.3572 145.277 40.3189 145.309 40.2777L148.643 22.2145C148.631 22.1629 148.604 22.1129 148.552 22.073ZM79.9319 31.2101C79.5932 32.8218 78.9732 34.1218 78.0834 35.1008C77.1953 36.0773 76.1651 36.5364 74.9873 36.4711C73.6163 36.4045 72.7361 35.7514 72.3459 34.5093C72.0491 33.5378 72.0491 32.3086 72.3654 30.8305C72.6592 29.4281 73.1779 28.2651 73.9155 27.3423C74.7962 26.2347 75.8929 25.7106 77.1866 25.7759C78.4678 25.8359 79.336 26.439 79.8048 27.5779C80.1913 28.5552 80.2345 29.7636 79.9319 31.2101ZM85.1903 24.5697C83.7828 22.4447 81.4563 21.2967 78.2181 21.1393C75.2059 20.9907 72.5865 21.767 70.3548 23.4666C68.1269 25.1653 66.6981 27.5055 66.0755 30.4725C64.7789 36.6197 67.9652 40.8188 74.0049 41.1152C76.9456 41.2542 79.533 40.4937 81.751 38.8304C84.0853 37.0801 85.5789 34.645 86.2343 31.514C86.8099 28.7929 86.4608 26.4769 85.1903 24.5697ZM143.169 17.6233C143.097 17.5508 142.981 17.488 142.819 17.4335C142.657 17.3798 142.442 17.3419 142.176 17.3173C141.911 17.2928 141.571 17.2803 141.159 17.2803C140.756 17.2803 140.424 17.2928 140.161 17.3173C139.897 17.3419 139.685 17.3798 139.525 17.4335C139.364 17.488 139.25 17.5508 139.186 17.6233C139.167 17.6441 139.159 17.6691 139.145 17.6903L137.953 23.2185L137.96 23.2019C137.964 23.2747 137.982 23.3346 138.017 23.385C138.051 23.4354 138.108 23.4782 138.181 23.5153C138.259 23.5511 138.355 23.5786 138.477 23.5931C138.596 23.611 138.75 23.6181 138.935 23.6181C139.117 23.6181 139.266 23.611 139.383 23.5931C139.503 23.5786 139.596 23.5511 139.665 23.5153C139.717 23.4886 139.812 23.3992 139.891 23.3047L143.262 17.826C143.251 17.7502 143.226 17.679 143.169 17.6233Z" fill="#92C99F"/>
</svg>
