<svg width="170" height="50" viewBox="0 0 170 50" fill="none" xmlns="http://www.w3.org/2000/svg">
<path d="M23 29.7258C25.1598 34.7941 30.1871 38.3495 36.0461 38.3495C33.8863 33.279 28.859 29.7258 23 29.7258Z" fill="#A2D1AD"/>
<path d="M36.0472 38.3494C40.3512 38.3494 44.0571 35.7915 45.7292 32.1145C41.4262 32.1145 37.7204 34.6724 36.0472 38.3494Z" fill="#A2D1AD"/>
<path fill-rule="evenodd" clip-rule="evenodd" d="M36.0472 31.2617C41.9183 31.2617 46.678 26.5031 46.678 20.6308C46.678 14.7608 41.9183 10 36.0472 10C30.175 10 25.4164 14.7608 25.4164 20.6308C25.4164 26.5031 30.175 31.2617 36.0472 31.2617ZM36.0472 25.947C38.9822 25.947 41.362 23.5671 41.362 20.631C41.362 17.6949 38.9822 15.3161 36.0472 15.3161C33.111 15.3161 30.7312 17.6949 30.7312 20.631C30.7312 23.5671 33.111 25.947 36.0472 25.947Z" fill="#56AB69"/>
<path d="M104.445 20.631H108.892V37.8673H104.445V31.1546H96.6805V37.8673H92.2337V20.631H96.6805V26.9832H104.445V20.631ZM110.986 24.9064H116.522V37.8673H120.969V24.9064H126.438V20.631H110.986V24.9064ZM148 34.1183V37.7821C147.242 38.1615 146.295 38.3505 145.189 38.3505C142.879 38.3505 141.716 37.3453 141.25 35.7263L141.176 35.8347C139.831 37.5234 137.97 38.3505 135.557 38.3505C133.246 38.3505 131.281 37.4891 129.627 35.7307C128.007 33.9724 127.18 31.8004 127.18 29.2492C127.18 26.7001 128.007 24.5624 129.627 22.8041C131.281 21.0468 133.246 20.1489 135.557 20.1489C137.863 20.1489 139.665 20.9075 140.994 22.4524V20.6321H145.441V32.8245C145.441 33.8662 145.915 34.4026 146.863 34.4026C147.306 34.4015 147.685 34.3074 148 34.1183ZM141.176 29.248C141.176 27.8369 140.728 26.6647 139.797 25.7678C138.901 24.8378 137.763 24.3888 136.384 24.3888C135.005 24.3888 133.868 24.8367 132.971 25.7678C132.075 26.6647 131.627 27.8369 131.627 29.248C131.627 30.6625 132.075 31.8347 132.971 32.7659C133.868 33.6616 135.005 34.1095 136.384 34.1095C137.763 34.1095 138.901 33.6616 139.797 32.7659C140.728 31.8347 141.176 30.6625 141.176 29.248ZM55.5992 20.631L55.4665 27.1071C55.4355 29.7291 55.3404 31.0241 54.9611 32.5071C54.6138 33.9292 53.9503 34.3307 52.9097 34.3307C52.5613 34.3307 52.2461 34.2986 51.9929 34.2035V37.8673C52.3401 38.0564 52.9096 38.1504 53.6672 38.1504C56.7935 38.0564 58.3097 36.5811 59.0683 33.9281C59.6047 32.0327 59.6998 30.5795 59.7949 28.401L59.8944 24.9052H65.4161V37.8662H69.8628V20.6299H55.5992V20.631ZM77.0157 30.4126C77.4945 33.3542 79.8268 34.3174 82.1934 34.3174C83.7615 34.3174 85.4049 33.7047 86.4157 32.788L89.1582 35.5472C87.5204 37.3608 85.2401 38.3505 82.1237 38.3505C77.761 38.3505 72.4981 35.775 72.4981 29.2492C72.4981 22.7245 77.5664 20.1489 81.8705 20.1489C87.3147 20.1489 89.5674 22.7068 89.5674 25.5743C89.5685 30.2622 83.61 32.4275 77.0157 30.4126ZM84.7402 26.0819C84.7402 24.7449 83.4176 24.1477 81.9357 24.1477C79.672 24.1477 77.7102 25.1032 77.1141 27.5627C81.7267 28.8953 84.7402 27.9011 84.7402 26.0819Z" fill="#92C99F"/>
</svg>
