<svg width="170" height="50" viewBox="0 0 170 50" fill="none" xmlns="http://www.w3.org/2000/svg">
<path d="M139 6H30V44H139V6Z" fill="#56AB68"/>
<path d="M126.102 29.4086C126.078 29.6004 126.005 30.1047 125.342 30.1702H119.518C118.855 30.1047 118.734 29.6004 118.709 29.4086V20.5013C118.734 20.3092 118.826 19.9007 119.489 19.8352H125.344C126.008 19.9007 126.078 20.3092 126.102 20.5013V29.4086ZM128.119 16.4791H116.693C114.976 16.6164 113.526 17.4791 113.333 19.409V30.4368C113.526 32.3668 114.976 33.3892 116.693 33.5265H128.119C129.835 33.3892 131.285 32.3668 131.479 30.4368V19.409C131.285 17.4791 129.835 16.6164 128.119 16.4791ZM81.8788 19.8352H76.7707V16.4791H92.3635V19.8352H87.2555V33.5265H81.8788V19.8352V19.8352ZM75.1579 19.8352V16.4791H61.1782V33.5265L75.3437 33.5228L75.3488 30.1704H66.5685L66.5694 26.5192H75.1578V23.1715H66.5694V19.8352H75.1578L75.1579 19.8352ZM106.343 22.4775C106.343 22.8464 106.25 23.1701 105.582 23.1701H99.3533V19.8239H105.59C106.349 19.8239 106.343 20.3158 106.343 20.6229V22.4775V22.4775ZM107.832 26.8994C109.51 26.7663 111.182 25.6352 111.182 23.7774V19.5688C110.987 17.6478 109.533 16.6104 107.808 16.4736H93.9763L93.9768 33.5265H99.3533V26.8994H101.493L104.988 33.5265H111.171L107.01 26.8994H107.832H107.832ZM50.0485 33.5265L53.6509 22.8186V33.5265H59.0276V16.4791H51.7692L48.2742 25.003L44.7793 16.4791H37.5209V33.5265H42.8976V22.8186L46.5266 33.5265H50.0485" fill="#E6F3E9"/>
</svg>
