<svg width="720" height="608" viewBox="0 0 720 608" fill="none" xmlns="http://www.w3.org/2000/svg">
<g clip-path="url(#clip0_116_1315)">
<path d="M349.393 604.513C327.816 605.258 306.187 604.356 284.833 601.66C274.134 600.371 263.496 598.563 252.912 596.437C250.289 595.846 247.665 595.255 245.042 594.664C242.418 594.073 239.795 593.482 237.135 592.81L229.318 590.718L225.391 589.632C224.042 589.254 222.775 588.84 221.509 588.427C200.87 582.069 180.788 573.889 161.754 563.666C152.387 558.34 142.946 552.851 134.221 546.549C132.04 544.973 129.777 543.435 127.641 541.741L121.315 536.622L118.21 534.085L115.196 531.311L109.205 525.845C101.458 518.22 94.0021 510.366 87.3802 501.744C83.9423 497.588 80.84 493.085 77.6108 488.738C77.2721 488.202 76.8149 487.621 76.4761 487.085L75.3413 485.433L73.1167 482.01L70.8922 478.587L69.7574 476.935L68.7044 475.246L64.5006 468.29L63.4109 466.519L62.403 464.712L60.4238 461.178L58.4446 457.645C57.8121 456.455 57.1796 455.265 56.5472 454.075L52.9159 446.862C51.6509 444.482 50.5495 442.029 49.4114 439.494C48.31 437.041 47.1269 434.624 45.9887 432.089C43.8678 427.146 41.6283 422.157 39.6708 417.14C31.559 397.101 24.3466 376.659 18.4345 355.829C17.6602 353.229 16.9677 350.592 16.3119 348.037C15.6194 345.4 14.8451 342.8 14.2711 340.208C13.0864 334.942 11.7831 329.632 10.7987 324.375L10.0011 320.409C9.69571 319.073 9.50887 317.781 9.28523 316.407L8.0172 308.33L7.70013 306.31L7.4649 304.254L7.03116 300.224C6.70247 297.522 6.292 294.857 6.16363 292.163L5.57807 284.074C5.47295 282.745 5.4497 281.38 5.42638 280.015L5.27464 275.956L5.12293 271.897C5.09961 270.532 5.19475 269.212 5.17143 267.847L5.35034 259.709C5.50396 256.987 5.69428 254.347 5.92968 251.589L6.1785 247.547L6.70939 243.476C7.06326 240.762 7.33539 238.086 7.80782 235.417L9.30679 227.375C9.60223 226.063 9.77915 224.706 10.0746 223.394L11.0427 219.422L12.0108 215.45C12.3881 214.102 12.6017 212.827 13.0974 211.523C14.7982 206.338 16.217 201.181 18.2732 196.131C19.2196 193.643 20.1292 191.073 21.1574 188.548L24.3236 180.936C24.856 179.714 25.3517 178.411 26.0026 177.234L27.8002 173.578L31.3953 166.265L35.264 159.124L37.2168 155.594L39.288 152.11L43.4304 145.14C44.8508 142.832 46.4263 140.651 47.8834 138.425C50.7607 133.891 54.1487 129.618 57.2998 125.256C57.7254 124.672 58.0692 124.124 58.5315 123.622L59.7999 122.07L62.3 118.884L64.8002 115.698C65.6063 114.649 66.4942 113.562 67.4188 112.558C81.4649 96.131 97.2549 81.1815 114.527 68.2197C131.836 55.3397 150.516 44.202 170.335 35.5995C171.561 35.0488 172.825 34.5799 174.051 34.0292L177.805 32.5407L181.558 31.0521C182.822 30.5832 184.048 30.0326 185.348 29.6454L193.039 27.0773L196.866 25.7523L200.766 24.5908L208.521 22.3865C211.122 21.6122 213.75 21.12 216.387 20.4275L220.279 19.4663C221.616 19.1609 222.916 18.7738 224.208 18.5869L232.138 16.9917C253.338 12.7802 274.819 10.5063 296.385 9.07842C317.987 7.73238 339.511 7.30588 361.137 7.32503C382.681 7.38084 404.343 7.48173 425.927 8.50218C447.511 9.5227 469.098 11.426 490.402 15.3237C511.668 19.1395 532.815 24.8763 552.671 33.6488C557.676 35.8235 562.509 38.272 567.342 40.7204C569.695 42.0222 572.048 43.3241 574.438 44.7077C576.746 46.128 579.136 47.5116 581.362 48.9687C590.504 54.8869 599.176 61.5078 607.176 68.8229C615.177 76.138 622.752 84.0372 629.582 92.4671C636.413 100.897 642.744 109.747 648.458 118.973C659.968 137.388 669.298 157.077 677.41 177.116C681.443 187.194 685.195 197.301 688.619 207.555C692.125 217.772 695.467 228.063 698.483 238.5C704.559 259.257 709.535 280.409 712.045 301.979C714.638 323.513 714.602 345.54 710.66 366.962C710.105 369.667 709.633 372.335 708.96 374.996C708.37 377.619 707.615 380.316 706.906 382.895C705.323 388.125 703.704 393.273 701.566 398.36C697.572 408.505 692.393 418.2 686.32 427.215C674.009 445.319 658.284 460.632 641.278 473.966C632.774 480.633 623.924 486.965 614.89 492.887C605.856 498.81 596.63 504.524 587.376 509.956C578.04 515.424 568.667 520.811 559.339 526.08L531.311 542.003C512.419 552.45 493.416 562.652 473.781 571.663C454.11 580.593 433.997 588.541 413.213 594.335C392.391 600.046 371.016 603.649 349.393 604.513ZM349.41 604.112C370.914 603.203 392.289 599.601 413.074 593.807C415.711 593.115 418.274 592.259 420.793 591.521C423.356 590.665 425.993 589.972 428.52 589.035C433.61 587.241 438.737 585.529 443.717 583.489C446.207 582.47 448.734 581.532 451.224 580.512L458.657 577.372L462.374 575.801L466.054 574.149L473.377 570.763C492.82 561.543 511.75 551.178 530.532 540.486L558.568 524.362C567.941 518.976 577.195 513.544 586.376 507.948C595.557 502.353 604.701 496.675 613.58 490.626C622.496 484.658 631.264 478.363 639.649 471.651C656.455 458.309 671.817 443.061 683.71 425.341C685.167 423.114 686.624 420.888 687.962 418.617C688.613 417.44 689.383 416.309 689.952 415.169L691.868 411.557C692.519 410.381 693.051 409.159 693.702 407.983C694.235 406.761 694.885 405.585 695.418 404.363C696.483 401.92 697.548 399.476 698.494 396.988C700.505 392.057 702.161 386.99 703.661 381.796C704.371 379.218 705.08 376.639 705.671 374.016C706.299 371.474 706.771 368.806 707.28 366.219C711.124 345.234 711.143 323.608 708.461 302.311C707.219 291.667 705.332 281.116 703.081 270.63C700.748 260.181 698.052 249.797 694.991 239.478C691.931 229.159 688.707 218.914 685.201 208.697C681.695 198.48 678.062 188.418 674.066 178.421C666.109 158.509 656.934 138.947 645.616 120.741C640.021 111.56 633.762 102.873 627.005 94.6065C620.248 86.3402 612.91 78.5311 605.028 71.2611C589.219 56.8395 571.135 45.0113 551.516 36.329C531.979 27.6099 511.114 21.8448 490.011 17.9555C479.5 15.9925 468.809 14.5034 458.102 13.415C447.357 12.2447 436.678 11.4382 425.908 10.8687C404.451 9.69307 382.797 9.39188 361.298 9.21756C339.718 9.07996 318.202 9.30613 296.645 10.5337C285.907 11.1291 275.116 12.0433 264.435 13.2028C261.733 13.5315 259.068 13.942 256.448 14.2339C253.782 14.6444 251.125 14.8546 248.497 15.3468L240.538 16.6599L236.499 17.294L232.534 18.0916L224.603 19.6868C223.23 19.9104 222.011 20.2608 220.674 20.5662L216.782 21.5273C214.146 22.2198 211.517 22.712 208.917 23.4863L201.161 25.6907L197.261 26.8521L193.398 28.0953L185.707 30.6634C184.407 31.0506 183.18 31.6013 181.917 32.0702L178.164 33.5587L174.41 35.0473C173.147 35.5162 171.883 35.9851 170.693 36.6176L163.333 39.9218L159.653 41.5738L156.084 43.4713L148.944 47.2662C147.754 47.8986 146.601 48.6128 145.411 49.2453L141.914 51.3063L138.418 53.3672C137.265 54.0815 136.075 54.714 134.958 55.51L128.194 59.9224L124.853 62.1102L121.585 64.4616L115.049 69.1643C112.898 70.7197 110.857 72.5203 108.742 74.1575L105.548 76.6724L103.969 77.9707L102.427 79.3509L96.3486 84.6344C95.3873 85.5573 94.2708 86.3533 93.3461 87.358L90.4622 90.1266L84.6124 95.7005L79.0732 101.528L76.2626 104.46C75.3013 105.383 74.4952 106.433 73.5705 107.438L68.2599 113.556C67.3353 114.56 66.5292 115.61 65.723 116.66L63.2229 119.845L60.7228 123.031L59.4543 124.583C59.0287 125.168 58.6482 125.633 58.2226 126.217C55.0716 130.58 51.802 134.897 49.0064 139.395C47.5494 141.621 46.0106 143.884 44.5903 146.192L40.4478 153.161L38.3766 156.646L36.4606 160.257L32.6736 167.361L29.1602 174.638L27.4445 178.258C26.9121 179.479 26.3796 180.701 25.8472 181.922L22.6894 189.334C21.6612 191.859 20.8334 194.392 19.8871 196.881C17.9125 201.894 16.4938 207.051 14.8747 212.199C14.4608 213.466 14.1654 214.778 13.8699 216.09L12.9469 219.943L12.0239 223.796C11.7285 225.108 11.5515 226.465 11.256 227.777L9.88388 235.664C9.49326 238.296 9.22119 240.973 8.94907 243.65L8.46325 247.602L8.21445 251.644C8.02405 254.284 7.87045 257.006 7.68007 259.646L7.54629 267.665C7.56961 269.03 7.47444 270.351 7.57956 271.679L7.73125 275.738L7.88299 279.797C7.90631 281.162 7.92962 282.527 8.11648 283.819L8.78376 291.871C8.9122 294.565 9.40442 297.193 9.69639 299.813L10.2119 303.807L10.4105 305.781L10.7275 307.801L12.0407 315.76C12.2275 317.052 12.5328 318.388 12.7565 319.762L13.554 323.727C14.5385 328.984 15.8051 334.213 17.0716 339.442C17.6456 342.034 18.4198 344.634 19.1124 347.271C19.8049 349.908 20.4606 352.463 21.2349 355.063C27.1554 375.693 34.3311 396.053 42.3244 416.047C50.3178 436.041 59.7014 455.411 70.7289 473.846L71.7 475.571L72.7531 477.26L74.9409 480.602L77.1287 483.943L78.1817 485.632C78.5205 486.168 78.9778 486.748 79.3166 487.284C82.464 491.668 85.4478 496.126 88.8856 500.282C95.389 508.859 102.645 516.704 110.192 524.322L116.101 529.824L119.078 532.516L122.182 535.053L128.427 540.209C130.527 541.821 132.708 543.396 134.889 544.972C139.125 548.278 143.741 551.119 148.193 554.033C150.456 555.572 152.809 556.873 155.081 558.212L162.013 562.273C180.838 572.687 200.793 581.023 221.305 587.535C241.854 594.13 262.977 598.501 284.368 601.279C306.249 603.837 327.833 604.857 349.41 604.112Z" fill="#83BF61"/>
<path fill-rule="evenodd" clip-rule="evenodd" d="M372.892 29.2898C444.25 26.6528 516.94 43.7015 573.186 81.877C628.791 119.618 656.885 177.722 677.402 235.97C697.857 294.043 709.823 355.023 689.826 413.016C669.266 472.643 626.063 526.101 565.634 560.115C506.246 593.543 433.364 597.666 362.211 597.421C289.805 597.172 213.377 595.711 154.89 558.702C96.0178 521.45 68.7337 459.42 48.6884 399.035C28.9883 339.691 15.6602 275.908 42.0368 218.742C67.8247 162.853 130.324 129.388 188.468 96.094C245.355 63.5196 304.459 31.8187 372.892 29.2898Z" fill="#82C45F"/>
</g>
<defs>
<clipPath id="clip0_116_1315">
<rect width="720" height="608" fill="white"/>
</clipPath>
</defs>
</svg>
