<svg width="90" height="124" viewBox="0 0 90 124" fill="none" xmlns="http://www.w3.org/2000/svg">
<g clip-path="url(#clip0_116_1298)">
<path d="M3.1669 79.1876C-0.46653 60.5697 6.44145 41.7224 17.4668 29.0502C28.2947 16.6749 42.6627 9.39031 56.6053 2.41972C61.027 11.3916 61.53 22.3502 60.0887 32.3272C56.7364 58.5199 40.4269 81.7403 18.737 85.0646C12.4184 86.1041 4.68678 84.7124 0.736393 77.9607" fill="#82C45F"/>
<path d="M8.37357 75.3371C1.36796 57.2789 10.3374 38.5804 20.5511 27.1099C30.7648 15.6394 44.5413 9.53261 57.666 3.75651C56.9233 3.24926 56.2109 3.02133 55.4681 2.51407C60.4579 21.0057 60.1883 39.6121 54.0225 56.6913C50.8715 65.6585 45.204 72.5624 38.642 77.5625C29.7613 84.4269 12.9531 87.946 7.35749 72.316C6.40218 69.8535 3.34076 71.2106 4.29607 73.6731C12.5303 96.7076 37.8252 86.917 47.9478 74.6085C63.3134 55.7097 65.7336 27.3668 58.7872 1.41919C58.4384 0.319044 57.2409 -0.153948 56.5892 0.176754C40.403 7.30992 24.7626 15.2468 13.1552 30.7648C4.59375 42.674 -0.510852 61.0814 5.56981 76.9564C6.2674 79.1567 9.32888 77.7996 8.37357 75.3371Z" fill="#1E8F37"/>
<path d="M49.3896 12.8234C39.4484 37.2126 26.9635 59.2606 11.9351 78.9676C10.5275 80.7623 13.3589 83.6445 14.7361 81.5707C29.9613 61.5674 42.6428 39.2231 52.5538 14.5549C53.4465 12.2362 50.2824 10.5047 49.3896 12.8234Z" fill="#1E8F37"/>
<path d="M25.9109 28.042C27.6122 35.7306 29.7528 43.3851 32.3328 51.0056C33.2562 53.4477 36.2138 52.1014 35.2904 49.6593C32.7105 42.0388 30.5698 34.3842 28.8685 26.6957C28.3844 24.2195 25.4268 25.5658 25.9109 28.042Z" fill="#1E8F37"/>
<path d="M34.5768 52.9764C40.2803 51.6625 46.2467 50.6204 52.244 49.8681C54.5626 49.6902 53.8657 45.3623 51.779 45.5224C45.7816 46.2747 40.0472 47.299 34.1118 48.6308C32.0561 49.0806 32.5211 53.4263 34.5768 52.9764Z" fill="#1E8F37"/>
<path d="M11.2207 50.1801C13.5304 57.0032 16.4802 63.4975 19.8468 69.68C21.0089 72.1111 23.6736 69.668 22.5115 67.2369C19.3981 61.315 16.7014 55.0814 14.4515 48.8137C13.483 46.0879 10.4755 47.4372 11.2207 50.1801Z" fill="#1E8F37"/>
<path d="M21.4995 69.9522C28.0933 70.3266 34.5939 69.823 41.0013 68.4414C43.0597 67.9868 42.5938 63.5969 40.5354 64.0514C34.3912 65.7077 28.3549 66.1754 21.9933 65.783C19.6095 65.3776 19.3479 69.5288 21.4995 69.9522Z" fill="#1E8F37"/>
<path d="M32.8298 111.09C32.8213 109.457 33.2657 107.904 34.0026 106.308C38.264 96.6049 48.4778 90.1646 58.8213 88.1612C69.0044 86.0333 79.6855 87.5441 89.6494 89.3115C83.9168 97.6022 78.8537 106.683 71.678 113.854C64.3419 120.901 53.9873 125.877 44.6845 123.268C40.0992 121.878 36.1186 119.061 33.0916 115.358C31.9129 113.902 30.9423 111.522 32.4528 110.255" fill="#C0DE00"/>
<path d="M32.9003 110.297C34.9767 99.423 46.2007 94.0143 55.8157 91.9717C65.4307 89.9291 75.4404 91.9922 84.6752 93.7258L83.9481 92.3477C80.6148 102.519 74.3141 111.203 65.0656 117.058C60.3089 120.154 54.9294 121.41 49.3046 121.662C42.0538 122.01 31.2324 117.689 33.1849 108.618C33.4976 107.232 31.3615 106.661 30.9163 108.216C27.8932 121.613 45.5399 125.799 55.5522 123.25C70.5186 119.658 81.359 107.167 86.056 92.6254C86.2927 91.9947 85.7826 91.3277 85.3289 91.2472C73.8256 89.1115 62.218 87.4376 50.3712 91.0063C41.5593 93.6718 32.3954 100.407 30.6318 109.895C30.319 111.281 32.5876 111.683 32.9003 110.297Z" fill="#45595B"/>
<path d="M77.0257 94.858C63.2706 102.866 48.8663 108.746 33.709 112.959C32.2761 113.472 32.9252 115.6 34.3581 115.087C49.6755 110.999 64.3439 104.782 78.0991 96.774C79.664 96.093 78.2984 94.2211 77.0257 94.858Z" fill="#45595B"/>
<path d="M58.4697 94.1249C56.9544 98.3513 55.5988 102.702 54.5345 107.008C54.2236 108.387 56.3469 108.956 56.7895 107.408C57.8537 103.102 59.2094 98.7517 60.7246 94.5253C61.1672 92.9779 58.9122 92.5775 58.4697 94.1249Z" fill="#45595B"/>
<path d="M55.4673 108.79C59.2124 110.039 62.9863 111.585 66.4623 113.176C67.8739 113.719 68.893 111.754 67.6159 111.04C63.9766 109.322 60.366 107.903 56.6209 106.654C55.2093 106.111 54.0557 108.247 55.4673 108.79Z" fill="#45595B"/>
<path d="M43.2783 99.3193C42.4734 103.304 41.9613 107.246 41.7701 111.435C41.6182 112.945 44.1204 112.716 43.9796 111.251C44.199 107.354 44.5788 103.582 45.4118 99.8897C45.9887 98.1681 43.5625 97.6418 43.2783 99.3193Z" fill="#45595B"/>
<path d="M42.7442 112.17C46.3148 114.661 50.1264 116.51 54.2078 118.015C55.6227 118.559 56.7792 116.418 55.3642 115.874C51.4465 114.495 47.6348 112.646 44.2278 110.282C43.0826 109.395 41.4641 111.455 42.7442 112.17Z" fill="#45595B"/>
</g>
</svg>
