<svg width="128" height="117" viewBox="0 0 128 117" fill="none" xmlns="http://www.w3.org/2000/svg">
<g clip-path="url(#clip0_116_1288)">
<path d="M84.9766 87.4735C82.9083 98.8493 74.8936 108.932 64.2935 113.586C63.7764 110.742 64.035 107.64 64.8106 104.796C61.4496 107.122 57.83 109.191 54.2105 110.742C49.8153 112.552 43.8689 113.069 41.5421 109.191C39.7323 105.83 42.0591 101.693 44.1275 98.5907C38.9567 97.5565 34.0444 94.9712 30.1663 91.6102C27.8394 89.5419 25.7711 86.6979 26.5467 83.854C27.0638 81.5272 29.3907 80.2344 31.459 79.7174C33.7858 79.2003 36.1127 79.7174 38.181 79.9759C45.9372 81.5272 53.4349 83.5955 60.674 86.4394C60.9325 82.8198 56.0202 79.4588 57.3129 76.0978C58.0885 73.771 61.191 73.2539 63.5179 74.288C65.5862 75.3222 67.1374 77.3905 68.4301 79.4588C67.913 77.132 69.4643 74.8051 71.7911 74.0295C76.1863 78.4246 79.8059 83.3369 82.6498 89.0248" fill="#79A316"/>
<path d="M67.9131 51.5367C59.6398 57.2245 49.0398 60.0684 38.9568 59.5513C38.1811 57.2244 38.6981 54.6391 40.5079 53.0878C31.4591 51.5366 22.9273 48.1756 15.6882 42.7463C14.137 41.7121 12.3272 40.1609 12.3272 38.0926C12.0686 34.473 16.9809 33.1803 20.3419 32.9218C15.4296 28.0096 10.0003 22.8388 8.96618 15.8582C8.70765 14.0484 8.70765 11.7216 10.2589 10.4289C12.8443 8.10205 16.9809 9.9118 19.5663 11.9801C24.7371 15.5997 29.9079 19.4778 34.8201 23.0973C35.3372 23.6144 36.1128 23.8729 36.8884 23.6144C37.4055 23.3558 37.4055 22.8388 37.6641 22.0632C38.6982 16.8924 39.4738 11.7216 40.5079 6.80933C44.6446 7.3264 46.4544 12.4972 46.4544 16.6338C46.4544 20.7704 45.6787 25.4241 48.2641 28.7852C47.4885 25.4241 48.5227 21.5461 51.108 18.9607C55.5032 19.2192 58.6057 23.8729 60.1569 28.0096C63.2594 35.5072 65.5862 43.5219 66.6204 51.5367" fill="#79A316"/>
<path d="M95.0597 56.19C99.972 54.6388 104.109 49.9851 104.884 44.8143C102.557 43.0045 99.972 41.9704 97.1281 41.1947C99.4549 34.7313 107.728 30.3361 107.211 23.3556C104.109 22.5799 100.748 23.097 97.9037 24.1312C99.4549 19.4775 99.7134 14.3067 98.6792 9.39441C96.0939 8.6188 93.767 11.4627 92.7329 14.0481C90.6646 18.7018 89.3719 23.6141 88.8548 28.5263C85.7523 25.6824 81.3572 24.1312 77.2205 24.1312C77.4791 27.7507 78.5132 31.3703 80.5815 34.4727C81.8742 36.5411 83.684 38.6094 84.4596 40.9362C84.9767 43.5216 83.9426 46.6241 81.3572 46.8826C84.2011 52.3119 90.6646 55.4144 96.611 54.1217" fill="#79A316"/>
<path d="M37.9226 36.2826C73.0839 52.0535 107.728 72.9952 125.05 108.932C125.826 110.483 127.894 108.932 127.119 107.639C109.796 71.1854 74.6351 49.9852 39.2152 34.2143C37.664 33.4387 36.3713 35.507 37.9226 36.2826Z" fill="#45595B"/>
<path d="M67.396 49.4678C62.4838 52.5703 57.5715 54.3801 51.8837 55.4143C48.5227 55.9314 37.4055 56.7069 44.9031 52.3118C45.6787 51.7947 45.6787 50.2435 44.386 49.9849C37.664 49.2093 30.942 49.4678 24.22 47.9166C21.1175 47.141 18.2736 45.8483 15.4296 44.5556C11.0345 42.7458 10.7759 39.9019 14.654 35.2482C16.2052 34.9896 18.015 34.7311 19.5663 34.4726C20.859 34.214 21.1175 32.4042 19.8248 32.1457C12.3271 30.5945 -1.37546 15.8577 4.31241 8.36011C10.7759 0.0868537 26.0298 15.0821 31.2005 18.7017C32.2347 19.4773 33.7859 18.4431 33.0103 17.1504C30.6834 13.2723 30.942 9.6528 33.5274 5.77472C39.7323 3.7064 43.6104 5.51619 45.1616 11.2041C46.7129 14.5651 47.4885 18.4431 48.0056 22.0627C48.2641 23.0968 49.8154 23.0968 50.3324 22.3212C54.7276 11.4626 61.4496 28.5261 62.4837 31.3701C64.8106 37.575 65.8448 44.0385 66.1033 50.502C66.1033 52.0532 68.6887 52.0532 68.6887 50.502C68.1717 40.1604 65.5862 30.3359 60.674 21.2871C56.7959 14.048 51.3666 13.2724 48.0056 21.2871L50.3324 21.5456C49.5568 17.1505 45.1617 -1.98145 36.3713 1.37956C29.1322 4.22349 27.0639 11.9796 30.942 18.4431C31.4591 17.926 32.2346 17.409 32.7517 16.8919C26.2882 12.2382 7.93199 -5.34245 0.951429 8.61866C-3.70228 18.1846 9.74176 32.6628 19.0492 34.4726L19.3077 32.1457C14.3955 32.6628 3.01977 35.5067 9.22472 42.7458C17.498 52.5703 32.2347 51.0191 43.6104 52.5703C43.3519 51.7947 43.3518 51.0191 43.0933 50.2435C40.7664 51.5362 39.4738 52.5703 38.1811 54.6386C37.9225 54.8971 37.9225 55.4142 38.1811 55.9313C43.6104 63.946 62.4838 55.4143 68.4302 51.5362C69.9814 50.7606 68.6887 48.6922 67.396 49.4678Z" fill="#45595B"/>
<path d="M91.1817 63.9465C93.767 53.8635 94.2841 43.522 92.4744 33.1804C92.2158 31.6292 89.889 31.6292 90.1475 33.1804C91.6987 43.2634 91.4402 53.3465 88.8548 63.171C88.3377 64.9807 90.6646 65.4978 91.1817 63.9465Z" fill="#45595B"/>
<path d="M53.4349 89.8C72.3082 94.4537 91.6987 92.3854 109.279 83.8536C110.831 83.078 109.279 81.0096 107.987 81.7852C91.1816 90.0585 72.3083 91.8683 54.2105 87.4731C52.4008 86.9561 51.8836 89.2829 53.4349 89.8Z" fill="#45595B"/>
<path d="M91.6987 52.312C88.0792 50.2436 84.9766 47.9168 81.8742 45.0728C77.9961 41.4533 85.4937 42.4875 84.9767 42.4875C85.7523 42.4875 86.5279 41.1948 86.0108 40.6777C84.4596 38.6094 82.9084 36.5411 81.6157 34.2142C80.323 31.8874 79.2888 29.819 78.5132 27.2337C76.4449 23.3556 78.5132 22.8385 84.4596 25.4239C85.2352 26.458 86.7865 25.941 86.7865 24.6483C86.5279 16.8921 89.3719 9.653 95.8353 4.74076C105.401 -2.49834 102.557 14.3067 102.299 15.5994C101.782 18.9604 100.489 22.3214 99.1963 25.4239C98.6792 26.7166 100.23 28.0093 101.265 26.7166C103.591 26.9751 106.177 27.4922 108.504 27.7507C107.728 29.819 106.694 31.8873 105.66 33.9557C103.85 37.0581 101.523 39.385 98.9378 41.9704C97.9036 42.746 99.1963 44.2972 100.23 44.0387C105.143 45.8485 105.401 47.6582 101.006 49.7266C98.1622 51.7949 94.5426 52.5705 91.1816 52.8291C89.6304 53.0876 89.6304 55.4145 91.1816 55.4145C95.5768 54.8974 106.435 52.312 107.47 46.6241C108.504 41.1948 103.85 40.4191 99.4549 41.7118L100.748 43.7802C104.884 39.6435 113.157 31.1117 111.089 24.3897C109.021 17.9262 102.04 22.3214 99.4549 25.1653C100.23 25.6824 100.748 26.1995 101.523 26.458C103.074 22.5799 111.089 0.862671 100.489 0.862671C89.3718 0.862671 84.201 15.3408 84.4596 24.3897C85.2352 24.1312 86.0109 23.8726 86.7865 23.6141C85.7523 22.0629 77.479 13.014 75.4107 18.4433C72.5668 25.4239 80.0645 36.024 84.2011 41.1948C84.4596 40.6777 84.9767 39.9021 85.2352 39.385C83.4255 39.385 78.2546 37.3167 78.2546 41.1948C78.2546 47.1412 86.2693 51.0193 90.923 53.6046C91.9572 55.1559 93.2499 53.0876 91.6987 52.312Z" fill="#45595B"/>
<path d="M74.8936 73.5119C83.6839 76.6144 86.0108 89.2828 82.9083 96.5219C80.84 100.917 78.2546 105.054 74.8936 108.673C73.6009 110.483 71.7911 111.517 69.7228 112.034C70.2399 109.449 70.757 106.863 71.2741 104.278C71.5326 102.985 69.9813 102.468 69.2057 103.244C65.0691 107.122 60.6739 109.707 54.9861 111.776C47.4884 110.224 45.6787 108.156 49.0397 105.312C50.3324 103.761 50.5909 103.502 51.3665 101.693C51.6251 100.917 51.3666 100.141 50.5909 99.8829C46.1958 98.8487 42.0591 97.556 37.9225 95.7462C35.5956 94.7121 33.2688 93.4194 31.2005 91.8681C30.4249 91.3511 29.9078 90.5755 29.1321 90.0584C23.9614 85.9218 24.9956 81.0095 32.4932 75.5802C41.025 74.2875 52.1421 78.4242 60.1568 81.2681C61.191 81.5266 61.9666 80.2339 61.4495 79.4583C58.8641 71.4436 60.1568 69.3753 65.3276 72.9948C67.913 74.546 69.7228 76.6143 71.2741 79.1997C72.0497 80.2339 74.118 79.4583 73.6009 78.1656C74.3765 76.6144 75.1521 75.0632 75.9277 73.5119C77.479 73.2534 77.479 70.9265 75.9277 71.185C71.5326 71.9606 69.4642 74.546 71.5326 78.9412C72.3082 78.6826 73.0839 78.1656 73.8595 77.907C70.4985 72.7363 66.1032 69.8923 60.1568 68.5996C59.6398 68.5996 59.1227 68.8582 58.8641 69.1167C56.7958 73.5119 57.0544 76.8729 59.8983 80.751C60.4154 80.2339 60.6739 79.4583 61.191 78.9412C52.6592 75.8387 33.0102 68.0825 25.2541 76.3558C18.2735 83.8534 28.6151 93.1609 34.82 96.5219C37.1469 98.0731 39.9908 98.8487 42.5762 99.8829C46.1958 101.176 49.8153 100.917 46.1957 105.054C43.6104 107.898 43.3518 110.224 45.4202 113.327C50.5909 120.825 67.396 108.415 71.2741 105.054C70.4985 104.795 69.9813 104.278 69.2057 104.02C68.6886 107.381 67.9131 111 67.396 114.361C67.396 114.878 67.3959 115.395 67.913 115.654C71.0155 116.946 72.8253 114.62 75.1522 112.551C80.0644 107.639 84.4596 102.21 86.7864 95.4877C89.6304 87.473 85.4937 74.546 76.9619 71.4436C74.3765 70.9265 73.3424 72.9948 74.8936 73.5119Z" fill="#45595B"/>
</g>
</svg>
