<svg width="184" height="159" viewBox="0 0 184 159" fill="none" xmlns="http://www.w3.org/2000/svg">
<path d="M114.244 53.3689C115.326 53.129 116.414 52.6207 117.764 52.388C119.389 51.8939 120.725 52.1982 121.502 53.2938C122.278 54.3894 123.055 55.4849 123.549 57.1104C123.796 57.9231 124.312 58.743 124.827 59.5628C125.583 61.4639 126.338 63.3651 127.094 65.2662C127.595 66.6231 127.828 67.9728 128.053 69.5911C128.032 70.3967 127.734 71.4636 127.444 72.2619L127.437 72.5305C128.475 73.9017 128.432 75.5128 128.121 77.1168C127.824 78.1837 128.064 79.2649 128.035 80.339C127.999 81.6815 127.956 83.2927 127.383 84.6209C126.81 85.9492 125.976 87.0018 124.605 88.04C124.329 88.3013 123.792 88.287 123.524 88.2798C123.255 88.2727 122.718 88.2583 122.45 88.2512C120.577 87.9325 118.973 87.621 117.087 87.8394C115.475 87.7964 114.147 87.2235 112.819 86.6507C111.498 85.8093 109.908 84.9608 108.587 84.1194C106.468 82.988 104.617 81.8638 102.766 80.7396C101.183 79.6225 100.145 78.2512 99.3753 76.8872C98.8598 76.0673 98.0757 75.2403 97.2917 74.4132C95.4694 72.2149 94.7283 69.7768 95.0756 66.8302C95.1043 65.7562 95.6628 64.965 96.7584 64.1881C98.681 62.6271 100.604 61.0661 102.526 59.5052C102.802 59.2438 103.078 58.9825 103.346 58.9897C103.912 57.9299 105 57.4216 106.096 56.6447C107.184 56.1363 108.28 55.3594 109.375 54.5825C110.231 52.7244 112.662 52.2518 114.244 53.3689Z" fill="#1E8F37"/>
<path d="M152.831 158.12C150.682 158.063 148.81 157.744 147.199 157.701C145.856 157.665 144.789 157.368 143.998 156.809C141.886 155.41 139.498 154.271 137.378 153.14C134.729 151.725 132.638 149.52 131.092 147.06C130.583 145.972 130.075 144.883 129.298 143.788C128.528 142.424 128.833 141.088 128.868 139.746C128.89 138.94 129.441 138.418 130.261 137.902C131.357 137.125 132.452 136.348 133.548 135.571C134.643 134.794 135.739 134.018 136.305 132.958C136.58 132.696 137.125 132.442 137.4 132.181C138.764 131.411 140.121 130.91 140.963 129.589C141.797 128.536 143.147 128.304 144.475 128.876C145.542 129.174 146.347 129.195 147.436 128.687C149.337 127.931 150.686 127.699 151.71 129.607C152.473 131.24 153.511 132.611 154.281 133.975C155.036 135.876 156.06 137.784 156.271 139.94C156.257 140.477 156.518 140.752 156.504 141.289C156.744 142.371 156.991 143.183 156.157 144.236C156.411 144.78 156.672 145.056 156.927 145.6C157.181 146.144 157.166 146.681 157.152 147.218C157.123 148.292 156.819 149.628 156.79 150.702C156.762 151.776 156.74 152.581 156.443 153.648C156.103 156.326 154.725 157.633 152.831 158.12Z" fill="#1E8F37"/>
<path d="M63.6295 127.525C64.4135 128.352 65.459 129.455 66.243 130.282C67.0629 129.767 67.6071 129.513 68.1584 128.99C68.964 129.011 69.4939 129.294 70.2923 129.584C71.0906 129.874 71.9034 129.627 72.7233 129.112C73.8116 128.603 74.6244 128.356 75.4084 129.183C76.1925 130.01 76.9765 130.837 77.4849 131.926C77.4777 132.194 77.4706 132.463 77.7319 132.738C79.0244 134.654 79.2356 136.809 79.4468 138.964C79.658 141.12 80.1377 143.282 79.5362 145.685C79.2247 147.289 79.4574 148.638 79.1459 150.242C79.1172 151.316 78.283 152.369 77.1802 153.414C76.6289 153.937 76.3604 153.93 75.5548 153.908C75.0178 153.894 74.7564 153.618 74.2194 153.604C72.3326 153.822 70.7358 153.242 69.1462 152.394C66.7654 150.987 64.3774 149.848 62.2651 148.448C59.6229 146.766 57.7934 144.836 56.5225 142.115C56.0141 141.026 56.05 139.684 56.3543 138.348C56.3615 138.08 56.6371 137.818 56.9128 137.557C57.4642 137.034 58.284 136.519 58.8354 135.996C58.6099 134.378 58.1159 132.752 57.8832 131.403C57.6361 130.59 57.9261 129.792 58.746 129.276C60.1173 128.238 61.4885 127.2 63.6295 127.525Z" fill="#1E8F37"/>
<path d="M10.099 59.1891C10.883 60.0162 11.9284 61.1189 12.7125 61.946C13.5324 61.4304 14.0766 61.1762 14.6279 60.6535C15.4335 60.675 15.9634 60.9579 16.7618 61.2479C17.5601 61.5379 18.3728 61.2909 19.1927 60.7753C20.2811 60.2669 21.0938 60.0199 21.8779 60.847C22.662 61.674 23.446 62.5011 23.9544 63.5895C23.9472 63.858 23.9401 64.1265 24.2014 64.4022C25.4938 66.3176 25.7051 68.4729 25.9163 70.6282C26.1275 72.7835 26.6072 74.946 26.0057 77.3483C25.6942 78.9523 25.9268 80.302 25.6153 81.9059C25.5867 82.98 24.7525 84.0326 23.6497 85.078C23.0984 85.6007 22.8299 85.5935 22.0243 85.572C21.4873 85.5577 21.2259 85.282 20.6889 85.2677C18.8021 85.4861 17.2053 84.906 15.6157 84.0575C13.2349 82.6504 10.8469 81.5119 8.73458 80.112C6.0924 78.4292 4.26294 76.4995 2.992 73.7785C2.48362 72.6901 2.51943 71.3475 2.82377 70.0121C2.83093 69.7436 3.10663 69.4822 3.38231 69.2208C3.93367 68.6981 4.75354 68.1826 5.30491 67.6599C5.07938 66.0416 4.58533 64.4162 4.35263 63.0664C4.10561 62.2537 4.39563 61.4553 5.21551 60.9398C6.58675 59.9015 7.95801 58.8633 10.099 59.1891Z" fill="#1E8F37"/>
<path d="M67.4975 42.9855C67.7661 42.9927 68.0418 42.7313 68.3103 42.7385C69.123 42.4915 69.66 42.5058 70.4512 43.0643C71.758 44.4427 71.9835 46.061 72.4847 47.4179C72.9931 48.5063 73.2401 49.319 73.48 50.4003C73.9884 51.4887 74.2282 52.5699 73.9239 53.9053C74.4179 55.5308 74.1064 57.1347 73.7949 58.7386C73.4906 60.074 72.1337 60.5753 70.7911 60.5394C70.5226 60.5323 69.9855 60.5179 69.717 60.5108C68.6429 60.4821 67.8446 60.1921 67.3219 59.6407C66.2621 59.075 64.9339 58.5022 63.8813 57.668C63.0901 57.1095 62.5674 56.5581 62.0518 55.7382C61.2821 54.3741 60.5124 53.01 59.7498 51.3775C59.5028 50.5647 59.2558 49.752 59.0016 49.2078C58.7617 48.1266 59.3202 47.3354 60.1473 46.5513C60.9743 45.7672 61.8014 44.9832 62.6212 44.4676C63.4483 43.6836 64.5367 43.1752 65.3566 42.6597C66.1621 42.6812 66.9677 42.7027 67.4975 42.9855C67.5047 42.717 67.5047 42.717 67.4975 42.9855Z" fill="#1E8F37"/>
<path d="M154.759 5.27651C155.028 5.28368 155.303 5.02235 155.572 5.02951C156.384 4.78249 156.921 4.79679 157.713 5.35532C159.019 6.73373 159.245 8.35201 159.746 9.70893C160.255 10.7973 160.502 11.61 160.741 12.6913C161.25 13.7796 161.49 14.8609 161.185 16.1963C161.679 17.8217 161.368 19.4257 161.056 21.0296C160.752 22.365 159.395 22.8663 158.053 22.8304C157.784 22.8233 157.247 22.8089 156.979 22.8018C155.904 22.7731 155.106 22.4831 154.583 21.9317C153.524 21.366 152.195 20.7932 151.143 19.959C150.352 19.4004 149.829 18.8491 149.313 18.0292C148.544 16.6651 147.774 15.301 147.011 13.6684C146.764 12.8557 146.517 12.043 146.263 11.4988C146.023 10.4176 146.582 9.62639 147.409 8.84233C148.236 8.05827 149.063 7.27421 149.883 6.75867C150.71 5.97461 151.798 5.46624 152.618 4.9507C153.424 4.9722 154.229 4.99366 154.759 5.27651C154.766 5.00799 154.766 5.00799 154.759 5.27651Z" fill="#1E8F37"/>
<path d="M174.31 68.1385C174.578 68.1456 174.854 67.8843 175.122 67.8915C175.935 67.6444 176.472 67.6587 177.263 68.2173C178.57 69.5957 178.796 71.214 179.297 72.5709C179.805 73.6593 180.052 74.472 180.292 75.5532C180.801 76.6416 181.04 77.7228 180.736 79.0583C181.23 80.6837 180.919 82.2876 180.607 83.8916C180.303 85.227 178.946 85.7282 177.603 85.6924C177.335 85.6852 176.798 85.6709 176.529 85.6637C175.455 85.6351 174.657 85.3451 174.134 84.7937C173.074 84.228 171.746 83.6551 170.694 82.8209C169.902 82.2624 169.38 81.711 168.864 80.8912C168.094 79.5271 167.325 78.163 166.562 76.5304C166.315 75.7177 166.068 74.905 165.814 74.3608C165.574 73.2795 166.132 72.4883 166.959 71.7043C167.787 70.9202 168.614 70.1361 169.433 69.6206C170.26 68.8365 171.349 68.3282 172.169 67.8126C172.974 67.8341 173.78 67.8556 174.31 68.1385C174.317 67.8699 174.317 67.8699 174.31 68.1385Z" fill="#1E8F37"/>
<path d="M62.8689 4.97418C65.4968 7.19396 67.5805 9.66792 67.2045 13.6885C67.1615 15.2996 67.9169 17.2008 66.2485 19.3059C66.227 20.1115 66.1983 21.1855 66.1697 22.2596C65.894 22.5209 65.6183 22.7823 65.3498 22.7751C64.5442 22.7536 63.7387 22.7321 63.2088 22.4493C61.0821 21.5864 60.0439 20.2152 59.2885 18.3141C59.0343 17.7699 58.773 17.4942 58.2431 17.2113C56.385 16.3556 55.3539 14.7159 54.8742 12.5534C54.6272 11.7407 54.6487 10.9351 54.3945 10.391C54.4088 9.85392 54.4231 9.31687 54.9745 8.79416C56.6214 7.49456 58.2612 6.46347 59.3639 5.41806C60.7136 5.18537 61.7877 5.21404 62.8689 4.97418Z" fill="#1E8F37"/>
</svg>
