<svg width="119" height="180" viewBox="0 0 119 180" fill="none" xmlns="http://www.w3.org/2000/svg">
<path d="M74.5004 4.82687C76.6016 8.05935 76.7632 12.1 76.7632 15.8173C76.4399 27.6159 73.3691 39.4144 68.0355 49.92C69.1669 48.9502 70.2982 48.1421 71.5912 47.6572C72.8842 47.1724 74.5004 47.334 75.6318 48.1421C76.7632 49.1119 77.248 50.7281 77.0864 52.1827C76.9248 53.6373 76.2783 54.9303 75.6318 56.385C73.0458 61.7185 70.2982 67.0521 67.2274 72.0625C68.682 72.3857 70.1366 72.8706 71.268 73.6787C72.3993 74.4868 73.2075 76.1031 72.8842 77.5577C72.561 78.6891 71.7528 79.4972 70.9447 80.3053C63.51 87.9016 60.1159 99.2153 51.3882 105.519C54.1358 98.5688 52.1963 90.8109 49.2871 84.0227C48.3173 81.7599 47.3476 79.4972 47.1859 77.0728C47.1859 76.4263 47.186 75.7798 47.5092 75.295C48.3173 73.8403 50.5801 73.8403 52.1963 74.4868C53.8125 75.1333 55.4288 76.2647 57.045 76.1031C54.1358 70.2846 51.0649 64.4661 48.1557 58.6477C47.5092 57.5163 47.3476 55.7384 48.479 55.4152C48.9638 55.2536 49.6103 55.5768 50.0952 55.9001C52.0347 57.3547 54.1358 58.8093 56.0753 60.2639C55.2671 59.6174 55.1056 54.2838 54.9439 53.1525C54.6207 50.4049 54.2974 47.8189 54.1358 45.0713C53.8126 39.7377 53.9742 34.2425 54.6207 28.9089C55.752 20.3428 58.338 8.70585 66.4192 4.18038C67.5506 3.53388 68.8436 3.04902 70.1366 3.04902C72.7226 2.88739 75.1469 4.66526 75.7934 7.08962" fill="#C0DE00"/>
<path d="M71.7528 98.5688C73.3691 91.2957 75.3086 84.0227 77.4097 76.9112C77.8946 75.295 78.8643 73.1938 80.6422 73.0322C82.42 72.8706 83.7131 74.6484 84.5212 76.2647C84.3596 71.0927 84.8444 66.0824 85.9757 61.072C86.1374 60.1023 86.4606 59.1326 87.4304 58.8093C87.7536 58.6477 88.2385 58.8093 88.5618 58.9709C90.9861 59.779 93.0872 61.7185 94.0569 64.1429C95.0267 54.1222 96.3197 44.2631 98.9057 34.5657C99.7138 31.6565 100.684 28.7472 102.785 26.6461C109.573 20.1811 115.391 29.5553 116.361 35.5354C118.139 48.1421 113.937 61.3953 105.209 70.7695C107.957 69.7997 110.866 72.0625 111.512 74.9717C112.159 77.7193 110.866 80.6285 109.088 82.8913C107.31 85.154 105.047 86.9319 103.27 89.1946C104.724 90.8108 106.34 92.5887 106.34 94.6898C106.34 98.2456 102.461 100.347 99.0673 101.155C91.3094 103.256 83.8746 102.933 75.7934 102.609C74.0156 102.609 72.0761 102.448 70.4599 101.478" fill="#C0DE00"/>
<path d="M2.25448 150.773C-2.43262 136.227 5.97184 119.418 19.3866 112.953C30.2155 107.781 43.9535 109.236 53.9742 115.701C65.1263 122.651 69.3285 135.096 66.9041 147.703C65.4495 155.461 62.3786 164.027 56.2369 169.36C49.6103 175.017 41.6907 175.664 33.4479 174.209C25.2051 172.754 17.932 171.3 12.4368 179.219C11.6287 180.512 9.52757 179.058 10.3357 177.765C12.2752 174.047 11.7903 168.39 10.4973 164.511C9.0427 159.501 4.35559 155.622 2.25448 150.773C1.60798 149.157 4.03235 148.349 4.67884 149.804C6.94158 155.299 11.9519 159.339 13.4065 165.158C14.3763 169.36 14.6995 174.855 12.5984 178.734C11.9519 178.249 11.1438 177.765 10.4973 177.28C14.8612 170.976 20.8412 169.36 28.1143 170.33C37.4885 171.623 45.893 174.047 53.9742 167.582C60.924 162.249 63.6716 152.228 64.803 143.985C65.7728 137.197 64.1565 130.409 60.2775 124.752C53.1661 114.57 39.5896 110.691 27.7911 112.63C11.6287 115.378 -0.493128 133.48 4.67884 149.642C5.32534 151.42 2.90098 152.39 2.25448 150.773Z" fill="#45595B"/>
<path d="M64.4798 151.097C63.1868 150.45 61.7322 149.965 60.4392 149.319C59.631 148.995 60.2775 147.864 60.924 148.187C62.217 148.834 63.6716 149.319 64.9646 149.965C65.7727 150.288 65.1263 151.42 64.4798 151.097Z" fill="#45595B"/>
<path d="M62.0554 157.077C53.4893 154.652 47.1859 148.834 40.8826 142.854C40.2361 142.207 41.0442 141.237 41.6907 141.884C47.6708 147.702 53.9742 153.521 62.217 155.784C63.0251 155.945 62.8635 157.238 62.0554 157.077Z" fill="#45595B"/>
<path d="M56.5602 159.986C54.4591 159.178 52.358 158.208 50.5801 157.077C49.9336 156.592 50.4185 155.46 51.065 155.945C53.0045 157.077 54.9439 158.208 57.0451 158.855C58.0148 159.178 57.3683 160.309 56.5602 159.986Z" fill="#45595B"/>
<path d="M55.7521 166.613C50.4185 164.835 45.893 161.925 41.8524 157.885C41.2059 157.238 42.1756 156.269 42.6605 156.915C46.5395 160.794 51.065 163.542 56.2369 165.481C57.045 165.643 56.5602 166.936 55.7521 166.613Z" fill="#45595B"/>
<path d="M53.6509 170.492C52.3579 169.845 50.9033 169.199 49.6103 168.552C48.8022 168.229 49.4487 167.097 50.0952 167.421C51.3882 168.067 52.8428 168.714 54.1358 169.36C54.9439 169.683 54.459 170.815 53.6509 170.492Z" fill="#45595B"/>
<path d="M24.2353 120.226C22.9423 119.257 21.6494 118.287 20.3564 117.317C19.7099 116.832 20.518 115.863 21.1645 116.347C22.4575 117.317 23.7505 118.287 25.0434 119.257C25.6899 119.742 24.8818 120.711 24.2353 120.226Z" fill="#45595B"/>
<path d="M24.8818 128.146C19.7099 126.53 15.346 123.297 12.5984 118.772C12.1135 118.125 13.2449 117.317 13.7298 117.964C16.3158 122.328 20.3564 125.398 25.2051 126.853C26.0132 127.176 25.69 128.308 24.8818 128.146Z" fill="#45595B"/>
<path d="M16.639 129.762C15.8309 129.116 15.1844 128.469 14.3763 127.984C13.7298 127.5 14.5379 126.53 15.1844 127.015C15.9925 127.661 16.639 128.308 17.4471 128.793C18.2552 129.277 17.2855 130.247 16.639 129.762Z" fill="#45595B"/>
<path d="M20.8412 137.52C15.8308 135.581 11.6286 132.187 8.71938 127.499C8.2345 126.853 9.36589 126.045 9.85077 126.691C12.5984 131.217 16.4773 134.449 21.4877 136.227C22.2958 136.712 21.6493 137.843 20.8412 137.52Z" fill="#45595B"/>
<path d="M70.783 103.256C65.2878 107.62 60.1158 112.307 57.3682 118.933C56.8834 119.903 55.4287 119.257 55.752 118.125C58.6612 111.337 63.9948 106.327 69.6517 101.801C70.6214 101.155 71.5911 102.609 70.783 103.256Z" fill="#45595B"/>
<path d="M75.4702 79.3356C74.1772 87.2551 75.4702 96.7909 69.975 103.418C69.6518 103.094 69.3285 102.771 69.1669 102.448C72.2377 100.185 79.1876 101.478 82.7433 101.478C86.6223 101.478 90.3397 101.316 94.2187 100.993C96.4814 100.832 98.5824 100.185 100.522 99.3769C102.138 98.7304 103.593 97.7607 104.401 96.1444C106.502 92.5887 101.168 91.7806 99.5522 91.619C98.7441 91.619 98.9057 90.326 99.5522 90.326C103.108 90.0028 105.532 86.9319 107.795 84.6692C109.25 83.2145 110.543 82.0832 111.512 80.3053C113.452 77.2344 110.219 69.4765 106.179 74.1636C105.532 74.8101 104.724 74.002 105.209 73.3555C113.29 61.2337 122.341 42.4853 113.129 28.7472C109.896 24.0601 103.431 20.9893 99.0674 25.9996C96.4814 28.9089 95.6732 33.5959 94.8651 37.1517C92.9256 45.0712 92.764 53.3141 92.4407 61.3953C92.4407 62.2034 91.3094 62.365 91.1478 61.5569C90.5013 57.1931 85.6526 58.1628 83.7131 60.2639C82.2585 61.7185 82.0969 64.3045 82.0969 66.4056C82.0969 69.4765 83.0666 72.5473 83.3898 75.4566C83.3898 76.1031 82.5817 76.4263 82.2584 75.9414C79.5108 72.0625 76.44 77.2344 75.4702 79.6588C75.147 80.4669 74.0156 79.8204 74.3389 79.1739C75.4702 75.6182 79.9957 70.6079 83.2281 75.295C82.9049 75.4566 82.4201 75.6182 82.0969 75.7798C81.4504 69.7997 78.7027 62.365 84.5212 58.0012C87.5921 55.7385 91.9559 58.1628 92.4407 61.5569C91.9559 61.5569 91.6326 61.5569 91.1478 61.7185C91.471 51.213 92.1175 40.7074 95.3499 30.6867C97.6127 23.8985 103.916 19.373 110.543 24.545C126.382 37.1517 115.068 61.2337 106.34 74.4868C106.017 74.1636 105.694 74.002 105.371 73.6787C108.28 70.4462 114.422 72.8706 113.937 77.3961C113.452 81.5983 110.866 83.861 107.957 86.7702C105.532 89.1946 103.27 91.7806 99.7138 92.1039C99.7138 91.619 99.7138 91.2957 99.7138 90.8109C107.472 91.619 107.149 98.0839 100.845 100.993C95.8349 103.256 89.6931 103.094 84.3595 103.094C81.9352 103.094 79.3492 103.094 76.9249 103.094C74.9854 103.094 71.7529 102.448 69.975 103.741C69.3285 104.226 68.682 103.418 69.1669 102.771C74.3388 96.4677 73.0459 86.9319 74.3389 79.3356C74.3389 78.2042 75.6318 78.5274 75.4702 79.3356Z" fill="#45595B"/>
<path d="M109.573 23.4136C111.674 38.4447 108.442 53.4757 101.492 66.8905C94.057 80.9518 82.9049 91.9422 71.5912 102.933C70.7831 103.741 69.4901 102.609 70.2982 101.801C81.1271 91.1341 91.471 80.7902 99.2289 67.3754C106.825 54.2838 110.058 38.6063 107.957 23.5753C107.795 22.4439 109.411 22.2823 109.573 23.4136Z" fill="#45595B"/>
<path d="M91.6325 79.0123C90.8244 74.4868 90.1779 70.1229 89.5314 65.5975C89.3698 64.7893 90.6628 64.6277 90.8244 65.4358C91.3093 69.9613 92.1174 74.3252 92.9255 78.8506C93.0871 79.6588 91.7942 79.8204 91.6325 79.0123Z" fill="#45595B"/>
<path d="M106.825 79.4971C102.138 79.4971 97.6126 79.8203 93.0872 80.4668C92.279 80.6285 92.1173 79.3355 92.9255 79.1738C97.4509 78.5273 102.138 78.2041 106.664 78.2041C107.633 78.2041 107.633 79.4971 106.825 79.4971Z" fill="#45595B"/>
<path d="M105.371 53.6373C104.401 48.7886 102.3 44.1015 101.815 39.0911C101.815 38.283 103.108 38.1214 103.108 38.9295C103.431 43.9398 105.694 48.6269 106.664 53.4757C106.825 54.4454 105.532 54.4454 105.371 53.6373Z" fill="#45595B"/>
<path d="M115.23 46.3642C112.644 49.1118 109.734 51.5362 106.502 53.6373C105.856 54.1222 105.047 52.9908 105.694 52.5059C108.765 50.4048 111.512 48.1421 114.098 45.3945C114.745 44.9096 115.876 45.7177 115.23 46.3642Z" fill="#45595B"/>
<path d="M81.6119 91.4573C80.9654 88.3864 80.3189 85.1539 79.6724 82.0831C79.5108 81.2749 80.8038 81.1133 80.9654 81.9214C81.6119 84.9923 82.2585 88.2248 82.905 91.2956C83.0666 92.1038 81.7735 92.2654 81.6119 91.4573Z" fill="#45595B"/>
<path d="M93.2487 95.8212C89.3697 94.6899 85.6524 93.3969 81.935 91.9423C81.1269 91.619 81.7734 90.4876 82.4199 90.8109C85.9756 92.2655 89.693 93.5585 93.4104 94.5282C94.2185 94.6899 93.8952 95.9829 93.2487 95.8212Z" fill="#45595B"/>
<path d="M48.8021 113.438C65.2878 81.1134 52.1963 42.3236 69.3284 9.99879C69.8133 9.02905 71.4295 9.83717 70.9446 10.8069C53.8125 42.9701 67.0656 81.7599 50.4184 114.246C49.9335 115.216 48.3173 114.408 48.8021 113.438Z" fill="#45595B"/>
<path d="M43.7919 73.5171C45.4082 79.6588 49.1255 84.8307 52.1963 90.326C54.7823 95.0131 53.9742 100.023 53.9742 105.195C53.651 105.034 53.1661 104.872 52.8428 104.872C57.2067 99.0537 61.2473 93.0736 65.7728 87.5783C67.389 85.4772 69.0053 83.5378 70.2983 81.275C71.1064 79.8204 71.7528 78.3658 72.2377 76.7495C73.3691 72.8706 68.1971 73.1938 66.096 74.9717C65.6112 75.4566 64.803 74.4868 65.2879 74.0019C68.8436 70.123 71.9145 66.0824 74.3389 61.5569C75.6319 59.1325 76.6016 56.3849 77.4097 53.7989C79.1876 47.0107 70.9447 49.5967 68.3588 51.6978C67.8739 52.1827 67.2274 51.3746 67.389 50.8897C70.9447 42.3236 88.0769 -4.06248 64.6414 2.88735C55.2672 5.63496 52.6812 16.9486 51.8731 25.3531C50.9034 35.0505 51.7115 44.9096 54.4591 54.1222C54.7823 54.9303 53.651 55.2535 53.1661 54.607C52.1964 52.5059 50.4185 50.7281 48.1557 49.92C45.893 50.7281 44.7616 52.0211 44.7616 53.9606C44.6 55.5768 44.7617 57.0314 45.2465 58.6476C46.2163 61.8801 49.9336 66.5672 52.358 68.6683C52.8429 69.1532 52.358 70.1229 51.7115 69.7997C50.2569 68.9916 49.1255 68.3451 47.3476 67.8602C42.6605 66.7288 43.307 72.0624 43.6303 74.0019C43.7919 74.8101 42.4989 74.9717 42.3373 74.1636C41.0443 66.7289 46.5395 65.2742 52.1963 68.5067C52.0347 68.83 51.7115 69.1532 51.5499 69.6381C47.186 65.9207 40.8827 57.5163 43.9535 51.3746C46.8627 45.7177 52.358 50.0816 54.2975 54.1222C53.8126 54.2838 53.4893 54.4454 53.0045 54.607C49.772 43.9399 49.2871 32.9494 50.7417 21.959C51.8731 13.5545 56.0753 3.04898 65.4495 1.27111C90.178 -3.73923 72.3994 42.0004 68.5204 51.3746C68.1971 51.0513 67.8739 50.8897 67.5506 50.5664C71.268 47.4956 77.7329 46.2026 78.7027 52.5059C79.1876 55.9 76.2783 60.7488 74.6621 63.4964C72.3993 67.6986 69.3285 71.5776 66.096 74.9717C65.7728 74.6484 65.4495 74.3252 65.2879 74.0019C66.9041 72.5473 70.2982 70.9311 72.2377 72.7089C74.5005 74.6484 73.2075 77.8809 72.2377 80.1436C70.6215 83.861 68.0355 86.7702 65.4495 89.8411C61.2473 95.0131 57.53 100.67 53.4894 106.003C53.1661 106.488 52.358 106.165 52.358 105.68C52.358 99.3769 52.6812 94.8514 49.4488 89.033C46.7012 84.1842 43.6303 79.8204 42.1757 74.3252C42.4989 73.1938 43.6303 72.7089 43.7919 73.5171Z" fill="#45595B"/>
<path d="M58.8229 68.0219C56.7218 64.4661 54.2974 61.072 51.5498 58.1628C51.0649 57.5163 51.8731 56.5466 52.3579 57.1931C55.2672 60.2639 57.6915 63.658 59.7926 67.3754C60.2775 68.0219 59.1461 68.83 58.8229 68.0219Z" fill="#45595B"/>
<path d="M69.9749 57.6779C66.4192 61.072 63.0251 64.7894 59.9542 68.83C59.4694 69.4765 58.4996 68.6684 58.9845 68.0219C62.0553 64.1429 65.4494 60.4255 69.0051 56.8698C69.6516 56.2233 70.6214 57.0314 69.9749 57.6779Z" fill="#45595B"/>
<path d="M61.4089 36.182C58.9846 31.9798 57.045 27.4543 55.2672 22.9288C54.9439 22.1207 56.2369 21.6358 56.5602 22.4439C58.1764 26.9694 60.1159 31.1716 62.5403 35.3739C62.8635 36.182 61.8938 36.8285 61.4089 36.182Z" fill="#45595B"/>
<path d="M72.0761 25.6764C69.0052 29.0705 65.7727 32.4646 62.5402 35.697C61.8937 36.3435 60.924 35.3738 61.5705 34.8889C64.803 31.6564 68.0355 28.2623 71.1063 24.8682C71.7528 24.2217 72.7226 25.0299 72.0761 25.6764Z" fill="#45595B"/>
<path d="M56.8834 86.7702C54.1358 83.861 51.3882 80.7901 48.9638 77.5576C48.479 76.9111 49.4487 76.103 50.0952 76.7495C52.5196 79.8204 55.1056 82.8912 57.8532 85.6388C58.1764 86.2853 57.3683 87.4167 56.8834 86.7702Z" fill="#45595B"/>
<path d="M65.9343 81.5983C63.3483 83.6995 60.7623 85.8006 58.0147 87.9017C57.3682 88.3866 56.5601 87.4168 57.2066 86.7703C59.9542 84.6692 62.5402 82.7297 65.1261 80.467C65.9343 79.9821 66.5808 80.9519 65.9343 81.5983Z" fill="#45595B"/>
</svg>
