<svg width="183" height="203" viewBox="0 0 183 203" fill="none" xmlns="http://www.w3.org/2000/svg">
<path d="M66.9974 80.3564C64.8406 72.4104 62.5703 64.4644 60.4135 56.5183C61.6622 60.0373 65.6352 61.8535 69.2677 61.513C72.9002 61.1724 76.1921 59.1292 78.9164 56.6318C79.257 56.2913 79.5975 55.9507 79.5975 55.4967C79.5975 55.0426 79.257 54.5886 79.03 54.248C76.4191 51.5237 73.0137 49.4804 69.3812 48.4588C74.2623 41.5344 76.9867 33.1343 77.1002 24.6207C77.1002 22.0098 76.7596 19.0584 74.7164 17.3557C72.7866 15.88 69.8352 15.9935 67.792 17.3557C65.6352 18.6044 64.273 20.7612 63.1379 22.9179C59.7324 15.7665 53.8297 9.86374 46.6782 6.57181C44.0674 5.43666 40.889 4.52854 38.6187 6.11775C36.2349 7.70696 35.7808 10.9989 35.8943 13.8368C36.1214 21.5558 38.2782 29.1613 42.1377 35.8586C39.0728 34.61 35.0997 33.7018 32.8294 36.1992C30.2186 39.1506 32.4889 43.8047 35.3268 46.4155C38.2782 49.2534 41.9106 51.5237 45.7701 52.9994C43.7268 54.248 41.6836 55.6102 40.4349 57.6535C39.1863 59.6967 38.9592 62.5346 40.5484 64.2373C41.5701 65.259 43.0457 65.713 44.5214 66.0536C48.2674 66.7347 52.2405 66.5076 55.9864 65.486C57.2351 70.1401 59.1649 74.5672 61.8892 78.5402C62.5703 79.5618 63.3649 80.5835 64.5 80.924C65.6352 81.2645 67.2244 80.697 67.3379 79.4483" fill="#79A316"/>
<path d="M97.6464 140.519C91.2896 143.811 84.3652 145.287 77.2137 144.946C76.5326 144.946 76.6462 143.811 77.3273 143.811C84.3652 144.152 90.949 142.676 97.1923 139.498C97.7599 139.157 98.214 140.179 97.6464 140.519Z" fill="#45595B"/>
<path d="M96.7382 146.195C95.603 146.763 94.4679 147.103 93.3327 147.33C92.6516 147.444 92.4246 146.309 93.2192 146.195C94.3544 146.081 95.376 145.741 96.3976 145.173C96.9652 144.719 97.4193 145.854 96.7382 146.195Z" fill="#45595B"/>
<path d="M94.9221 151.53C89.1329 154.822 82.8895 156.411 76.3057 155.957C75.6246 155.957 75.7381 154.822 76.4192 154.822C82.8895 155.163 88.9058 153.687 94.468 150.395C95.1491 150.168 95.6032 151.19 94.9221 151.53Z" fill="#45595B"/>
<path d="M95.1491 159.022C93.4464 159.93 91.5166 160.271 89.5869 159.93C88.9058 159.817 89.0193 158.682 89.7004 158.795C91.4031 159.022 93.1058 158.795 94.695 158.001C95.2626 157.66 95.7167 158.682 95.1491 159.022Z" fill="#45595B"/>
<path d="M96.5112 165.606C93.1058 167.309 89.4733 168.103 85.7273 167.99C85.0462 167.99 85.1598 166.855 85.8408 166.855C89.4733 166.968 92.8788 166.287 96.0572 164.584C96.7383 164.244 97.1923 165.265 96.5112 165.606Z" fill="#45595B"/>
<path d="M49.9701 96.4755C50.5376 84.2159 64.5 77.0645 75.5109 80.1294C83.0029 82.1727 86.5218 88.0754 89.5867 94.7728C93.9003 104.535 95.7165 115.319 97.3057 125.876C98.7814 135.638 100.03 145.4 100.257 155.276C100.371 162.087 99.4625 170.828 92.7651 174.347C85.3867 178.206 79.3704 166.514 76.3055 161.974C69.8351 152.098 64.8405 141.2 60.5269 130.303C58.1431 124.287 55.9863 118.157 53.716 112.027C51.6728 106.919 49.9701 101.924 49.9701 96.4755C49.9701 94.9998 52.2404 95.2269 52.2404 96.7026C52.2404 102.151 54.1701 107.146 56.0999 112.254C57.9161 117.022 59.6188 121.789 61.4351 126.557C65.5216 137.114 70.1757 147.33 75.9649 157.092C78.3488 161.065 80.9596 165.038 83.7975 168.671C85.2731 170.601 87.2029 172.19 89.5867 172.644C92.7651 173.325 95.1489 169.693 96.1706 167.309C99.4625 160.157 97.9868 150.736 97.3057 143.13C96.5111 133.141 94.8084 123.152 92.8786 113.389C91.0624 104.308 88.3381 91.9349 81.1866 85.4646C71.6514 76.8375 52.9215 83.6484 52.3539 96.7026C52.2404 98.1783 49.9701 97.9512 49.9701 96.4755Z" fill="#45595B"/>
<path d="M87.0895 91.8214C81.3002 94.7728 75.284 96.4755 68.8136 97.0431C68.1325 97.1566 67.9055 96.0215 68.5866 95.9079C74.9434 95.4539 80.8462 93.7512 86.5219 90.7998C87.3165 90.3457 87.7706 91.4809 87.0895 91.8214Z" fill="#45595B"/>
<path d="M87.5436 103.173C77.4408 108.849 66.3163 111.687 54.7378 111.573C54.0567 111.573 54.1703 110.438 54.8513 110.438C66.2028 110.551 77.2137 107.714 87.0895 102.151C87.6571 101.811 88.1112 102.832 87.5436 103.173Z" fill="#45595B"/>
<path d="M87.884 109.53L84.7056 110.324C84.0245 110.551 83.7974 109.416 84.592 109.189L87.7704 108.395C88.4515 108.168 88.5651 109.303 87.884 109.53Z" fill="#45595B"/>
<path d="M94.468 116C89.3598 118.951 83.7976 120.541 77.8949 120.768C77.2138 120.768 76.9868 119.633 77.7814 119.633C83.5706 119.406 89.0193 117.816 94.014 114.865C94.695 114.638 95.1491 115.66 94.468 116Z" fill="#45595B"/>
<path d="M87.657 123.946C86.2948 124.514 84.8191 124.741 83.2299 124.741C82.5488 124.741 82.6623 123.606 83.3434 123.606C84.7056 123.606 85.9543 123.379 87.0894 122.924C87.884 122.584 88.3381 123.606 87.657 123.946Z" fill="#45595B"/>
<path d="M90.7219 127.806C83.5705 131.665 75.6245 133.254 67.4514 132.573C66.7703 132.46 66.8838 131.325 67.5649 131.438C75.511 132.119 83.1164 130.53 90.1544 126.784C90.949 126.443 91.403 127.465 90.7219 127.806Z" fill="#45595B"/>
<path d="M75.0569 138.93C73.5812 139.498 72.1055 139.725 70.5163 139.725C69.8352 139.725 69.9487 138.59 70.6298 138.59C71.992 138.59 73.3541 138.362 74.6028 137.908C75.2839 137.681 75.738 138.703 75.0569 138.93Z" fill="#45595B"/>
<path d="M66.7704 81.3781C64.5001 74.3402 62.1163 67.1887 59.846 60.1508C59.6189 59.4697 60.3 58.7886 60.9811 59.2427C63.3649 60.7184 65.7487 61.1724 68.5866 60.7184C70.2893 60.4913 71.765 59.6968 73.0137 58.6751L74.3759 57.1994C76.5327 53.794 75.3975 51.7507 70.8569 51.0696C70.1758 51.4102 69.4947 50.6156 69.9488 49.9345C73.4678 44.4858 75.7381 37.5614 76.1921 31.091C76.4191 27.5721 75.284 24.0531 72.9002 21.3288C69.7217 17.5828 63.7055 18.0368 61.2082 22.1234C60.8676 22.8044 59.9595 22.3504 59.846 21.7828C57.3486 12.5881 47.6999 -0.352573 36.8025 3.16638C24.7699 7.02589 35.5538 28.4802 39.5268 34.837C39.9809 35.5181 39.1863 36.5397 38.5052 35.9722C35.5538 33.5883 31.6943 34.2694 29.424 37.1073C27.2672 39.8317 27.9483 43.6912 29.3105 46.529C32.1484 52.4318 39.9809 54.1345 45.7701 55.1562C46.6783 55.2697 46.5647 56.7454 45.6566 56.6318C37.9376 55.9508 36.3484 66.3941 43.9539 68.2104C48.0404 69.232 53.8297 68.3239 56.8946 65.486C57.2351 65.1455 57.9162 65.259 58.0298 65.713C59.619 71.1617 61.4352 76.4969 63.592 81.8321C63.9325 82.7402 62.5703 83.3078 62.2298 82.3997C60.1865 77.0645 58.3703 71.7293 56.7811 66.2806C57.1216 66.3941 57.5757 66.5076 57.9162 66.5076C53.7162 70.3671 42.0242 72.1834 38.6187 66.3941C35.3268 60.7184 39.2998 54.4751 45.8837 55.0426C45.8837 55.4967 45.7701 56.0643 45.7701 56.5183C37.4836 55.0426 27.0402 51.6372 26.6997 41.6479C26.4726 34.9505 34.1916 30.1829 39.6403 34.61C39.2998 34.9505 38.9593 35.2911 38.6187 35.7451C33.6241 27.7991 24.2023 8.95564 35.4403 2.14475C47.0188 -4.77965 59.1649 12.2476 61.6622 21.4423C61.2081 21.3288 60.7541 21.2152 60.3 21.1017C64.8406 13.7233 73.9218 17.6963 76.8732 24.0531C80.5057 31.9991 75.9651 43.9182 71.538 50.6156C71.1975 50.275 70.9704 49.821 70.6299 49.4804C75.1705 47.6642 79.03 52.8859 76.5326 56.9724C73.1272 62.6481 65.8622 63.4427 60.4135 60.2643C60.7541 59.9238 61.2081 59.6967 61.5487 59.3562C63.819 66.3941 66.2028 73.5456 68.4731 80.5835C68.4731 81.6051 67.1109 82.2862 66.7704 81.3781Z" fill="#45595B"/>
<path d="M145.742 79.2298C154.383 80.1326 162.766 75.1027 168.183 68.1383C173.471 61.3028 176.308 52.7906 179.016 44.5364C174.76 42.6018 169.73 42.9888 165.216 44.4075C153.351 47.8897 143.291 58.4654 142.517 70.8467C142.259 74.4579 143.162 78.714 146.387 80.5196" fill="#79A316"/>
<path d="M147.289 76.1345C155.801 78.9719 164.056 72.7813 168.956 66.3327C173.857 59.8841 176.179 51.7588 178.371 44.0205C178.629 44.4075 178.758 44.7944 179.016 45.1813C170.375 43.5046 161.863 44.7944 154.254 49.3084C150.256 51.6299 147.289 55.2411 145.226 59.2392C142.388 64.656 141.357 74.3289 148.708 76.5214C149.869 76.9083 149.353 78.7139 148.192 78.327C137.358 75.1027 140.97 60.271 146.257 53.8224C154.383 44.0205 167.28 40.9252 179.403 43.2467C179.919 43.3757 180.177 44.0206 180.048 44.4075C177.34 53.9514 174.244 63.2373 167.538 70.7177C162.379 76.2635 154.125 80.2616 146.644 77.8112C145.613 77.5532 146.128 75.7476 147.289 76.1345Z" fill="#45595B"/>
<path d="M174.502 49.1794C163.669 56.2729 153.996 64.6561 145.484 74.3289C144.71 75.2317 143.291 73.813 144.194 72.9102C152.835 63.1084 162.637 54.5963 173.599 47.5028C174.631 46.858 175.534 48.5346 174.502 49.1794Z" fill="#45595B"/>
<path d="M168.441 63.4952C164.829 62.9793 161.218 62.2055 157.607 61.1737C156.446 60.7868 156.962 58.9812 158.123 59.3681C161.734 60.3999 165.345 61.1737 168.957 61.6896C170.117 61.8186 169.601 63.6242 168.441 63.4952Z" fill="#45595B"/>
<path d="M156.575 60.013C156.962 56.7887 157.22 53.4354 157.349 50.0822C157.349 48.7925 159.284 48.9214 159.284 50.0822C159.155 53.4354 158.897 56.6597 158.51 60.013C158.381 61.1737 156.446 61.1737 156.575 60.013Z" fill="#45595B"/>
<path d="M158.768 72.6522C155.544 71.7494 152.448 70.4597 149.482 68.9121C148.321 68.3962 149.353 66.7195 150.514 67.2354C153.351 68.6541 156.317 69.8149 159.284 70.7177C160.573 71.1046 160.058 72.9102 158.768 72.6522Z" fill="#45595B"/>
<path d="M149.224 68.0093C148.837 64.3981 148.837 60.7869 149.224 57.1757C149.353 56.0149 151.287 56.0149 151.158 57.1757C150.642 60.6579 150.642 64.0112 151.029 67.4934C151.287 68.7831 149.482 69.17 149.224 68.0093Z" fill="#45595B"/>
<path d="M178.692 176.313C182.175 169.865 180.885 161.095 178.95 154.259C176.629 146.134 171.47 141.104 163.99 137.493C147.352 129.496 129.038 140.717 126.201 158.257C125.943 159.418 124.137 158.902 124.395 157.741C125.814 149.358 130.457 142.007 137.55 137.235C145.418 131.818 155.219 131.689 163.861 135.3C171.857 138.653 177.403 143.941 180.369 152.067C183.077 159.547 184.367 169.994 180.369 177.216C179.724 178.377 178.047 177.345 178.692 176.313Z" fill="#45595B"/>
<path d="M179.208 177.345C163.345 166.382 144.515 159.934 125.298 159.031C124.008 159.031 124.008 157.096 125.298 157.096C144.902 157.999 163.99 164.577 180.111 175.668C181.143 176.442 180.24 177.99 179.208 177.345Z" fill="#45595B"/>
<path d="M179.466 178.119C171.986 178.119 165.021 176.442 157.799 174.508C156.638 174.25 157.154 172.315 158.315 172.702C165.408 174.508 172.115 176.184 179.466 176.184C180.756 176.184 180.756 178.119 179.466 178.119Z" fill="#45595B"/>
<path d="M125.943 157.741C130.844 161.868 136.261 165.093 142.322 167.027C143.483 167.414 142.967 169.22 141.807 168.833C135.358 166.769 129.683 163.287 124.524 159.031C123.622 158.386 125.04 156.967 125.943 157.741Z" fill="#45595B"/>
<path d="M159.476 170.252C157.541 178.248 156.38 187.018 152.769 194.498C150.705 198.754 146.578 203.526 141.42 202.752C135.616 201.85 129.812 195.659 131.102 189.468C132.005 185.599 134.197 181.859 136.003 178.377C138.324 173.734 140.775 169.22 143.225 164.835C143.87 163.803 145.418 164.706 144.902 165.738C141.677 171.67 138.453 177.603 135.487 183.536C133.552 187.405 131.876 190.758 133.81 195.014C135.229 198.109 138.84 200.56 142.322 200.818C147.739 201.205 151.092 194.111 152.64 189.984C154.962 183.536 156.122 176.442 157.67 169.736C157.928 168.446 159.734 168.962 159.476 170.252Z" fill="#45595B"/>
<path d="M157.799 170.381C153.672 167.672 149.029 166.253 144.128 165.995C142.838 165.995 142.838 164.061 144.128 164.061C149.416 164.319 154.317 165.867 158.702 168.704C159.863 169.349 158.831 171.025 157.799 170.381Z" fill="#45595B"/>
<path d="M153.672 176.829C152.898 184.309 150.061 191.016 145.16 196.562C144.773 197.078 144.128 196.304 144.515 195.917C149.287 190.5 152.124 183.923 152.769 176.829C152.769 176.184 153.801 176.184 153.672 176.829Z" fill="#45595B"/>
<path d="M154.962 173.734C154.833 174.121 154.704 174.637 154.575 175.024C154.446 175.668 153.543 175.41 153.672 174.766C153.801 174.379 153.93 173.863 154.059 173.476C154.188 172.96 155.091 173.218 154.962 173.734Z" fill="#45595B"/>
<path d="M160.378 167.285C158.831 167.414 157.283 168.059 155.993 168.962C155.477 169.349 154.962 168.446 155.478 168.188C156.896 167.156 158.573 166.64 160.378 166.382C161.023 166.253 161.023 167.156 160.378 167.285Z" fill="#45595B"/>
<path d="M169.535 171.283C165.924 170.638 162.313 169.994 158.702 170.896C158.057 171.025 157.799 170.123 158.444 169.994C162.184 169.091 166.053 169.607 169.793 170.381C170.438 170.51 170.18 171.412 169.535 171.283Z" fill="#45595B"/>
<path d="M171.212 176.7C167.343 174.508 163.216 173.089 158.96 172.315C158.315 172.186 158.573 171.283 159.218 171.412C163.603 172.186 167.859 173.605 171.728 175.926C172.244 176.184 171.857 176.958 171.212 176.7Z" fill="#45595B"/>
<path d="M151.866 166.382V163.674C151.866 163.029 152.769 163.029 152.769 163.674V166.382C152.769 167.027 151.866 167.027 151.866 166.382Z" fill="#45595B"/>
<path d="M147.868 165.093C147.61 164.061 147.223 163.158 146.836 162.255C146.578 161.739 147.352 161.224 147.61 161.739C148.126 162.771 148.513 163.803 148.771 164.835C149.029 165.351 147.997 165.609 147.868 165.093Z" fill="#45595B"/>
<path d="M143.354 166.382C140.517 165.995 137.808 165.609 134.971 165.222C134.326 165.093 134.584 164.19 135.229 164.319C138.066 164.706 140.775 165.093 143.612 165.48C144.257 165.48 143.999 166.511 143.354 166.382Z" fill="#45595B"/>
<path d="M177.919 157.354C178.821 161.224 179.466 165.093 178.563 168.962C178.434 169.607 177.532 169.349 177.661 168.704C178.563 164.964 177.79 161.224 177.016 157.612C176.758 156.967 177.79 156.71 177.919 157.354Z" fill="#45595B"/>
<path d="M175.984 152.067C176.5 152.84 176.887 153.743 177.145 154.646C177.274 155.291 176.371 155.549 176.242 154.904C175.984 154.001 175.726 153.227 175.21 152.582C174.823 152.067 175.597 151.551 175.984 152.067Z" fill="#45595B"/>
<path d="M144.128 164.964C141.548 162.384 138.324 160.966 134.842 159.934C134.197 159.805 134.455 158.773 135.1 159.031C138.711 160.063 142.064 161.61 144.773 164.319C145.16 164.706 144.515 165.351 144.128 164.964Z" fill="#45595B"/>
<path d="M138.582 142.265C134.455 145.618 131.489 149.745 129.812 154.775C129.683 155.42 128.651 155.162 128.909 154.517C130.586 149.358 133.681 144.973 137.808 141.491C138.453 141.104 139.098 141.878 138.582 142.265Z" fill="#45595B"/>
<path d="M139.098 197.465C137.55 197.078 136.39 195.788 136.261 194.111C136.261 193.466 137.163 193.466 137.163 194.111C137.292 195.272 138.195 196.304 139.227 196.433C140.001 196.691 139.743 197.594 139.098 197.465Z" fill="#45595B"/>
<path d="M22.0247 151.024C22.6696 150.25 23.0565 149.347 23.3144 148.315C24.9911 142.125 22.4116 135.289 18.0266 130.517C13.7705 125.745 7.83782 122.521 2.16306 119.684C1.77615 125.745 0.744377 131.936 1.51821 137.998C2.42101 144.059 5.64531 150.25 11.3201 152.442C14.1574 153.474 17.2528 153.603 20.2191 152.958C21.3799 152.7 22.7985 151.927 22.5406 150.766" fill="#C0DE00"/>
<path d="M22.2828 150.637C25.5071 144.704 22.0248 137.998 18.0267 133.484C14.0286 128.97 8.22487 126.261 2.93703 123.682L3.83981 123.295C1.51832 129.357 1.2604 135.805 3.58189 141.996C4.74264 145.22 6.93513 147.799 9.64354 149.992C13.1258 152.829 20.2192 154.764 22.7987 149.734C23.1856 148.96 24.4753 149.476 24.0884 150.379C20.3482 157.859 9.90149 153.345 5.90336 148.444C-0.158308 141.222 -0.674194 131.291 2.67907 122.65C2.80804 122.263 3.32395 122.134 3.58189 122.263C10.1594 125.487 16.608 128.97 21.1221 135.031C24.4753 139.545 26.4099 146.123 23.5725 151.282C23.1856 152.056 21.8959 151.411 22.2828 150.637Z" fill="#45595B"/>
<path d="M6.29037 127.035C10.0306 135.934 14.9315 144.059 20.8642 151.669C21.3801 152.442 20.2193 153.216 19.7034 152.442C13.6418 144.833 8.74084 136.45 5.00066 127.551C4.48477 126.648 5.90346 126.261 6.29037 127.035Z" fill="#45595B"/>
<path d="M15.8342 133.484C14.9314 136.063 13.8996 138.643 12.7389 141.093C12.352 141.867 11.0622 141.351 11.4492 140.448C12.6099 137.998 13.6417 135.418 14.5445 132.839C14.9314 131.936 16.2211 132.581 15.8342 133.484Z" fill="#45595B"/>
<path d="M11.707 141.609C9.38552 140.835 6.93506 140.19 4.61357 139.674C3.71077 139.416 3.96873 138.127 4.87153 138.256C7.32199 138.772 9.64348 139.416 11.965 140.19C12.8678 140.448 12.6098 141.867 11.707 141.609Z" fill="#45595B"/>
<path d="M21.251 141.738C20.0902 143.93 18.8005 145.994 17.2529 148.057C16.737 148.831 15.5762 147.8 16.2211 147.155C17.6398 145.22 18.9295 143.286 19.9613 141.222C20.3482 140.19 21.7669 140.835 21.251 141.738Z" fill="#45595B"/>
<path d="M16.6079 148.057C13.8995 147.928 11.3201 147.413 8.74065 146.639C7.83784 146.381 8.09577 144.962 8.99857 145.22C11.449 145.994 14.0285 146.51 16.6079 146.639C17.5107 146.639 17.5107 148.186 16.6079 148.057Z" fill="#45595B"/>
</svg>
