<svg width="107" height="97" viewBox="0 0 107 97" fill="none" xmlns="http://www.w3.org/2000/svg">
<path d="M71.3496 72.7216C69.613 82.2731 62.8835 90.7392 53.9833 94.6466C53.5491 92.2588 53.7662 89.6537 54.4175 87.2659C51.5954 89.2196 48.5563 90.9563 45.5172 92.2587C41.8269 93.7783 36.8341 94.2124 34.8803 90.9563C33.3608 88.1342 35.3145 84.6609 37.0511 82.056C32.7095 81.1877 28.585 79.0169 25.3288 76.1949C23.3751 74.4583 21.6385 72.0704 22.2897 69.6825C22.7239 67.7288 24.6776 66.6434 26.4142 66.2092C28.3679 65.7751 30.3216 66.2092 32.0583 66.4263C38.5707 67.7288 44.866 69.4654 50.9442 71.8533C51.1613 68.8142 47.0367 65.9922 48.1221 63.1701C48.7734 61.2164 51.3784 60.7822 53.3321 61.6506C55.0687 62.5189 56.3712 64.2555 57.4566 65.9921C57.0224 64.0384 58.3249 62.0847 60.2786 61.4335C63.9689 65.1238 67.0081 69.2484 69.3959 74.0241" fill="#79A316"/>
<path d="M57.0225 42.5475C50.0759 47.3233 41.1757 49.7111 32.7096 49.2769C32.0584 47.3232 32.4925 45.1524 34.012 43.85C26.4143 42.5475 19.2507 39.7255 13.1725 35.1668C11.87 34.2985 10.3504 32.996 10.3504 31.2594C10.1333 28.2203 14.2579 27.1349 17.0799 26.9178C12.9554 22.7933 8.39673 18.4517 7.52841 12.5906C7.31133 11.071 7.31133 9.11732 8.61381 8.03193C10.7846 6.07821 14.2579 7.59775 16.4287 9.33438C20.7703 12.3735 25.1118 15.6297 29.2363 18.6688C29.6705 19.103 30.3217 19.32 30.9729 19.1029C31.4071 18.8859 31.4071 18.4517 31.6242 17.8005C32.4925 13.4589 33.1437 9.1173 34.012 4.9928C37.4853 5.42696 39.0049 9.76855 39.0049 13.2418C39.0049 16.7151 38.3536 20.6225 40.5244 23.4445C39.8732 20.6225 40.7415 17.3663 42.9123 15.1955C46.6026 15.4126 49.2076 19.3201 50.5101 22.7933C53.115 29.0886 55.0687 35.8181 55.9371 42.5475" fill="#79A316"/>
<path d="M79.8158 46.455C83.9403 45.1525 87.4136 41.2451 88.0648 36.9035C86.1111 35.384 83.9403 34.5156 81.5524 33.8644C83.5061 28.4374 90.4527 24.7471 90.0185 18.8859C87.4136 18.2347 84.5915 18.6689 82.2036 19.5372C83.5061 15.6297 83.7232 11.2881 82.8548 7.16362C80.6841 6.51239 78.7304 8.90026 77.8621 11.0711C76.1254 14.9785 75.04 19.103 74.6059 23.2275C72.0009 20.8396 68.3106 19.5372 64.8373 19.5372C65.0544 22.5763 65.9227 25.6154 67.6593 28.2203C68.7447 29.957 70.2643 31.6936 70.9155 33.6473C71.3496 35.8181 70.4814 38.423 68.3106 38.6401C70.6984 43.1988 76.1254 45.8038 81.1182 44.7184" fill="#79A316"/>
<path d="M31.8412 29.7398C61.364 42.9816 90.4526 60.565 104.997 90.7391C105.648 92.0415 107.385 90.7391 106.734 89.6537C92.1892 59.0455 62.6665 41.245 32.9266 28.0032C31.6241 27.3519 30.5387 29.0886 31.8412 29.7398Z" fill="#45595B"/>
<path d="M56.5883 40.8109C52.4638 43.4159 48.3393 44.9355 43.5635 45.8038C40.7415 46.2379 31.4071 46.8892 37.7024 43.1988C38.3536 42.7646 38.3536 41.4622 37.2682 41.2451C31.6241 40.5939 25.9801 40.8109 20.336 39.5084C17.7311 38.8572 15.3432 37.7718 12.9553 36.6864C9.26499 35.1669 9.04787 32.779 12.3041 28.8716C13.6065 28.6545 15.1261 28.4374 16.4286 28.2203C17.514 28.0033 17.731 26.4837 16.6456 26.2666C10.3503 24.9641 -1.15486 12.5906 3.62089 6.29533C9.04787 -0.651205 21.8556 11.9394 26.1972 14.9785C27.0655 15.6297 28.3679 14.7614 27.7167 13.676C25.763 10.4198 25.9801 7.38073 28.1509 4.12454C33.3608 2.38791 36.617 3.90747 37.9194 8.68322C39.2219 11.5052 39.8732 14.7614 40.3073 17.8005C40.5244 18.6689 41.8269 18.6688 42.261 18.0176C45.9514 8.90027 51.5954 23.2275 52.4637 25.6154C54.4174 30.8253 55.2858 36.2522 55.5029 41.6792C55.5029 42.9817 57.6737 42.9817 57.6737 41.6792C57.2395 32.9961 55.0687 24.7471 50.9442 17.1493C47.688 11.0711 43.1294 10.4198 40.3073 17.1493L42.261 17.3664C41.6098 13.676 37.9195 -2.38783 30.5388 0.434198C24.4605 2.82207 22.7239 9.33443 25.9801 14.7614C26.4142 14.3273 27.0654 13.8931 27.4996 13.459C22.0726 9.55153 6.66002 -5.20986 0.798884 6.51242C-3.10854 14.5444 8.17958 26.7008 15.9944 28.2203L16.2115 26.2666C12.087 26.7008 2.53554 29.0887 7.74545 35.1669C14.692 43.4159 27.0655 42.1134 36.617 43.4159C36.3999 42.7647 36.3999 42.1134 36.1828 41.4622C34.2291 42.5476 33.1437 43.4159 32.0583 45.1525C31.8412 45.3696 31.8412 45.8037 32.0583 46.2379C36.6169 52.9674 52.4638 45.8038 57.4566 42.5476C58.7591 41.8964 57.6737 40.1597 56.5883 40.8109Z" fill="#45595B"/>
<path d="M76.5596 52.9674C78.7304 44.5013 79.1645 35.8181 77.645 27.1349C77.4279 25.8325 75.4742 25.8325 75.6913 27.1349C76.9937 35.601 76.7767 44.0671 74.6059 52.3161C74.1717 53.8357 76.1254 54.2698 76.5596 52.9674Z" fill="#45595B"/>
<path d="M44.8659 74.6753C60.7127 78.5827 76.9937 76.8461 91.7551 69.6825C93.0576 69.0312 91.7551 67.2945 90.6697 67.9458C76.5595 74.8923 60.7128 76.4119 45.5172 72.7216C43.9977 72.2874 43.5635 74.2411 44.8659 74.6753Z" fill="#45595B"/>
<path d="M76.9937 43.1988C73.9545 41.4621 71.3496 39.5084 68.7446 37.1205C65.4884 34.0814 71.7837 34.9497 71.3496 34.9497C72.0008 34.9497 72.652 33.8643 72.2179 33.4302C70.9154 31.6936 69.613 29.9569 68.5276 28.0032C67.4422 26.0495 66.5738 24.3129 65.9226 22.1421C64.186 18.8859 65.9226 18.4517 70.9154 20.6225C71.5666 21.4908 72.8692 21.0567 72.8692 19.9713C72.6521 13.4589 75.04 7.38069 80.4669 3.25619C88.4989 -2.82203 86.111 11.2881 85.8939 12.3735C85.4598 15.1955 84.3743 18.0176 83.2889 20.6225C82.8548 21.7079 84.1572 22.7933 85.0255 21.7079C86.9793 21.925 89.1501 22.3591 91.1038 22.5762C90.4526 24.3129 89.5842 26.0495 88.7159 27.7861C87.1964 30.3911 85.2426 32.3448 83.0718 34.5156C82.2035 35.1668 83.2889 36.4693 84.1572 36.2522C88.2817 37.7718 88.4989 39.2913 84.8085 41.028C82.4206 42.7646 79.3815 43.4159 76.5595 43.6329C75.257 43.85 75.257 45.8037 76.5595 45.8037C80.2498 45.3696 89.3672 43.1988 90.2355 38.423C91.1038 33.8644 87.1964 33.2131 83.506 34.2985L84.5914 36.0351C88.0647 32.5619 95.0112 25.3983 93.2746 19.7542C91.538 14.3272 85.6768 18.0176 83.506 20.4054C84.1573 20.8396 84.5914 21.2738 85.2426 21.4908C86.5451 18.2346 93.2746 0 84.3743 0C75.0399 0 70.6983 12.1564 70.9154 19.7542C71.5666 19.5371 72.2179 19.32 72.8692 19.1029C72.0008 17.8005 65.0543 10.2027 63.3176 14.7614C60.9297 20.6225 67.2251 29.5228 70.6984 33.8643C70.9154 33.4302 71.3496 32.779 71.5667 32.3448C70.0471 32.3448 65.7055 30.6082 65.7055 33.8643C65.7055 38.8572 72.4349 42.1134 76.3424 44.2842C77.2107 45.5866 78.2961 43.85 76.9937 43.1988Z" fill="#45595B"/>
<path d="M62.8836 60.9993C70.2643 63.6043 72.218 74.2411 69.613 80.3194C67.8764 84.0097 65.7056 87.4829 62.8836 90.522C61.7982 92.0416 60.2786 92.91 58.542 93.3441C58.9762 91.1733 59.4103 89.0025 59.8445 86.8317C60.0616 85.7463 58.759 85.3122 58.1078 85.9634C54.6345 89.2196 50.9442 91.3904 46.1684 93.127C39.8731 91.8245 38.3536 90.0879 41.1757 87.7C42.261 86.3976 42.4781 86.1805 43.1294 84.6609C43.3464 84.0097 43.1294 83.3584 42.4781 83.1414C38.7878 82.273 35.3145 81.1876 31.8412 79.6681C29.8875 78.7998 27.9338 77.7144 26.1972 76.4119C25.546 75.9777 25.1118 75.3265 24.4605 74.8924C20.1189 71.4191 20.9873 67.2946 27.2826 62.7359C34.4462 61.6505 43.7806 65.1238 50.51 67.5117C51.3783 67.7288 52.0296 66.6433 51.5954 65.9921C49.4246 59.2627 50.51 57.526 54.8516 60.5651C57.0224 61.8676 58.542 63.6042 59.8445 65.775C60.4957 66.6433 62.2323 65.9921 61.7982 64.9067C62.4494 63.6042 63.1006 62.3018 63.7519 60.9993C65.0544 60.7822 65.0544 58.8285 63.7519 59.0455C60.0615 59.6968 58.3249 61.8676 60.0615 65.5579C60.7127 65.3408 61.364 64.9067 62.0153 64.6896C59.1932 60.348 55.5029 57.9602 50.51 56.8748C50.0759 56.8748 49.6417 57.0919 49.4246 57.3089C47.688 60.9993 47.9051 63.8213 50.2929 67.0775C50.7271 66.6433 50.9442 65.9921 51.3783 65.5579C44.2147 62.953 27.7167 56.4406 21.2043 63.3871C15.3432 69.6824 24.0264 77.4973 29.2363 80.3194C31.19 81.6218 33.5779 82.273 35.7487 83.1414C38.7878 84.2268 41.8269 84.0097 38.7878 87.4829C36.617 89.8708 36.3999 91.8246 38.1366 94.4295C42.4781 100.725 56.5883 90.305 59.8445 87.4829C59.1932 87.2659 58.759 86.8317 58.1078 86.6146C57.6736 89.4367 57.0225 92.4758 56.5883 95.2978C56.5883 95.732 56.5883 96.1661 57.0224 96.3832C59.6274 97.4686 61.147 95.5149 63.1007 93.7782C67.2252 89.6537 70.9155 85.0951 72.8692 79.4511C75.2571 72.7216 71.7838 61.8676 64.6202 59.2626C62.4494 58.8285 61.5811 60.5652 62.8836 60.9993Z" fill="#45595B"/>
</svg>
