<svg width="101" height="71" viewBox="0 0 101 71" fill="none" xmlns="http://www.w3.org/2000/svg">
<path d="M10.4156 9.5534C10.4298 9.13701 10.4439 8.72152 10.4581 8.30601L10.4351 8.11771C11.0946 8.33342 11.7682 8.14954 12.4365 8.06998C12.471 7.18505 11.9654 6.61129 11.5189 5.98274L13.2145 5.7803C13.7078 5.01649 13.8537 4.01043 14.0535 3.19711C30.1298 3.05743 13.4117 23.8546 10.6932 14.2963C9.99482 11.8378 9.30614 10.8052 8.71118 10.09C9.39366 9.19802 9.77115 9.81773 10.4156 9.5534Z" fill="#121321"/>
<path fill-rule="evenodd" clip-rule="evenodd" d="M14.8109 2.34246C15.908 2.63066 17.0582 2.74382 18.0439 3.00815C23.7027 -0.198282 29.6647 0.622103 34.9946 4.14237C41.4693 6.54432 43.5309 17.7001 39.4281 22.9115C37.0376 25.9473 33.9328 27.8489 30.7131 29.968C24.5584 35.6551 15.4607 32.4168 11.4586 26.3381C9.71795 22.8682 8.68185 18.0926 10.35 14.6245C10.5534 12.7662 9.83376 11.6789 8.62085 10.5314C10.3987 10.4889 11.2615 11.1467 12.104 12.5046C12.9774 12.3994 12.5902 11.7425 12.8289 11.3677C13.8279 11.5215 14.6209 11.7425 15.7339 11.6904C17.1077 11.2669 18.0121 10.3095 18.5734 9.05944C18.3471 7.538 16.8186 7.08094 15.7533 6.24287C16.7717 6.20927 17.5559 5.77344 18.4072 5.25804C16.1821 5.87953 15.4536 3.70566 14.8109 2.34246Z" fill="url(#paint0_radial_126_2581)"/>
<path d="M15.4552 6.94641C12.6095 10.1175 14.1946 10.2969 16.9041 8.68444C17.3462 7.21515 16.8043 7.09316 15.4552 6.94641Z" fill="#437394"/>
<path d="M11.0325 23.67C14.8401 29.0919 22.426 34.8399 26.4944 27.8153C29.8326 31.3232 31.5078 25.3311 35.5311 21.9992C41.3605 18.2853 39.1442 14.6139 37.9437 8.73938C47.8848 19.6653 36.272 25.9394 28.7143 31.7926C19.8853 34.0346 14.0736 31.6645 11.0325 23.67Z" fill="#396384"/>
<path fill-rule="evenodd" clip-rule="evenodd" d="M22.1714 10.3687C21.7736 13.538 18.4063 17.1484 16.9883 19.2188C13.4592 20.5909 14.2557 23.502 14.6403 26.7332C9.17774 25.7687 9.04425 18.684 11.2367 14.9144C11.9413 16.13 15.2034 14.2081 22.1714 10.3687Z" fill="url(#paint1_linear_126_2581)"/>
<path fill-rule="evenodd" clip-rule="evenodd" d="M16.4435 12.5479C17.9799 12.3552 19.2282 11.3774 20.4491 10.5738C22.0474 7.85891 21.1961 7.19676 20.3262 5.3491L19.5412 2.94803C24.0772 1.33553 28.1297 1.38239 32.5375 3.14695C35.9764 5.92816 38.9115 8.491 39.4251 12.8043C36.346 11.6081 35.1366 8.79069 32.0805 7.69182C29.9313 7.04735 26.175 8.64394 23.9923 8.90385C21.6646 9.53064 22.0439 10.9 21.4215 12.4533C20.1008 14.468 18.6368 14.5317 16.4612 14.7907C14.1945 17.2961 12.8737 15.9833 11.1489 14.1763C14.0274 14.7288 14.3182 14.1931 16.4435 12.5479Z" fill="url(#paint2_linear_126_2581)"/>
<path fill-rule="evenodd" clip-rule="evenodd" d="M15.0621 17.7017C20.6873 15.6348 20.2921 9.96985 24.6425 8.07888C26.2179 7.50867 28.0054 8.25746 29.1874 8.53505C28.7471 14.9762 20.8659 21.1115 14.1834 20.7994C11.8946 19.4468 14.8764 18.3533 15.0621 17.7017Z" fill="url(#paint3_linear_126_2581)"/>
<path d="M14.5663 15.7843C18.9158 13.5053 19.8281 13.0889 22.223 10.8027C20.6423 16.0761 17.5137 17.4092 12.8494 17.9644C12.4773 16.4341 13.9943 16.511 14.5663 15.7843Z" fill="#C4D9E7"/>
<path fill-rule="evenodd" clip-rule="evenodd" d="M13.6368 25.0563C12.7642 24.9599 8.06375 27.3645 7.14965 27.9038C2.07346 30.9007 0.527264 36.2448 1.11957 41.3519C1.90019 48.0875 5.56367 52.1116 12.5653 53.3157C17.0032 53.6313 21.1936 51.7023 25.5457 50.8483C32.9708 48.9123 36.919 43.9457 36.9048 36.5984C36.7254 32.5026 34.3128 30.2518 32.1204 27.7084C29.6106 23.9327 25.6333 23.2086 21.5278 24.4489C18.812 23.8628 16.372 23.9221 13.6368 25.0563Z" fill="url(#paint4_radial_126_2581)"/>
<path fill-rule="evenodd" clip-rule="evenodd" d="M13.1445 25.1287C11.6478 25.5318 7.94981 27.4316 7.14975 27.9037C4.43838 29.5047 2.73394 31.7749 1.82514 34.3218C1.91531 34.4456 1.27703 40.6622 1.38223 40.7842C5.14119 52.0859 3.14414 44.3673 5.78389 41.2643C5.78389 41.2643 9.83813 40.5844 11.1695 39.8728C12.5 38.2037 14.3945 37.5018 16.2943 37.1296C17.3048 35.3748 19.2187 34.6799 20.2274 34.2617C21.7975 34.3298 23.2261 32.6722 23.326 32.6059C25.7403 32.1109 26.3822 33.1903 27.862 34.115C31.6263 31.7519 30.2136 27.3821 27.992 24.3808C26.0268 23.6815 23.7972 23.7628 21.5279 24.4488C18.8121 23.8636 16.3721 23.9219 13.6369 25.0562C13.5272 25.0438 13.3584 25.0712 13.1445 25.1278V25.1287Z" fill="url(#paint5_radial_126_2581)"/>
<path d="M14.7606 24.2324C13.7749 25.082 13.0235 25.4701 12.9519 26.797C12.1722 26.561 11.3739 26.2074 10.7135 25.5355C10.5782 26.1579 10.4783 26.713 10.8063 27.445C10.732 27.6086 10.6781 27.9905 10.4668 28.1929C10.023 28.2362 8.87644 28.368 8.2249 28.7906C8.15948 29.1733 8.01449 29.4562 8.0198 29.9831C8.77035 31.1801 9.32376 32.2047 10.9999 31.8273C11.4057 32.2215 11.6904 32.3435 12.2155 32.9137C13.2083 32.8183 14.5273 32.7166 15.6067 33.1807C16.9142 33.3452 18.3658 32.9641 19.759 32.4921C20.8906 31.4993 22.2397 30.4304 22.7498 28.7623C22.9213 28.2946 22.8231 27.9728 23.518 27.5617C23.5896 26.9871 23.7036 26.4319 23.3739 25.7485C22.8903 25.6875 22.4191 25.6787 21.886 25.6327C21.5961 25.3516 21.1169 25.1129 20.987 24.5312C20.8544 24.8946 20.59 25.2827 20.56 25.791C20.3734 25.7061 20.1569 25.3896 19.8121 25.4515C19.3082 24.2351 18.7866 23.633 17.4694 23.5756C17.1564 24.0017 16.6375 24.6453 16.2282 25.0802C15.6836 24.9158 15.2424 24.7186 14.7606 24.2324Z" fill="#121321"/>
<path d="M16.9838 29.4543C17.516 29.3129 17.875 29.4508 18.3241 29.6144C18.7952 29.3677 19.4035 29.3739 19.7748 29.3376C20.1982 29.6727 20.7472 30.0148 21.0947 30.2314C20.5925 31.409 19.6987 31.9005 18.5893 32.3602C18.1826 30.1147 15.0018 32.2665 17.4276 32.7934C16.3694 33.094 15.6498 32.934 14.7914 32.6201C13.3672 32.2656 13.4521 31.9969 13.9303 31.104C14.4599 30.8087 14.6738 30.4772 15.0089 30.1324C15.4916 29.7346 15.6595 30.296 15.8823 30.3525C16.1811 29.6851 16.4154 29.7461 16.9847 29.4552L16.9838 29.4543Z" fill="#324E68"/>
<path d="M11.9168 31.3888C11.9017 30.7664 11.9663 30.0689 12.3358 29.5676C12.937 29.2874 13.5549 28.7959 13.9324 28.4387C15.0587 27.7792 16.2981 27.5609 17.3802 27.5591C16.4245 27.7518 15.8737 28.2416 15.0286 28.5925C14.4133 28.8507 14.0093 29.0734 13.394 29.328C12.3004 29.8549 11.8982 30.5622 12.0061 31.6849L11.9168 31.3888Z" fill="#324E68"/>
<path fill-rule="evenodd" clip-rule="evenodd" d="M5.15881 47.9324C10.5064 49.1436 11.1084 48.774 15.4818 47.4533C17.4055 46.6895 16.9352 43.4424 17.3374 42.3338C19.4759 40.2059 22.1749 39.2882 24.5203 37.5246C25.8287 37.986 27.7992 39.671 29.1403 40.6886C32.1284 38.7888 33.1875 36.4646 34.8327 34.4092C39.2317 38.787 35.2199 42.5928 31.2541 45.0884C30.2949 45.3784 29.3357 45.6684 28.3765 45.9584C22.014 54.431 11.0024 53.1898 5.15881 47.9324Z" fill="url(#paint6_linear_126_2581)"/>
<path d="M8.05229 36.4419C9.30233 36.1749 10.5524 35.9079 11.8033 35.6409C8.68969 39.4936 12.7881 36.5029 12.934 36.6302C13.5475 38.2338 12.5432 37.943 12.1286 38.3709C10.8432 38.271 9.85663 38.7634 8.72859 39.231C6.73949 38.0172 5.38601 38.2444 2.9929 38.9685C2.01338 37.1986 2.68172 35.6834 2.67818 34.0718C4.28803 34.0214 4.11652 34.3953 4.69557 35.7912C5.96329 36.6947 6.69882 36.5709 8.05229 36.4419Z" fill="#8EB4CE"/>
<path d="M4.31193 33.3353C4.75749 32.9366 5.20216 32.5387 5.64684 32.14L5.85459 32.0773C6.34258 32.5706 6.83057 33.0639 7.31857 33.5572L7.48477 33.7331C8.57038 34.0567 9.33066 34.1769 10.2023 34.4951C9.0177 35.0813 8.22383 36.6177 6.88715 36.6204C5.8042 36.2146 1.74466 35.9653 4.31193 33.3353Z" fill="#C4D9E7"/>
<path d="M26.4839 26.2479C26.8066 26.7208 27.1549 27.2769 27.5033 27.8321C27.3335 30.0422 25.5937 30.3516 24.6672 31.5725C25.7422 31.7449 26.5061 31.5318 27.5094 31.4346C29.3235 30.631 29.2112 29.6957 29.404 28.1592C30.3905 27.6447 31.4974 28.3943 31.9332 28.4765C30.6611 25.7281 27.5033 26.2824 26.4839 26.2479Z" fill="#5285A5"/>
<path fill-rule="evenodd" clip-rule="evenodd" d="M20.6252 52.7304C20.2707 50.2135 20.5394 47.381 21.5163 45.5573C22.9219 42.8388 26.3555 41.3421 28.7451 39.6156C32.8276 36.6973 39.6507 35.4553 44.2566 37.9262C48.2427 39.2469 50.7242 42.6903 52.9193 46.0258C55.7492 50.1251 54.5831 53.641 53.2818 57.7332C53.4895 63.8031 48.2012 65.0478 44.6385 68.4496C41.7309 69.7845 37.7916 70.1364 34.6443 69.1639C29.9669 69.0454 27.4509 66.1997 24.5813 63.2956C21.2608 60.7761 21.4394 56.4054 20.6252 52.7304Z" fill="url(#paint7_radial_126_2581)"/>
<path d="M33.2726 44.3159C32.4071 42.5089 33.3318 42.1234 34.405 41.1643C34.337 40.4844 34.6552 40.2731 34.9602 39.8276C35.9053 39.7834 37.7184 39.4651 38.2374 39.3582C39.6987 39.4404 40.4811 39.9469 41.122 40.9194C41.2343 41.9387 40.8745 42.7706 40.5774 43.6838C41.3492 43.1039 41.7629 42.4046 42.3384 41.8069C43.897 43.0888 43.3038 44.9559 42.7416 46.5233C43.0722 46.8955 43.2234 47.4021 43.379 47.8759C43.5558 48.4311 43.5929 49.0137 43.6619 49.5892C43.3392 49.2126 42.7831 49.1233 42.3163 48.9553C41.0062 50.5882 40.3812 52.6666 40.093 54.9368C38.522 53.8344 37.3445 52.4075 35.861 51.3918C34.7648 51.8921 33.7402 52.3616 32.6086 52.732C32.5202 51.3688 31.3745 50.3 30.9873 49.1136C30.7937 48.2861 30.6425 47.555 30.5417 46.7055C31.4373 45.7215 32.1206 45.001 33.2726 44.3159Z" fill="#0B0E14"/>
<path fill-rule="evenodd" clip-rule="evenodd" d="M34.8293 50.721C31.9994 44.0836 42.829 43.3127 41.35 48.8327C41.6594 50.2834 40.9292 50.5618 39.9267 51.5431L39.23 50.3559C40.3749 47.7912 35.1873 48.4773 37.9049 51.2284C36.8944 50.9367 35.6983 50.873 34.8293 50.721Z" fill="url(#paint8_linear_126_2581)"/>
<path fill-rule="evenodd" clip-rule="evenodd" d="M35.2622 36.1986C31.0126 37.0181 25.5245 39.5146 23.2454 43.1268C21.4004 43.9251 20.6719 46.4588 20.3961 49.9499C22.0687 46.8372 24.3566 45.5518 25.7632 42.9854C29.409 45.5235 29.7148 43.8288 31.0223 42.3586C31.9983 40.4128 34.4834 39.8904 35.9995 38.5961C41.2552 35.8052 43.124 40.4544 44.8736 44.7747C48.0022 44.8401 51.0751 46.412 53.2066 48.3021C51.2528 44.7093 49.3009 41.9325 46.441 38.9356C42.6148 36.2949 40.2818 35.601 35.2622 36.1986Z" fill="url(#paint9_linear_126_2581)"/>
<path fill-rule="evenodd" clip-rule="evenodd" d="M28.2405 41.7815C24.6371 43.2977 24.5249 44.0942 22.9495 46.7074C22.801 49.2782 23.6293 50.881 24.531 52.3972C25.6918 53.3776 26.346 54.6727 26.9356 55.5019C28.3943 53.2909 28.122 49.4276 28.3528 46.5165C28.7639 44.7033 30.3277 44.0102 31.1278 43.2464C31.5848 41.8708 32.3018 40.6579 32.9321 39.4141C30.8431 39.5316 29.7964 40.8559 28.2405 41.7815Z" fill="url(#paint10_radial_126_2581)"/>
<path d="M46.265 45.0613C47.1721 47.8372 47.6371 49.8095 44.7533 51.3442L42.9684 51.5573C42.9119 51.742 42.7969 52.1469 42.705 52.4537C42.606 52.4775 42.5114 52.4935 42.4071 52.5288C41.9518 53.2599 41.1093 53.7161 40.89 54.9697C40.0237 54.8406 40.1934 55.257 38.3573 54.594C36.8305 53.9689 35.6892 53.7983 34.0785 52.8435C32.8399 52.7454 31.9126 53.3475 30.6563 52.5704C30.0684 51.4353 29.4337 50.324 28.8936 49.165C29.1358 51.1992 29.4178 53.6463 29.6892 55.8511C31.1664 55.9421 32.8514 56.1463 34.3349 56.8801C35.8757 57.6209 37.5484 58.2283 39.2546 58.3299C40.3658 57.8799 41.508 57.6094 42.4389 56.5954C43.3928 55.684 44.6136 55.0926 45.4385 53.9734L45.5163 53.9663C46.3605 52.7534 48.1622 50.8288 48.6051 49.5302C47.8289 48.0494 47.0589 46.5368 46.265 45.0613Z" fill="#628DA9"/>
<path d="M28.5003 40.1682C25.8128 40.9435 25.0428 42.251 23.5488 44.1491C22.7143 45.1392 23.9448 47.4722 24.0271 48.1618C26.4069 45.5812 27.6852 43.2084 28.5003 40.1682Z" fill="#C4D9E7"/>
<path d="M25.5874 47.9759C24.6521 46.5658 22.2749 46.961 21.3626 46.6702C20.5245 50.5502 21.405 56.8941 23.6239 59.9653C25.0313 61.1932 26.688 62.8508 27.1964 63.383C26.9886 60.7521 25.9764 58.4739 24.9827 56.186C24.3904 53.129 25.087 50.8358 25.5874 47.9759Z" fill="#7097B3"/>
<path d="M52.6948 47.741C51.4996 50.8616 52.8389 52.9524 52.2334 56.7388C51.474 67.5754 45.4766 66.8903 40.0035 65.6058C38.1205 70.4168 32.4078 67.8954 28.2943 65.978C35.1846 70.1277 44.0577 70.8411 50.452 65.383C57.6437 57.9632 55.4707 52.8932 52.6948 47.741Z" fill="#396384"/>
<path fill-rule="evenodd" clip-rule="evenodd" d="M31.3833 54.4879C32.1259 54.3225 32.8694 54.1581 33.612 53.9937C34.7586 55.0077 36.0431 56.3859 37.226 57.4521C37.9712 57.5104 38.5388 58.07 39.1647 58.3653C37.0005 59.6153 37.1747 62.6352 36.9846 65.0292C35.4632 68.5433 32.2612 67.3153 30.2995 66.5117C26.6192 64.7958 26.6926 61.219 24.3428 58.7578C24.8308 57.6713 25.8669 56.8642 26.5555 56.2064C29.6232 56.8606 30.5037 57.3336 31.3833 54.4879Z" fill="url(#paint11_linear_126_2581)"/>
<path d="M33.0286 52.8382C34.0222 52.4863 34.3882 52.321 35.1918 52.0151C37.2976 52.9284 38.507 54.5948 39.5908 55.7308C35.8885 56.1569 34.8912 54.7221 33.0286 52.8382Z" fill="#0F1A2E"/>
<path d="M40.9938 54.4534C43.996 53.2856 43.6424 53.0796 44.0535 50.3143C44.2656 48.4808 43.0571 49.9562 42.6611 49.8139C42.0166 51.0012 41.6789 52.3715 40.9938 54.4534Z" fill="#234665"/>
<path fill-rule="evenodd" clip-rule="evenodd" d="M52.3563 10.8734C46.5057 13.4628 46.1769 16.8363 44.7253 19.499C44.369 21.8586 44.5485 24.0713 44.6156 26.4759C44.7677 30.2764 45.467 32.0242 48.1642 34.1477C51.4104 37.4708 54.3366 39.5898 58.3723 40.8372C62.7112 41.6788 66.349 40.389 69.3751 38.3973C71.8372 36.1518 73.4824 33.6181 74.9119 31.1499C77.8611 28.6975 76.8179 23.449 76.436 20.2399C76.5111 15.817 73.8625 14.6819 71.4022 12.7458C70.1849 10.999 67.8439 10.2555 66.7353 9.91334C62.9331 6.60171 53.9777 10.3041 52.3563 10.8725V10.8734Z" fill="url(#paint12_radial_126_2581)"/>
<path fill-rule="evenodd" clip-rule="evenodd" d="M62.0879 19.8783C61.8209 21.4059 61.5186 22.9503 60.9696 24.7167C61.0235 27.55 60.1183 26.9913 57.3592 27.5933C54.8821 29.9582 51.7994 28.0893 50.956 24.4037C50.4963 22.2351 49.8465 19.1578 51.5793 16.9892C52.9628 16.1653 54.6336 15.0921 56.8066 15.0487C56.3098 14.2142 55.7511 13.1701 54.6849 13.0428C53.8831 13.5706 52.786 12.203 52.5906 14.4211C50.4433 14.8772 50.4159 14.2204 49.9305 17.3738C48.7415 18.714 47.8115 19.4248 46.7586 20.7632C46.7524 23.3685 47.7628 26.4317 48.3622 27.9125C48.669 28.7497 49.6635 29.227 50.2541 29.5692C51.017 30.3162 51.6801 31.7501 52.1141 32.5475C54.9722 32.9869 56.6988 32.8446 58.4996 30.8457C59.6541 30.691 60.6089 31.1445 61.5796 31.4204C66.2491 26.7623 63.3167 22.7134 62.0879 19.8783Z" fill="url(#paint13_linear_126_2581)"/>
<path fill-rule="evenodd" clip-rule="evenodd" d="M45.4989 18.0891C47.7117 16.0902 49.8926 13.9924 52.6217 13.1004C61.0784 12.4303 60.8265 12.8714 63.895 16.0867C67.448 18.3817 67.8573 21.9577 68.9411 25.2728C71.5225 25.3215 72.2943 26.2524 73.5859 27.9197C78.5649 28.6658 76.8746 22.3449 76.444 18.7327C74.355 14.9985 72.0662 12.7919 69.3779 9.9753C65.4076 7.98885 61.2102 8.03393 56.6556 9.04351C45.8693 12.9112 49.4081 13.9447 45.4989 18.0891Z" fill="url(#paint14_linear_126_2581)"/>
<path d="M51.6105 15.6675C52.4804 16.129 53.3511 16.5896 54.2219 17.0502C55.8274 16.3934 56.4144 15.5783 57.5274 14.7747C58.5405 15.2697 58.7138 15.9778 59.0913 16.8469C61.5781 15.8762 62.654 16.8946 64.6289 17.5055C64.2002 19.5114 63.3639 20.6155 61.9821 22.1494C62.1288 23.387 62.2765 24.6238 62.4241 25.8615C61.4384 27.0832 60.6666 27.0116 59.1938 27.1867C56.2208 28.358 54.3103 29.3384 51.1375 29.0874C50.4391 27.558 50.6734 25.6608 50.7706 24.4258C50.6398 22.3925 49.4207 22.0733 48.3315 21.3281C48.5915 19.2895 49.716 19.4486 51.4292 18.889C51.942 17.6222 51.7519 16.8548 51.6105 15.6675Z" fill="#121321"/>
<path d="M57.315 19.3171C56.6537 20.0863 55.9924 20.8554 55.3312 21.6236C56.026 21.6678 56.6413 22.0957 57.2973 22.3308C60.5647 22.6898 58.1522 24.2006 55.8041 24.015C56.0985 24.8026 57.2708 26.1075 57.3901 26.2728C61.5725 26.1455 61.2861 23.3157 60.0679 20.3073C59.0601 19.3887 58.5411 19.532 57.315 19.3171Z" fill="#324E68"/>
<path d="M55.0658 19.3965C53.9465 20.2982 53.3693 21.405 52.5913 22.3262C52.6673 24.1279 53.097 24.4073 54.2657 25.3276C54.0765 23.1616 52.5913 22.3262 55.0658 19.3965Z" fill="#324E68"/>
<path fill-rule="evenodd" clip-rule="evenodd" d="M49.0948 13.5204C52.2703 11.945 55.7482 10.8453 59.2676 10.4262C61.3689 10.291 62.8895 9.80653 65.1845 9.53336C67.4308 8.79341 68.0417 9.97891 69.8814 11.0451C68.5182 12.0697 69.1556 12.3216 69.0557 13.5902C69.3227 15.7473 70.3721 15.8242 71.8219 16.2724C74.7092 17.7594 75.5711 19.2472 76.449 21.9321C77.5629 17.9848 74.7861 15.8605 73.4874 12.8742C71.3136 11.1573 70.3199 9.95947 68.2954 8.78723C61.8004 5.74435 53.6565 9.16736 49.0948 13.5204Z" fill="url(#paint15_linear_126_2581)"/>
<path d="M46.9753 16.6146C47.5402 15.8941 48.2722 15.3203 48.9202 14.6732C49.9607 13.8802 51.2886 13.7078 52.49 13.3153C50.8748 14.0349 50.4514 15.0586 49.7159 16.1328C49.6398 16.7489 49.3057 17.0044 49.0953 17.45C47.4235 17.473 46.6526 18.4198 45.7164 19.0961C45.849 17.6657 46.261 17.5216 46.9753 16.6146Z" fill="#C1D6E5"/>
<path d="M51.1331 35.8628C53.8382 37.9359 56.295 39.2894 59.5783 38.8995C62.5461 38.1269 64.9012 37.2269 67.2934 35.8036C69.7007 34.6738 70.2965 32.2427 70.9648 30.0803C72.61 29.976 73.3058 29.2971 74.1907 28.4528C76.3619 27.3292 76.3115 24.9918 76.6546 23.0292C76.7332 26.7316 75.8854 29.9009 74.1076 32.9711C72.4951 35.2688 70.9825 36.7655 69.363 38.8209C66.7347 39.7544 64.7889 40.3396 62.1518 40.924C57.1543 41.8399 52.9683 38.9464 51.1331 35.8628Z" fill="#315C7F"/>
<path d="M44.9682 20.3566C44.5032 22.5225 44.7773 23.8211 45.1017 25.698C45.4005 26.6581 45.9663 27.4174 46.4799 28.1282C46.4835 29.1776 46.6461 30.2278 46.7708 31.2745C47.4975 32.9807 49.3292 33.6606 50.253 35.213C48.7245 34.7259 47.3604 33.8692 46.4225 32.5714C45.2608 32.0817 45.0098 30.6088 44.627 29.4375C43.979 27.8948 43.8349 26.3062 43.6342 24.6168C43.544 22.8602 44.246 21.6031 44.9682 20.3566Z" fill="#77A1BB"/>
<path fill-rule="evenodd" clip-rule="evenodd" d="M67.6025 45.4502C65.3269 40.6879 66.1624 36.0953 67.583 31.4974C69.116 24.1492 74.5988 22.1353 81.497 20.8101C88.4094 17.3181 93.2301 22.5163 96.6266 27.2177C101.357 33.9037 100.904 40.1283 96.5373 45.6757C92.1294 50.7872 89.8592 52.0505 84.9536 52.23C77.5347 55.325 72.676 50.4442 67.6025 45.4502Z" fill="url(#paint16_radial_126_2581)"/>
<path d="M87.5652 46.261C90.67 45.9843 91.8997 43.0705 93.2567 40.7269C93.7871 40.4236 94.2592 40.0329 94.7507 39.6775C93.9604 39.1453 93.3071 38.6529 92.5671 38.0694C90.4331 28.367 80.6679 33.0206 80.4805 42.1864C81.5015 45.887 84.1554 46.6668 87.5652 46.261Z" fill="#214563"/>
<path d="M81.0446 37.4319C81.7457 38.9763 83.2485 39.6358 84.816 39.7605C84.9097 40.2343 84.8027 40.656 84.7956 41.106C81.6696 40.641 79.1811 43.4841 82.8313 44.9233C84.3439 45.5298 84.938 45.0957 85.8503 43.9367C87.0818 43.9199 87.2223 43.195 87.6361 42.3808C87.2135 44.1197 87.5008 45.1735 89.2875 44.9605C89.9045 44.3779 90.0265 43.4841 90.2714 42.6938C89.6022 41.2634 91.5603 41.2042 90.61 39.5183C92.5363 38.9799 90.3023 36.2093 90.3969 36.2287C93.3178 36.8308 91.4949 34.0372 88.8304 34.3546C89.2238 35.5374 89.7604 36.44 90.534 37.3771C86.6053 38.0552 83.6473 33.246 81.0446 37.4319Z" fill="#0B0E14"/>
<path d="M86.4903 37.7847C94.1232 38.9755 85.0069 46.3538 83.7012 41.6842C84.3686 41.4066 85.0317 40.8276 85.5285 40.481C86.7617 42.3349 88.2628 39.117 86.4903 37.7838V37.7847Z" fill="#324E68"/>
<path d="M80.5612 37.6318C81.4222 38.9349 82.9304 39.6784 84.4722 40.154C82.4371 40.7269 81.9138 41.0009 80.8706 42.327C79.9759 40.604 80.2031 39.3663 80.5612 37.6318Z" fill="#437394"/>
<path fill-rule="evenodd" clip-rule="evenodd" d="M80.8855 37.2199C81.8721 34.5015 89.0541 31.8025 90.8858 34.4096C90.2484 34.0135 89.5403 34.1841 88.8631 34.1523C88.7349 35.527 89.4475 36.3509 90.2396 37.3508C86.737 36.6639 84.3094 35.1822 80.8855 37.2199Z" fill="url(#paint17_linear_126_2581)"/>
<path fill-rule="evenodd" clip-rule="evenodd" d="M69.0632 28.9149C76.2549 16.624 92.9413 18.3364 96.8868 28.3402C95.1815 27.9628 93.2781 28.4446 91.701 28.7089C85.5241 24.8226 80.981 25.2231 74.775 27.7364C73.4516 29.0652 70.7314 28.883 69.0632 28.9149Z" fill="url(#paint18_linear_126_2581)"/>
<path fill-rule="evenodd" clip-rule="evenodd" d="M85.638 26.9411C74.3187 27.5829 78.7097 41.2944 70.2388 42.9706C65.411 41.0336 66.0926 31.4276 69.5979 29.2246C73.6362 25.6212 80.4204 24.5992 85.638 26.9411Z" fill="url(#paint19_radial_126_2581)"/>
<path d="M71.8345 48.0096C75.2902 51.635 81.0745 53.1326 85.1155 50.7863C86.7262 50.4133 88.0116 49.3206 89.6498 49.1261C96.6929 45.7526 98.4743 37.0147 95.4809 30.1271C103.941 30.1978 98.4398 44.5512 95.6657 48.4091C92.2091 51.4644 87.8684 52.077 83.4641 52.6021C78.8706 54.1952 74.5573 51.5245 71.8345 48.0104V48.0096Z" fill="#396384"/>
<path d="M73.0667 31.4417C82.1184 23.8027 70.0945 23.9097 70.2351 31.3754C71.951 32.6202 71.2951 32.2117 73.0667 31.4417Z" fill="#C4D9E7"/>
<defs>
<radialGradient id="paint0_radial_126_2581" cx="0" cy="0" r="1" gradientUnits="userSpaceOnUse" gradientTransform="translate(29.3133 23.2837) rotate(6.59482) scale(16.7541 16.2761)">
<stop stop-color="#121321"/>
<stop offset="0.5" stop-color="#1B3A5A"/>
<stop offset="1" stop-color="#437394"/>
</radialGradient>
<linearGradient id="paint1_linear_126_2581" x1="16.3091" y1="16.8346" x2="19.7256" y2="10.0069" gradientUnits="userSpaceOnUse">
<stop stop-color="#AAC6D9"/>
<stop offset="1" stop-color="#437394"/>
</linearGradient>
<linearGradient id="paint2_linear_126_2581" x1="9.57877" y1="10.1672" x2="39.1007" y2="13.684" gradientUnits="userSpaceOnUse">
<stop stop-color="#AAC6D9"/>
<stop offset="1" stop-color="#437394"/>
</linearGradient>
<linearGradient id="paint3_linear_126_2581" x1="20.0155" y1="12.8969" x2="23.0299" y2="9.514" gradientUnits="userSpaceOnUse">
<stop stop-color="#AAC6D9"/>
<stop offset="1" stop-color="#437394"/>
</linearGradient>
<radialGradient id="paint4_radial_126_2581" cx="0" cy="0" r="1" gradientUnits="userSpaceOnUse" gradientTransform="translate(23.5808 39.0083) rotate(23.1097) scale(19.9741 15.6094)">
<stop stop-color="#121321"/>
<stop offset="0.5" stop-color="#1B3A5A"/>
<stop offset="1" stop-color="#437394"/>
</radialGradient>
<radialGradient id="paint5_radial_126_2581" cx="0" cy="0" r="1" gradientUnits="userSpaceOnUse" gradientTransform="translate(7.92877 34.8576) rotate(12.8747) scale(22.984 17.834)">
<stop stop-color="#639CBF"/>
<stop offset="1" stop-color="#2E516C"/>
</radialGradient>
<linearGradient id="paint6_linear_126_2581" x1="21.3289" y1="42.8341" x2="35.7923" y2="41.2145" gradientUnits="userSpaceOnUse">
<stop stop-color="#0B213F"/>
<stop offset="1" stop-color="#2B5273"/>
</linearGradient>
<radialGradient id="paint7_radial_126_2581" cx="0" cy="0" r="1" gradientUnits="userSpaceOnUse" gradientTransform="translate(43.0135 64.5969) rotate(6.62313) scale(17.5749 17.1423)">
<stop stop-color="#121321"/>
<stop offset="0.5" stop-color="#1B3A5A"/>
<stop offset="1" stop-color="#437394"/>
</radialGradient>
<linearGradient id="paint8_linear_126_2581" x1="38.8242" y1="50.6741" x2="36.6135" y2="56.1844" gradientUnits="userSpaceOnUse">
<stop stop-color="#324E68"/>
<stop offset="1" stop-color="#0B0E14"/>
</linearGradient>
<linearGradient id="paint9_linear_126_2581" x1="30.2733" y1="42.8422" x2="55.2932" y2="32.2802" gradientUnits="userSpaceOnUse">
<stop stop-color="#AAC6D9"/>
<stop offset="1" stop-color="#437394"/>
</linearGradient>
<radialGradient id="paint10_radial_126_2581" cx="0" cy="0" r="1" gradientUnits="userSpaceOnUse" gradientTransform="translate(28.5436 42.4242) rotate(-112.164) scale(8.01804 12.3138)">
<stop stop-color="#AAC6D9"/>
<stop offset="1" stop-color="#437394"/>
</radialGradient>
<linearGradient id="paint11_linear_126_2581" x1="36.4148" y1="63.4662" x2="28.9229" y2="68.7501" gradientUnits="userSpaceOnUse">
<stop stop-color="#0F1C32"/>
<stop offset="1" stop-color="#366080"/>
</linearGradient>
<radialGradient id="paint12_radial_126_2581" cx="0" cy="0" r="1" gradientUnits="userSpaceOnUse" gradientTransform="translate(64.3882 32.9851) rotate(6.76461) scale(16.2508 16.1872)">
<stop stop-color="#121321"/>
<stop offset="0.5" stop-color="#1B3A5A"/>
<stop offset="1" stop-color="#437394"/>
</radialGradient>
<linearGradient id="paint13_linear_126_2581" x1="56.8355" y1="30.2791" x2="53.5433" y2="45.7847" gradientUnits="userSpaceOnUse">
<stop stop-color="#396384"/>
<stop offset="1" stop-color="#5587B4"/>
</linearGradient>
<linearGradient id="paint14_linear_126_2581" x1="58.8445" y1="13.4602" x2="65.3432" y2="-1.66361" gradientUnits="userSpaceOnUse">
<stop stop-color="#4E8CB8"/>
<stop offset="1" stop-color="#244867"/>
</linearGradient>
<linearGradient id="paint15_linear_126_2581" x1="60.2639" y1="9.01001" x2="66.1986" y2="-7.44559" gradientUnits="userSpaceOnUse">
<stop stop-color="#7EA9C4"/>
<stop offset="1" stop-color="#346084"/>
</linearGradient>
<radialGradient id="paint16_radial_126_2581" cx="0" cy="0" r="1" gradientUnits="userSpaceOnUse" gradientTransform="translate(87.185 43.0686) rotate(26.2677) scale(20.6238 17.3823)">
<stop stop-color="#121321"/>
<stop offset="0.5" stop-color="#1B3A5A"/>
<stop offset="1" stop-color="#437394"/>
</radialGradient>
<linearGradient id="paint17_linear_126_2581" x1="84.9521" y1="35.0461" x2="89.6457" y2="31.4879" gradientUnits="userSpaceOnUse">
<stop stop-color="#437394"/>
<stop offset="1" stop-color="#8FB0C7"/>
</linearGradient>
<linearGradient id="paint18_linear_126_2581" x1="68.3914" y1="26.855" x2="97.1617" y2="30.2819" gradientUnits="userSpaceOnUse">
<stop stop-color="#AAC6D9"/>
<stop offset="1" stop-color="#437394"/>
</linearGradient>
<radialGradient id="paint19_radial_126_2581" cx="0" cy="0" r="1" gradientUnits="userSpaceOnUse" gradientTransform="translate(70.1937 30.0953) rotate(5.61383) scale(10.157 8.42386)">
<stop stop-color="#AAC6D9"/>
<stop offset="1" stop-color="#437394"/>
</radialGradient>
</defs>
</svg>
