<svg width="88" height="82" viewBox="0 0 88 82" fill="none" xmlns="http://www.w3.org/2000/svg">
<path fill-rule="evenodd" clip-rule="evenodd" d="M7.07739 49.1252C1.36905 52.2084 1.41602 60.241 1.04372 64.0668C0.445455 70.2114 6.09458 77.867 11.4252 78.3448C13.4779 78.5292 13.3248 77.9929 14.9705 79.1683C18.6186 81.7737 24.8953 81.4525 27.7123 80.9808C41.4207 76.4595 48.5692 55.9811 30.8759 48.9033C29.7522 47.8701 25.9026 46.2033 22.9623 46.4082C19.1488 44.8999 14.2892 45.23 7.07739 49.1252Z" fill="url(#paint0_radial_126_2580)"/>
<path fill-rule="evenodd" clip-rule="evenodd" d="M9.57037 65.7181C9.57037 65.7181 9.05582 71.9832 15.1657 78.4123C8.35819 79.4727 4.90746 74.967 2.96362 71.6592C1.33762 68.8918 0.611402 63.5966 1.52207 61.6385C2.43273 59.6803 3.50471 64.007 9.57037 65.7181Z" fill="url(#paint1_linear_126_2580)"/>
<path fill-rule="evenodd" clip-rule="evenodd" d="M40.5193 66.7797C39.2839 70.4197 26.4897 67.3501 15.8816 65.7261C37.6838 67.4134 40.72 62.9199 40.7119 59.0295C41.0903 62.632 41.402 66.3911 40.5193 66.7797Z" fill="url(#paint2_linear_126_2580)"/>
<path fill-rule="evenodd" clip-rule="evenodd" d="M1.69507 59.5346C3.56608 45.3526 14.5887 43.3625 23.3196 47.436C8.51485 45.2226 5.29689 53.2818 1.69507 59.5346Z" fill="url(#paint3_radial_126_2580)"/>
<path fill-rule="evenodd" clip-rule="evenodd" d="M11.6788 47.2787C6.03988 48.0641 3.48621 51.9151 5.3756 58.334C9.93778 57.4675 15.2514 51.4965 11.6788 47.2787Z" fill="url(#paint4_linear_126_2580)"/>
<path d="M9.98975 48.3494C10.8841 46.7656 13.9897 47.0208 15.6926 47.1617C15.6926 47.1617 16.5495 50.1748 16.4161 51.7879C15.1366 52.3487 14.0605 52.6305 12.6891 52.5168C11.6232 51.2243 11.1699 49.3975 9.98975 48.3494Z" fill="#FCD5D5"/>
<path d="M25.2925 47.7102C26.5734 51.6837 27.3255 49.4329 27.3255 49.4329C26.5319 42.2626 38.9001 22.3327 49.3305 15.2727C37.5667 22.0789 25.0264 45.3914 25.2925 47.7102Z" fill="#61913E"/>
<path d="M46.1521 17.6025C48.6432 14.2539 55.401 9.10709 60.0796 7.47565L62.1446 6.19812C62.9 7.05093 61.3584 7.43822 61.6048 7.98407C56.5376 9.73598 49.0808 15.1149 46.1521 17.6025Z" fill="#81B541"/>
<path d="M45.0349 16.5421C35.428 24.2433 24.4585 44.1711 23.8521 47.7967C23.9596 48.557 24.5436 48.4331 24.8226 48.6897C25.5325 42.9834 34.4813 27.8764 45.0349 16.5421Z" fill="#9CCC59"/>
<path fill-rule="evenodd" clip-rule="evenodd" d="M5.61008 71.5856C5.39909 73.3667 1.07853 69.3443 1.30314 64.7399C1.24256 57.2436 3.19797 56.2901 6.00008 52.5841C1.30314 62.8893 4.45984 70.208 5.61008 71.5856Z" fill="url(#paint5_linear_126_2580)"/>
<path fill-rule="evenodd" clip-rule="evenodd" d="M15.752 76.6208C20.2651 80.2451 23.884 79.9551 28.7055 77.8119C31.5722 76.4642 23.2408 73.4171 23.2408 73.4171C32.7681 74.9941 36.4509 71.9238 40.7326 67.5393C38.6105 73.4967 35.7342 79.3126 29.1982 80.6235C26.7412 80.8018 24.5476 81.4579 22.0742 80.9046C19.6342 79.8489 17.4814 78.6443 15.752 76.6208Z" fill="url(#paint6_linear_126_2580)"/>
<path fill-rule="evenodd" clip-rule="evenodd" d="M1.08301 64.9087C5.43283 70.8164 8.55686 72.1974 11.0098 73.2639C12.0784 74.2434 13.6091 77.0128 14.6559 78.1092C5.66084 78.4747 2.58785 72.047 1.08301 64.9087Z" fill="url(#paint7_linear_126_2580)"/>
<path fill-rule="evenodd" clip-rule="evenodd" d="M10.0564 69.5608C14.4062 75.4679 19.811 77.2838 21.2893 78.1379C22.3579 79.1167 23.2365 80.1308 24.2833 81.2266C15.2883 81.5928 12.3133 74.7662 10.0564 69.5608Z" fill="url(#paint8_linear_126_2580)"/>
<path fill-rule="evenodd" clip-rule="evenodd" d="M58.8016 49.409C54.4028 32.2554 54.6553 19.5149 61.6513 6.51786C61.1354 3.69193 64.5651 -0.158319 66.6185 0.00502932C67.9532 0.110525 68.9612 2.26605 68.7624 2.9841C68.1934 5.04365 66.677 8.62232 63.7973 9.44859C55.8035 16.2303 55.3447 39.4019 63.8035 47.2555C62.3347 47.9171 60.2731 49.7725 58.8016 49.409Z" fill="url(#paint9_linear_126_2580)"/>
<path fill-rule="evenodd" clip-rule="evenodd" d="M62.1997 5.74059C62.1024 3.42308 64.4566 0.765959 66.8238 0.484863C67.6882 0.885067 68.2715 1.59087 68.5145 2.62949C69.1631 5.37919 66.0921 8.19287 63.9679 8.98443C63.5262 7.89203 62.881 6.77717 62.1997 5.74059Z" fill="url(#paint10_linear_126_2580)"/>
<path d="M57.0102 30.3288C56.7278 21.7782 57.7494 15.9099 61.5595 9.42973L62.758 7.6084C63.9341 7.68122 63.0875 9.09078 63.666 9.30994C57.7501 14.0042 57.0075 24.6728 57.0102 30.3288Z" fill="#81B541"/>
<path d="M60.3031 46.2864C63.9948 48.1397 62.3477 45.9869 62.3477 45.9869C57.7399 40.7414 55.3761 25.7862 59.8274 14.5764C54.087 26.3865 58.524 44.9544 60.3031 46.2871V46.2864Z" fill="#61913E"/>
<path d="M61.4131 47.5693C65.9399 40.8461 78.0297 39.2514 83.0411 47.6945C93.4035 65.1537 81.0775 78.0323 72.8414 77.543C49.324 89.5341 32.4951 50.7219 61.4131 47.5693Z" fill="#A01D21"/>
<path fill-rule="evenodd" clip-rule="evenodd" d="M61.2882 48.8904C61.0629 50.3176 60.5314 52.4867 60.5484 54.0447C57.5843 55.1166 55.0483 55.1908 51.7167 57.2395C53.9906 56.5432 57.0323 57.2218 59.1028 56.7358C56.6661 57.7717 50.738 60.1287 50.5331 61.1932C52.8669 60.6895 55.6337 60.501 58.1499 60.3622C54.4943 62.0229 51.8875 64.3989 49.0371 67.5678C51.9747 65.854 58.7189 63.8864 59.9828 63.8313L61.3835 63.3582C57.9899 66.2808 54.2717 69.0284 52.8683 70.9947C54.8387 69.7608 57.5591 68.7719 59.8732 67.9905C59.8902 69.7615 58.3051 71.1493 57.3495 72.3962C58.7298 71.8591 62.6896 70.3094 63.9678 69.6642C63.7412 72.1573 60.9384 73.7431 61.1364 76.0926C62.7822 74.8974 66.075 71.8673 67.0115 70.129C67.8392 72.1239 65.0534 75.4814 65.6789 77.4736C65.9259 75.4712 68.8934 72.6922 69.5863 71.037C70.5773 72.6922 72.5422 74.2324 73.4747 74.8416C73.9041 72.991 75.0238 71.1914 74.3581 69.0706C76.9152 68.6337 81.0186 68.6582 83.6376 67.7741C82.2043 66.487 77.4134 66.1712 76.3319 65.703L82.4459 62.0045C79.4641 61.7316 77.4141 62.0685 74.369 63.0962C77.2324 61.4899 80.6062 58.5034 83.7336 57.0918C80.5885 56.9454 75.9181 59.233 72.9744 59.9422C76.5279 58.6007 80.2271 54.9349 82.9693 53.3695C80.1685 53.6758 74.4861 54.4564 72.5368 55.3283C72.643 52.8754 74.9802 50.8784 76.4245 48.614C74.0893 49.7575 70.7563 52.8733 68.7042 54.2768C69.6619 52.1764 70.8441 49.0762 70.6249 46.8757C68.4919 48.4486 66.2526 52.4745 65.8654 53.6002C64.8948 51.5822 63.3764 49.5356 61.2882 48.8904Z" fill="url(#paint11_radial_126_2580)"/>
<path fill-rule="evenodd" clip-rule="evenodd" d="M62.4442 49.567C62.0379 49.7753 61.7323 50.3048 61.3049 51.3019C60.5126 51.7824 60.1253 52.6951 59.8803 53.631C57.9324 53.4356 56.0627 55.2039 54.9458 55.7232C56.3057 55.3352 57.1987 55.389 58.3959 55.34C58.8832 55.176 59.248 55.2658 59.6741 55.3352C59.653 55.6973 59.6523 55.911 59.6931 56.0397C59.7932 56.574 59.7925 57.0007 59.7714 57.3635C57.1755 57.0313 54.8996 58.7948 53.5792 59.7381L56.6855 58.6893C57.5989 58.381 58.2271 58.6669 59.1398 58.7853C59.3426 58.7873 59.5257 58.7254 59.6271 58.6206C59.5659 58.854 59.5659 59.0677 59.5244 59.3658C59.6251 59.6871 59.7258 60.0084 59.8272 60.3296C57.3702 61.5146 53.4097 63.7048 52.4316 65.7405C54.4048 63.227 57.3477 62.5171 59.7428 61.993C59.9865 61.9107 56.0253 64.3139 56.1274 64.2091C56.3493 64.9156 58.8471 63.4325 59.069 64.1397C57.6465 65.6153 54.8009 68.139 53.9664 69.7718C55.0017 69.2089 59.005 66.0801 59.1888 65.1654C60.1635 65.0497 59.8565 66.219 59.8565 66.219L60.2601 67.291C60.5031 67.8491 62.0678 66.3966 62.4728 66.8288C61.0918 67.5789 58.4272 71.1085 57.7357 72.124C58.8124 71.263 61.6785 68.3759 62.8764 68.1138C63.1391 68.0961 62.4646 71.3093 62.6273 71.1834C63.4576 71.8981 65.2688 69.083 65.8963 69.5819C65.4491 70.3013 66.6246 70.8288 66.6647 70.9574C68.0008 72.6386 69.1776 72.5256 70.7811 72.482C71.8347 73.0497 72.7882 73.2967 73.558 73.6057C73.4593 72.4303 74.1107 71.0732 74.4374 70.1816C73.9936 68.7672 74.5429 67.9423 74.728 66.6008C75.4004 64.8809 74.9567 63.4672 74.2692 62.349C74.3707 62.2435 74.5333 62.1176 74.6347 62.0121C75.3467 61.2743 75.8142 60.6189 76.3431 59.7293C77.0543 59.2052 81.2367 57.7222 82.2719 57.586C81.5818 57.5343 77.4824 58.2074 76.7106 58.5389C76.4261 58.7063 74.843 59.2406 74.6586 60.1561C74.1917 60.3847 73.7241 60.8271 73.1762 60.7986L73.1966 60.8625C73.1762 60.7986 73.0952 60.755 73.0748 60.6903C72.4683 59.6163 72.3077 58.675 72.1661 58.4388L72.1457 58.3742C72.3499 57.9502 72.614 57.5057 73.0414 56.9347C74.4625 56.3126 77.8942 55.0126 79.0928 54.1101C73.5315 55.2767 73.2497 53.9502 70.2053 54.7656L70.2659 54.7445C70.9975 54.0713 71.3644 53.3077 72.177 52.6781C73.0714 51.8784 73.803 50.9915 74.6368 49.9992C73.9058 50.4593 72.1607 50.4804 71.4494 51.2175C70.8396 51.6368 70.8805 51.7654 70.21 52.2051C69.9051 52.5209 70.1311 50.8813 69.0932 52.5107C68.5058 51.9274 68.0178 52.7319 67.5318 52.2561C67.8163 51.8757 68.2029 51.3897 68.6092 50.9684C69.0176 49.6929 69.5464 48.804 70.5429 47.6858C68.8366 48.6883 68.2873 49.5132 66.6824 50.624C66.176 50.0836 64.5922 50.8316 64.4507 50.8085C63.5802 49.7521 62.9104 49.3383 62.4442 49.567Z" fill="url(#paint12_radial_126_2580)"/>
<path fill-rule="evenodd" clip-rule="evenodd" d="M61.8091 52.6951C58.1215 61.1191 65.3054 71.1317 71.7965 71.8545C72.2205 72.9904 72.8514 71.996 73.3986 72.0246C72.7936 70.3095 73.4252 68.8884 73.6913 67.3767C74.6374 60.7318 70.2297 52.4821 64.2246 52.022C61.7165 48.1071 62.7068 49.9754 61.8091 52.6951Z" fill="url(#paint13_radial_126_2580)"/>
<path d="M47.7952 69.0422C49.4416 71.9389 52.9018 68.2608 55.1064 67.9158C53.6036 68.8897 52.3948 69.9433 51.0574 71.1086L51.1526 72.8114C52.275 72.9333 54.8749 70.6117 55.9585 69.8555C54.9471 70.952 52.1858 73.328 52.5867 74.3503C52.8345 75.1106 53.4232 75.4393 54.0262 75.979C55.3548 74.4864 56.8304 72.8142 57.7063 71.0078C56.7725 72.7924 56.3002 74.5055 56.0286 76.4065C56.6534 76.0192 57.1829 75.6476 57.6716 75.2365C57.7485 76.0825 57.3844 77.0735 57.2537 77.4179C59.2309 77.6023 59.8224 75.636 60.6799 74.349C60.5751 75.6081 60.0333 76.6372 59.9782 77.8957C60.4839 77.9712 60.8712 78.1543 61.3476 78.2686C61.9915 77.8351 62.5564 77.2396 62.9756 76.8291C63.1363 77.503 62.7769 78.0965 62.6224 78.5572C57.9976 82.2094 49.0836 73.6976 47.7952 69.0422Z" fill="#DA4251"/>
<defs>
<radialGradient id="paint0_radial_126_2580" cx="0" cy="0" r="1" gradientUnits="userSpaceOnUse" gradientTransform="translate(16.3325 53.4798) rotate(-13.6105) scale(27.8287 18.4741)">
<stop stop-color="#D41F26"/>
<stop offset="0.4" stop-color="#981A1E"/>
<stop offset="1" stop-color="#7F1416"/>
</radialGradient>
<linearGradient id="paint1_linear_126_2580" x1="5.88326" y1="71.8613" x2="10.4336" y2="75.4279" gradientUnits="userSpaceOnUse">
<stop stop-color="#BA3A3A"/>
<stop offset="1" stop-color="#8A171A"/>
</linearGradient>
<linearGradient id="paint2_linear_126_2580" x1="39.3142" y1="62.9213" x2="22.3682" y2="68.6038" gradientUnits="userSpaceOnUse">
<stop stop-color="#AA2828"/>
<stop offset="1" stop-color="#951A1D"/>
</linearGradient>
<radialGradient id="paint3_radial_126_2580" cx="0" cy="0" r="1" gradientUnits="userSpaceOnUse" gradientTransform="translate(8.58026 47.8083) rotate(-0.399708) scale(9.87729 7.13954)">
<stop stop-color="#F6C0C0"/>
<stop offset="0.5" stop-color="#DE6061"/>
<stop offset="0.8" stop-color="#CF2728"/>
<stop offset="1" stop-color="#C32026"/>
</radialGradient>
<linearGradient id="paint4_linear_126_2580" x1="9.21612" y1="49.3199" x2="8.55609" y2="44.5644" gradientUnits="userSpaceOnUse">
<stop stop-color="#FCD5D5"/>
<stop offset="0.5" stop-color="#DE6A6B"/>
<stop offset="0.8" stop-color="#CA2B2B"/>
<stop offset="1" stop-color="#BA1F25"/>
</linearGradient>
<linearGradient id="paint5_linear_126_2580" x1="3.68931" y1="64.9693" x2="4.68035" y2="74.3421" gradientUnits="userSpaceOnUse">
<stop stop-color="#BA3A3A"/>
<stop offset="1" stop-color="#C82026"/>
</linearGradient>
<linearGradient id="paint6_linear_126_2580" x1="24.5952" y1="77.7662" x2="37.8713" y2="88.026" gradientUnits="userSpaceOnUse">
<stop stop-color="#BA3A3A"/>
<stop offset="1" stop-color="#C74A4B"/>
</linearGradient>
<linearGradient id="paint7_linear_126_2580" x1="7.56568" y1="71.8959" x2="4.99561" y2="68.6242" gradientUnits="userSpaceOnUse">
<stop stop-color="#BF3F3F"/>
<stop offset="1" stop-color="#DA9090"/>
</linearGradient>
<linearGradient id="paint8_linear_126_2580" x1="17.1064" y1="75.5353" x2="15.6392" y2="72.2753" gradientUnits="userSpaceOnUse">
<stop stop-color="#971A1D"/>
<stop offset="0.2" stop-color="#A51E22"/>
<stop offset="1" stop-color="#DA9090"/>
</linearGradient>
<linearGradient id="paint9_linear_126_2580" x1="61.0715" y1="46.0359" x2="62.6819" y2="85.0844" gradientUnits="userSpaceOnUse">
<stop stop-color="#64A042"/>
<stop offset="0.5" stop-color="#85BB45"/>
<stop offset="1" stop-color="#A5D16C"/>
</linearGradient>
<linearGradient id="paint10_linear_126_2580" x1="63.9291" y1="7.2999" x2="66.9906" y2="13.1624" gradientUnits="userSpaceOnUse">
<stop stop-color="#A5D16C"/>
<stop offset="1" stop-color="#4F2D17"/>
</linearGradient>
<radialGradient id="paint11_radial_126_2580" cx="0" cy="0" r="1" gradientUnits="userSpaceOnUse" gradientTransform="translate(66.9476 61.4334) rotate(-38.8526) scale(13.6309 16.7842)">
<stop stop-color="#3A1211"/>
<stop offset="1" stop-color="#C02029"/>
</radialGradient>
<radialGradient id="paint12_radial_126_2580" cx="0" cy="0" r="1" gradientUnits="userSpaceOnUse" gradientTransform="translate(64.4847 62.7397) rotate(30.1677) scale(12.6284 14.9631)">
<stop stop-color="#2A0E0E"/>
<stop offset="1" stop-color="#C02029"/>
</radialGradient>
<radialGradient id="paint13_radial_126_2580" cx="0" cy="0" r="1" gradientUnits="userSpaceOnUse" gradientTransform="translate(69.8336 68.561) rotate(105.814) scale(11.5009 16.1383)">
<stop stop-color="#EB1B32"/>
<stop offset="0.1" stop-color="#CC2028"/>
<stop offset="0.4" stop-color="#680C0E"/>
<stop offset="1" stop-color="#280D0E"/>
</radialGradient>
</defs>
</svg>
