<svg width="89" height="89" viewBox="0 0 89 89" fill="none" xmlns="http://www.w3.org/2000/svg">
<g clip-path="url(#clip0_126_2582)">
<path fill-rule="evenodd" clip-rule="evenodd" d="M20.4568 13.7671C19.6084 7.23821 28.3456 5.06834 29.4432 -0.422363C30.8268 3.54305 28.0185 6.58576 27.3153 10.1016C27.4649 10.5284 27.2165 11.278 27.1964 11.5202C29.4738 9.87774 31.9717 8.55535 34.8823 7.97287C37.4187 7.98511 40.066 8.26149 42.0951 6.90936C41.3613 8.86408 38.5714 9.44744 36.775 9.74655C35.4613 11.3715 34.5885 13.1102 34.173 15.1865C30.3187 19.5822 23.461 19.2289 19.3924 22.2804C17.9546 23.1829 16.6864 24.0042 15.727 25.2365C13.6445 24.159 13.6323 24.9365 11.5884 24.5272C9.89254 23.5319 5.74346 22.9905 3.78437 22.9905C2.56343 24.5683 1.55765 24.1441 0 25.3554C1.25592 23.4462 1.86201 21.397 2.48385 19.3251C4.85837 17.966 12.9938 20.037 15.6089 19.5612C15.5914 18.175 9.71148 14.9067 9.46048 13.649C8.91473 8.8737 10.761 4.70626 10.761 0.0507928C11.9802 6.23155 15.3587 10.9351 20.4568 13.7671Z" fill="url(#paint0_linear_126_2582)"/>
<path fill-rule="evenodd" clip-rule="evenodd" d="M11.1292 3.38831C8.90071 14.6408 10.0464 13.7383 16.6068 17.9424C16.933 16.1591 15.4881 17.227 12.6947 11.2133C16.7712 16.7198 21.0016 15.4324 21.3016 15.2819C20.0316 14.7449 13.6996 9.45187 12.8512 8.70934C11.9679 6.57883 11.1292 5.15674 11.1292 3.38831Z" fill="url(#paint1_linear_126_2582)"/>
<path d="M27.7171 11.9952C28.4597 9.93816 31.1202 8.86153 33.1947 8.23969C36.5681 7.46043 40.0201 8.16798 42.4279 6.36194C40.6734 10.49 36.7509 10.3947 32.412 9.9609C28.9416 10.7848 28.1956 12.6861 26.5435 14.9688C27.0962 13.7838 27.3866 12.8226 27.7171 11.9952Z" fill="#93AA3B"/>
<path d="M2.67893 20.4465C3.75731 19.1818 4.3634 19.5622 5.65255 19.8202C8.30344 21.3184 11.2132 21.8309 14.1029 21.5415C14.3976 20.6721 15.1122 20.2199 15.511 19.8202C10.964 20.5313 7.04755 17.9906 2.8355 18.4122C1.79386 18.9185 2.72966 19.7791 2.67893 20.4465Z" fill="#93AA3B"/>
<path d="M23.9619 15.1254C23.961 11.5159 25.2415 9.62067 27.2487 7.61348C27.6624 6.00685 28.4442 2.47174 29.283 1.354C30.1173 6.47825 26.779 8.59128 26.779 11.6821C26.0819 13.9316 25.8747 14.5516 23.9619 15.1254Z" fill="#3C5023"/>
<path d="M28.657 2.29236C29.0829 4.16836 28.1322 8.46 25.5268 9.33459C22.5339 10.7296 21.4565 12.0039 20.832 15.1253C20.6684 13.0866 20.7786 11.0199 21.4582 9.49115C22.8383 8.76348 23.9893 8.05069 25.0572 7.45684C26.188 6.86211 27.8261 3.12322 28.657 2.29236Z" fill="#3C5023"/>
<path d="M31.4739 14.4993C31.5142 12.7072 32.2383 11.6804 33.1951 10.5872C31.5544 10.5391 30.8232 11.2318 29.5962 12.1518C29.6557 13.4226 29.2446 14.5229 28.97 15.4386C30.302 15.7044 30.6658 15.038 31.4739 14.4993Z" fill="#3C5023"/>
<path d="M29.2102 0.669067C28.5122 2.76984 27.9341 5.04991 26.7788 6.78336C24.2818 8.53692 22.3359 9.01357 20.8735 11.647C21.0065 10.0841 21.6939 8.67598 22.5405 7.54775C23.8891 5.89739 25.9506 5.04029 27.1951 3.79574C28.1956 2.8503 28.3399 1.66436 29.2102 0.669067Z" fill="#91A83C"/>
<path d="M52.8475 29.1714C52.8475 25.1929 53.221 23.4192 49.5319 21.5196C48.6844 17.2813 45.5 16.523 40.8594 17.6932C35.4492 12.3145 28.3212 15.9816 28.3212 15.9816C24.0445 15.1263 21.4854 15.0677 18.4138 18.9684C15.1253 19.9549 13.0097 22.6496 11.1984 25.8051C4.65295 26.2949 4.67221 36.9912 7.44555 38.6092C6.24998 43.0923 7.75602 46.6257 11.5273 48.3014C13.0298 51.8444 14.8639 54.3807 18.1584 55.6987C19.4765 59.8566 21.7032 60.544 25.8103 60.544C29.6069 63.4616 34.0166 63.4774 38.0537 61.0548C41.8713 59.4411 44.8957 58.2202 45.7056 54.1682C49.0535 52.0272 49.4147 49.9684 50.0418 46.5155C53.0696 43.3267 53.3871 39.5835 51.3178 36.8232C53.0548 34.4006 52.8475 32.013 52.8475 29.1714Z" fill="#D43A47"/>
<path d="M13.4845 34.9209C11.3487 35.5034 9.57677 35.9468 8.38645 38.2103C6.63813 42.1433 8.50365 44.761 12.9903 43.638C13.885 42.0279 14.6153 40.5463 14.3057 38.2103C13.8754 37.1328 13.4582 36.197 13.4845 34.9209ZM10.0307 27.1895C7.64917 28.5128 6.45447 28.8862 6.57691 32.4528C7.31244 32.3794 8.30511 32.7826 10.0307 30.973C10.126 30.0223 10.4006 28.3685 10.0307 27.1895ZM16.9933 20.1193C12.3737 22.4422 10.5449 23.7567 12.0659 30.7946C13.3349 28.0781 18.7626 32.2132 17.8705 24.4415C17.8705 22.5752 16.8114 21.9612 16.9933 20.1193ZM28.2686 15.9046C23.4277 15.804 15.782 16.9874 19.4562 23.9518C21.7695 23.9518 25.2609 24.7861 26.3672 22.074C29.5044 19.0829 27.5366 20.261 28.2686 15.9046ZM33.8004 15.3344C32.5813 15.3431 31.279 15.595 29.9085 15.9588C30.4945 17.8007 30.505 17.8523 31.1679 18.8625C34.7065 21.6822 41.2782 26.1715 40.1395 18.3211C38.6142 16.3725 35.8321 15.3195 33.8004 15.3344Z" fill="#E27E87"/>
<path d="M50.0804 22.1858C49.6641 22.1823 49.219 22.2225 48.7423 22.3091C49.8487 24.799 50.5177 27.8514 47.6482 29.9731C46.9109 31.3008 46.5287 32.3958 44.6361 33.2555C45.3121 38.9421 41.5916 40.3179 41.5916 40.3179C41.2322 40.7368 36.6641 43.5678 35.8788 43.9308C33.276 45.9555 31.267 47.5516 27.6663 45.8462C24.2423 48.5093 20.0705 48.4236 17.5411 44.4774C14.2186 46.1383 9.98726 47.4511 8.23545 41.468C8.0063 42.6137 7.86112 43.7331 7.77979 44.8316C8.50832 46.3298 9.76774 47.5193 11.5265 48.3012C13.03 51.8441 14.8649 54.3805 18.1595 55.6985C19.4775 59.8563 21.7024 60.5437 25.8095 60.5437C29.6053 63.4614 34.0159 63.4771 38.053 61.0536C41.8706 59.4409 44.895 58.2191 45.7057 54.1671C49.0528 52.0261 49.414 49.969 50.0419 46.517C53.0689 43.3273 53.389 39.5823 51.3189 36.8221C53.0558 34.3995 52.8485 32.0118 52.8485 29.1703C52.8485 25.6894 53.1345 23.8973 50.7346 22.2304C50.5239 22.2041 50.3078 22.1866 50.0804 22.1858Z" fill="#C42B3A"/>
<path fill-rule="evenodd" clip-rule="evenodd" d="M8.72485 44.7932C9.58108 46.6779 8.10128 47.4091 11.5918 47.6627C10.6997 52.5264 14.6117 56.1909 20.6526 54.7006C16.2009 55.2131 14.4158 52.1643 13.5054 48.8557C14.3817 48.5373 15.224 48.1088 16.1336 47.9015C12.1069 47.9015 12.2932 47.5779 8.72485 44.7932ZM52.7939 27.3538C52.5412 30.379 52.5202 33.3832 50.1605 35.2496C49.6926 36.1085 49.5553 36.879 48.5163 37.5515C52.3304 39.0768 51.8581 46.0622 47.2009 45.7762C47.8332 47.3575 48.3921 51.0964 44.4057 51.8608C43.6527 56.002 42.0425 60.807 37.1684 57.1241C35.6073 61.0265 31.962 62.4075 26.7231 59.7549C28.0412 58.8908 31.0891 58.1692 31.411 55.3154C29.5402 56.5626 22.7534 58.3625 23.5177 54.1645C22.2181 55.3014 20.2888 55.6338 18.3734 56.2556C19.7141 59.8852 21.9059 60.5438 25.8092 60.5438C29.6058 63.4614 34.0155 63.4772 38.0526 61.0536C41.8703 59.4409 44.8946 58.2191 45.7054 54.1671C49.0524 52.0261 49.4136 49.969 50.0416 46.517C53.0685 43.3274 53.3887 39.5823 51.3185 36.8221C53.0554 34.3995 52.8482 32.0119 52.8482 29.1703C52.8482 28.5764 52.8455 28.119 52.8482 27.6153C52.8307 27.5296 52.8105 27.4403 52.7939 27.3538Z" fill="url(#paint2_linear_126_2582)"/>
<path d="M38.8379 23.7628C38.1233 27.3338 35.1716 30.5112 29.9966 29.0209C30.1864 30.0643 30.4094 30.8969 30.7138 31.5616C29.6739 31.224 28.585 30.987 27.6055 30.6931C28.1687 32.7607 27.0693 34.286 26.409 35.4736C24.7884 36.4549 23.1223 36.8651 21.3923 37.3846C21.4544 38.9292 23.5928 39.5379 24.0205 39.7758C27.4734 39.7976 29.0529 37.8499 30.9508 35.9521C31.4309 34.2851 33.0498 34.3787 34.2961 34.0384C34.2314 33.9282 34.1457 33.8425 34.0731 33.7411C34.8051 33.825 35.6482 33.846 36.6881 33.7997C37.9003 33.1254 39.283 32.1012 40.5118 30.4535C41.0287 27.8691 41.9269 25.0651 38.8379 23.7628ZM26.6487 15.8757C29.1194 17.7272 29.2987 19.2158 29.5182 21.8492C27.8399 26.3822 26.0496 27.3111 21.6311 26.8694C22.7934 28.2058 24.233 28.6737 25.6945 29.2579C28.0121 28.9675 30.1217 26.7417 31.4292 25.4342C32.1499 23.6937 33.4556 23.727 35.4917 23.5232C34.1369 22.4815 33.1031 22.5192 31.6679 22.0889C31.6356 18.1269 29.1596 17.1308 26.6487 15.8757Z" fill="#C42B3A"/>
<path fill-rule="evenodd" clip-rule="evenodd" d="M19.9803 38.9903C18.8853 40.6188 18.7934 42.6042 18.3308 44.4548C19.954 45.2113 20.5076 44.6516 21.8003 43.9335C22.2157 41.5057 19.9803 38.9903 19.9803 38.9903ZM25.3651 38.5216C24.592 38.5207 23.7987 38.7061 22.7571 39.1661C22.2971 40.701 21.9166 41.6998 21.9087 43.4053C22.2236 43.6152 22.3863 45.0828 23.434 44.4233C24.0795 44.2939 26.6245 44.3673 27.6758 43.7464C27.8507 43.1315 28.9842 42.6934 28.3545 41.371C28.1848 40.5795 28.1962 39.7267 27.8446 38.9973C26.8904 38.7113 26.1383 38.5224 25.3651 38.5216ZM35.0819 33.7314C34.9385 33.7183 34.788 33.72 34.6288 33.7384C32.1599 34.1879 30.3512 34.5693 29.7101 37.8088C30.2699 39.0682 30.1789 39.8186 32.0855 40.6914C34.251 40.6914 36.1848 40.848 38.1911 39.8439C38.5295 39.0804 38.8986 38.323 39.3779 37.6391C38.9371 36.6482 38.687 35.8042 37.3427 35.0949C36.7165 34.6252 36.0833 33.825 35.0819 33.7323V33.7314ZM42.2536 28.9622C41.7778 28.9675 41.2758 29.027 40.7353 29.159C39.9184 30.4219 38.6091 29.3357 38.8698 32.0417C40.5875 34.3323 41.1402 36.0517 44.8056 35.6039C45.4974 34.9987 46.8023 33.9859 47.6883 32.89C47.2991 31.8781 47.1941 30.8365 46.1639 30.0074C44.8773 29.4354 43.6826 28.9482 42.2536 28.9622ZM20.212 28.6491C18.2634 30.1429 18.0736 31.1977 17.6678 32.5516C16.4644 35.9083 19.2124 35.6371 19.8744 36.9604C22.2533 37.5779 24.4215 36.036 26.1479 35.094C27.1773 34.1976 26.8528 32.7554 26.9963 31.5344C24.7468 28.4191 23.5705 26.6323 20.212 28.6491Z" fill="url(#paint3_linear_126_2582)"/>
<path d="M34.4597 33.2294C35.748 33.7341 36.9602 33.9929 38.3604 34.2474C39.0207 35.0075 39.6224 35.8165 40.2259 36.622C41.7923 40.1448 40.4586 42.264 37.512 43.0669C40.4376 43.5505 42.4273 41.2066 43.4488 39.8449C43.5354 38.6773 44.3785 38.5653 44.8062 37.9785C41.8413 37.7476 40.5119 36.7269 39.7169 34.0778C37.9598 33.0361 36.4179 33.0335 34.4597 33.2294Z" fill="#C42B3A"/>
<path d="M29.0322 37.1312C28.5652 38.332 30.1797 40.3786 30.3887 40.6926C30.4447 42.2048 31.4041 42.0464 31.9158 42.7278C34.5947 43.8009 37.1424 43.6417 39.0394 42.2196C38.184 44.5268 35.8243 46.1562 33.1026 45.6113C31.2563 47.2354 28.6981 47.4777 25.979 47.4777C26.6052 45.6594 28.9054 46.5987 29.71 43.9155C30.2742 41.5366 29.5045 39.4926 29.0322 37.1312Z" fill="#B92B36"/>
<path d="M11.5618 28.4805C12.223 29.6708 13.3704 30.5157 14.2756 31.5337C15.1231 31.7034 15.9714 31.873 16.8198 32.0427C17.0454 32.0987 17.272 32.1555 17.4976 32.2124C17.3585 33.6397 16.7586 33.7123 15.9714 34.5869C14.9202 34.8108 13.9686 35.0548 12.9182 35.2647C11.4288 35.4527 10.0435 36.2967 8.8479 36.9614C10.0881 36.3991 11.3588 35.3583 12.2396 34.5869C13.0626 34.2458 12.6051 33.2479 12.7486 32.7214C12.1539 31.0457 11.7306 30.1676 11.5618 28.4805Z" fill="#C42B3A"/>
<path fill-rule="evenodd" clip-rule="evenodd" d="M11.3923 27.0951C12.1462 23.6125 14.2374 22.4396 16.7632 20.8759C17.6614 21.286 17.3256 22.7886 17.4699 23.2792C16.1956 24.5448 15.7706 25.7202 14.5015 26.6709C13.5849 27.5306 13.0532 29.1967 12.9474 29.781C11.8567 28.8731 11.7229 28.1971 11.3923 27.0951Z" fill="url(#paint4_linear_126_2582)"/>
<path fill-rule="evenodd" clip-rule="evenodd" d="M18.6008 22.0065C18.7714 18.0114 21.4992 16.8403 23.5475 16.6356C24.7816 17.6921 24.3452 18.3586 23.9717 19.604C23.0822 20.3972 22.3091 21.0637 21.4275 21.724C21.2386 23.7574 19.8069 23.6158 18.6008 22.0074V22.0065Z" fill="url(#paint5_linear_126_2582)"/>
<path fill-rule="evenodd" clip-rule="evenodd" d="M8.79076 42.0262C8.12782 38.6756 9.88576 36.2801 13.127 35.7816C13.4768 35.1956 14.0532 35.5498 14.515 35.4344V37.5168C13.5468 37.7774 12.89 37.9689 12.0862 38.2103C11.3734 40.4755 10.714 40.9583 8.79076 42.0262Z" fill="url(#paint6_linear_126_2582)"/>
<path fill-rule="evenodd" clip-rule="evenodd" d="M9.48392 27.1082C5.73714 29.3253 5.2841 35.2244 7.40237 37.3427C7.20734 35.8646 8.75451 35.0014 8.96353 34.7407C9.79528 33.9903 10.683 33.6353 11.3923 33.1796C11.6284 29.5483 11.6468 28.7305 9.48392 27.1082Z" fill="url(#paint7_linear_126_2582)"/>
<path fill-rule="evenodd" clip-rule="evenodd" d="M32.7764 23.7688C30.4789 25.2364 28.6422 26.9576 29.0358 29.5158C29.5859 30.3046 30.3722 30.8521 30.952 31.432C33.316 32.7448 35.66 30.2679 37.0646 28.5126C40.8244 25.6509 34.92 24.4116 32.7764 23.7688Z" fill="url(#paint8_linear_126_2582)"/>
<path d="M44.1259 22.4404C42.863 22.5121 41.9079 23.1112 41.3674 25.1184C41.5091 25.8286 41.6377 26.8834 42.3391 27.0627C44.0044 26.5633 45.5043 26.6367 47.3567 26.7382C47.2736 26.2388 47.3295 24.5552 46.7095 22.6906C45.7518 22.5436 44.8842 22.3976 44.1259 22.4404ZM41.5292 18.6438C43.4901 20.5749 42.7196 21.6314 42.6618 22.206C43.8198 21.7084 45.0101 21.3034 46.0614 20.909C44.7853 18.649 43.6143 18.852 41.5292 18.6438Z" fill="#DA5661"/>
<path d="M26.7546 49.4986C28.0919 47.2361 28.9289 46.1988 31.5964 45.6653C32.9739 46.0055 34.4205 45.9347 35.8329 46.0685C35.9685 47.9838 34.9164 50.1327 34.6225 51.1123C31.7923 53.9521 27.575 53.597 26.7546 49.4986Z" fill="#D43C48"/>
<path d="M36.4382 45.4633C37.9197 47.7267 37.3329 49.6919 37.0434 51.7175C35.1193 53.7081 34.0121 54.0981 31.5964 54.3404C33.2652 53.395 34.1695 52.662 35.4298 51.7175C36.6122 50.033 36.4487 47.983 36.6402 46.0685L36.4382 45.4633Z" fill="#DA5661"/>
<path d="M42.6164 40.9853C43.5286 40.5708 43.9685 41.4016 44.6209 41.6019C45.3495 43.8557 44.3761 45.6382 43.5417 47.3078H40.4579C38.7734 47.3795 39.1818 46.3195 38.9929 45.5341C39.7888 42.9287 41.2109 42.0786 42.6164 40.9853Z" fill="#D43A47"/>
<path d="M19.9503 48.6949C21.4774 48.953 22.8059 49.3124 24.4212 49.3124C24.8821 50.5508 25.1052 51.4954 25.3465 52.7041C24.5209 54.3588 23.9 54.5355 22.2627 54.8626C20.8074 53.9862 19.7028 53.2289 18.5623 52.0875C18.3708 50.2535 18.9603 50.0138 19.9503 48.6949Z" fill="#D43C48"/>
<path d="M12.3945 48.5411C13.1913 49.5697 14.9536 49.2758 16.2488 49.1577C17.0605 50.4906 17.0894 51.82 18.0995 53.1669C16.7115 53.4546 15.8037 52.8791 14.7069 52.5503C13.1773 51.485 13.1467 49.7962 12.3945 48.5411Z" fill="#D43C48"/>
<path d="M46.7078 40.5132C46.7183 39.0561 48.429 38.1588 48.8462 37.8815C50.8682 37.8649 51.1052 38.9319 51.3125 41.0065C51.3125 41.5907 49.5038 43.2148 49.5038 43.3093C48.2296 43.5752 48.945 43.6775 47.6943 43.8026C47.1337 43.0522 46.8398 42.098 46.7078 40.5132Z" fill="#D33140"/>
<path d="M17.7908 33.3913C17.789 32.2823 18.1765 31.2074 18.3689 30.115C19.7429 28.5311 20.6052 28.5617 22.4165 28.3807C23.3375 27.9906 24.1508 28.7227 24.9222 29.1512C23.6558 29.7687 22.1524 30.052 20.8746 30.3074C20.8195 33.1499 19.4289 33.3913 17.7908 33.3913Z" fill="#F6D2D6"/>
<path d="M5.84155 33.777C6.16253 32.4283 6.48352 31.0788 6.80537 29.7293C6.86921 29.6008 6.93394 29.4722 6.99778 29.3436C7.72631 28.0597 8.69798 27.723 9.69588 27.2236C9.76323 28.2696 10.2005 28.6107 10.4673 29.3436C10.7926 30.9424 9.19825 30.3591 8.53968 30.8856C7.67296 32.6155 7.00563 32.9041 5.84155 33.777Z" fill="white"/>
<path d="M23.035 39.1349C22.2514 41.7403 22.8854 43.0154 23.035 43.7623C23.481 42.2222 24.5883 40.9689 25.1935 40.0602C25.7655 40.0191 26.2728 39.3404 26.5806 39.1349C25.3754 39.4567 24.0434 39.2363 23.035 39.1349ZM19.9503 38.9818C18.8361 40.7328 18.1163 41.5487 18.7163 44.0693C19.1194 42.0551 19.241 41.882 21.1826 40.8316C20.6806 40.0794 21.6059 39.908 19.9503 38.9818Z" fill="#EEAFB5"/>
<path d="M33.2614 18.5354C33.9209 17.5208 35.3421 16.871 36.1913 16.1915C34.9922 15.4349 33.8824 15.6781 32.6755 15.4104C31.5673 15.2696 30.3648 15.6527 29.5505 15.8005C29.7193 16.474 29.8015 16.8046 29.9415 17.3634C31.2262 18.4715 31.8945 18.1252 33.2614 18.5354Z" fill="#F0BEC1"/>
<path d="M27.0273 51.7481C28.111 54.2302 30.231 54.42 32.4393 55.1555C34.499 55.9426 35.3797 55.4397 36.849 54.1532C36.6435 51.86 37.2505 50.3356 37.2505 48.1404C37.4254 50.7309 36.2832 51.0703 34.8445 52.1495C31.9338 53.4745 28.9418 54.301 27.0273 51.7481Z" fill="#E36B77"/>
<path d="M31.0009 40.06C29.3225 37.8613 29.9898 36.7121 32.0338 34.8947C32.8218 34.2737 33.1716 35.6538 33.5835 35.9284C32.0067 37.4633 31.1723 37.8928 31.1723 40.7492L31.0009 40.06Z" fill="#E58E96"/>
<path d="M31.0645 25.2574C30.7846 26.8431 32.2294 26.8116 32.7454 27.499C32.1542 28.1987 32.0624 29.2543 31.765 30.0196C30.1033 30.4394 30.1374 29.7319 29.8042 28.6194C29.8366 26.9856 30.2187 26.3857 31.0645 25.2574Z" fill="#F0BEC1"/>
<path d="M32.3252 24.6978C32.9112 25.5907 33.7525 26.1654 34.5659 26.7986C34.5493 25.6354 35.3802 25.8942 35.8271 25.3983C34.7102 24.2963 33.6834 24.5745 32.3252 24.6978Z" fill="#F0BEC1"/>
<path d="M19.3922 29.5527C17.5319 30.7045 17.9674 31.3264 17.6211 33.2295C18.4712 32.8963 18.8796 31.6316 18.9837 31.4593C19.658 30.4684 20.3962 29.9104 21.0268 29.2798C20.4268 29.0419 19.9117 29.4661 19.3922 29.5527Z" fill="white"/>
<path d="M22.8892 37.9321C25.1911 38.0029 26.6149 37.1869 27.7327 34.5789C27.186 29.7948 26.8922 29.2062 30.1553 34.3926C32.1817 32.2437 34.3603 32.465 36.8625 32.716C33.8408 33.1673 32.0077 34.4713 29.969 36.2555C27.8962 37.0986 28.797 38.2644 29.4101 39.7958C28.9536 38.6737 28.2828 38.2959 27.5464 37.5595C26.0412 38.135 24.2352 37.9321 22.8892 37.9321Z" fill="#A41D21"/>
<path d="M17.4855 36.0692C18.9391 37.2298 20.1364 37.6015 21.9564 37.9321C23.8009 38.1385 22.6596 38.2338 23.2613 38.4918C21.4317 38.3213 20.8492 38.6528 19.5347 39.237C18.096 39.9271 18.0514 41.8835 17.6718 43.1491C17.3561 40.806 17.4855 38.2977 17.4855 36.0692Z" fill="#B92B36"/>
<path d="M32.0427 44.5362C35.8105 45.8481 39.2275 42.7975 40.9295 41.4594C41.805 40.1834 41.5662 39.2397 41.6134 38.7254C42.3245 39.0341 42.8895 39.1513 43.151 39.2379C44.5888 39.4784 45.4914 38.8925 46.3983 38.2129C46.3616 39.8047 45.6436 39.7189 44.6894 40.4344C45.3523 41.964 45.3724 43.3476 45.3724 45.0487C45.3488 42.5946 44.315 41.5363 42.6384 40.6049C42.139 41.9089 41.2452 42.3156 40.075 43.3398C39.1672 44.5196 38.6975 45.3749 38.0241 46.5863C38.3722 48.6223 39.7068 48.8086 40.9295 48.8086C41.2898 50.8788 40.3278 50.9155 39.2205 51.8846C39.3648 50.7485 38.7579 49.7164 38.5366 48.9792C37.4888 45.7213 34.6088 45.9609 32.0427 44.5362Z" fill="#A41D21"/>
<path d="M53.2111 84.8471C55.255 86.2674 58.7052 87.4569 61.608 86.1083C65.1554 86.3339 69.3972 86.8079 71.9536 83.5422C73.9398 83.4696 75.8971 82.6982 77.3997 81.1528C81.08 81.019 83.6084 79.624 83.786 75.9105C85.4162 74.8505 86.7133 73.9505 86.1255 71.3372C87.3587 69.5636 87.8817 67.9954 87.4707 65.2334C88.3321 63.0898 88.1406 60.306 86.9048 58.2603C86.5742 55.6689 86.3521 54.1515 84.2959 52.509C84.0729 50.3837 82.6552 47.7162 77.6131 46.6964C77.5545 44.8379 71.4157 41.6483 70.026 41.8564C68.6642 39.0481 65.0758 38.2076 61.3194 37.7878C57.9085 36.4173 54.7293 37.9172 52.2245 40.3092C48.4139 37.1082 38.3403 44.2204 44.1118 49.789C40.1052 48.5077 36.6086 53.4938 38.3412 57.6183C36.8815 58.0268 35.3509 64.1341 39.0793 66.464C37.3783 68.0916 38.1602 71.388 39.41 72.7156C39.9408 76.6233 41.5378 80.468 45.7455 80.4724C47.5096 82.8049 50.0494 85.0273 53.2111 84.8471Z" fill="#D43A47"/>
<path fill-rule="evenodd" clip-rule="evenodd" d="M49.1315 50.0253C49.7769 53.4065 51.2742 55.2781 54.3397 55.4731C54.5435 54.2749 54.1648 53.4143 53.9138 52.357C54.2146 50.8658 54.6974 49.6553 55.1295 48.451C55.8335 47.4015 56.2769 46.4701 56.904 45.5684C57.4034 48.1064 56.1291 50.1923 54.9414 51.9022C54.8601 53.0208 55.1907 55.0735 55.2781 55.439C55.9035 56.0924 56.3172 56.0854 57.0807 56.2096C57.0063 59.6397 58.1477 62.2679 60.8039 63.9034C60.677 65.0482 59.9721 65.866 59.882 67.2767C57.2267 67.8417 55.4347 69.5191 54.8277 71.8447C53.9663 69.248 51.3311 69.8672 49.5592 70.4698C50.321 67.2146 47.1435 67.4254 44.6501 67.5154C47.1497 65.8633 44.7323 65.2039 43.1187 65.5878C46.9949 63.9488 49.5093 62.3789 44.3894 60.3219C46.5488 58.5552 48.6977 58.2316 48.6024 55.5772C49.2618 55.5527 49.9221 55.5291 50.5824 55.5055C49.5854 53.9067 48.7948 53.2989 47.0255 52.3981C47.9438 52.0902 48.7502 52.44 49.5426 52.7243C49.3143 51.6372 49.1988 50.5527 49.1315 50.0253Z" fill="url(#paint9_linear_126_2582)"/>
<path d="M73.8977 43.2662C75.0128 44.3813 76.2276 45.5708 75.8332 46.553C83.9686 47.7791 82.1617 51.0991 74.4303 48.1692C75.0495 50.5297 75.1886 51.9291 73.0257 52.6043C79.698 51.9886 78.5706 58.2629 76.2731 61.5689C80.8682 66.6179 77.7328 70.481 71.5704 70.0901C70.9442 72.4899 69.2177 74.4788 65.5558 74.0651C66.7015 76.3714 65.8724 77.7533 64.5789 78.7984C64.4722 80.0814 62.6495 80.3298 60.6703 80.4015C58.218 84.8165 51.7739 82.5373 51.2002 78.3436C51.0235 77.3693 51.264 76.6731 51.5308 75.9306C51.3069 75.5502 50.9667 75.8108 50.6895 75.7522C49.4991 77.8451 47.631 79.0966 46.2421 79.7753C41.8595 79.3826 46.3873 73.2814 47.2995 71.4903C45.7716 72.7584 41.3864 76.6355 39.7675 73.9558C39.7553 74.1455 39.7518 74.3301 39.7439 74.5164C40.5039 77.7235 42.1919 80.468 45.7445 80.4724C47.5094 82.8049 50.0493 85.0281 53.2109 84.8471C55.2548 86.2674 58.7051 87.4569 61.607 86.1083C65.1552 86.3339 69.3961 86.8079 71.9535 83.5422C73.9397 83.4705 75.897 82.6973 77.3996 81.1519C81.079 81.019 83.6083 79.624 83.7858 75.9105C85.4161 74.8505 86.7131 73.9496 86.1254 71.3363C87.3577 69.5627 87.8816 67.9954 87.4705 65.2334C88.332 63.0898 88.1405 60.3068 86.9055 58.2612C86.5749 55.6689 86.3519 54.1506 84.2957 52.5089C84.0727 50.3837 82.655 47.7162 77.613 46.6964C77.5815 45.6915 75.7728 44.3018 73.8977 43.2662Z" fill="#C42B3A"/>
<path fill-rule="evenodd" clip-rule="evenodd" d="M47.881 48.0276C48.4512 44.8414 49.2533 43.1272 51.5972 41.42C50.3456 36.4086 41.5664 43.5287 42.4594 46.1839C42.4594 46.1839 46.6644 47.0384 47.881 48.0276Z" fill="url(#paint10_radial_126_2582)"/>
<path fill-rule="evenodd" clip-rule="evenodd" d="M49.3186 50.7581C49.3571 47.9796 49.3658 44.5748 51.3171 42.4766C52.2546 41.9921 54.0362 40.9732 54.5767 41.811C53.696 41.9781 53.2543 42.7005 52.8668 42.9673C53.1607 43.562 53.6732 43.2279 54.0852 43.3608C54.8076 42.4399 55.4705 42.5448 56.5716 42.5055C55.6061 44.1401 54.3659 44.824 53.5403 46.4455C52.8467 48.9232 52.1575 51.4989 49.3186 50.7573V50.7581Z" fill="url(#paint11_radial_126_2582)"/>
<path fill-rule="evenodd" clip-rule="evenodd" d="M55.4914 51.9571C55.3655 47.6235 58.5132 43.9589 62.9832 44.2432C63.3698 44.4994 63.6628 44.8746 64.0021 45.1912C64.596 46.9798 63.3051 48.1587 62.7436 49.7242C61.2253 52.0253 57.8791 54.1786 55.4914 51.9571Z" fill="url(#paint12_radial_126_2582)"/>
<path fill-rule="evenodd" clip-rule="evenodd" d="M51.12 69.9765C50.3005 70.0263 49.265 70.6193 48.0834 71.4353C46.2222 72.9256 44.8334 74.91 44.7503 76.4126C45.1412 79.1405 48.0073 78.1609 49.6856 75.7173C50.5113 74.0949 51.9797 73.5641 52.8491 71.779C52.5394 70.4216 51.9386 69.9275 51.12 69.9765ZM46.1759 68.0025C45.9712 67.9981 45.743 68.034 45.4832 68.1197C42.5516 68.5535 41.3901 69.6502 39.8465 72.2504C39.2526 75.9001 44.4284 74.8794 45.0057 72.0632C45.9266 71.0732 47.4738 70.3298 47.6767 68.7643C47.2035 68.3795 46.7907 68.0147 46.1759 68.0025ZM41.3997 66.4545C40.5409 66.5174 39.6707 67.1209 39.4135 67.4095C38.5879 68.7984 38.915 69.4814 39.3777 70.7172C40.4106 69.4106 41.3105 68.4783 43.0921 67.6894C42.73 66.6827 42.0688 66.4055 41.3997 66.4545ZM38.7086 57.9289C37.0224 58.3304 36.969 59.623 37.1763 61.2909C37.2437 63.1546 37.4466 64.3957 39.2718 64.9344C38.7401 63.8464 38.7515 63.0864 39.2631 61.8357C39.3523 60.4355 39.4529 59.846 40.8094 58.8866C40.2085 58.6715 39.3182 58.3461 38.7086 57.9289ZM43.3606 49.8433C43.2373 49.8503 43.0973 49.8678 42.9381 49.894C42.4213 50.0558 40.387 50.6593 39.7345 52.0901C37.9302 53.5481 36.8527 58.465 41.2169 56.743C41.6918 53.8218 42.3583 53.5341 44.8797 52.1225C44.8343 51.7228 44.5832 51.1832 44.7197 50.7056C44.3086 50.1975 44.2256 49.7926 43.3606 49.8433Z" fill="url(#paint13_linear_126_2582)"/>
<path fill-rule="evenodd" clip-rule="evenodd" d="M52.4475 40.465C54.4914 38.638 57.2508 36.5346 60.1133 37.5605C60.6495 37.7494 60.443 37.7424 60.6722 37.8692C60.4999 39.0202 59.7705 39.6123 58.9011 40.3408C58.4927 41.8556 57.6758 41.6991 56.7619 41.7323C55.408 40.3819 54.327 40.3977 52.4475 40.465Z" fill="url(#paint14_radial_126_2582)"/>
<path fill-rule="evenodd" clip-rule="evenodd" d="M53.7745 72.5058C52.3323 73.9191 52.1119 75.9018 52.181 77.8102C52.3743 78.3918 52.4942 78.9961 52.6909 79.5769C53.6425 78.188 54.9544 77.7472 56.1814 77.33C54.8661 75.8327 54.2022 74.3004 53.7745 72.5049V72.5058ZM59.1017 67.9203C57.9805 67.9518 57.698 68.4975 57.0027 69.1517C55.1118 70.9333 55.5369 72.1726 55.8544 74.4395C56.7744 76.2158 57.2161 76.891 58.6426 77.4647C58.6837 75.8135 58.9067 74.6608 59.6204 73.6331C59.9789 72.2495 61.2672 71.7064 62.322 71.1913C60.2982 70.768 59.7061 69.8514 59.637 67.9395C59.4393 67.922 59.2618 67.9159 59.1017 67.9203ZM61.3835 63.7467C60.5019 65.8265 60.4652 66.1755 61.0949 68.1101C62.1794 69.31 63.0426 70.0893 64.5242 70.3307C66.527 68.4442 65.9865 66.458 65.4128 64.0467C63.9566 63.8333 62.7488 63.6969 61.3835 63.7467ZM65.2396 53.1143C62.0439 53.2297 60.2238 54.5049 57.5493 56.5182C57.4347 58.6233 57.8939 60.6235 60.1678 60.9996C62.5843 60.669 64.261 59.4253 65.9673 57.7759C66.1921 56.3949 66.3985 54.4909 65.2396 53.1143Z" fill="url(#paint15_linear_126_2582)"/>
<path fill-rule="evenodd" clip-rule="evenodd" d="M59.3105 45.1406C57.1844 46.8374 55.98 49.1332 56.9552 51.3363C56.9508 49.1953 58.888 47.6332 59.5151 47.0341C60.632 46.3231 61.8494 45.8325 62.9829 45.2788C61.7025 45.1739 60.5813 45.0943 59.3105 45.1406ZM50.3065 43.9731C49.0943 45.1818 49.6025 47.3289 49.4031 49.0291C50.213 50.5999 50.2855 49.9352 51.3508 50.3174C53.2277 48.0959 53.623 45.6199 56.0071 43.9022C54.7171 44.2022 54.3576 44.8861 53.6204 45.4826C52.0513 45.2867 51.3447 44.9386 50.3065 43.9731Z" fill="url(#paint16_linear_126_2582)"/>
<path d="M73.6992 52.2764C72.8132 52.279 71.8188 52.5388 70.7352 53.1449C74.7189 54.1839 76.1437 56.3398 75.4956 60.8483C80.1091 59.7507 78.4841 52.2607 73.6992 52.2764ZM69.1084 44.8179C68.1857 44.873 67.145 45.0776 65.9756 45.4423L65.4377 45.5971C68.2662 45.4948 71.8617 46.0073 73.1639 48.9844C73.8802 49.8704 74.4959 50.9759 75.0408 52.0394C74.865 47.1889 73.1062 44.5835 69.1084 44.8187V44.8179Z" fill="#DC5F6B"/>
<path fill-rule="evenodd" clip-rule="evenodd" d="M52.6015 81.0951C52.0663 81.6706 51.5826 82.6755 49.5168 82.1577C50.8392 83.3874 52.0261 85.1147 52.7817 82.3108C52.8867 82.484 52.2867 83.7093 54.0455 83.4871C55.513 83.4338 55.9565 82.7026 57.4118 82.686C55.5646 82.5679 54.1014 82.4953 52.6015 81.0951ZM65.8131 78.4433C64.3806 79.8873 63.1588 81.1257 60.7283 80.5292C60.1781 81.1957 59.8423 81.5744 59.3009 82.3458C60.7221 83.3332 62.0708 84.1588 63.6302 81.9172C64.0159 81.8263 65.4808 81.5989 65.8919 80.6132C65.8656 79.8899 65.8394 79.1666 65.8131 78.4433ZM71.6502 70.8991C70.403 72.9264 68.6967 75.4618 65.6557 74.1036C66.6187 75.6989 66.0318 76.7003 66.0939 78.7057L66.6361 78.6856C68.0206 78.3567 68.8445 77.6282 70.3794 77.0562C70.5963 76.1318 70.1476 75.6219 71.3913 74.9826C72.0953 73.5998 72.0997 72.5722 71.6502 70.9V70.8991ZM65.884 45.66C65.9732 48.1098 65.9085 50.7834 64.2642 52.8177C66.3764 52.9192 67.7224 54.0098 68.7369 55.2648C70.2447 59.6212 69.162 61.1788 66.6265 63.2744C69.6648 64.2251 71.4858 67.3062 71.5479 69.4639C72.3516 68.159 72.7023 66.7745 72.7487 65.1407C73.4142 64.1831 74.2049 63.842 74.9553 62.6595C74.1988 62.6184 73.3224 62.5598 72.5501 62.538C73.7868 62.3805 74.7637 62.0403 75.4083 60.7643C74.7891 60.564 74.3518 60.7599 73.8218 60.1958C71.547 59.2818 71.5435 57.7837 72.0883 55.5604C71.3589 55.7345 70.9531 55.7625 70.2272 56.0458C70.8123 55.417 71.1114 55.6015 70.8998 54.4558C70.4441 53.8917 70.0042 53.262 69.4724 52.5239C69.4462 51.7979 69.4882 51.1411 69.6063 50.4309C69.0378 50.0216 68.2305 49.259 67.2641 49.1602C66.8836 48.0424 66.4901 46.8058 65.884 45.66Z" fill="url(#paint17_linear_126_2582)"/>
<path fill-rule="evenodd" clip-rule="evenodd" d="M69.3946 81.2929C68.3775 84.1292 65.1362 85.9317 61.7988 84.1344C61.4402 84.6513 60.8052 85.2014 60.3531 85.846C58.5164 86.2833 56.6194 85.5504 54.4565 85.6081C56.5048 86.1425 58.8164 86.7888 61.2679 86.1154C65.2175 85.9728 70.94 86.8212 72.1854 83.3044C70.8123 84.1983 70.3742 84.9443 68.4649 84.7983C69.42 83.7715 69.6194 82.931 69.3946 81.2929ZM77.5948 78.2738C77.391 78.2834 77.1855 78.3193 76.9843 78.3026C76.4115 80.9999 74.2101 81.599 72.7819 83.1348C76.3249 82.6695 77.2327 81.0121 78.1957 78.4102C78.0015 78.2808 77.7986 78.2633 77.5948 78.2738ZM82.0666 68.6095C81.1999 70.7663 81.0538 73.2282 78.172 73.5798C77.9674 74.3635 77.5458 75.1042 77.6604 76.1651C77.7181 76.4065 77.4689 76.745 77.8388 76.912L77.9901 76.9068L79.9492 76.8359C82.1759 75.036 84.5172 72.3711 82.0666 68.6095ZM84.9196 58.9216C86.8314 61.6486 87.2722 64.6152 83.431 65.14C84.233 65.6586 84.8837 65.6586 85.8457 65.6236C86.7378 67.2792 86.9381 69.9503 86.0653 71.6662C87.49 70.1339 87.8022 67.4419 87.3089 65.0001C87.95 63.7406 89.2094 58.9863 84.9196 58.9216ZM81.3005 56.666C83.6776 59.6082 82.3343 62.4532 80.7232 66.0504C83.6321 64.6301 86.4982 59.8828 81.3005 56.666ZM83.6829 53.1458C86.2883 54.497 84.9816 57.0727 84.3161 58.0313C85.216 58.4493 86.137 58.1039 86.8227 57.9403C86.9311 55.4171 86.0242 53.7571 83.6829 53.1458ZM82.0386 48.7518C82.7925 50.034 82.7016 50.9348 81.8777 51.9878C81.4833 50.8885 80.6331 49.8311 79.0886 49.2014C80.7215 50.0016 80.8098 51.2383 81.053 53.0137C81.3153 55.1434 81.0171 55.2737 79.5679 56.1492C80.8824 55.6944 80.9646 55.5054 81.9249 55.0358C82.2031 54.26 82.2686 53.1519 81.9057 52.0753C82.7794 52.0928 83.5867 52.6167 84.3537 52.7785C84.7245 50.6217 83.4782 49.7524 82.0386 48.7518Z" fill="url(#paint18_linear_126_2582)"/>
<path d="M78.885 68.271C77.5906 71.1064 75.2633 70.7059 72.6474 71.0636C75.0482 72.7411 75.335 74.1772 75.5668 76.6942C75.3211 79.4781 72.3054 80.1305 69.658 80.2267C69.163 80.7375 69.8102 81.1625 69.8531 81.4275C69.9685 83.2756 68.5385 84.235 68.0085 84.6635C69.8487 84.6154 70.1828 84.0207 70.9629 82.8977C71.4125 82.1368 71.0242 82.5217 71.0863 82.1395C73.8334 82.2724 74.3319 80.8048 75.0412 78.8265C76.2341 77.9143 76.061 77.3537 76.4598 76.3593C75.9831 74.3022 77.1551 73.2195 77.8101 71.9329C77.6247 70.4173 78.3533 69.317 78.885 68.271ZM83.3568 62.524C83.2466 63.3768 83.4836 64.191 82.8399 64.958C81.7423 66.1387 80.9228 66.5489 78.9873 66.911C82.3143 67.4174 83.6174 69.7132 83.7338 72.9265C82.3983 75.1602 80.3342 76.4284 78.46 77.3432C80.8187 77.7271 83.3026 77.0651 83.4863 74.4439C85.1191 73.1233 84.5847 71.2534 84.4903 68.8246C84.3661 68.543 83.9699 67.0195 83.1968 66.4554C84.7159 65.2274 85.343 63.8377 83.3568 62.524Z" fill="#A72331"/>
<path d="M71.2813 75.0367C72.2066 75.3306 73.1153 75.6752 74.0328 75.9944C75.9341 78.8832 71.9626 79.0713 69.6362 79.6249C68.7013 84.5987 65.6865 84.0958 61.638 83.8387C58.7396 87.8583 56.8785 87.0283 53.5043 84.2838C53.4964 84.0836 53.4894 83.8824 53.4824 83.6812C55.6252 84.2917 57.1881 83.0629 58.5743 82.5915C62.1575 83.767 65.5413 83.2422 66.1579 79.4491C69.3038 79.5042 72.0571 78.299 71.2813 75.0367Z" fill="#B92B36"/>
<path d="M45.7498 75.2634C46.7757 72.0903 49.0557 70.7443 51.8002 69.9021C51.9611 72.9186 48.0351 74.0459 45.7498 75.2634Z" fill="#F6D5D8"/>
<path d="M53.318 41.7795C49.8126 43.0774 49.2266 45.0715 49.6027 48.0163C50.0916 47.7609 50.6356 46.8041 50.9435 46.442C51.6886 46.2129 52.007 45.6391 52.4259 45.2447C52.1364 43.4255 52.4451 42.8527 53.318 41.7795Z" fill="#F6D5D8"/>
<path d="M42.0576 50.3235C38.6039 50.9331 38.4692 53.1817 38.3109 55.6716C37.4302 57.364 38.9004 56.3118 39.105 56.5331C39.7356 56.9415 39.8309 56.1369 40.102 55.9882C39.4933 53.2455 40.137 51.8768 42.0576 50.3244V50.3235Z" fill="#F6D5D8"/>
<path d="M52.4163 80.079C55.1223 81.3306 57.0569 79.0724 57.9428 78.2257C61.2794 78.2555 62.3053 75.6291 62.9691 73.0857C63.1527 72.6642 63.2892 72.2899 63.4361 71.9243C67.3412 71.94 68.1502 67.4105 67.3447 64.0284C72.3579 66.4965 69.6973 76.4276 64.5206 73.7924C67.496 77.7298 63.4737 80.072 59.5258 79.821C58.1247 82.8725 53.5943 82.7404 52.4163 80.079Z" fill="#B92B36"/>
<path fill-rule="evenodd" clip-rule="evenodd" d="M42.9485 45.5752C43.0246 42.6891 46.4608 41.6982 47.8138 41.1918C47.6984 42.0777 48.4208 42.5255 48.7033 43.1465C47.5182 43.7981 47.3372 44.7654 46.9288 45.7808C45.595 45.2753 44.3645 45.3811 42.9485 45.5752Z" fill="url(#paint19_linear_126_2582)"/>
<path d="M70.096 43.2452C65.2971 42.6427 63.1237 40.6118 60.6128 42.4835C61.3492 41.0456 62.0051 40.9634 63.1238 40.6118C66.344 39.4696 68.4483 41.9054 70.096 43.2452Z" fill="#DC5F6B"/>
<path fill-rule="evenodd" clip-rule="evenodd" d="M79.6325 47.2745C81.136 48.5654 82.3438 49.3937 82.7452 52.1976C83.6452 52.3446 83.6749 51.9405 84.2416 53.2384C86.1517 54.2109 85.7381 56.4552 84.7874 58.2017C86.3984 59.6999 88.417 63.6286 85.5221 65.1005C86.3617 66.8182 87.2529 69.7333 85.6331 71.5367C85.006 71.3215 84.853 70.9524 84.0352 70.9874C84.6728 72.8634 84.7279 75.6709 82.1855 77.0073C80.7074 78.7976 79.7384 80.4094 77.1828 79.7421C76.1525 82.6143 74.0133 83.2562 71.0755 82.2706C69.4295 85.5039 65.9565 86.2587 61.9246 84.548C59.6944 85.6369 56.5835 86.1538 54.516 84.6941C54.7888 84.3023 55.0599 83.6104 55.5567 83.1985C53.232 84.3337 49.5491 84.5445 47.9871 82.2574C49.1617 82.0974 49.9121 82.0642 50.7342 80.9412C48.4078 81.026 46.5265 80.7234 44.9776 79.6914C43.7584 79.373 41.9384 78.9926 41.1338 77.5233C41.125 77.6571 41.125 77.7848 41.1189 77.9168C42.1116 79.4413 43.5774 80.4698 45.7446 80.4724C47.5087 82.805 50.0485 85.0282 53.2102 84.8471C55.2541 86.2683 58.7061 87.456 61.6089 86.1074C65.1563 86.3331 69.3972 86.8071 71.9545 83.5414C73.9407 83.4696 75.8963 82.6974 77.3988 81.152C81.0791 81.019 83.6093 79.6249 83.7869 75.9114C85.4171 74.8514 86.7124 73.9497 86.1246 71.3364C87.3578 69.5627 87.8817 67.9946 87.4707 65.2326C88.3321 63.089 88.1397 60.306 86.9048 58.2603C86.5742 55.668 86.3529 54.1515 84.2968 52.5099C84.107 50.7056 83.0312 48.52 79.6325 47.2745Z" fill="url(#paint20_linear_126_2582)"/>
<path d="M62.4661 37.9443C66.0265 37.9592 68.234 39.3979 70.5228 41.5276C73.7824 42.1643 76.4263 43.4377 77.1916 45.6897C79.7883 46.9019 81.3547 46.9291 81.8987 49.2187C78.9513 49.1969 76.6494 48.1963 75.32 47.5194C73.6014 46.0483 75.9243 46.4699 76.1482 46.0798C74.901 43.9248 73.7824 43.84 71.6738 44.1277C70.0829 43.7482 70.2465 42.5998 70.0077 41.8984C68.5908 39.2396 64.0001 39.2746 62.1844 39.8921C60.8865 39.251 62.4171 38.2846 62.4661 37.9443Z" fill="#F27993"/>
<path d="M66.3054 47.5946C67.1179 48.6922 66.4768 51.3335 66.4488 51.5495C67.2394 52.2553 67.8377 52.8737 68.4473 53.6276C69.7504 52.9699 71.1357 52.7381 72.5998 52.6847C70.695 52.9987 70.346 53.2803 70.0784 54.9263C70.5734 58.0023 70.6556 60.6645 69.5904 63.3163C71.4235 64.1743 72.0182 66.2086 71.6911 68.2193C71.4086 70.6411 72.564 70.7425 73.9406 70.9664C73.3555 71.3836 72.4923 71.5847 71.9308 71.7177C71.1646 75.1487 67.2587 75.7163 66.0089 76.911C66.3762 75.4426 65.9468 74.5601 65.5558 73.759C72.6444 76.1388 71.392 68.5726 69.3166 65.1364C68.5452 64.2303 67.7528 63.9163 66.761 63.3058C69.0114 60.9549 69.5125 58.1807 69.0577 54.8502C67.535 54.0596 66.3543 52.9436 64.5605 52.5238C66.5459 51.4516 66.175 49.6508 66.3054 47.5946Z" fill="#A41D21"/>
<path d="M77.8301 60.4153C78.7449 61.2706 78.2377 62.4111 78.4493 63.4484C75.8658 61.8645 72.4207 60.1477 70.3313 64.2513C69.1489 64.1481 68.7842 63.1764 68.2419 62.7994C69.7174 62.8589 70.1153 61.938 70.8701 61.5584C73.2402 62.1102 75.7599 61.2409 77.8301 60.4153Z" fill="#A41D21"/>
<path d="M59.1459 68.5526C58.7034 68.585 58.5687 68.7555 58.281 69.0267C57.2673 69.9948 56.795 70.6613 56.1137 71.6426C55.903 72.5084 55.9572 73.5448 56.209 74.2865C56.5466 74.4124 56.6324 74.6249 56.8396 74.9258C57.2446 73.5177 57.7816 72.4857 58.6396 71.3295C58.9212 71.0181 59.3786 70.7925 59.6077 70.6333C59.1538 69.9354 59.0996 69.2864 59.1459 68.5526ZM61.3823 64.7761C61.3385 65.4592 61.1181 65.9944 61.3438 66.7615C61.3613 67.2539 61.3289 67.7419 61.5598 68.1897C62.0059 68.7415 62.4327 69.1465 63.3186 69.5051C62.8665 68.6768 62.7344 67.9185 63.1708 66.9731C63.0519 66.4746 63.0694 65.865 62.8359 65.3306C62.3548 65.147 61.7041 65.5886 61.3823 64.7761ZM62.6067 53.7606C62.4318 53.758 62.2604 53.786 62.1073 53.9347C61.9272 54.295 62.5324 54.7585 60.6669 56.8156C59.7905 57.4461 58.6772 57.7505 58.2932 58.7003C59.0882 59.6842 59.4179 60.2641 60.9257 60.4058C61.4374 59.6965 62.0373 59.1411 62.6557 58.4135C63.2058 57.0438 63.4035 55.6252 63.128 53.7685C62.9583 53.7965 62.7816 53.7632 62.6067 53.7606ZM58.0308 47.1653C56.628 48.0548 57.3215 48.5349 56.8073 49.5319L56.8493 50.6934C57.3705 50.3978 57.6932 49.8879 58.1148 49.4847C58.9098 49.7935 59.0917 48.667 59.3838 48.423C59.5098 47.446 58.4821 47.5842 58.0308 47.1653ZM47.3722 42.5842C46.5868 43.4981 45.5075 43.192 44.0854 42.9611C43.433 43.6258 42.8417 45.6925 42.812 45.7589C43.1933 46.4787 44.4055 46.6624 44.8402 46.909C45.4148 45.2753 46.4845 43.924 47.3722 42.5842ZM47.7211 42.0664C47.6162 42.237 47.485 42.4136 47.3722 42.5842C47.4955 42.4407 47.6127 42.2746 47.7211 42.0664Z" fill="white"/>
</g>
<defs>
<linearGradient id="paint0_linear_126_2582" x1="14.4964" y1="4.94949" x2="23.5732" y2="-10.5437" gradientUnits="userSpaceOnUse">
<stop stop-color="#5F853A"/>
<stop offset="1" stop-color="#47632D"/>
</linearGradient>
<linearGradient id="paint1_linear_126_2582" x1="13.8054" y1="11.3581" x2="17.7178" y2="5.88085" gradientUnits="userSpaceOnUse">
<stop stop-color="#93AA3B"/>
<stop offset="1" stop-color="#4F6D32"/>
</linearGradient>
<linearGradient id="paint2_linear_126_2582" x1="16.744" y1="31.5652" x2="42.8627" y2="16.0662" gradientUnits="userSpaceOnUse">
<stop stop-color="#F5919D"/>
<stop offset="1" stop-color="#DC5F6B"/>
</linearGradient>
<linearGradient id="paint3_linear_126_2582" x1="26.5161" y1="31.1811" x2="36.5772" y2="20.5996" gradientUnits="userSpaceOnUse">
<stop stop-color="#E27E87"/>
<stop offset="1" stop-color="#D43A47"/>
</linearGradient>
<linearGradient id="paint4_linear_126_2582" x1="13.6698" y1="23.6362" x2="16.3553" y2="19.6785" gradientUnits="userSpaceOnUse">
<stop stop-color="white"/>
<stop offset="1" stop-color="#E27E87"/>
</linearGradient>
<linearGradient id="paint5_linear_126_2582" x1="18.0411" y1="19.6089" x2="24.8249" y2="19.0435" gradientUnits="userSpaceOnUse">
<stop stop-color="white"/>
<stop offset="1" stop-color="#E27E87"/>
</linearGradient>
<linearGradient id="paint6_linear_126_2582" x1="8.07622" y1="38.7287" x2="15.0928" y2="38.7287" gradientUnits="userSpaceOnUse">
<stop stop-color="white"/>
<stop offset="1" stop-color="#E27E87"/>
</linearGradient>
<linearGradient id="paint7_linear_126_2582" x1="5.38031" y1="32.0896" x2="9.3001" y2="31.9161" gradientUnits="userSpaceOnUse">
<stop stop-color="white"/>
<stop offset="1" stop-color="#E27E87"/>
</linearGradient>
<linearGradient id="paint8_linear_126_2582" x1="31.8214" y1="25.2923" x2="33.9981" y2="22.1263" gradientUnits="userSpaceOnUse">
<stop stop-color="#E27E87"/>
<stop offset="1" stop-color="#D9525E"/>
</linearGradient>
<linearGradient id="paint9_linear_126_2582" x1="47.6692" y1="58.2895" x2="60.8468" y2="57.6198" gradientUnits="userSpaceOnUse">
<stop stop-color="#B92025"/>
<stop offset="0.6" stop-color="#A71E22"/>
<stop offset="1" stop-color="#84212D"/>
</linearGradient>
<radialGradient id="paint10_radial_126_2582" cx="0" cy="0" r="1" gradientUnits="userSpaceOnUse" gradientTransform="translate(44.7832 42.6542) rotate(-59.4032) scale(7.75327 7.13621)">
<stop stop-color="#F9E2E4"/>
<stop offset="0.7" stop-color="#DE6C77"/>
<stop offset="1" stop-color="#D43A47"/>
</radialGradient>
<radialGradient id="paint11_radial_126_2582" cx="0" cy="0" r="1" gradientUnits="userSpaceOnUse" gradientTransform="translate(50.1521 46.5681) rotate(-25.2822) scale(6.73287 10.4732)">
<stop stop-color="#E4858D"/>
<stop offset="1" stop-color="#D43A47"/>
</radialGradient>
<radialGradient id="paint12_radial_126_2582" cx="0" cy="0" r="1" gradientUnits="userSpaceOnUse" gradientTransform="translate(57.0377 47.6821) rotate(-68.0814) scale(8.99943 6.32487)">
<stop stop-color="#E4858D"/>
<stop offset="1" stop-color="#D43A47"/>
</radialGradient>
<linearGradient id="paint13_linear_126_2582" x1="37.7728" y1="65.5047" x2="52.9427" y2="68.8452" gradientUnits="userSpaceOnUse">
<stop stop-color="#F9E2E4"/>
<stop offset="0.8" stop-color="#DB5C67"/>
<stop offset="1" stop-color="#D43A47"/>
</linearGradient>
<radialGradient id="paint14_radial_126_2582" cx="0" cy="0" r="1" gradientUnits="userSpaceOnUse" gradientTransform="translate(53.9544 39.757) rotate(36.7615) scale(7.23225 6.96287)">
<stop stop-color="#F9E2E4"/>
<stop offset="0.7" stop-color="#DE6C77"/>
<stop offset="1" stop-color="#D43A47"/>
</radialGradient>
<linearGradient id="paint15_linear_126_2582" x1="60.2833" y1="66.7002" x2="67.3388" y2="64.8013" gradientUnits="userSpaceOnUse">
<stop stop-color="#F6D5D8"/>
<stop offset="0.8" stop-color="#DA5965"/>
<stop offset="1" stop-color="#D43A47"/>
</linearGradient>
<linearGradient id="paint16_linear_126_2582" x1="56.2057" y1="48.9511" x2="56.1738" y2="53.5668" gradientUnits="userSpaceOnUse">
<stop stop-color="#FBE7E9"/>
<stop offset="1" stop-color="#DD646E"/>
</linearGradient>
<linearGradient id="paint17_linear_126_2582" x1="75.5133" y1="64.6947" x2="67.5542" y2="64.6727" gradientUnits="userSpaceOnUse">
<stop stop-color="#D22E3D"/>
<stop offset="1" stop-color="#A22330"/>
</linearGradient>
<linearGradient id="paint18_linear_126_2582" x1="71.5654" y1="69.0905" x2="82.0675" y2="63.044" gradientUnits="userSpaceOnUse">
<stop stop-color="#C62B3B"/>
<stop offset="1" stop-color="#DC5F6B"/>
</linearGradient>
<linearGradient id="paint19_linear_126_2582" x1="45.1245" y1="43.1928" x2="48.1267" y2="40.9647" gradientUnits="userSpaceOnUse">
<stop stop-color="white"/>
<stop offset="0.9" stop-color="#DD626E"/>
<stop offset="1" stop-color="#D9525E"/>
</linearGradient>
<linearGradient id="paint20_linear_126_2582" x1="81.8732" y1="77.7498" x2="68.5321" y2="87.1093" gradientUnits="userSpaceOnUse">
<stop stop-color="#F5919D"/>
<stop offset="1" stop-color="#DC5F6B"/>
</linearGradient>
<clipPath id="clip0_126_2582">
<rect width="89" height="89" fill="white"/>
</clipPath>
</defs>
</svg>
