<svg width="195" height="132" viewBox="0 0 195 132" fill="none" xmlns="http://www.w3.org/2000/svg">
<g clip-path="url(#clip0_116_1775)">
<path d="M113.982 47.9397H112.842C110.625 47.9397 109.865 51.9701 112.335 51.9701C110.941 54.9124 109.231 57.0874 107.774 57.0874C103.149 57.0874 111.005 34.1861 115.376 34.1861C117.466 34.1861 115.946 42.2463 113.982 47.9397ZM159.177 50.37C156.867 49.4372 154.881 49.9074 154.211 50.2658C154.09 50.3308 154.091 50.5035 154.214 50.5654C154.912 50.9212 156.787 52.2078 156.347 55.5797C156.13 57.2478 154.785 59.9148 150.803 61.7005C149.535 62.2162 148.198 62.4291 146.816 62.1496C143.459 61.4705 143.375 56.3196 143.375 54.7206C143.375 47.9397 148.38 35.466 149.9 33.9304C150.153 33.6746 150.407 33.8025 150.407 33.4183C150.407 32.5231 147.936 30.6039 144.452 30.6039C142.805 30.6039 140.145 36.4251 138.435 42.5666C135.774 47.4921 131.593 56.3836 129.819 56.3836C129.566 56.3836 129.059 56.3196 129.059 54.7206C129.059 47.9397 134 35.466 135.52 33.9304C135.837 33.6746 136.027 33.8025 136.027 33.4183C136.027 32.5231 133.557 30.6039 130.072 30.6039C128.291 30.6039 125.407 37.3935 123.692 44.014C122.994 44.8788 121.927 46.0163 120.444 46.8527C120.95 44.6137 121.647 41.6069 121.647 38.6641C121.647 34.1861 119.303 30.2202 113.475 30.2202C105.177 30.2202 99.7921 42.0545 99.7921 51.8422C99.7921 58.0476 103.213 61.3736 107.774 61.3736C113.095 61.3736 116.516 56.7043 119.113 50.8826C120.629 50.2632 121.814 49.3882 122.727 48.442C122.446 50.0833 122.281 51.6029 122.281 52.8658C122.281 58.5591 124.941 61.1817 128.425 61.1817C131.213 61.1817 134.19 56.8961 136.597 52.098V52.8658C136.597 54.3044 136.767 55.5472 137.077 56.6012C137.994 59.7173 140.582 65.4323 147.163 65.8629C147.868 65.9088 148.551 65.867 149.214 65.7654C154.617 65.1961 161.207 61.1152 162.224 56.1856C162.276 55.9329 162.278 55.6797 162.286 55.4348C162.36 53.037 161.203 51.1863 159.177 50.37Z" fill="#1E8F37"/>
<path d="M82.2504 57.5991C81.4267 57.5991 81.0468 56.4477 80.9202 55.0404C82.8203 50.1783 88.7119 35.0175 91.3723 35.0175C92.0055 35.0175 92.1326 36.2329 92.1326 37.2565C92.1326 43.5258 86.2405 57.727 82.2504 57.5991ZM95.2434 25.3551C95.1826 25.3066 95.1081 25.1246 95.1045 25.0772C95.2327 24.6193 95.5717 23.4023 98.9312 20.6101C100.351 19.4297 102.083 18.1932 104.148 17.035C102.08 20.6601 99.2713 23.9113 95.8827 25.35C95.5396 25.4144 95.3205 25.3943 95.2434 25.3551ZM92.7658 30.2198C87.7739 30.2198 82.5399 44.5473 82.0814 46.017C82.0819 46.0118 82.0814 46.0077 82.0824 46.003C82.7886 43.2757 83.8497 40.041 85.0885 36.7207C85.5629 35.461 86.0454 34.2275 86.5075 33.0724C87.2071 31.3445 87.9358 29.6376 88.6721 28.0071C88.74 27.8566 88.8115 27.6998 88.8845 27.5384C89.386 26.4401 89.8884 25.3855 90.3858 24.3836C91.596 22.007 92.9874 19.6979 94.1874 17.6873C98.6028 10.2907 103.934 4.53601 106.924 4.53601C108.261 4.53601 108.077 5.63951 108.014 6.15001C107.753 8.25647 106.984 10.9946 105.781 13.7647C102.367 15.3452 99.6486 17.1954 97.5617 18.93C94.142 21.7723 93.352 23.3343 93.0303 24.4868C92.7817 25.3783 93.1907 26.5282 93.9622 27.1042C94.3707 27.4095 94.8992 27.5755 95.5299 27.5755C97.0372 27.5755 99.1232 26.6226 101.519 24.3321C104.984 21.6228 107.761 18.024 109.584 14.5537C109.682 14.5181 109.778 14.482 109.875 14.4474C131.176 7.42832 136.915 19.8995 137.196 20.4579C138.099 22.2514 138.727 24.0541 138.916 25.7419C138.982 26.2854 138.984 26.7541 138.951 27.1728C138.891 28.2913 138.564 29.5479 137.933 30.6984C139.349 31.493 145.271 26.9598 144.649 21.6888C144.372 19.2678 140.621 6.0376 116.986 10.4057C114.773 10.76 112.725 11.2478 110.835 11.8346C111.593 9.89058 112.004 8.08475 112.012 6.62132C112.038 2.05364 108.636 0.574219 106.725 0.574219C97.7424 0.574219 85.8299 13.955 80.0965 28.4934C79.7074 29.3638 79.3127 30.4379 79.014 31.2594C78.9614 31.4074 78.9093 31.5559 78.8572 31.7044C77.6399 35.2031 76.1172 41.1884 75.2517 46.0613C71.6967 51.6634 65.4864 58.6361 60.0951 58.6361C57.0043 58.6361 54.9704 55.9655 54.8663 52.1017C54.4486 36.598 68.0666 16.641 75.4258 16.641C76.1616 16.641 76.5298 17.0876 76.3827 17.9049C75.5729 24.8915 68.327 31.0614 69.505 31.0614C70.0198 31.0614 81.2404 28.3104 81.2404 19.1688C81.2404 15.898 79.327 9.65493 72.1874 9.65493C59.7494 9.65493 47.5321 31.8039 47.5321 48.3776C47.5321 57.6682 51.6534 64.0603 58.5714 64.0603C64.7531 64.0603 70.2761 59.2688 74.113 54.0365C74.0497 54.8063 74.0149 55.5298 74.0149 56.1919C74.0149 59.7742 77.5628 62.0776 78.6397 60.9896C78.893 60.7338 79.0196 60.0299 79.4629 59.0703C80.793 60.4136 82.377 61.1814 85.1012 61.1814C94.4131 61.1814 98.9102 45.7009 98.9102 38.5358C98.9102 32.8425 96.2499 30.2198 92.7658 30.2198Z" fill="#1E8F37"/>
<path d="M168.641 69.3425C169.579 67.1458 170.913 64.4664 172.527 62.4589C172.727 62.2104 173.109 61.8659 173.474 62.1774C173.474 62.1774 173.82 62.5182 173.451 63.0086C173.451 63.0086 171.357 65.8061 169.776 70.7507C169.721 70.9235 169.896 71.0869 170.06 71.0142C177.01 67.9326 181.907 61.0105 182.112 52.9033C182.114 52.8162 182.037 52.744 181.951 52.7532C174.101 53.5768 167.979 60.2762 167.979 68.422C167.979 68.6922 167.986 68.9604 168 69.2264C168.019 69.5822 168.502 69.6699 168.641 69.3425Z" fill="#1E8F37"/>
<path d="M49.978 99.4455C48.9011 99.4455 47.7609 98.4858 47.7609 96.631C50.2318 90.1698 57.0099 76.8638 59.0999 76.8638C59.7331 76.8638 59.8603 78.0792 59.8603 79.1028C59.8603 85.3716 53.9691 99.5733 49.978 99.4455ZM60.494 72.0662C57.2632 72.0662 54.2852 77.6316 52.955 80.1903C51.2444 83.2611 49.5343 87.4188 48.0141 91.1295C50.9278 83.1971 53.7787 76.2884 53.7787 75.3921C53.7787 73.0253 49.281 72.1301 47.8875 72.1301C46.494 72.1301 46.1769 72.6416 46.1769 74.0489C46.1769 77.1196 37.1816 102.069 37.1816 112.559C37.1816 116.142 41.1727 118.637 41.4893 117.102C42.0592 114.478 43.7065 107.825 46.2407 100.66C47.5709 102.516 49.5976 103.027 52.8284 103.027C62.1402 103.027 66.6384 87.5467 66.6384 80.3822C66.6384 74.6883 63.978 72.0662 60.494 72.0662Z" fill="#1E8F37"/>
<path d="M130.582 97.9098C129.948 97.9098 129.822 96.6944 129.822 95.6708C129.822 89.4014 135.713 75.2003 139.704 75.3281C140.718 75.3281 141.858 77.119 141.985 78.8465C138.563 85.1153 132.546 97.9098 130.582 97.9098ZM80.9856 89.3205C80.9692 89.369 80.9524 89.4169 80.9361 89.4654C80.9361 89.4654 80.2712 91.5414 79.2893 93.4958C79.2673 93.5416 79.2454 93.5881 79.2229 93.6334C77.8437 96.5056 76.225 98.6131 74.7911 98.6131C69.9136 98.6131 77.4515 76.6714 81.823 76.6714C83.8957 76.6714 82.9163 83.6524 80.9856 89.3205ZM193.543 79.2776C193.327 78.9486 192.796 78.4793 192.359 78.9331C192.203 84.8704 186.905 93.1755 181.414 97.3255L181.397 97.3395C181.39 97.3436 181.384 97.3477 181.379 97.3524C179.095 99.0143 177.056 99.7424 175.246 99.1329C173.483 98.5394 173.416 95.7167 173.533 94.081C174.35 87.1026 178.547 76.8395 179.917 75.456C180.171 75.2003 180.424 75.3281 180.424 74.9445C180.424 74.0488 177.953 72.1295 174.469 72.1295C172.823 72.1295 170.162 77.9508 168.452 84.0922C165.791 89.0178 161.61 97.9098 159.836 97.9098C159.582 97.9098 159.076 97.8458 159.076 96.2463C159.076 89.4654 164.017 76.9911 165.537 75.456C165.855 75.2003 166.044 75.3281 166.044 74.9445C166.044 74.0488 163.574 72.1295 160.089 72.1295C158.479 72.1295 155.967 77.6801 154.233 83.6364C151.626 88.448 147.248 97.9098 145.405 97.9098C145.151 97.9098 144.645 97.9098 144.645 96.2463C144.645 89.4659 149.586 79.1662 151.106 77.6311C151.36 77.3108 151.614 77.5032 151.614 77.119C151.614 76.1599 149.143 74.3046 145.659 74.3046C145.151 74.3046 144.582 74.7527 143.948 75.5839C142.618 73.1531 140.591 71.7454 136.853 71.7454C128.031 71.7454 123.533 85.6356 123.084 93.1905C121.494 96.138 120.009 98.4636 119.128 98.4636C118.88 98.4636 118.382 98.3981 118.382 96.765C118.382 89.8382 123.231 77.0958 124.723 75.5277C125.034 75.2663 125.22 75.3967 125.22 75.0048C125.22 74.0901 122.796 72.1295 119.377 72.1295C117.622 72.1295 114.775 79.1229 113.095 85.9115L109.428 85.8336C110.715 80.8276 111.997 76.5172 111.997 75.6154C111.997 73.2341 108.386 72.3332 107.267 72.3332C106.148 72.3332 105.894 72.8478 105.894 74.2638C105.894 75.8521 104.724 80.6729 103.588 85.7083L100.544 85.6433C100.892 83.7792 101.068 82.0533 101.068 80.6497C101.068 74.9558 98.4068 72.3332 94.9233 72.3332C92.0729 72.3332 89.4217 76.6621 87.9225 79.4395C87.3011 75.322 85.2223 71.7454 80.239 71.7454C72.8911 71.7454 67.126 83.5802 67.126 93.3679C67.126 99.5733 70.484 103.027 74.9178 103.027C79.2254 103.027 83.5331 98.2295 86.1307 92.4082C86.7475 90.9567 86.9538 90.3322 87.4609 88.3784C87.7264 87.2553 87.9445 85.9166 88.0573 84.4955C90.3026 80.4079 92.4927 77.1309 93.5287 77.1309C94.1624 77.1309 94.2896 78.3468 94.2896 79.3699C94.2896 85.0488 91.4612 97.0997 86.1925 99.5434C84.2715 100.285 82.9357 99.6625 82.9122 99.6615C82.7396 99.5387 82.6589 99.4908 82.5318 99.6187C82.3209 99.8327 82.5451 101.634 84.1806 102.732C85.5164 103.628 88.2713 103.262 88.7237 103.163L88.7186 103.156C93.9311 102.207 97.4585 96.2788 99.3663 90.3095L102.588 90.309C101.947 93.4267 101.469 96.2571 101.469 98.0103C101.469 101.615 105.436 103.867 106.301 102.773C106.36 102.698 106.427 102.59 106.5 102.455C106.93 99.9379 107.411 95.0015 107.43 94.9391C107.421 94.8267 107.462 94.673 107.465 94.5596C107.708 93.1889 108.009 91.7518 108.338 90.308L112.176 90.3075C111.895 92.0014 111.731 93.5695 111.731 94.87C111.731 100.686 114.342 103.365 117.761 103.365C119.685 103.365 121.7 101.191 123.55 98.1985C124.479 101.263 126.606 102.707 129.188 102.707C132.039 102.707 135.333 97.8458 137.93 92.5366C137.867 93.176 137.867 93.8155 137.867 94.3915C137.867 100.085 140.528 102.707 144.011 102.707C146.869 102.707 149.957 98.2656 152.331 93.3916C152.312 93.7381 152.298 94.0748 152.298 94.3915C152.298 100.085 154.959 102.707 158.443 102.707C160.955 102.707 163.621 99.2216 165.886 95.02C165.976 96.6191 166.405 99.1561 168.067 101.011C169.506 102.868 171.603 104.024 174.129 104.024C182.447 104.024 189.84 93.7159 193.405 84.6615C194.079 82.7098 194.429 80.6296 193.543 79.2776Z" fill="#1E8F37"/>
<path d="M6.50721 127.113C5.16936 127.113 5.10553 126.148 5.10553 125.633C5.10553 121.774 12.8778 110.065 22.6243 107.042C17.1452 118.686 10.4564 127.113 6.50721 127.113ZM43.1874 72.3085C44.0504 69.5193 44.7458 67.6929 44.8423 67.5954C45.6027 66.9555 41.802 63.4372 38.4446 63.4372C38.2542 63.4372 37.8743 64.205 37.3039 65.4843C37.0915 65.9134 36.1662 67.6929 34.9484 70.2655C29.6659 81.7641 22.0626 97.7181 20.2672 97.7181C19.5069 97.7181 19.3169 96.0551 19.3169 95.3512C19.3169 87.0352 28.3755 70.1464 28.3755 63.8136C28.3755 60.1674 26.095 57.0327 22.1678 57.0327C16.3394 57.0327 4.74758 63.4294 3.67014 72.3859C3.03696 78.0793 8.99143 82.3649 10.3849 81.1495C11.2724 80.3182 8.80097 80.7658 9.30802 76.3518C10.4483 66.4362 20.7737 60.2313 21.6607 61.2549C23.1809 63.0458 12.3488 85.1159 12.2222 94.9031C12.1589 99.4455 14.7559 102.58 18.4305 102.58C22.1039 102.58 25.5252 96.0551 30.8465 84.2202C29.1915 89.8048 27.1434 96.2067 24.9987 101.662C24.9078 101.889 24.8174 102.124 24.726 102.346C9.18241 106.335 0.646187 119.843 0.646187 125.955C0.646187 130.523 4.02248 132.002 5.93326 132.002C14.8162 132.002 26.5602 118.916 32.3646 104.565C32.4202 104.432 32.4764 104.295 32.5331 104.153C32.5423 104.129 32.5525 104.106 32.5617 104.083C33.7085 103.954 34.7911 103.89 35.8741 103.89C36.7657 103.89 36.2561 100.416 33.6442 101.317C34.2273 99.6801 34.7553 97.9795 35.2134 96.2691L35.1383 96.2917C35.8404 93.9285 36.373 91.9974 36.4869 91.6364C38.6336 84.8426 41.1081 77.8833 43.1874 72.3085Z" fill="#1E8F37"/>
<path d="M53.1802 115.95C53.2511 116.016 53.3323 116.093 53.4248 116.182C53.5167 116.27 53.606 116.354 53.6933 116.435C53.7807 116.517 53.8588 116.589 53.9267 116.653C53.9956 116.718 54.0416 116.762 54.0651 116.786C54.1876 116.9 54.2607 117.019 54.2847 117.143C54.3081 117.268 54.3081 117.381 54.2847 117.486C54.2607 117.591 54.2254 117.683 54.1784 117.762C54.131 117.84 54.0978 117.891 54.0794 117.916C54.0227 117.982 53.9482 118.039 53.8562 118.087C53.7643 118.134 53.6653 118.165 53.5591 118.18C53.4528 118.194 53.3441 118.184 53.2333 118.151C53.1225 118.118 53.0147 118.053 52.9111 117.959C52.8687 117.916 52.811 117.855 52.7374 117.78C52.6644 117.703 52.5878 117.622 52.5077 117.536C52.4275 117.451 52.3458 117.363 52.2636 117.275C52.1809 117.187 52.1063 117.107 52.0404 117.035L50.7659 115.735L49.4781 117.057C49.4071 117.133 49.3315 117.214 49.2514 117.301C49.1707 117.386 49.0946 117.468 49.0211 117.547C48.9481 117.626 48.8807 117.698 48.8194 117.762C48.7581 117.826 48.706 117.877 48.6636 117.916C48.6024 117.982 48.5258 118.041 48.4338 118.09C48.3414 118.141 48.2429 118.171 48.1367 118.183C48.0304 118.195 47.9207 118.184 47.8073 118.151C47.6939 118.118 47.5852 118.051 47.4815 117.951C47.4151 117.889 47.36 117.81 47.3151 117.715C47.2701 117.62 47.2431 117.519 47.2339 117.411C47.2242 117.304 47.2385 117.196 47.2762 117.086C47.314 116.976 47.3845 116.876 47.4887 116.786C47.5214 116.748 47.5739 116.694 47.6444 116.625C47.7149 116.556 47.792 116.482 47.8742 116.403C47.9569 116.325 48.0432 116.243 48.1331 116.16C48.2224 116.077 48.3052 116 48.3807 115.928L49.7043 114.662L48.3169 113.34C48.2413 113.269 48.1596 113.191 48.0728 113.108C47.9855 113.024 47.9028 112.946 47.8247 112.872C47.747 112.798 47.6536 112.711 47.5454 112.611C47.4463 112.516 47.3717 112.412 47.3222 112.3C47.2727 112.188 47.2456 112.077 47.241 111.967C47.2359 111.858 47.2538 111.753 47.2941 111.653C47.3339 111.553 47.3922 111.465 47.4672 111.389C47.5382 111.317 47.6219 111.257 47.719 111.21C47.8155 111.162 47.9207 111.137 48.0335 111.135C48.1469 111.132 48.2648 111.159 48.3879 111.213C48.5104 111.268 48.6355 111.367 48.7627 111.51C48.8097 111.567 48.8597 111.624 48.9118 111.682C48.9588 111.734 49.0104 111.792 49.067 111.857C49.1237 111.921 49.185 111.986 49.2514 112.053L50.7659 113.604L52.9111 111.374C52.9488 111.331 53.0081 111.286 53.0883 111.238C53.1684 111.191 53.2603 111.159 53.364 111.142C53.4677 111.126 53.579 111.132 53.6969 111.163C53.8149 111.194 53.9328 111.265 54.0508 111.374C54.1218 111.441 54.1795 111.52 54.2244 111.61C54.2688 111.701 54.2954 111.798 54.302 111.903C54.3092 112.008 54.2954 112.114 54.2596 112.221C54.2244 112.329 54.1616 112.43 54.0722 112.525C54.0345 112.568 53.9798 112.625 53.9093 112.696C53.8384 112.768 53.7592 112.845 53.6719 112.926C53.5846 113.007 53.4952 113.089 53.4033 113.172C53.3109 113.255 53.2271 113.331 53.1516 113.398L51.828 114.655L53.1802 115.95Z" fill="#1E8F37"/>
<path d="M57.208 114.655C57.208 114.918 57.254 115.164 57.3464 115.395C57.4383 115.627 57.5655 115.827 57.7283 115.999C57.8912 116.171 58.0832 116.306 58.3054 116.406C58.527 116.507 58.7654 116.557 59.0202 116.557C59.275 116.557 59.5125 116.507 59.7316 116.406C59.9511 116.306 60.1426 116.171 60.305 115.999C60.4679 115.827 60.5966 115.627 60.691 115.395C60.785 115.164 60.8325 114.918 60.8325 114.655C60.8325 114.398 60.785 114.153 60.691 113.922C60.5966 113.691 60.4679 113.49 60.305 113.319C60.1426 113.147 59.9511 113.011 59.7316 112.911C59.5125 112.811 59.275 112.761 59.0202 112.761C58.7654 112.761 58.527 112.811 58.3054 112.911C58.0832 113.011 57.8912 113.147 57.7283 113.319C57.5655 113.49 57.4383 113.691 57.3464 113.922C57.254 114.153 57.208 114.398 57.208 114.655ZM55.5234 114.655C55.5234 114.169 55.6154 113.713 55.7992 113.287C55.9835 112.86 56.2347 112.487 56.5534 112.168C56.872 111.849 57.2422 111.595 57.6645 111.41C58.0868 111.224 58.5387 111.131 59.0202 111.131C59.5018 111.131 59.9532 111.224 60.376 111.41C60.7983 111.595 61.1685 111.849 61.4871 112.168C61.8057 112.487 62.0575 112.86 62.2413 113.287C62.4251 113.713 62.5171 114.169 62.5171 114.655C62.5171 115.141 62.4251 115.599 62.2413 116.028C62.0575 116.457 61.8057 116.831 61.4871 117.151C61.1685 117.47 60.7983 117.722 60.376 117.908C59.9532 118.094 59.5018 118.187 59.0202 118.187C58.5387 118.187 58.0868 118.094 57.6645 117.908C57.2422 117.722 56.872 117.47 56.5534 117.151C56.2347 116.831 55.9835 116.457 55.7992 116.028C55.6154 115.599 55.5234 115.141 55.5234 114.655Z" fill="#1E8F37"/>
<path d="M66.0639 114.655C66.0639 114.918 66.1099 115.164 66.2023 115.395C66.2942 115.627 66.4214 115.827 66.5842 115.999C66.7471 116.171 66.9391 116.306 67.1613 116.406C67.3829 116.507 67.6213 116.557 67.8761 116.557C68.131 116.557 68.3684 116.507 68.5875 116.406C68.807 116.306 68.9985 116.171 69.1609 115.999C69.3238 115.827 69.4525 115.627 69.5469 115.395C69.6409 115.164 69.6884 114.918 69.6884 114.655C69.6884 114.398 69.6409 114.153 69.5469 113.922C69.4525 113.691 69.3238 113.49 69.1609 113.319C68.9985 113.147 68.807 113.011 68.5875 112.911C68.3684 112.811 68.131 112.761 67.8761 112.761C67.6213 112.761 67.3829 112.811 67.1613 112.911C66.9391 113.011 66.7471 113.147 66.5842 113.319C66.4214 113.49 66.2942 113.691 66.2023 113.922C66.1099 114.153 66.0639 114.398 66.0639 114.655ZM64.8323 114.655C64.8323 114.169 64.9089 113.713 65.0626 113.287C65.2157 112.86 65.4312 112.487 65.71 112.168C65.9883 111.849 66.3233 111.595 66.715 111.41C67.1066 111.224 67.5432 111.131 68.0247 111.131C68.5063 111.131 68.951 111.224 69.3595 111.41C69.7675 111.595 70.1204 111.849 70.4176 112.168C70.7148 112.487 70.9486 112.86 71.1181 113.287C71.2882 113.713 71.373 114.169 71.373 114.655C71.373 115.141 71.2882 115.599 71.1181 116.028C70.9486 116.457 70.7148 116.831 70.4176 117.15C70.1204 117.47 69.7675 117.722 69.3595 117.908C68.951 118.094 68.5063 118.187 68.0247 118.187C67.5999 118.187 67.1955 118.094 66.8105 117.908C66.4259 117.722 66.0874 117.47 65.7948 117.15C65.5022 116.831 65.2683 116.457 65.0942 116.028C64.9196 115.599 64.8323 115.141 64.8323 114.655ZM64.3793 111.589C64.3793 111.284 64.53 111.131 64.8323 111.131C65.0069 111.131 65.1591 111.195 65.2888 111.324C65.4185 111.452 65.5119 111.665 65.5686 111.96L65.8729 112.904L66.0496 113.004V119.587C66.0496 119.707 66.0271 119.818 65.9827 119.92C65.9373 120.023 65.8775 120.112 65.802 120.188C65.7264 120.265 65.638 120.324 65.5364 120.367C65.4353 120.41 65.3276 120.431 65.2142 120.431C64.9737 120.431 64.7746 120.352 64.6163 120.192C64.458 120.032 64.3793 119.831 64.3793 119.587V111.589Z" fill="#1E8F37"/>
<path d="M74.4878 114.655C74.4878 114.918 74.5338 115.164 74.6262 115.395C74.7181 115.627 74.8452 115.827 75.0081 115.999C75.171 116.171 75.363 116.306 75.5851 116.406C75.8068 116.507 76.0452 116.557 76.3 116.557C76.5548 116.557 76.7923 116.507 77.0113 116.406C77.2309 116.306 77.4224 116.171 77.5848 115.999C77.7477 115.827 77.8763 115.627 77.9708 115.395C78.0648 115.164 78.1122 114.918 78.1122 114.655C78.1122 114.398 78.0648 114.153 77.9708 113.922C77.8763 113.691 77.7477 113.49 77.5848 113.319C77.4224 113.147 77.2309 113.011 77.0113 112.911C76.7923 112.811 76.5548 112.761 76.3 112.761C76.0452 112.761 75.8068 112.811 75.5851 112.911C75.363 113.011 75.171 113.147 75.0081 113.319C74.8452 113.49 74.7181 113.691 74.6262 113.922C74.5338 114.153 74.4878 114.398 74.4878 114.655ZM72.8032 114.655C72.8032 114.169 72.8952 113.713 73.079 113.287C73.2633 112.86 73.5145 112.487 73.8332 112.168C74.1518 111.849 74.522 111.595 74.9443 111.41C75.3666 111.224 75.8185 111.131 76.3 111.131C76.7815 111.131 77.2329 111.224 77.6557 111.41C78.078 111.595 78.4482 111.849 78.7669 112.168C79.0855 112.487 79.3372 112.86 79.5211 113.287C79.7049 113.713 79.7968 114.169 79.7968 114.655C79.7968 115.141 79.7049 115.599 79.5211 116.028C79.3372 116.457 79.0855 116.831 78.7669 117.151C78.4482 117.47 78.078 117.722 77.6557 117.908C77.2329 118.094 76.7815 118.187 76.3 118.187C75.8185 118.187 75.3666 118.094 74.9443 117.908C74.522 117.722 74.1518 117.47 73.8332 117.151C73.5145 116.831 73.2633 116.457 73.079 116.028C72.8952 115.599 72.8032 115.141 72.8032 114.655Z" fill="#1E8F37"/>
<path d="M89.4452 118.115H82.4582C82.4067 118.115 82.3556 118.109 82.3061 118.098C82.2565 118.085 82.2106 118.07 82.1682 118.051C82.0359 117.998 81.9251 117.913 81.8358 117.794C81.7459 117.675 81.6913 117.539 81.6729 117.386C81.6678 117.367 81.6652 117.339 81.6652 117.301V112.053C81.6652 111.939 81.6867 111.83 81.7291 111.728C81.772 111.625 81.8297 111.536 81.9027 111.46C81.9757 111.383 82.063 111.323 82.1646 111.278C82.2662 111.232 82.376 111.21 82.494 111.21C82.6068 111.21 82.7146 111.232 82.8157 111.278C82.9173 111.323 83.0056 111.383 83.0812 111.46C83.1568 111.536 83.217 111.625 83.262 111.728C83.3064 111.83 83.3289 111.939 83.3289 112.053V116.429L85.1978 116.435V112.053C85.1978 111.939 85.2192 111.83 85.2616 111.728C85.304 111.625 85.3617 111.536 85.4352 111.46C85.5082 111.383 85.5956 111.323 85.6972 111.278C85.7983 111.232 85.9081 111.21 86.0265 111.21C86.1394 111.21 86.2466 111.232 86.3482 111.278C86.4498 111.323 86.5382 111.383 86.6138 111.46C86.6893 111.536 86.7496 111.625 86.794 111.728C86.8389 111.83 86.8614 111.939 86.8614 112.053V116.435H88.617V112.053C88.617 111.939 88.6384 111.83 88.6808 111.728C88.7232 111.625 88.7814 111.536 88.8544 111.46C88.9274 111.383 89.0147 111.324 89.1164 111.281C89.218 111.238 89.3273 111.217 89.4452 111.217C89.5586 111.217 89.6658 111.238 89.7674 111.281C89.869 111.324 89.9574 111.383 90.0329 111.46C90.1085 111.536 90.1683 111.625 90.2132 111.728C90.2581 111.83 90.2806 111.939 90.2806 112.053V117.279C90.2806 117.398 90.2597 117.509 90.2173 117.611C90.1744 117.714 90.1152 117.802 90.0401 117.875C89.9645 117.95 89.8762 118.008 89.7746 118.051C89.6729 118.094 89.5632 118.115 89.4452 118.115Z" fill="#1E8F37"/>
<path d="M99.1365 117.693C99.1365 117.846 99.0961 117.968 99.0165 118.058C98.9358 118.149 98.8132 118.194 98.6478 118.194C98.4737 118.194 98.3261 118.144 98.2056 118.044C98.0851 117.944 97.9993 117.765 97.9472 117.508L97.6429 116.414L97.4662 116.321V114.677C97.4662 114.558 97.4881 114.448 97.5331 114.348C97.578 114.248 97.6383 114.16 97.7138 114.083C97.7889 114.008 97.8778 113.948 97.9789 113.905C98.0805 113.862 98.1882 113.84 98.3011 113.84C98.419 113.84 98.5288 113.862 98.6304 113.905C98.732 113.948 98.8204 114.008 98.896 114.083C98.9715 114.16 99.0302 114.248 99.0726 114.348C99.115 114.448 99.1365 114.558 99.1365 114.677V117.693ZM99.1365 114.884C99.1365 115.003 99.115 115.114 99.0726 115.217C99.0302 115.319 98.9715 115.409 98.896 115.485C98.8204 115.561 98.732 115.62 98.6304 115.663C98.5288 115.706 98.419 115.728 98.3011 115.728C98.1882 115.728 98.0805 115.706 97.9789 115.663C97.8778 115.62 97.7889 115.561 97.7138 115.485C97.6383 115.409 97.578 115.319 97.5331 115.217C97.4881 115.114 97.4662 115.003 97.4662 114.884V113.011L97.6429 112.911L97.9472 111.968C98.0039 111.667 98.0968 111.454 98.227 111.328C98.3567 111.201 98.5089 111.138 98.6835 111.138C98.9853 111.138 99.1365 111.291 99.1365 111.596V114.884ZM97.4519 114.662C97.4519 114.405 97.4044 114.161 97.3099 113.93C97.2155 113.699 97.0873 113.497 96.9244 113.326C96.7615 113.154 96.5705 113.019 96.351 112.918C96.1314 112.818 95.8945 112.768 95.6397 112.768C95.3848 112.768 95.1464 112.818 94.9243 112.918C94.7026 113.019 94.5101 113.154 94.3478 113.326C94.1849 113.497 94.0572 113.699 93.9653 113.93C93.8734 114.161 93.8274 114.405 93.8274 114.662C93.8274 114.925 93.8734 115.171 93.9653 115.403C94.0572 115.634 94.1849 115.835 94.3478 116.007C94.5101 116.178 94.7026 116.314 94.9243 116.414C95.1464 116.514 95.3848 116.564 95.6397 116.564C95.8945 116.564 96.1314 116.514 96.351 116.414C96.5705 116.314 96.7615 116.178 96.9244 116.007C97.0873 115.835 97.2155 115.634 97.3099 115.403C97.4044 115.171 97.4519 114.925 97.4519 114.662ZM98.7116 114.662C98.7116 115.149 98.6422 115.606 98.5028 116.035C98.3639 116.464 98.1622 116.838 97.8977 117.158C97.6332 117.477 97.3115 117.729 96.9316 117.916C96.5516 118.101 96.1207 118.194 95.6397 118.194C95.1581 118.194 94.7062 118.101 94.2839 117.916C93.8611 117.729 93.4909 117.477 93.1723 117.158C92.8536 116.838 92.6029 116.464 92.4186 116.035C92.2342 115.606 92.1423 115.149 92.1423 114.662C92.1423 114.177 92.2342 113.72 92.4186 113.294C92.6029 112.867 92.8536 112.494 93.1723 112.175C93.4909 111.856 93.8611 111.603 94.2839 111.417C94.7062 111.231 95.1581 111.138 95.6397 111.138C96.1207 111.138 96.5516 111.231 96.9316 111.417C97.3115 111.603 97.6332 111.856 97.8977 112.175C98.1622 112.494 98.3639 112.867 98.5028 113.294C98.6422 113.72 98.7116 114.177 98.7116 114.662Z" fill="#1E8F37"/>
<path d="M102.917 113.883C102.917 114.06 102.949 114.219 103.016 114.362C103.082 114.505 103.173 114.626 103.288 114.727C103.404 114.827 103.539 114.904 103.692 114.959C103.845 115.014 104.009 115.041 104.184 115.041L104.899 115.049V112.625L104.184 112.632C104.009 112.632 103.845 112.666 103.692 112.732C103.539 112.799 103.404 112.888 103.288 113C103.173 113.112 103.082 113.243 103.016 113.394C102.949 113.544 102.917 113.707 102.917 113.883ZM103.943 116.099L102.797 117.858C102.655 118.039 102.478 118.145 102.266 118.176C102.053 118.207 101.85 118.153 101.656 118.015C101.477 117.863 101.375 117.678 101.349 117.461C101.322 117.245 101.378 117.045 101.515 116.864L102.612 115.184L103.943 116.099ZM101.289 113.862C101.289 113.49 101.362 113.146 101.508 112.829C101.654 112.512 101.852 112.237 102.099 112.003C102.347 111.77 102.636 111.586 102.966 111.452C103.297 111.319 103.643 111.252 104.007 111.252H106.039C106.166 111.252 106.265 111.276 106.336 111.324C106.406 111.372 106.457 111.431 106.488 111.503C106.519 111.574 106.538 111.652 106.545 111.735C106.552 111.819 106.555 111.896 106.555 111.967V117.4C106.555 117.486 106.539 117.575 106.506 117.669C106.473 117.761 106.422 117.846 106.353 117.922C106.285 117.998 106.202 118.062 106.103 118.112C106.003 118.162 105.888 118.187 105.755 118.187C105.618 118.187 105.497 118.162 105.391 118.112C105.284 118.062 105.196 117.998 105.125 117.922C105.055 117.846 105.001 117.761 104.962 117.669C104.925 117.575 104.906 117.486 104.906 117.4V116.386H104.007C103.643 116.386 103.297 116.322 102.966 116.195C102.636 116.07 102.347 115.894 102.099 115.67C101.852 115.446 101.654 115.181 101.508 114.873C101.362 114.566 101.289 114.229 101.289 113.862Z" fill="#1E8F37"/>
<path d="M116.494 113.769C116.635 113.997 116.792 114.251 116.965 114.53C117.137 114.809 117.313 115.091 117.492 115.377C117.671 115.663 117.847 115.946 118.019 116.224C118.192 116.503 118.348 116.757 118.49 116.985C118.57 117.124 118.604 117.265 118.593 117.411C118.581 117.556 118.539 117.684 118.469 117.794C118.393 117.922 118.279 118.027 118.125 118.108C117.972 118.189 117.801 118.217 117.612 118.194C117.49 118.18 117.38 118.138 117.283 118.069C117.186 118 117.093 117.889 117.003 117.736L115.219 114.82L116.494 113.769ZM117.987 111.224C118.148 111.233 118.282 111.279 118.391 111.36C118.5 111.441 118.58 111.54 118.632 111.656C118.683 111.773 118.708 111.898 118.706 112.032C118.704 112.165 118.675 112.288 118.621 112.4C118.567 112.512 118.486 112.606 118.38 112.682C118.274 112.759 118.143 112.794 117.987 112.79C117.94 112.785 117.908 112.782 117.892 112.782H117.817C117.61 112.782 117.434 112.831 117.29 112.929C117.146 113.027 117.022 113.166 116.919 113.347C116.791 113.566 116.667 113.782 116.547 113.994C116.426 114.206 116.305 114.408 116.182 114.602C116.059 114.794 115.931 114.974 115.796 115.141C115.662 115.308 115.517 115.453 115.361 115.577C115.196 115.706 115.018 115.807 114.827 115.881C114.636 115.955 114.424 115.992 114.193 115.992C114.141 115.992 114.091 115.991 114.044 115.989C113.997 115.986 113.948 115.983 113.896 115.977L113.875 114.348H114.179C114.33 114.348 114.465 114.32 114.583 114.265C114.701 114.211 114.807 114.136 114.901 114.04C115.043 113.902 115.168 113.732 115.276 113.529C115.385 113.327 115.495 113.115 115.605 112.897C115.716 112.678 115.837 112.461 115.966 112.246C116.096 112.032 116.251 111.846 116.43 111.689C116.581 111.55 116.753 111.438 116.947 111.352C117.14 111.266 117.372 111.224 117.641 111.224H117.987ZM114.285 113.054V117.257C114.285 117.391 114.263 117.515 114.218 117.629C114.173 117.743 114.112 117.842 114.034 117.926C113.956 118.01 113.865 118.075 113.761 118.122C113.657 118.17 113.544 118.194 113.421 118.194C113.167 118.194 112.969 118.105 112.831 117.929C112.691 117.753 112.622 117.532 112.622 117.264V112.732L114.285 113.054ZM112.622 113.383V112.053C112.622 111.939 112.643 111.83 112.686 111.728C112.728 111.625 112.786 111.536 112.859 111.46C112.932 111.383 113.019 111.323 113.121 111.278C113.222 111.232 113.332 111.21 113.45 111.21C113.563 111.21 113.671 111.232 113.772 111.278C113.873 111.323 113.962 111.383 114.037 111.46C114.113 111.536 114.173 111.625 114.218 111.728C114.263 111.83 114.285 111.939 114.285 112.053V113.383H112.622Z" fill="#1E8F37"/>
<path d="M121.753 114.655C121.753 114.918 121.799 115.164 121.892 115.395C121.984 115.627 122.111 115.827 122.274 115.999C122.437 116.171 122.629 116.306 122.851 116.406C123.072 116.507 123.311 116.557 123.566 116.557C123.82 116.557 124.058 116.507 124.277 116.406C124.496 116.306 124.688 116.171 124.85 115.999C125.013 115.827 125.142 115.627 125.236 115.395C125.33 115.164 125.378 114.918 125.378 114.655C125.378 114.398 125.33 114.153 125.236 113.922C125.142 113.691 125.013 113.49 124.85 113.319C124.688 113.147 124.496 113.011 124.277 112.911C124.058 112.811 123.82 112.761 123.566 112.761C123.311 112.761 123.072 112.811 122.851 112.911C122.629 113.011 122.437 113.147 122.274 113.319C122.111 113.49 121.984 113.691 121.892 113.922C121.799 114.153 121.753 114.398 121.753 114.655ZM120.069 114.655C120.069 114.169 120.161 113.713 120.344 113.287C120.529 112.86 120.78 112.487 121.099 112.168C121.417 111.849 121.788 111.595 122.21 111.41C122.632 111.224 123.084 111.131 123.566 111.131C124.047 111.131 124.498 111.224 124.921 111.41C125.344 111.595 125.714 111.849 126.032 112.168C126.351 112.487 126.603 112.86 126.787 113.287C126.97 113.713 127.062 114.169 127.062 114.655C127.062 115.141 126.97 115.599 126.787 116.028C126.603 116.457 126.351 116.831 126.032 117.151C125.714 117.47 125.344 117.722 124.921 117.908C124.498 118.094 124.047 118.187 123.566 118.187C123.084 118.187 122.632 118.094 122.21 117.908C121.788 117.722 121.417 117.47 121.099 117.151C120.78 116.831 120.529 116.457 120.344 116.028C120.161 115.599 120.069 115.141 120.069 114.655Z" fill="#1E8F37"/>
<path d="M130.567 113.654V114.741C130.567 115.065 130.568 115.371 130.57 115.66C130.572 115.947 130.574 116.231 130.574 116.51V117.4C130.574 117.486 130.555 117.575 130.517 117.668C130.48 117.761 130.425 117.846 130.354 117.922C130.283 117.998 130.199 118.062 130.1 118.112C130.001 118.161 129.889 118.186 129.767 118.186C129.634 118.186 129.515 118.161 129.409 118.112C129.303 118.062 129.214 117.998 129.141 117.922C129.067 117.846 129.012 117.761 128.974 117.668C128.936 117.575 128.917 117.484 128.917 117.393V113.3C128.917 112.835 128.915 112.389 128.91 111.96C128.91 111.86 128.903 111.766 128.889 111.678C128.875 111.59 128.875 111.513 128.889 111.449C128.903 111.384 128.942 111.334 129.006 111.299C129.07 111.263 129.179 111.245 129.335 111.245C129.576 111.245 129.787 111.256 129.969 111.278C130.15 111.299 130.289 111.36 130.383 111.46L132.379 113.854C132.667 113.492 132.912 113.183 133.115 112.929C133.318 112.674 133.488 112.461 133.625 112.289C133.762 112.118 133.872 111.981 133.954 111.881C134.037 111.781 134.1 111.704 134.145 111.649C134.19 111.594 134.222 111.556 134.241 111.535C134.26 111.513 134.276 111.495 134.29 111.481C134.352 111.409 134.438 111.352 134.549 111.309C134.66 111.266 134.823 111.245 135.04 111.245C135.22 111.245 135.362 111.284 135.465 111.363C135.569 111.442 135.648 111.543 135.703 111.667C135.757 111.791 135.791 111.927 135.805 112.078C135.82 112.228 135.826 112.372 135.826 112.51V117.407C135.826 117.493 135.806 117.582 135.767 117.675C135.726 117.768 135.67 117.853 135.597 117.929C135.524 118.005 135.435 118.068 135.331 118.115C135.227 118.162 135.111 118.186 134.984 118.186C134.743 118.186 134.547 118.113 134.397 117.965C134.245 117.817 134.17 117.632 134.17 117.407V113.625L132.903 115.319C132.822 115.42 132.741 115.505 132.659 115.577C132.576 115.648 132.487 115.684 132.393 115.684C132.285 115.684 132.195 115.652 132.124 115.588C132.053 115.524 131.971 115.434 131.876 115.319L130.567 113.654Z" fill="#1E8F37"/>
<path d="M143.118 111.96C143.118 111.845 143.139 111.737 143.181 111.634C143.224 111.532 143.282 111.443 143.355 111.367C143.428 111.29 143.515 111.231 143.617 111.188C143.718 111.145 143.828 111.123 143.946 111.123C144.059 111.123 144.166 111.145 144.268 111.188C144.37 111.231 144.458 111.29 144.533 111.367C144.609 111.443 144.669 111.532 144.714 111.634C144.759 111.737 144.781 111.845 144.781 111.96V117.343C144.781 117.462 144.759 117.573 144.714 117.675C144.669 117.778 144.609 117.867 144.533 117.944C144.458 118.02 144.37 118.079 144.268 118.122C144.166 118.165 144.059 118.186 143.946 118.186C143.828 118.186 143.718 118.165 143.617 118.122C143.515 118.079 143.428 118.02 143.355 117.944C143.282 117.867 143.224 117.778 143.181 117.675C143.139 117.573 143.118 117.462 143.118 117.343V111.96ZM138.814 112.803C138.7 112.803 138.593 112.782 138.491 112.739C138.39 112.696 138.301 112.638 138.226 112.564C138.15 112.49 138.09 112.402 138.046 112.3C138.001 112.197 137.979 112.086 137.979 111.967C137.979 111.853 138.001 111.744 138.046 111.642C138.09 111.54 138.15 111.45 138.226 111.374C138.301 111.298 138.39 111.237 138.491 111.191C138.593 111.146 138.7 111.123 138.814 111.123H143.946C144.064 111.123 144.174 111.146 144.275 111.191C144.376 111.237 144.465 111.298 144.541 111.374C144.616 111.45 144.675 111.54 144.717 111.642C144.76 111.744 144.781 111.853 144.781 111.967C144.781 112.086 144.76 112.197 144.717 112.3C144.675 112.402 144.616 112.49 144.541 112.564C144.465 112.638 144.376 112.696 144.275 112.739C144.174 112.782 144.064 112.803 143.946 112.803H138.814ZM137.979 111.96C137.979 111.845 138 111.737 138.042 111.634C138.084 111.532 138.144 111.443 138.219 111.367C138.294 111.29 138.383 111.231 138.485 111.188C138.586 111.145 138.696 111.123 138.814 111.123C138.927 111.123 139.034 111.145 139.136 111.188C139.237 111.231 139.326 111.29 139.401 111.367C139.477 111.443 139.537 111.532 139.581 111.634C139.626 111.737 139.649 111.845 139.649 111.96V117.343C139.649 117.462 139.626 117.573 139.581 117.675C139.537 117.778 139.477 117.867 139.401 117.944C139.326 118.02 139.237 118.079 139.136 118.122C139.034 118.165 138.927 118.186 138.814 118.186C138.696 118.186 138.586 118.165 138.485 118.122C138.383 118.079 138.294 118.02 138.219 117.944C138.144 117.867 138.084 117.778 138.042 117.675C138 117.573 137.979 117.462 137.979 117.343V111.96ZM137.979 111.96C137.979 111.845 138 111.737 138.042 111.634C138.084 111.532 138.144 111.443 138.219 111.367C138.294 111.29 138.383 111.231 138.485 111.188C138.586 111.145 138.696 111.123 138.814 111.123C138.927 111.123 139.034 111.145 139.136 111.188C139.237 111.231 139.326 111.29 139.401 111.367C139.477 111.443 139.537 111.532 139.581 111.634C139.626 111.737 139.649 111.845 139.649 111.96V117.343C139.649 117.462 139.626 117.573 139.581 117.675C139.537 117.778 139.477 117.867 139.401 117.944C139.326 118.02 139.237 118.079 139.136 118.122C139.034 118.165 138.927 118.186 138.814 118.186C138.696 118.186 138.586 118.165 138.485 118.122C138.383 118.079 138.294 118.02 138.219 117.944C138.144 117.867 138.084 117.778 138.042 117.675C138 117.573 137.979 117.462 137.979 117.343V111.96Z" fill="#1E8F37"/>
<path d="M153.588 117.693C153.588 117.846 153.547 117.968 153.468 118.058C153.387 118.149 153.264 118.194 153.099 118.194C152.925 118.194 152.777 118.144 152.657 118.044C152.536 117.944 152.45 117.765 152.398 117.508L152.094 116.414L151.917 116.321V114.677C151.917 114.558 151.939 114.448 151.984 114.348C152.029 114.248 152.089 114.16 152.165 114.083C152.24 114.008 152.329 113.948 152.43 113.905C152.532 113.862 152.639 113.84 152.752 113.84C152.87 113.84 152.98 113.862 153.082 113.905C153.183 113.948 153.272 114.008 153.347 114.083C153.423 114.16 153.481 114.248 153.524 114.348C153.566 114.448 153.588 114.558 153.588 114.677V117.693ZM153.588 114.884C153.588 115.003 153.566 115.114 153.524 115.217C153.481 115.319 153.423 115.409 153.347 115.485C153.272 115.561 153.183 115.62 153.082 115.663C152.98 115.706 152.87 115.728 152.752 115.728C152.639 115.728 152.532 115.706 152.43 115.663C152.329 115.62 152.24 115.561 152.165 115.485C152.089 115.409 152.029 115.319 151.984 115.217C151.939 115.114 151.917 115.003 151.917 114.884V113.011L152.094 112.911L152.398 111.968C152.455 111.667 152.548 111.454 152.678 111.328C152.808 111.201 152.96 111.138 153.135 111.138C153.436 111.138 153.588 111.291 153.588 111.596V114.884ZM151.903 114.662C151.903 114.405 151.856 114.161 151.761 113.93C151.667 113.699 151.538 113.497 151.376 113.326C151.213 113.154 151.022 113.019 150.802 112.918C150.583 112.818 150.346 112.768 150.091 112.768C149.836 112.768 149.598 112.818 149.375 112.918C149.154 113.019 148.961 113.154 148.799 113.326C148.636 113.497 148.508 113.699 148.416 113.93C148.325 114.161 148.279 114.405 148.279 114.662C148.279 114.925 148.325 115.171 148.416 115.403C148.508 115.634 148.636 115.835 148.799 116.007C148.961 116.178 149.154 116.314 149.375 116.414C149.598 116.514 149.836 116.564 150.091 116.564C150.346 116.564 150.583 116.514 150.802 116.414C151.022 116.314 151.213 116.178 151.376 116.007C151.538 115.835 151.667 115.634 151.761 115.403C151.856 115.171 151.903 114.925 151.903 114.662ZM153.163 114.662C153.163 115.149 153.093 115.606 152.954 116.035C152.815 116.464 152.613 116.838 152.349 117.158C152.084 117.477 151.763 117.729 151.383 117.916C151.003 118.101 150.572 118.194 150.091 118.194C149.609 118.194 149.157 118.101 148.735 117.916C148.312 117.729 147.942 117.477 147.623 117.158C147.305 116.838 147.054 116.464 146.87 116.035C146.685 115.606 146.594 115.149 146.594 114.662C146.594 114.177 146.685 113.72 146.87 113.294C147.054 112.867 147.305 112.494 147.623 112.175C147.942 111.856 148.312 111.603 148.735 111.417C149.157 111.231 149.609 111.138 150.091 111.138C150.572 111.138 151.003 111.231 151.383 111.417C151.763 111.603 152.084 111.856 152.349 112.175C152.613 112.494 152.815 112.867 152.954 113.294C153.093 113.72 153.163 114.177 153.163 114.662Z" fill="#1E8F37"/>
<path d="M160.1 112.675V111.989C160.1 111.874 160.122 111.766 160.164 111.663C160.206 111.561 160.264 111.472 160.338 111.396C160.411 111.319 160.498 111.259 160.6 111.213C160.701 111.168 160.81 111.145 160.928 111.145C161.042 111.145 161.149 111.168 161.251 111.213C161.352 111.259 161.441 111.319 161.516 111.396C161.591 111.472 161.652 111.561 161.696 111.663C161.741 111.766 161.764 111.874 161.764 111.989V112.675H160.1ZM161.764 112.189V117.4C161.764 117.62 161.693 117.805 161.551 117.958C161.41 118.111 161.209 118.186 160.95 118.186C160.827 118.186 160.714 118.166 160.61 118.126C160.506 118.085 160.416 118.03 160.341 117.958C160.266 117.886 160.206 117.803 160.164 117.708C160.122 117.612 160.1 117.51 160.1 117.4V115.592H157.382V117.4C157.382 117.505 157.364 117.605 157.329 117.701C157.293 117.796 157.242 117.88 157.173 117.95C157.105 118.022 157.02 118.079 156.918 118.122C156.817 118.165 156.7 118.186 156.568 118.186C156.289 118.186 156.078 118.111 155.934 117.958C155.79 117.805 155.718 117.62 155.718 117.4V112.289L157.382 112.182V113.912H160.1V112.146L161.764 112.189ZM155.718 112.675V111.989C155.718 111.874 155.739 111.766 155.782 111.663C155.825 111.561 155.882 111.472 155.955 111.396C156.028 111.319 156.116 111.26 156.217 111.217C156.319 111.174 156.429 111.152 156.547 111.152C156.66 111.152 156.767 111.174 156.868 111.217C156.97 111.26 157.058 111.319 157.134 111.396C157.209 111.472 157.27 111.561 157.315 111.663C157.36 111.766 157.382 111.874 157.382 111.989V112.675H155.718Z" fill="#1E8F37"/>
<path d="M165.671 112.217V115.52L168.786 111.789C168.875 111.684 168.953 111.595 169.019 111.524C169.086 111.452 169.155 111.395 169.228 111.352C169.301 111.309 169.385 111.279 169.479 111.26C169.574 111.24 169.694 111.231 169.84 111.231C170.039 111.231 170.182 111.288 170.269 111.402C170.356 111.517 170.4 111.684 170.4 111.903V117.543C170.4 117.629 170.38 117.714 170.34 117.797C170.299 117.88 170.244 117.954 170.173 118.018C170.102 118.083 170.019 118.135 169.922 118.176C169.825 118.216 169.718 118.236 169.6 118.236C169.477 118.236 169.366 118.217 169.267 118.18C169.168 118.141 169.086 118.09 169.019 118.026C168.953 117.962 168.902 117.887 168.867 117.804C168.832 117.721 168.814 117.634 168.814 117.543C168.814 116.947 168.813 116.329 168.811 115.688C168.808 115.047 168.807 114.429 168.807 113.833L165.706 117.551C165.654 117.617 165.597 117.689 165.533 117.768C165.469 117.847 165.399 117.92 165.32 117.986C165.243 118.053 165.156 118.111 165.063 118.158C164.968 118.206 164.864 118.229 164.751 118.229C164.609 118.229 164.49 118.208 164.394 118.165C164.297 118.122 164.218 118.068 164.16 118.001C164.1 117.934 164.058 117.857 164.033 117.768C164.007 117.68 163.993 117.588 163.993 117.493V112.246L165.671 112.217ZM163.993 112.761V111.995C163.993 111.881 164.015 111.773 164.057 111.67C164.099 111.568 164.159 111.478 164.234 111.402C164.309 111.326 164.398 111.265 164.5 111.22C164.601 111.175 164.711 111.152 164.829 111.152C164.942 111.152 165.05 111.175 165.154 111.22C165.258 111.265 165.349 111.326 165.427 111.402C165.505 111.478 165.565 111.568 165.607 111.67C165.65 111.773 165.671 111.881 165.671 111.995V112.753L163.993 112.761Z" fill="#1E8F37"/>
<path d="M174.109 113.883C174.109 114.06 174.142 114.219 174.208 114.362C174.274 114.505 174.365 114.626 174.481 114.727C174.596 114.827 174.731 114.904 174.884 114.959C175.038 115.014 175.202 115.041 175.376 115.041L176.092 115.049V112.625L175.376 112.632C175.202 112.632 175.038 112.666 174.884 112.732C174.731 112.799 174.596 112.888 174.481 113C174.365 113.112 174.274 113.243 174.208 113.394C174.142 113.544 174.109 113.707 174.109 113.883ZM175.136 116.099L173.99 117.858C173.848 118.039 173.671 118.145 173.458 118.176C173.246 118.207 173.043 118.153 172.849 118.015C172.67 117.863 172.567 117.678 172.541 117.461C172.515 117.245 172.571 117.045 172.708 116.864L173.805 115.184L175.136 116.099ZM172.481 113.862C172.481 113.49 172.554 113.146 172.7 112.829C172.847 112.512 173.044 112.237 173.292 112.003C173.539 111.77 173.828 111.586 174.159 111.452C174.489 111.319 174.836 111.252 175.2 111.252H177.231C177.358 111.252 177.458 111.276 177.529 111.324C177.599 111.372 177.65 111.431 177.681 111.503C177.711 111.574 177.73 111.652 177.737 111.735C177.745 111.819 177.748 111.896 177.748 111.967V117.4C177.748 117.486 177.731 117.575 177.699 117.669C177.665 117.761 177.615 117.846 177.546 117.922C177.478 117.998 177.394 118.062 177.295 118.112C177.196 118.162 177.08 118.187 176.948 118.187C176.811 118.187 176.69 118.162 176.583 118.112C176.477 118.062 176.389 117.998 176.318 117.922C176.247 117.846 176.193 117.761 176.155 117.669C176.118 117.575 176.099 117.486 176.099 117.4V116.386H175.2C174.836 116.386 174.489 116.322 174.159 116.195C173.828 116.07 173.539 115.894 173.292 115.67C173.044 115.446 172.847 115.181 172.7 114.873C172.554 114.566 172.481 114.229 172.481 113.862Z" fill="#1E8F37"/>
</g>
<defs>
<clipPath id="clip0_116_1775">
<rect width="195" height="132" fill="white"/>
</clipPath>
</defs>
</svg>
